<?xml version="1.0" encoding="UTF-8" ?>
<!DOCTYPE svg PUBLIC "-//W3C//DTD SVG 1.1//EN" "http://www.w3.org/Graphics/SVG/1.1/DTD/svg11.dtd">
<svg width="1202pt" height="640pt" viewBox="0 0 1202 640" version="1.1" xmlns="http://www.w3.org/2000/svg">
<path  d=" M 0.00 0.00 L 1202.00 0.00 L 1202.00 640.00 L 0.00 640.00 L 0.00 0.00 Z" />
<path fill="#afc0ab" d=" M 572.45 120.57 C 585.96 119.95 599.51 120.21 613.04 120.36 C 652.27 122.75 691.11 133.05 726.14 150.90 C 737.24 156.94 748.32 163.09 758.69 170.33 C 769.96 178.57 781.24 186.95 791.10 196.89 C 813.06 217.97 831.50 242.83 844.49 270.39 C 853.29 288.37 859.41 307.58 863.80 327.08 C 868.12 350.09 870.05 373.69 867.78 397.05 C 865.05 432.47 854.78 467.34 837.36 498.34 C 822.45 526.09 801.43 550.16 777.57 570.57 C 751.42 592.26 721.47 609.44 689.20 620.19 C 614.64 645.77 529.65 639.85 459.71 603.27 C 426.19 585.62 396.01 561.22 372.85 531.15 C 351.22 503.44 335.09 471.26 327.04 436.98 C 323.58 422.84 321.49 408.38 320.48 393.87 C 320.18 383.59 320.22 373.30 320.44 363.03 C 322.62 328.53 331.47 294.29 347.64 263.66 C 355.34 248.07 365.45 233.82 376.21 220.22 C 380.67 214.10 385.99 208.68 391.35 203.35 C 421.05 172.28 458.79 149.28 499.40 135.46 C 522.91 127.13 547.65 122.70 572.45 120.57 Z" />
<path fill="#154508" d=" M 568.33 127.98 C 576.52 127.04 584.78 127.38 593.00 127.26 C 601.33 127.34 609.67 127.09 617.99 127.70 C 659.92 131.18 701.34 143.70 737.46 165.44 C 744.59 169.61 751.68 173.90 758.30 178.86 C 768.13 186.20 777.97 193.65 786.51 202.49 C 800.27 215.79 812.69 230.53 823.11 246.59 C 830.17 258.00 836.70 269.74 842.05 282.06 C 848.21 296.46 852.96 311.45 856.51 326.70 C 863.25 358.88 863.37 392.40 856.88 424.63 C 850.35 459.38 835.19 492.20 814.67 520.87 C 806.33 532.01 797.10 542.44 787.03 552.03 C 777.41 562.14 766.29 570.60 755.05 578.80 C 712.19 609.14 660.33 626.07 607.98 628.55 C 591.76 628.78 575.50 628.79 559.38 626.75 C 521.24 622.11 484.01 609.73 450.91 590.18 C 428.91 576.93 408.41 560.97 391.22 541.82 C 362.38 510.25 341.37 471.23 332.49 429.29 C 329.40 414.40 327.12 399.24 327.38 384.00 C 327.42 375.65 327.19 367.30 327.67 358.96 C 329.91 334.58 335.00 310.27 344.47 287.62 C 354.80 261.49 370.30 237.65 388.62 216.44 C 398.25 206.81 407.47 196.69 418.21 188.24 C 460.67 153.62 513.84 132.79 568.33 127.98 Z" />
<path fill="#afc0ab" d=" M 583.54 144.99 C 593.69 143.99 603.88 144.87 614.02 145.59 C 667.97 149.80 721.04 170.32 762.20 205.77 C 770.11 212.85 778.47 219.53 785.24 227.77 C 795.48 239.06 804.53 251.40 812.69 264.27 C 823.88 283.45 833.07 303.98 838.22 325.64 C 848.55 365.53 846.58 408.38 833.27 447.34 C 826.11 467.65 816.36 487.11 803.84 504.66 C 777.65 541.41 741.37 570.96 699.87 588.75 C 638.82 615.71 567.40 617.72 504.72 595.02 C 472.65 583.42 442.72 565.57 417.82 542.21 C 413.07 538.28 408.82 533.82 404.85 529.12 C 378.58 501.04 359.36 466.33 350.18 428.96 C 346.34 413.61 344.55 397.83 343.67 382.06 C 342.92 343.57 352.79 305.03 371.60 271.47 C 382.39 252.98 395.04 235.39 410.47 220.46 C 439.03 191.14 475.22 169.60 514.16 157.22 C 536.65 150.21 560.02 146.18 583.54 144.99 Z" />
<path fill="#ffffff" d=" M 579.39 152.33 C 589.43 151.39 599.56 151.39 609.61 152.33 C 629.20 153.43 648.59 157.08 667.42 162.52 C 689.55 169.48 711.19 178.58 730.65 191.31 C 745.81 200.73 759.43 212.39 772.39 224.61 C 794.77 247.18 812.79 274.19 824.07 303.96 C 838.90 342.61 841.99 385.79 832.06 426.04 C 827.37 446.60 818.79 466.08 808.45 484.39 C 791.17 513.68 767.33 538.98 739.55 558.53 C 699.06 586.54 650.27 602.69 600.97 603.42 C 527.12 605.91 452.24 574.27 404.25 517.75 C 364.35 472.09 344.04 409.12 352.72 348.82 C 356.11 324.05 364.41 300.10 376.07 278.04 C 386.91 258.96 399.70 240.81 415.54 225.53 C 458.32 181.56 518.35 155.76 579.39 152.33 Z" />
<path fill="#154508" d=" M 587.42 167.35 C 588.77 166.52 590.40 164.25 591.97 166.02 C 652.12 211.87 712.25 257.74 772.41 303.57 C 775.30 306.36 779.47 305.16 783.06 305.41 C 787.14 305.40 792.04 305.66 794.59 309.37 C 797.54 314.02 796.54 319.86 796.07 325.04 C 794.71 337.12 786.59 347.02 777.85 354.87 C 774.41 358.69 769.57 360.58 765.35 363.32 C 762.40 365.44 758.75 365.74 755.25 365.89 C 755.14 365.18 754.92 363.77 754.81 363.06 C 751.02 363.12 747.22 363.09 743.43 363.05 C 743.37 364.13 743.31 365.21 743.26 366.30 C 736.52 366.66 729.78 366.68 723.03 366.67 C 722.95 415.11 723.02 463.56 723.00 512.00 C 713.66 512.00 704.33 512.00 695.00 512.00 C 694.96 463.25 695.09 414.50 694.93 365.76 C 691.22 365.66 687.22 366.10 683.90 364.07 C 679.77 361.59 675.06 359.89 671.63 356.39 C 667.88 352.70 663.93 349.15 659.56 346.23 C 657.53 344.74 655.11 346.14 653.42 347.44 C 646.08 353.08 639.61 359.91 631.43 364.40 C 627.92 366.29 623.81 365.52 620.01 365.74 C 600.70 367.05 581.29 367.05 561.98 365.75 C 557.75 365.76 553.22 365.97 549.62 363.35 C 541.76 359.23 535.35 353.07 528.86 347.14 C 527.09 345.16 523.74 344.86 521.76 346.66 C 515.33 352.31 509.24 358.53 501.61 362.60 C 495.08 367.59 486.52 364.93 479.00 366.35 C 479.00 416.57 479.00 466.78 479.00 517.00 C 469.67 517.00 460.33 517.00 451.00 517.00 C 450.99 466.88 451.03 416.77 450.98 366.65 C 442.28 366.71 433.64 365.59 424.95 365.69 C 422.76 365.66 420.50 365.46 418.56 364.37 C 411.70 360.50 405.83 355.20 399.97 349.99 C 395.13 345.66 392.28 339.70 388.34 334.62 C 386.13 331.83 384.28 328.59 384.25 324.94 C 383.81 319.50 382.64 312.98 386.60 308.52 C 392.22 303.08 401.31 308.17 406.90 302.95 C 467.08 257.76 527.28 212.60 587.42 167.35 Z" />
<path fill="#154508" d=" M 588.26 378.43 C 588.32 377.60 588.76 377.17 589.58 377.13 C 586.50 383.57 588.43 391.35 591.68 397.42 C 593.13 400.93 595.25 404.94 593.65 408.75 C 592.68 411.70 590.57 414.04 588.74 416.46 C 591.42 416.58 594.11 416.62 596.81 416.64 C 596.74 428.74 596.78 440.84 596.57 452.94 C 598.31 452.75 600.07 452.58 601.83 452.40 C 601.80 440.78 602.13 429.18 602.24 417.56 C 606.60 418.79 611.31 419.52 615.15 422.05 C 615.70 430.62 614.55 439.20 614.86 447.78 C 616.36 446.94 617.90 446.16 619.30 445.16 C 619.88 438.17 619.35 431.11 619.70 424.10 C 624.67 427.08 628.46 431.49 631.94 436.03 C 636.26 440.45 640.38 446.37 638.95 452.90 C 638.24 459.62 633.28 465.62 626.74 467.41 C 624.64 467.93 622.43 469.55 622.70 471.98 C 622.59 482.64 622.75 493.31 622.66 503.98 C 620.27 505.19 617.24 504.22 614.61 504.51 C 614.64 496.07 614.53 487.63 614.69 479.20 C 610.35 482.37 605.67 485.20 600.46 486.64 C 595.80 488.22 590.84 487.79 586.01 487.82 C 578.98 487.87 572.46 484.68 566.59 481.10 C 566.49 488.61 566.49 496.13 566.60 503.65 C 563.93 503.67 561.26 503.67 558.59 503.69 C 558.51 493.90 558.74 484.10 558.51 474.32 C 557.12 470.97 554.46 467.66 550.62 467.14 C 541.32 464.46 536.77 453.00 540.21 444.31 C 541.90 440.87 544.10 437.47 547.42 435.39 C 549.27 434.23 550.23 432.19 551.63 430.60 C 554.11 427.51 557.51 425.41 560.65 423.09 C 561.93 431.30 560.16 439.61 560.63 447.89 C 561.95 448.50 563.27 449.11 564.60 449.72 C 564.95 440.21 564.77 430.70 564.86 421.19 C 569.26 419.57 573.70 418.01 578.36 417.35 C 577.24 429.20 577.83 441.13 577.70 453.01 C 579.60 453.52 581.57 453.66 583.52 453.90 C 583.82 441.51 583.73 429.12 583.91 416.73 C 585.17 416.68 586.44 416.60 587.71 416.50 C 589.67 413.87 591.06 410.84 592.25 407.80 C 593.12 405.79 591.58 403.92 590.92 402.13 C 587.36 394.84 586.01 386.31 588.26 378.43 Z" />
<path fill="#154508" d=" M 565.65 389.70 C 568.58 387.47 570.49 384.32 572.19 381.11 C 571.34 384.04 570.57 387.15 568.38 389.40 C 566.72 391.58 563.90 393.66 564.37 396.73 C 565.96 404.04 572.36 409.03 574.31 416.18 C 570.61 410.41 564.92 406.06 562.04 399.77 C 560.44 395.96 562.64 392.03 565.65 389.70 Z" />
<path fill="#154508" d=" M 605.55 381.41 C 607.91 384.43 610.63 387.18 614.00 389.08 C 617.00 390.80 618.93 394.32 618.06 397.80 C 616.32 404.69 611.60 410.33 609.36 417.04 C 609.94 409.62 614.84 403.39 615.52 395.97 C 616.12 392.75 612.92 390.90 610.93 389.01 C 608.37 387.09 607.04 384.13 605.55 381.41 Z" />
<path fill="#ffffff" d=" M 543.92 458.19 C 542.13 452.90 544.40 447.29 547.52 443.00 C 546.96 451.45 549.47 459.60 553.19 467.09 C 549.32 465.13 545.41 462.47 543.92 458.19 Z" />
<path fill="#ffffff" d=" M 625.95 466.59 C 629.19 460.09 630.41 452.93 632.81 446.14 C 634.34 449.93 635.76 454.25 634.17 458.28 C 632.80 462.13 629.36 464.65 625.95 466.59 Z" />
</svg>
