<?xml version="1.0" standalone="no"?>
<!DOCTYPE svg PUBLIC "-//W3C//DTD SVG 20010904//EN"
 "http://www.w3.org/TR/2001/REC-SVG-20010904/DTD/svg10.dtd">
<svg version="1.0" xmlns="http://www.w3.org/2000/svg"
 width="1202.000000pt" height="640.000000pt" viewBox="0 0 1202.000000 640.000000"
 preserveAspectRatio="xMidYMid meet">
<metadata>
Created by potrace 1.12, written by Peter Selinger 2001-2015
</metadata>
<g transform="translate(0.000000,640.000000) scale(0.100000,-0.100000)"
fill="#ffffff" stroke="none">
<path d="M2010 3965 l0 -55 4755 0 4755 0 0 55 0 55 -4755 0 -4755 0 0 -55z"/>
<path d="M1380 3871 c-80 -49 -246 -148 -370 -221 -124 -73 -243 -144 -265
-157 -22 -13 -56 -31 -75 -41 -19 -9 -36 -20 -38 -24 -2 -5 -10 -8 -18 -8 -36
0 13 -96 68 -132 35 -23 147 -68 170 -68 17 0 18 -17 18 -340 l0 -340 65 0 65
0 2 346 3 346 49 18 c67 26 110 57 139 103 22 34 26 36 32 19 10 -33 88 -98
141 -117 27 -10 53 -22 59 -27 5 -4 46 -8 90 -8 126 0 250 57 297 137 l20 33
28 -44 c21 -33 43 -51 89 -72 l60 -29 0 -342 1 -343 65 0 65 0 0 330 0 330 38
0 c39 0 143 37 190 68 55 36 104 132 67 132 -22 0 -18 -2 -525 309 -146 90
-289 178 -317 197 -29 19 -56 34 -60 33 -5 -1 -73 -40 -153 -88z"/>
<path d="M5069 3707 l-67 -62 35 -55 34 -55 -3 -503 -3 -502 80 0 80 0 -3 357
-4 357 123 -244 122 -244 -5 -113 -5 -113 81 0 81 0 0 600 0 600 -80 0 -80 0
3 -302 3 -303 -64 125 c-35 69 -95 186 -134 260 -38 74 -81 163 -94 198 -13
34 -26 62 -29 62 -3 -1 -35 -29 -71 -63z"/>
<path d="M10344 3694 c-175 -313 -216 -799 -87 -1035 85 -157 254 -195 366
-84 l27 28 0 -37 0 -36 81 0 80 0 -7 45 c-9 65 -11 1051 -1 1108 l8 47 -88 0
-88 0 7 -112 c8 -143 8 -592 -1 -721 l-6 -98 -47 -45 c-40 -38 -53 -44 -89
-44 -35 0 -47 6 -79 38 -24 24 -44 57 -55 92 -23 73 -31 257 -16 362 15 104
70 271 120 363 l38 71 -56 62 c-31 34 -59 62 -63 62 -4 0 -24 -30 -44 -66z"/>
<path d="M2740 3741 c-82 -27 -136 -78 -179 -171 -51 -110 -66 -208 -66 -435
0 -227 15 -325 66 -435 57 -124 129 -175 249 -175 115 0 187 48 244 163 55
109 70 205 71 442 0 228 -7 280 -51 407 -30 83 -85 153 -147 185 -45 22 -145
33 -187 19z m144 -211 c58 -52 85 -173 86 -385 0 -225 -27 -353 -86 -405 -71
-62 -154 -30 -194 77 -46 123 -48 474 -4 622 34 115 123 156 198 91z"/>
<path d="M4340 3736 c-129 -34 -220 -149 -257 -319 -23 -111 -13 -325 22 -442
66 -224 210 -404 358 -447 48 -13 169 -17 210 -5 24 7 26 11 20 35 -5 15 -8
159 -8 320 l0 292 -132 0 -133 0 0 -91 0 -92 60 7 60 7 0 -141 c0 -140 0 -140
-23 -140 -13 0 -43 13 -68 28 -136 87 -229 311 -216 526 13 234 125 330 312
266 32 -11 60 -20 62 -20 2 0 2 44 1 98 l-3 97 -65 17 c-77 20 -138 21 -200 4z"/>
<path d="M8700 3735 c-59 -19 -119 -70 -153 -133 -104 -192 -112 -683 -14
-904 50 -113 125 -168 239 -176 l68 -5 25 -79 c14 -43 25 -88 25 -98 0 -34 18
-31 89 14 l70 45 -26 58 c-56 128 -57 129 -21 180 41 60 74 162 89 269 15 116
6 446 -15 538 -54 236 -197 346 -376 291z m160 -213 c65 -64 85 -179 77 -442
-5 -167 -17 -261 -37 -283 -4 -5 -15 21 -25 58 -10 36 -21 64 -24 63 -23 -11
-121 -82 -121 -88 0 -4 12 -33 26 -64 14 -32 24 -60 21 -62 -3 -3 -21 2 -41
11 -46 22 -81 93 -97 195 -15 102 -6 437 14 507 29 101 67 141 136 142 26 1
42 -7 71 -37z"/>
<path d="M3835 3135 l0 -605 85 0 85 0 0 605 0 605 -85 0 -85 0 0 -605z"/>
<path d="M4785 3135 l0 -605 85 0 85 0 0 605 0 605 -85 0 -85 0 0 -605z"/>
<path d="M5890 3588 c-18 -84 -49 -227 -69 -318 l-36 -165 -38 3 -37 4 0 -106
c0 -90 2 -105 15 -100 10 4 15 0 15 -11 0 -12 -45 -209 -74 -324 -1 -6 134
-61 151 -61 8 0 13 13 14 38 0 20 15 109 32 197 l32 160 126 3 125 3 28 -148
c15 -81 30 -173 34 -204 l7 -57 77 32 c43 18 80 34 82 37 3 2 -10 57 -29 121
-39 137 -93 388 -166 771 l-53 277 -101 0 -102 0 -33 -152z m213 -455 l7 -33
-85 0 c-61 0 -85 3 -85 13 0 12 66 353 77 397 4 17 18 -34 43 -160 20 -102 39
-200 43 -217z"/>
<path d="M6435 3135 l0 -605 228 0 227 0 0 98 0 97 -145 -3 -146 -4 3 511 3
511 -85 0 -85 0 0 -605z"/>
<path d="M7245 3135 l0 -605 161 0 c187 0 245 12 304 66 58 53 82 125 83 249
1 121 -23 204 -81 280 l-38 50 33 70 c70 151 59 354 -23 426 -54 47 -89 54
-314 64 l-125 5 0 -605z m328 385 c15 -12 29 -36 33 -55 7 -41 -10 -120 -37
-164 l-19 -31 -37 19 -38 20 -32 -67 -32 -67 0 183 -1 182 69 0 c54 0 74 -4
94 -20z m-97 -419 c94 -43 152 -122 161 -221 11 -113 -37 -160 -162 -160 l-65
0 0 200 c0 153 3 200 13 200 6 0 30 -9 53 -19z"/>
<path d="M7855 3135 l0 -605 161 0 c187 0 245 12 304 66 58 53 82 125 83 249
1 121 -23 204 -81 280 l-38 50 33 70 c70 151 59 354 -23 426 -54 47 -89 54
-314 64 l-125 5 0 -605z m328 385 c15 -12 29 -36 33 -55 7 -41 -10 -120 -37
-164 l-19 -31 -37 19 -38 20 -32 -67 -32 -67 0 183 -1 182 69 0 c54 0 74 -4
94 -20z m-97 -419 c94 -43 152 -122 161 -221 11 -113 -37 -160 -162 -160 l-65
0 0 200 c0 153 3 200 13 200 6 0 30 -9 53 -19z"/>
<path d="M9538 3499 l4 -242 -26 7 -26 6 0 -105 0 -105 26 6 26 7 -4 -272 -3
-271 88 0 c79 0 88 2 83 18 -9 34 -18 371 -11 445 l7 77 120 0 119 0 -3 -270
-3 -270 88 0 88 0 -8 48 c-9 52 -7 1078 2 1130 l6 32 -88 0 -88 0 3 -240 4
-240 -122 0 -121 0 3 240 3 240 -85 0 -85 0 3 -241z"/>
<path d="M3205 3130 l0 -600 85 0 85 0 -3 297 c-2 164 -1 296 1 293 39 -41
153 -294 217 -480 24 -69 47 -129 51 -134 7 -8 139 88 139 100 0 3 -18 42 -40
87 -21 45 -63 141 -93 213 l-53 131 27 39 c16 22 43 73 61 114 32 73 33 79 33
215 0 131 -2 144 -27 197 -48 103 -112 127 -338 128 l-145 0 0 -600z m314 395
c40 -20 55 -63 49 -143 -5 -61 -41 -162 -58 -162 -4 0 -12 12 -19 27 l-12 26
-55 -54 -54 -53 0 187 0 187 60 0 c34 0 74 -7 89 -15z"/>
<path d="M10840 3632 l0 -99 105 5 105 5 0 -507 0 -506 85 0 86 0 -5 58 c-13
145 -17 368 -10 649 l7 305 109 -4 108 -4 0 98 0 98 -295 0 -295 0 0 -98z"/>
<path d="M1400 3047 c0 -7 5 -18 11 -24 9 -9 4 -23 -20 -54 -17 -24 -31 -53
-31 -66 0 -13 -6 -23 -13 -23 -8 0 -22 -9 -33 -21 -14 -15 -16 -24 -8 -37 38
-62 316 -70 386 -12 29 24 18 47 -35 73 -20 10 -37 24 -37 30 0 7 14 30 30 51
17 22 30 45 30 51 0 19 -38 48 -55 41 -13 -5 -13 -9 -3 -26 10 -16 10 -24 0
-38 -9 -13 -45 -81 -47 -89 0 -1 -15 2 -33 5 l-33 7 32 49 c34 50 33 67 -4 90
-22 14 -34 -1 -19 -24 10 -17 7 -27 -21 -67 -38 -57 -45 -63 -74 -63 -30 0
-29 6 7 60 34 52 36 62 14 84 -19 19 -44 21 -44 3z m72 -169 c-7 -7 -12 -27
-12 -46 0 -26 4 -33 17 -30 11 2 20 16 24 33 4 22 8 26 13 14 4 -9 6 -22 4
-29 -2 -8 5 -16 15 -18 13 -3 17 3 17 29 0 19 -7 37 -17 45 -16 12 -15 13 14
14 17 0 35 -4 38 -10 3 -5 1 -10 -4 -10 -6 0 -11 -13 -11 -30 0 -23 4 -30 20
-30 14 0 20 7 20 23 0 35 18 48 47 34 37 -17 27 -49 -22 -63 -52 -16 -208 -16
-260 0 -43 13 -54 40 -24 59 24 15 49 1 49 -28 0 -18 5 -25 20 -25 16 0 20 7
20 30 0 21 -5 30 -16 30 -8 0 -12 5 -9 10 3 6 20 10 38 10 24 0 28 -3 19 -12z"/>
<path d="M1350 2850 c-13 -9 -13 -11 0 -20 22 -15 30 -12 30 10 0 22 -8 25
-30 10z"/>
<path d="M1630 2840 c0 -22 8 -25 30 -10 13 9 13 11 0 20 -22 15 -30 12 -30
-10z"/>
<path d="M1263 2794 c-3 -10 4 -26 21 -42 82 -83 96 -107 96 -166 0 -43 3 -56
15 -56 11 0 15 11 15 43 l0 42 90 0 90 0 0 -42 c0 -32 4 -43 15 -43 11 0 15
13 15 54 0 42 4 58 18 68 10 7 29 29 43 48 13 19 34 43 47 53 23 20 29 42 12
52 -6 4 -34 -5 -63 -19 -95 -47 -269 -45 -355 5 -40 23 -51 24 -59 3z m37 -14
c0 -5 -4 -10 -10 -10 -5 0 -10 5 -10 10 0 6 5 10 10 10 6 0 10 -4 10 -10z
m430 0 c0 -5 -5 -10 -11 -10 -5 0 -7 5 -4 10 3 6 8 10 11 10 2 0 4 -4 4 -10z"/>
<path d="M870 2260 l0 -40 5385 0 5385 0 0 40 0 40 -5385 0 -5385 0 0 -40z"/>
</g>
</svg>
