<?xml version="1.0" encoding="utf-8"?>
<!-- Generator: Adobe Illustrator 18.1.1, SVG Export Plug-In . SVG Version: 6.00 Build 0)  -->
<svg version="1.1" id="Layer_1" xmlns="http://www.w3.org/2000/svg" xmlns:xlink="http://www.w3.org/1999/xlink" x="0px" y="0px"
	 viewBox="0 0 600 600" enable-background="new 0 0 600 600" xml:space="preserve">
<path fill="#FFFFFF" stroke="#000000" stroke-miterlimit="10" d="M600,300c0,1.6,0,3.2,0,4.7c0,1.6-0.1,3.2-0.1,4.7
	c0,1-0.1,2-0.1,3.1c0,0.3,0,0.7,0,1c0,0.4,0,0.8,0,1.1c0,0,0,0,0,0c0,0,0,0.1,0,0.1c0,1.2-0.1,2.4-0.2,3.6c-0.1,1.4-0.2,2.8-0.3,4.2
	c-0.1,1.4-0.2,2.8-0.3,4.1c-1.4,16-4.3,31.5-8.1,46.7c0,0-0.2,0-0.2,0c0,0,0,0,0,0s0.2,0,0.2,0c0,0.2,0,0.3,0,0.5
	c-2.5,9.9-5.4,19.5-8.9,29c-0.3,0.8-0.6,1.7-0.9,2.5c-6.8,18.2-15.4,35.6-25.5,51.9c-0.7,1.1-1.3,2.1-2,3.2c-0.5,0.8-1,1.5-1.5,2.3
	c-0.3,0.5-0.7,1.1-1,1.6c-1,1.6-2.1,3.2-3.2,4.7c-0.5,0.7-0.9,1.4-1.4,2c-1.8,2.6-3.7,5.2-5.6,7.8c0,0,0,0,0,0.1
	c-2.3,3.1-4.7,6.2-7.2,9.2c-0.6,0.8-1.2,1.5-1.8,2.2c-0.9,1.1-1.7,2.1-2.6,3.2c-0.3,0.4-0.6,0.8-1,1.1c-2.9,3.4-5.9,6.8-9,10
	c-0.1,0.1-0.1,0.1-0.2,0.2c-1,1.1-2,2.1-3,3.2c-4,4.2-8.2,8.5-12.4,12.4c-7.1,6.6-14.5,12.9-22.2,18.9h0c-0.4,0-0.8,0.4-1.2,0.6
	c-3.5,2.6-7,5-10.6,7.5c-1.2,0.8-2.4,1.6-3.6,2.4c-1.3,0.8-2.5,1.6-3.8,2.5c-16.2,10.4-33.5,19.3-51.6,26.5
	c-34.2,13.5-71.5,21-110.5,21s-76.3-7.5-110.5-21c-18.1-7.2-35.4-16.1-51.6-26.5c-1.3-0.8-2.5-1.7-3.8-2.5
	c-11.7-7.8-22.8-16.3-33.2-25.6C79,505,60,482.4,44.6,457.5c-10.1-16.3-18.7-33.7-25.5-52c-0.3-0.8-0.6-1.7-0.9-2.5
	c-3.4-9.5-6.5-19.1-8.9-29c-0.1-0.2-0.1-0.3-0.1-0.5c0,0,0,0,0-0.1c-0.3-1.3-0.6-2.6-0.9-3.9c0-0.2-0.1-0.4-0.1-0.6
	c-0.5-2-0.9-3.9-1.3-5.9c0-0.1,0-0.2,0-0.3c-0.1-0.6-0.3-1.3-0.5-1.9c0,0,0-0.1,0-0.1c-0.3-1-0.5-2-0.6-3.1c0,0,0,0,0-0.1
	c0-0.3-0.1-0.7-0.1-1v0c-0.2-0.6-0.3-1.2-0.5-1.8c0,0,0,0,0,0c-0.8-3.2-1.2-6.4-1.6-9.6c0,0,0,0,0,0c-0.2-1.4-0.4-2.7-0.6-4.1
	c0,0,0-0.1,0-0.1c-0.1-0.5-0.2-1.1-0.3-1.6v0c0-0.2,0-0.4,0-0.7c-0.1-1.3-0.3-2.5-0.4-3.8c-0.1-1.1-0.3-2.1-0.4-3.2
	c-0.2-1.9-0.4-3.9-0.6-5.8c-0.2-2.3-0.4-4.6-0.5-6.9c-0.2-3.1-0.3-6.2-0.4-9.4C0,306.4,0,303.2,0,300c0-6.4,0.2-12.6,0.6-18.9
	c0.1-2.1,0-4.3,0.2-6.4C2,259.8,4.5,245.2,7.5,231v0c1-0.2,0.3-0.4,0.4-0.6c0.3-1.3,0.7-2.6,1.1-3.9c0,0,0.1-0.1,0.1-0.1
	c2.6-10.4,5.8-20.6,9.5-30.5c0.4-1,0.8-2,1.1-3c6.8-17.7,15.1-34.6,25-50.5c0,0,0,0,0,0c4.4-7,9-13.9,13.9-20.6
	c0.1-0.1,0.2-0.2,0.3-0.3c12.8-17.2,27.4-33.1,43.5-47.2c0.2-0.2,0.3-0.3,0.5-0.4c10.4-9.1,21.4-17.4,32.9-25c1.5-1,2.9-1.9,4.4-2.8
	c12.7-8,26-15.1,39.9-21.2C216.7,8.9,257.3,0,300,0s83.3,8.9,120.1,25c13.9,6.1,27.2,13.1,39.9,21.2c0.2,0.1,0.4,0.2,0.5,0.3
	c1.3,0.8,2.6,1.7,3.9,2.5C484,61.9,502,77,518.1,94l0,0c0.9,0.9,1.8,1.9,2.6,2.8c1,1,1.9,2.1,2.9,3.2c0.8,0.8,1.5,1.7,2.2,2.5
	c1.6,1.8,3.2,3.7,4.8,5.6c5.2,6.2,10.1,12.6,14.7,19.2c0.2,0.3,0.5,0.6,0.7,0.9c3.3,4.7,6.4,9.5,9.4,14.3
	c9.8,15.9,18.2,32.8,25,50.5c0.1,0.2,0.1,0.3,0.2,0.5c0.3,0.8,0.6,1.7,0.9,2.5c3.7,9.9,6.9,20.1,9.5,30.5c0,0,0,0,0,0.1
	c3.7,14.7,6.5,29.9,8,45.3c0.1,0.7,0,1.4,0,2.1c0,0,0,0,0,0c0,0.4,0,0.7,0.1,1.1c0,0,0,0,0,0c0.1,0.4,0.2,0.9,0.5,1.3v0
	c0,1.4,0,2.7,0.1,4c0,0.3-0.1,0.6,0,0.9c0.1,1.2,0.1,2.5,0.2,3.7c0,0.3,0,0.7,0,1.1c0.1,1.4,0.1,2.8,0.1,4.3c0,1,0,2,0.1,3
	c0,0.1,0,0.3,0,0.4c0,0.5,0,0.9,0,1.4C600,296.8,600,298.4,600,300z"/>
<g>
	<path fill="#85D375" d="M600,300c0,25.3-3.1,50.2-9.1,73.7c0,0,0-0.7,0,0.3H9.1c-0.3-2-0.6-2.9-0.9-4.2c0-0.2-0.1-0.5-0.1-0.7
		c-3.8-16.5-6.3-33.2-7.4-50.2C0.2,312.7,0,306.4,0,300c0-6.4,0.2-12.7,0.6-18.9c1.1-17,3.6-33.6,7.4-50.1c0.1-0.2,0.1-0.1,0.1-0.3
		c0.3-1.3,0.6-2.7,0.9-3.7h581.9c0,0,0-0.2,0-0.2C596.9,250.3,600,274.7,600,300z"/>
	<g>
		<rect x="44.6" y="252.4" fill="#4D4B45" width="95.9" height="95.9"/>
		<rect x="156.1" y="252.4" fill="#4D4B45" width="225" height="22.3"/>
		<rect x="156.1" y="297" fill="#4D4B45" width="299.3" height="37.8"/>
		<rect x="498" y="272" fill="#4D4B45" width="57.4" height="56.8"/>
	</g>
</g>
<g opacity="0.55">
	<g>
		<path fill="#85D375" d="M581.8,403c-0.3,0.8-0.6,1.7-0.9,2.5c-6.8,18.2-15.4,35.6-25.5,51.9c-0.7,1.1-1.3,2.1-2,3.2
			c-0.5,0.8-1,1.5-1.5,2.3c-0.3,0.5-0.7,1.1-1,1.6c-1,1.6-2.1,3.2-3.2,4.7c-0.5,0.7-0.8,1.4-1.3,2c-1.8,2.6-3.5,5.2-5.5,7.8v0
			c0,0-0.2,0-0.2,0c-2.3,3.1-4.8,6.2-7.2,9.2c-0.6,0.8-1.2,1.5-1.8,2.2c-0.9,1.1-1.8,2.1-2.6,3.2c-0.3,0.4-0.6,0.8-1,1.1
			c-2.9,3.4-5.9,6.8-9,10c-0.1,0.1-0.1,0.1-0.2,0.2c-1,1.1-2,2.1-3,3.2c-4,4.2-8.2,8.3-12.5,12.2c-7.1,6.6-14.5,12.8-22.2,18.7h0
			c-0.4,0.3-0.8,0.6-1.2,0.9c-3.5,2.6-7,5.2-10.6,7.6c-1.2,0.8-2.4,1.7-3.6,2.5H134.1c-11.7-7.8-22.8-16.3-33.2-25.6
			C79,505,60,482.4,44.6,457.5c-10.1-16.3-18.7-33.7-25.5-52c-0.3-0.8-0.6-1.7-0.9-2.5H581.8z"/>
		<g>
			<path fill="#4D4B45" d="M141,428v96h-40.1C79,505,60,482.4,45,457.5V428H141z"/>
			<rect x="156.1" y="428.4" fill="#4D4B45" width="225" height="22.3"/>
			<rect x="156.1" y="473" fill="#4D4B45" width="299.3" height="37.8"/>
			<path fill="#4D4B45" d="M555,448v9.4c-4.3,7.4-9.1,14.5-14.3,21.5c-3.7,5-7.6,10-11.7,14.8c-0.3,0.4-0.6,0.8-1,1.1
				c-2.9,3.5-5.9,6.9-9,10.3H498v-57H555z"/>
		</g>
	</g>
	<g>
		<path fill="#85D375" d="M300,600c-39,0-76.3-7.5-110.5-21h220.9C376.3,592.5,339,600,300,600z"/>
	</g>
	<g>
		<path fill="#85D375" d="M581.5,196h-563c0.4-1,0.8-2,1.1-3c6.8-17.7,15.1-34.6,25-50.5c0,0,0,0,0,0c15.7-25.5,35.2-48.4,57.6-68.1
			c10.5-9.2,21.7-17.7,33.4-25.4h328.7C484,61.9,502,77,518.1,94l0,0c0.9,0.9,1.8,1.9,2.6,2.8c2.6,2.8,5.2,5.7,7.7,8.6
			c6,7,11.6,14.3,16.9,21.8c3.5,5,6.9,10.1,10.1,15.3c9.8,15.9,18.2,32.8,25,50.5c0.1,0.2,0.1,0.3,0.2,0.5
			C580.9,194.3,581.2,195.2,581.5,196z"/>
		<g>
			<path fill="#4D4B45" d="M141,74v96H45v-27.5C60,117,79.8,94,102.2,74H141z"/>
			<rect x="156.1" y="74.4" fill="#4D4B45" width="225" height="22.3"/>
			<rect x="156.1" y="119" fill="#4D4B45" width="299.3" height="37.8"/>
			<path fill="#4D4B45" d="M555,142.5v8.5h-57V94h20.1C532.1,109,545,125.1,555,142.5z"/>
		</g>
	</g>
	<g>
		<path fill="#85D375" d="M300,0c42.7,0,83.3,8.9,120.1,25H179.9C216.7,8.9,257.3,0,300,0z"/>
	</g>
</g>
<path fill="#000FB0" d="M542.1,448c0,5.8,0,17.1-1.2,30.8c0,0.1,0.1,0.1,0.1,0.1v0c0,0-0.2,0-0.2,0c-2.3,3.1-4.8,6.2-7.2,9.2
	c-0.6,0.8-1.2,1.5-1.8,2.2c-0.9,1.1-1.8,2.1-2.6,3.2c-0.3,0.4-0.6,0.8-1,1.1c-2.9,3.5-5.9,6.9-9,10.3H519c-1,1.1-2,2.1-3,3.2
	c-4,4.2-8.2,8.3-12.4,12.2c-7.1,6.6-14.5,12.8-22.2,18.7H430l-16.3-28.1L391.8,473l-3.1-5.4c0,0-9.3-24.3,23-35.3l0.6-29.3l0.6-29
	l0.9-39.1l0.5-25.5c0,0,4.9-10.1,12.6-12.3c1.8-0.5,3.8-0.6,5.9,0c3.6,1,7.6,4,11.8,10l2.3,27.9l3.2,39.1l1.3,15.5
	c0,0,23.3-11.8,32.3,8.9c0,0,15.9-7,26,4.6c1.8,2,3.4,4.7,4.7,8c0,0,30.3,3.8,27.7,32.8C542,443.9,542.1,445.4,542.1,448z"/>
</svg>
