<?xml version="1.0" encoding="utf-8"?>
<!-- Generator: Adobe Illustrator 18.1.1, SVG Export Plug-In . SVG Version: 6.00 Build 0)  -->
<svg version="1.1" id="Layer_1" xmlns="http://www.w3.org/2000/svg" xmlns:xlink="http://www.w3.org/1999/xlink" x="0px" y="0px"
	 viewBox="0 0 600 600" enable-background="new 0 0 600 600" xml:space="preserve">
<path fill="#999999" stroke="#669933" stroke-miterlimit="10" d="M600,300.5c0,0.8,0,1.7,0,2.5c-0.1,6.9-0.4,13.8-0.9,20.6
	c0,0.2,0,0.3,0,0.5C586.8,478.5,457.6,600,300,600c-107.7,0-202.1-56.7-255-141.9c-1.6-2.6-3.2-5.2-4.7-7.9
	c-4.4-7.6-8.5-15.5-12.3-23.5c-5-10.6-9.3-21.6-13-32.8c-1.3-4-2.6-8.1-3.7-12.2c-1-3.6-1.9-7.1-2.8-10.7c-1-4.3-2-8.5-2.8-12.9
	C3.4,346.9,1.9,335.6,1,324c0-0.2,0-0.3,0-0.5c-0.3-3.2-0.4-6.4-0.6-9.6C0.1,309.3,0,304.7,0,300c0-31.4,4.8-61.6,13.7-90
	c0-0.2,0.1-0.3,0.2-0.5C52.3,88.1,165.8,0,300,0s247.7,88.1,286.1,209.5c0,0.2,0.1,0.3,0.2,0.5c8.4,26.8,13.2,55.2,13.7,84.6
	c0,1,0,2,0,2.9C600,298.5,600,299.5,600,300.5z"/>
<path fill="#85D375" d="M600,297.5c-0.3-30.5-5.1-60.4-13.9-87.5h0.2C595,237.7,599.7,267.1,600,297.5z"/>
<g>
	
		<line fill="none" stroke="#85D375" stroke-width="10" stroke-linecap="round" stroke-linejoin="round" stroke-miterlimit="10" x1="72" y1="250" x2="156" y2="434.8"/>
	
		<line fill="none" stroke="#85D375" stroke-width="10" stroke-linecap="round" stroke-linejoin="round" stroke-miterlimit="10" x1="156" y1="434.8" x2="527" y2="166"/>
</g>
</svg>
