<?xml version="1.0" encoding="utf-8"?>
<!-- Generator: Adobe Illustrator 18.1.1, SVG Export Plug-In . SVG Version: 6.00 Build 0)  -->
<svg version="1.1" id="Layer_1" xmlns="http://www.w3.org/2000/svg" xmlns:xlink="http://www.w3.org/1999/xlink" x="0px" y="0px"
	 viewBox="91.6 0 612 612" enable-background="new 91.6 0 612 612" xml:space="preserve">
<circle opacity="0.8" fill="#FFFFFF" stroke="#71685B" stroke-width="19" stroke-miterlimit="10" enable-background="new    " cx="397.6" cy="306" r="291.9"/>
<image overflow="visible" enable-background="new    " width="640" height="640" xlink:href="logo.png"  transform="matrix(0.6331 0 0 0.6331 -378.893 -208.2927)">
</image>
<polygon fill="none" stroke="#00A651" stroke-width="10" stroke-miterlimit="10" points="-640.7,-145.7 -640.7,-145.7 
	-640.7,-145.7 -640.7,-145.7 "/>
<path fill="#00AAC3" d="M385.1,206L385.1,206z"/>
<g>
	<g>
		<path fill="#114204" d="M636.6,275.2v2.8c0,0.8,0,1.7-0.1,2.5c-1.3,8.1-8.2,14.4-16.6,14.4h-41.6v190h-31.3v-190h-41.1
			c-9.5-2.4-17.2-9.5-20.3-18.7c-3.1,9.2-10.6,16.3-20.3,18.7H341.9c-9.5-2.4-17.2-9.5-20.3-18.7c-3.1,9.2-10.6,16.3-20.1,18.7
			h-54.6v190h-31.3v-190h-40.2c-8.4,0-15.4-6.3-16.6-14.4c-0.1-0.8-0.1-1.7-0.1-2.5v-2.8c0-0.7,0.1-1.5,0.1-2.2l18.4-16.8
			L397.5,57.1l204.7,185.1h-0.1l34,30.6C636.4,273.5,636.6,274.4,636.6,275.2z"/>
	</g>
	<g>
		<path fill="#0B2206" d="M473.5,379.4c0,2.7-2.4,5.3-7,7.7c-6.6,3.4-17.5,6.3-31.9,8.1c-10.9,1.4-23.8,2.2-38.1,2.2
			c-34.1,0-59.4-4.6-70.6-10.6c-4.2-2.2-6.4-4.8-6.4-7.4H473.5z"/>
		<line fill="none" x1="399" y1="359.6" x2="399" y2="359.9"/>
		<line fill="none" x1="399" y1="359.6" x2="399" y2="359.9"/>
		<line fill="none" x1="399" y1="381" x2="399" y2="380.8"/>
		<path fill="#0B2206" stroke="#009444" stroke-width="2" stroke-miterlimit="10" d="M473.5,379.4c0,2.7-2.4,5.3-7,7.7
			c-6.6,3.4-17.5,6.3-31.9,8.1c-10.9,1.4-23.8,2.2-38.1,2.2c-34.1,0-59.4-4.6-70.6-10.6c-4.2-2.2-6.4-4.8-6.4-7.4
			c0-1.4,0.8-2.9,2.4-4.3c3.6-3.5,11.6-6.4,21.9-8.7c7.8-1.7,16.9-3.1,26.8-3.9c8.2-0.7,17-1.1,25.8-1.1c8.4,0,16.9,0.3,24.9,1l0,0
			c23.5,2,43.2,6.6,49.7,12.7C472.8,376.5,473.5,378,473.5,379.4z"/>
		<line fill="none" stroke="#009444" stroke-width="2" stroke-miterlimit="10" x1="396.7" y1="361.4" x2="396.7" y2="398.8"/>
		<line fill="none" stroke="#009444" stroke-width="2" stroke-miterlimit="10" x1="370.8" y1="362.5" x2="356.4" y2="394.8"/>
		<line fill="none" stroke="#009444" stroke-width="2" stroke-miterlimit="10" x1="344" y1="366.4" x2="325.3" y2="387.8"/>
		<line fill="none" stroke="#009444" stroke-width="2" stroke-miterlimit="10" x1="421.4" y1="362.2" x2="435.4" y2="396.3"/>
		<line fill="none" stroke="#009444" stroke-width="2" stroke-miterlimit="10" x1="447.7" y1="366.4" x2="467.1" y2="387.5"/>
	</g>
	<path fill="#114204" d="M474.8,378.6c0,12.3-5.4,23.8-14.7,33v63.6h-5.7v-58.5c-14.3,11.5-34.9,18.6-57.8,18.6
		c-23.5,0-44.6-7.5-59-19.4v59.4h-5.7v-64.7c-8.5-9.1-13.6-20.1-13.6-31.9h1.3c0,2.5,2.2,5,6.4,7.4c11.2,6.1,36.5,10.6,70.6,10.6
		c14.4,0,27.2-0.8,38.1-2.2c14.4-1.8,25.3-4.8,31.9-8.1c4.6-2.4,7-5,7-7.7L474.8,378.6L474.8,378.6z"/>
	<g>
		<g>
			<g>
				<path fill="#2D6E1F" stroke="#2D6E1F" stroke-width="2" stroke-miterlimit="10" d="M376.4,313.6c-3.6,2.5-5.2,7-4.6,11.2
					c1,6.6,13.8,19,5,24.2c-2.4,1.4-0.1,3.5,1.8,2.4c16.1-9.4-12.4-27.1,0.4-35.9C381.3,313.9,378.1,312.5,376.4,313.6L376.4,313.6z
					"/>
			</g>
		</g>
		<g>
			<g>
				<path fill="#2D6E1F" stroke="#2D6E1F" stroke-width="2" stroke-miterlimit="10" d="M395.8,313.8c-3.9,2.7-5.4,7.3-4.5,11.9
					c1.4,6.6,14,18.3,4.5,23.8c-2.4,1.4,1.1,2.2,2.5,1.4c15.5-9.1-12.9-26.8,0-35.6C400.7,313.6,397.2,312.8,395.8,313.8
					L395.8,313.8z"/>
			</g>
		</g>
		<g>
			<g>
				<path fill="#2D6E1F" stroke="#2D6E1F" stroke-width="2" stroke-miterlimit="10" d="M414,313.5c-3.6,2.5-5.2,7.1-4.5,11.3
					c1,6.6,13.7,18.9,5,24c-2.4,1.4-0.3,3.8,1.8,2.7c15.9-9.4-12.3-27.2,0.4-35.9C418.9,314,415.7,312.4,414,313.5L414,313.5z"/>
			</g>
		</g>
	</g>
</g>
<ellipse opacity="0.76" fill="none" stroke="#028300" stroke-width="12" stroke-miterlimit="10" enable-background="new    " cx="397.6" cy="306" rx="295.8" ry="285.3"/>
</svg>
