<?xml version="1.0" encoding="utf-8"?>
<!-- Generator: Adobe Illustrator 18.1.1, SVG Export Plug-In . SVG Version: 6.00 Build 0)  -->
<svg version="1.1" id="Layer_1" xmlns="http://www.w3.org/2000/svg" xmlns:xlink="http://www.w3.org/1999/xlink" x="0px" y="0px"
	 viewBox="0 0 600 600" enable-background="new 0 0 600 600" xml:space="preserve">
<circle display="none" opacity="0.85" fill="#FFFFFF" stroke="#B2B0A1" stroke-width="4" stroke-miterlimit="10" enable-background="new    " cx="300" cy="-332.8" r="250"/>
<g display="none">
	<path display="inline" fill="#21421D" stroke="#FFFFFF" stroke-width="2" stroke-miterlimit="10" d="M300.1,259.7
		c0,0-77,127-233.6,216.8c-0.3,0.2-0.5,0.2-0.8,0.3c-1.8,1.2-2.9,3.7-2.9,6.1c0,3.7,2.8,7.1,6.3,7.1h36.6
		C236,386,300.1,259.7,300.1,259.7z"/>
	<path display="inline" fill="#21421D" stroke="#FFFFFF" stroke-width="2" stroke-miterlimit="10" d="M494.2,490h36.5h0.3
		c3.5,0,6.3-3.5,6.3-7.2c0-2.1-1-4.3-2.4-5.5c-0.6-0.3-1.2-0.8-1.8-1.2c-156.3-89.8-232.9-216.4-232.9-216.4S364,386,494.2,490z"/>
	<path display="inline" fill="#FFFFFF" stroke="#FFFFFF" stroke-width="2" stroke-miterlimit="10" d="M300.1,260.2
		c0,0-64.1,125.8-194.4,229.8h37.4C248.3,379,300.1,260.2,300.1,260.2z"/>
	<path display="inline" fill="#FFFFFF" stroke="#FFFFFF" stroke-width="2" stroke-miterlimit="10" d="M494.2,490
		C364,386,300.1,260.2,300.1,260.2S351.8,379,456.8,490H494.2z"/>
	<path display="inline" fill="#21421D" stroke="#FFFFFF" stroke-width="2" stroke-miterlimit="10" d="M456.8,490
		C351.8,379,300,260.2,300,260.2S343.2,373,430.7,490H456.8z"/>
	<path display="inline" fill="#21421D" stroke="#FFFFFF" stroke-width="2" stroke-miterlimit="10" d="M169.2,490
		C256.8,373,300,260.2,300,260.2S248.3,379,143.1,490H169.2z"/>
	<path display="inline" fill="#FFFFFF" stroke="#FFFFFF" stroke-width="2" stroke-miterlimit="10" d="M187.3,490
		c75.5-121,112.8-229.8,112.8-229.8S256.8,373,169.2,490H187.3z"/>
	<path display="inline" fill="#FFFFFF" stroke="#FFFFFF" stroke-width="2" stroke-miterlimit="10" d="M430.7,490
		c-87.5-117-130.6-229.8-130.6-229.8S337.3,369,412.7,490H430.7z"/>
	<path display="inline" fill="#21421D" stroke="#FFFFFF" stroke-width="2" stroke-miterlimit="10" d="M300.1,260.2
		c0,0-37.3,108.8-112.8,229.8H201h99.1H399h13.7C337.3,369,300.1,260.2,300.1,260.2z"/>
</g>
<path fill="#21421D" stroke="#FFFFFF" stroke-width="2" stroke-miterlimit="10" d="M278.7,10.7c0,0-77,127-233.6,216.8
	c-0.3,0.2-0.5,0.2-0.8,0.3c-1.8,1.2-2.9,3.7-2.9,6.1c0,3.7,2.8,7.1,6.3,7.1h36.6C214.6,137,278.7,10.7,278.7,10.7z"/>
<path fill="#21421D" stroke="#FFFFFF" stroke-width="2" stroke-miterlimit="10" d="M522.4,241h36.5h0.3c3.5,0,6.3-3.5,6.3-7.2
	c0-2.1-1-4.3-2.4-5.5c-0.6-0.3-1.2-0.8-1.8-1.2C405,137.3,328.4,10.7,328.4,10.7S392.2,137,522.4,241z"/>
<path fill="#FFFFFF" stroke="#FFFFFF" stroke-width="2" stroke-miterlimit="10" d="M299,11.2c0,0-64.1,125.8-194.4,229.8H142
	C247.2,130,299,11.2,299,11.2z"/>
<path fill="#FFFFFF" stroke="#FFFFFF" stroke-width="2" stroke-miterlimit="10" d="M493.1,241C362.9,137,299,11.2,299,11.2
	S350.7,130,455.7,241H493.1z"/>
<path fill="#21421D" stroke="#FFFFFF" stroke-width="2" stroke-miterlimit="10" d="M469,240.8C364,129.8,312.3,10.9,312.3,10.9
	s43.1,112.8,130.6,229.8H469z"/>
<path fill="#21421D" stroke="#FFFFFF" stroke-width="2" stroke-miterlimit="10" d="M161.1,240.8C248.7,123.7,292,10.9,292,10.9
	s-51.8,118.8-157,229.8H161.1z"/>
<path fill="#FFFFFF" stroke="#FFFFFF" stroke-width="2" stroke-miterlimit="10" d="M186.2,241C261.7,120,299,11.2,299,11.2
	S255.7,124,168.1,241H186.2z"/>
<path fill="#FFFFFF" stroke="#FFFFFF" stroke-width="2" stroke-miterlimit="10" d="M429.6,241C342.1,124,299,11.2,299,11.2
	S336.2,120,411.6,241H429.6z"/>
<path display="none" fill="#21421D" stroke="#FFFFFF" stroke-width="2" stroke-miterlimit="10" d="M300.3,10.7
	c0,0-37.3,108.8-112.8,229.8h13.7h99.1h98.9h13.7C337.4,119.5,300.3,10.7,300.3,10.7z"/>
<g display="none">
	<radialGradient id="SVGID_1_" cx="1002" cy="-595" r="146.7393" gradientUnits="userSpaceOnUse">
		<stop  offset="0" style="stop-color:#753128"/>
		<stop  offset="1" style="stop-color:#421C17"/>
	</radialGradient>
	<path display="inline" fill="url(#SVGID_1_)" stroke="#FFFFFF" stroke-width="3" stroke-miterlimit="10" d="M1201-613.5
		c-36.2-22.2-111.6-37.4-198.2-37.4c-0.3,0-0.6,0-0.9,0s-0.6,0-0.9,0c-86.6,0-162,15.2-198.2,37.5c-0.2,0.1-0.5,0.3-0.7,0.4
		l34.5,73.9c40.6-13.7,99.4-22.4,164.5-22.4c0.3,0,0.6,0,0.9,0s0.6,0,0.9,0c65.1,0,124,8.6,164.5,22.4l34.4-73.9
		C1201.5-613.2,1201.3-613.3,1201-613.5z"/>
	<g display="inline">
		<path fill="#FFFFFF" d="M835.7-582.2c-1.9-6.3-1.9-11.3,0-15.1c1.9-3.7,6-6.6,12.2-8.6s11.1-2.1,14.7-0.1c3.6,1.9,6.4,6,8.3,12.4
			c1.9,6.3,1.9,11.3,0,15s-6,6.6-12.2,8.6s-11.1,2.1-14.7,0.2C840.4-571.8,837.6-575.9,835.7-582.2z M845.1-585.2
			c1.4,4.5,3,7.6,4.9,9.1c1.9,1.6,4.3,1.9,7.2,1c2.9-0.9,4.7-2.6,5.4-5.1c0.7-2.4,0.4-5.9-1-10.4c-1.4-4.5-3-7.6-4.9-9.2
			c-1.9-1.6-4.3-1.9-7.2-1c-2.9,0.9-4.7,2.6-5.4,5.1S843.7-589.7,845.1-585.2z M854.7-576.3c-1.8,0.1-3.4-0.6-4.7-2.1
			c-1.3-1.5-2.5-3.9-3.5-7.3c-1.2-3.9-1.5-6.9-0.9-9c0.6-2.1,2-3.6,4.4-4.4c1.8-0.6,3.2-0.6,4.5,0c1.2,0.6,2.4,1.7,3.5,3.6
			c-1.2-0.2-2.3-0.3-3.3-0.3s-1.8,0.1-2.5,0.3c-1.7,0.6-2.7,1.5-3.1,2.9c-0.4,1.4-0.1,3.5,0.8,6.4c0.6,2,1.3,3.8,2.1,5.4
			C852.7-579.2,853.6-577.7,854.7-576.3z M862.4-607.9c3.9,1.7,6.9,3.6,8.9,5.8c2,2.2,3.7,5.3,4.8,9.2c1,3.2,1.4,6.2,1.3,9
			c-0.1,2.9-0.6,5.5-1.7,7.9c-1,2.3-2.6,4.4-4.9,6.3c-2.2,1.9-4.7,3.3-7.5,4.2c-2.6,0.8-5.2,1.1-7.9,0.9c-2.7-0.3-5.6-1.1-8.6-2.4
			c2,0.3,4,0.3,5.9,0.1c2-0.2,4.2-0.7,6.5-1.5c6.5-2.1,10.8-5.3,12.9-9.4c2.1-4.2,2.1-9.7,0.1-16.4c-1.1-3.6-2.4-6.4-3.9-8.5
			C866.9-604.8,864.9-606.5,862.4-607.9z"/>
		<path fill="#FFFFFF" d="M881.5-578.6l-1.1-5.7l5.7-1.1l-4.3-23.2l-5.7,1.1l-1.1-5.7l24.5-4.9c3.5-0.7,6-1.1,7.4-1.1
			c1.4,0,2.6,0.1,3.5,0.5c1.4,0.6,2.5,1.5,3.5,2.8c0.9,1.3,1.5,2.8,1.9,4.7c0.5,2.8,0.2,5.1-1,7.1s-3.1,3.2-5.7,3.8l0.2,1.4l1.2-0.2
			c0.4-0.1,0.8,0,1.2,0.2c0.4,0.2,0.7,0.5,0.9,1l2.6,5c0.3,0.6,0.7,1,1.1,1.2c0.4,0.2,0.9,0.3,1.5,0.2l3.5-0.7l1.1,5.7l-9,1.8
			c-1,0.2-1.9,0.1-2.7-0.2c-0.8-0.4-1.4-1-2-2l-4.4-7.5c-0.7-1.3-1.5-2.1-2.3-2.6c-0.8-0.5-1.6-0.7-2.6-0.5l-6.9,1.4l1.7,9.4
			l5.7-1.1l1.1,5.7L881.5-578.6z M876.6-605.7l4.3-0.9l0.8,4.1L876.6-605.7z M881.9-576.8l21-4.2l-1.4-7.5l3.7,2.1l1.6,8.7
			l-19.9,3.9L881.9-576.8z M891.9-600.9l10.1-2c2.1-0.4,3.5-1.1,4.1-1.9c0.7-0.9,0.8-2.2,0.5-3.9c-0.3-1.6-1-2.7-2-3.3
			s-2.5-0.7-4.4-0.3l-10.1,2L891.9-600.9z M893-603l-1.1-5.7l8.8-1.7c1.2-0.2,2.2-0.2,3,0.2c0.7,0.4,1.2,1,1.4,1.9
			c0,0.2,0.1,0.4,0.1,0.6s0,0.3-0.1,0.5l-9.2,1.8l0.3,1.8L893-603z M897.6-591.3l0.3,1.7l-2.3,0.5l-1.1-5.7l5.2-1
			c0.6-0.1,1.2-0.1,1.6,0.2c0.4,0.2,0.9,0.7,1.3,1.4l1.1,1.8L897.6-591.3z M924.3-585.2l-1.4-7.5l3.8,2.6l1.5,8.2l-8.5,1.7
			c-1.1,0.2-2.1,0.2-3,0.1c-0.9-0.2-1.8-0.5-2.5-1l-3.3-2.3c0.5,0.2,0.9,0.4,1.4,0.4c0.4,0.1,0.9,0,1.4-0.1l0.6-0.1L924.3-585.2z
			 M914.4-598.6c-0.1-0.3-0.3-0.6-0.6-0.8c-0.3-0.3-0.6-0.5-1-0.7c1.9-1,3.3-2.5,4.1-4.5c0.8-2,1-4.3,0.5-6.8
			c-0.3-1.8-0.9-3.3-1.7-4.5c-0.8-1.2-1.8-2.3-3.2-3.2l4.7,3.5c0.9,0.7,1.6,1.5,2.2,2.6c0.6,1,1,2.2,1.3,3.6
			c0.4,2.3,0.2,4.4-0.5,6.3c-0.8,1.9-2.1,3.8-4.1,5.5l2,1.5l0.1,0.1c0.9,0.7,1.6,1.4,2,2.2l-2.4,0.5c-0.3,0.1-0.5,0-0.7-0.1
			s-0.4-0.4-0.5-0.7L914.4-598.6z"/>
		<path fill="#FFFFFF" d="M941.6-594.8l5.8-0.7l0.6,5.8l-20.1,2.4l-0.6-5.8l5.8-0.7l-2.6-23.5l-5.8,0.7l-0.6-5.8l20.1-2.4l0.6,5.8
			l-5.8,0.7L941.6-594.8z M929.8-611.3l-4.8-3.4l4.4-0.5L929.8-611.3z M933.2-582.1l-5-3.4l21.5-2.5l-0.8-7.6l3.5,2.4l1,8.8
			L933.2-582.1z M942.8-596.8l-2.2-19.8l5.8-0.7l-0.8-7.6l3.6,3.3l0.9,7.9l-5.8,0.7l1.8,15.8L942.8-596.8z"/>
		<path fill="#FFFFFF" d="M982.7-607.4l-4.9,0.2l-0.2-4.6l18.4-0.8l0.2,4.6l-5.1,0.2l0.7,15.4l-8.5,0.4l-0.2-4.6
			c-1.4,2-3.1,3.5-5.2,4.6c-2.1,1.1-4.5,1.7-7.3,1.8c-5.3,0.2-9.5-1.2-12.5-4.4c-3-3.1-4.7-7.8-4.9-13.8c-0.3-6.2,1-11,3.7-14.2
			c2.7-3.2,7-5,12.7-5.3c2.4-0.1,4.6,0.2,6.5,0.8c1.9,0.6,3.8,1.7,5.7,3.3l-0.2-3.5l8.1-0.4l0.4,9l-8.1,0.4
			c-1.6-1.5-3.2-2.5-4.9-3.2c-1.7-0.7-3.5-1-5.4-0.9c-3.1,0.1-5.3,1.3-6.7,3.5c-1.4,2.2-2,5.5-1.8,9.8c0.2,4.8,1.2,8.2,2.8,10.3
			c1.7,2.1,4.2,3.1,7.6,2.9c2.7-0.1,4.9-1.3,6.6-3.4C981.9-601.4,982.7-604.1,982.7-607.4z M960.7-590.4c1.7,0.8,3.5,1.3,5.2,1.6
			s3.5,0.4,5.3,0.4c1.9-0.1,3.7-0.5,5.4-1.1c1.7-0.7,3.5-1.7,5.3-3l0.2,3.5l0.7,0.6c-1.5,1.1-3.1,2-4.8,2.6c-1.7,0.6-3.4,1-5.2,1
			c-1.2,0.1-2.4-0.1-3.7-0.5s-2.4-0.9-3.5-1.7L960.7-590.4z M970.5-597.9c-1.8-0.3-3.2-1.3-4.1-3.1c-0.9-1.8-1.5-4.4-1.6-8
			c-0.2-3.9,0.3-6.8,1.4-8.7c1.1-1.8,2.9-2.8,5.4-2.9c2-0.1,3.8,0.2,5.5,0.9s3.2,1.8,4.6,3.2l10-0.5l-0.5-10.8l3.3,3.5l0.4,9.7
			l-11.1,0.5c-1.7-1.1-3.4-1.9-5.1-2.4s-3.4-0.7-5.2-0.6c-2.2,0.1-3.6,0.8-4.4,2c-0.8,1.3-1.1,3.5-1,6.6c0.1,1.9,0.3,3.7,0.7,5.3
			C969.2-601.2,969.7-599.5,970.5-597.9z M977.9-605.3l3.2-0.1c0,0.5-0.1,0.9-0.2,1.3c-0.1,0.4-0.3,0.8-0.4,1.3L977.9-605.3z
			 M983.5-590.2l9.9-0.4l-0.7-15.4l5.1-0.2l-0.3-6.5l3.4,3.5l0.3,6.8l-5.1,0.2l0.7,15.4l-9,0.4L983.5-590.2z"/>
		<path fill="#FFFFFF" d="M1007.1-586.5l-4.6-4.1l21.6,0.5l0.1-7.7l3.2,2.8l-0.2,8.9L1007.1-586.5z M1017-598l5.9,0.1l-0.1,5.8
			l-20.2-0.4l0.1-5.8l5.8,0.1l0.4-23.6l-5.8-0.1l0.1-5.8l20.2,0.4l-0.1,5.8l-5.9-0.1L1017-598z M1007.3-616l-4.4-4.1l4.4,0.1V-616z
			 M1018.4-599.8l0.3-19.9l5.8,0.1l0.1-7.7l3.2,3.7l-0.1,8l-5.8-0.1l-0.3,15.9H1018.4z"/>
		<path fill="#FFFFFF" d="M1028.1-590.5l20.2,1.9l0.6-7.6l2.9,3.6l-0.7,8.3l-18.7-1.8L1028.1-590.5z M1028.3-592.3l0.5-5.8l5.8,0.5
			l2-23.5l-5.8-0.5l0.5-5.8l18.3,1.7l11.1,27.4l1.7-20.4l-5.8-0.5l0.5-5.8l18,1.7l-0.5,5.8l-5.1-0.5l-2.4,29.3l-11.9-1.1l-11.6-27.6
			l-1.7,20.5l5.8,0.5l-0.5,5.8L1028.3-592.3z M1030.6-619.8l4.4,0.4l-0.3,4.1L1030.6-619.8z M1043.3-598.6l1-12.3l2.7,6.4l-0.5,6.3
			L1043.3-598.6z M1051.1-625.6l4,5l-0.3,3.1l5.8,0.5l-1,12.1L1051.1-625.6z M1055.9-587.9l12.3,1.2l2.4-29.3l5.2,0.5l0.6-7.6
			l2.8,4.3l-0.7,8l-5.1-0.5l-2.4,28.9l-11.1-1L1055.9-587.9z"/>
		<path fill="#FFFFFF" d="M1076.9-586l18.9,3.9l1.4-7.5l2.6,3.6l-1.6,8.5l-16.9-3.5L1076.9-586z M1077.3-587.8l1.1-5.7l4.9,1
			l15.5-26.8l13.4,2.7l5,31l4.9,1l-1.1,5.7l-18.9-3.9l1.1-5.7l4.8,1l-1.2-7l-12.5-2.6l-3.5,6.1l4.9,1l-1.1,5.7L1077.3-587.8z
			 M1093.3-592.3l1.6-2.8l10.6,2.2l0.4,3.2L1093.3-592.3z M1096.8-601.2l9.3,1.9l-2.3-14.4L1096.8-601.2z M1099.3-602.5l3.7-6.7
			l0.9,5.7l-1,1.7L1099.3-602.5z M1101.8-580.9l20.3,4.2l1.4-7.5l2.5,3.9l-1.5,8.2l-19.2-3.9L1101.8-580.9z M1118.4-587.2l-4.8-29.1
			l4.9,9l3.2,20.8L1118.4-587.2z"/>
		<path fill="#FFFFFF" d="M1125.5-575.9l33.2,11.3l6.2-20.1l2,4.4l-6.3,20.4l-31.8-10.6L1125.5-575.9z M1126-577.6l1.7-5.5l5.6,1.9
			l7-22.4l-5.6-1.9l1.7-5.5l19.2,6.5l-1.7,5.5l-5.5-1.9l-7,22.4l10.5,3.6l4-12.8l7.7,2.6l-5.7,18.3L1126-577.6z M1137.3-598.6
			l-3-5.2l4.2,1.4L1137.3-598.6z M1143.3-579.8l5.9-18.9l5.6,1.9l2.3-7.3l2,4.6l-2.3,7.5l-5.5-1.9l-4.7,15.1L1143.3-579.8z"/>
	</g>
</g>
<g display="none">
	<g display="inline">
		<path fill="#588C38" d="M1167-507.7c-40.6-15.6-98.4-25-163.4-25c-0.3,0-0.2-0.1-0.4-0.1c-0.3,0-1.9,0.1-2.2,0.1
			c-65,0-124.6,9.4-165.6,25v109.4h330v-109.4C1165.4-507.7,1167.1-507.7,1167-507.7z"/>
		<path fill="#FFFFFF" d="M1166.9-396.8h-333v-111.9l1-0.4c41.9-16,102.5-25.1,166.1-25.1c0.1,0,0.6,0,1,0c0.5,0,1-0.1,1.2-0.1
			c0.2,0,0.4,0,0.6,0.1c63.5,0,121.7,8.9,163.7,25.1l-0.5,1.4v1.5h-0.1V-396.8z M836.9-399.8h327v-107.5
			c-41.6-15.4-98.3-23.9-160.3-23.9c-0.2,0-0.4,0-0.6-0.1c-0.2,0-0.5,0-0.8,0c-0.5,0-1,0.1-1.2,0.1c-62.8,0-122.5,8.9-164.1,24.5
			V-399.8z"/>
	</g>
	<g display="inline">
		<g enable-background="new    ">
			<path fill="#FFFFFF" d="M862.9-441.2v-46.5h23.8c4.9,0,8.5,1.2,10.8,3.7c2.3,2.5,3.4,5.3,3.4,8.5c0,2.3-0.7,4.4-2,6.3
				c-1.3,1.9-3.3,3.2-5.9,3.9c6.1,1.5,9.1,5.1,9.1,10.8c0,3.5-1.1,6.5-3.2,9.3c-2.1,2.7-6.7,4.1-13.7,4.1H862.9z M876.2-469.9h6.7
				c1.7,0,2.8-0.4,3.5-1.3c0.7-0.8,1-1.7,1-2.7c0-2.6-1.6-3.9-4.8-3.9h-6.4V-469.9z M876.2-451.5h7c1.7,0,3-0.4,3.8-1.3
				c0.8-0.9,1.2-1.8,1.2-2.9s-0.4-2.1-1.2-2.9c-0.8-0.9-2.2-1.3-4.3-1.3h-6.5V-451.5z"/>
			<path fill="#FFFFFF" d="M908.1-441.2v-46.5h23.8c4.9,0,8.5,1.2,10.8,3.7c2.3,2.5,3.4,5.3,3.4,8.5c0,2.3-0.7,4.4-2,6.3
				c-1.3,1.9-3.3,3.2-5.9,3.9c6.1,1.5,9.1,5.1,9.1,10.8c0,3.5-1.1,6.5-3.2,9.3c-2.1,2.7-6.7,4.1-13.7,4.1H908.1z M921.3-469.9h6.7
				c1.7,0,2.8-0.4,3.5-1.3c0.7-0.8,1-1.7,1-2.7c0-2.6-1.6-3.9-4.8-3.9h-6.4V-469.9z M921.3-451.5h7c1.7,0,3-0.4,3.8-1.3
				c0.8-0.9,1.2-1.8,1.2-2.9s-0.4-2.1-1.2-2.9c-0.8-0.9-2.2-1.3-4.3-1.3h-6.5V-451.5z"/>
			<path fill="#FFFFFF" d="M978.3-440.9c-1.6,0.3-3.2,0.5-4.7,0.5c-6.8,0-12.2-2.2-16.3-6.6s-6.1-10.2-6.1-17.2c0-7,2-12.8,6-17.3
				s9.5-6.8,16.5-6.8c6.5,0,11.8,2.1,15.9,6.4c4.1,4.3,6.2,10,6.2,17.1c0,8.7-2.8,15.3-8.4,19.8c0.5,1.3,1.9,2,4.4,2
				c1.1,0,2.4-0.1,3.9-0.4v10.5c-2.5,0.3-4.5,0.4-6,0.4c-2.6,0-4.8-0.5-6.8-1.6C980.8-435.3,979.3-437.5,978.3-440.9z M973.5-451
				c2.4,0,4.2-1.1,5.2-3.2s1.6-6,1.6-11.5c0-8.1-2.2-12.1-6.6-12.1c-4.7,0-7.1,4.6-7.1,13.8C966.7-455.4,968.9-451,973.5-451z"/>
			<path fill="#FFFFFF" d="M1059.2-487.7v46.5h-14.4v-18.1h-11v18.1h-14.4v-46.5h14.4v17.1h11v-17.1H1059.2z"/>
			<path fill="#FFFFFF" d="M1105.3-487.7v30.8c0,5.8-1.7,10-5.2,12.6c-3.5,2.6-8,3.8-13.6,3.8c-5.9,0-10.6-1.2-14.2-3.7
				c-3.6-2.5-5.4-6.5-5.4-12v-31.6h14.6v29.9c0,2.2,0.5,3.9,1.4,4.9c0.9,1,2.5,1.5,4.5,1.5c1.7,0,3.2-0.4,4.3-1.1
				c1.1-0.7,1.8-1.6,2-2.5c0.2-0.9,0.3-2.8,0.3-5.5v-27.2H1105.3z"/>
			<path fill="#FFFFFF" d="M1132.3-476.6v35.4h-13.6v-35.4h-9.7v-11.1h33.1v11.1H1132.3z"/>
		</g>
		<g>
			<g>
				<rect x="858.9" y="-422.8" fill="#FFFFFF" width="94" height="2"/>
			</g>
			<g>
				<rect x="1047.9" y="-422.8" fill="#FFFFFF" width="94" height="2"/>
			</g>
			<g enable-background="new    ">
				<path fill="#FFFFCC" d="M964.5-420.9v2.6h6.2c0.1,0,0.2,0,0.3-0.1c0.1-0.1,0.1-0.2,0.2-0.4h0.2v2.5h-0.2c0-0.2-0.1-0.3-0.2-0.4
					c-0.1-0.1-0.2-0.1-0.3-0.1h-8.7v-0.2c0.2,0,0.3-0.1,0.4-0.2c0.1-0.1,0.1-0.2,0.1-0.3v-8.1c0-0.1,0-0.3-0.1-0.3s-0.2-0.1-0.4-0.2
					v-0.2h8.5c0.1,0,0.2,0,0.3-0.1c0.1-0.1,0.1-0.2,0.2-0.3h0.2v2.5H971c0-0.2-0.1-0.3-0.2-0.3c-0.1-0.1-0.2-0.1-0.3-0.1h-6v2.3h3.9
					c0.1,0,0.2,0,0.3-0.1c0.1-0.1,0.1-0.2,0.2-0.4h0.2v2.4h-0.2c0-0.2-0.1-0.3-0.2-0.3c-0.1-0.1-0.2-0.1-0.3-0.1H964.5z"/>
				<path fill="#FFFFCC" d="M981.7-425.5l-1.1,2.3l-0.2-0.1c0,0,0-0.1,0-0.1c0-0.2-0.1-0.3-0.4-0.5c-0.8-0.6-1.8-0.9-2.9-0.9
					c-0.5,0-0.9,0.1-1.3,0.2c-0.3,0.1-0.5,0.2-0.7,0.4s-0.3,0.4-0.3,0.6c0,0.4,0.2,0.6,0.7,0.7c0.2,0.1,0.7,0.1,1.4,0.2l1.1,0.1
					c0.7,0.1,1.2,0.2,1.6,0.3s0.8,0.3,1.1,0.5c0.3,0.2,0.6,0.5,0.8,0.9c0.2,0.4,0.3,0.8,0.3,1.2c0,0.7-0.2,1.3-0.7,1.8
					c-0.4,0.5-1,0.8-1.8,1.1c-0.6,0.2-1.3,0.3-2,0.3c-1.3,0-2.5-0.3-3.8-0.9c-0.3-0.1-0.4-0.2-0.5-0.2c-0.1,0-0.2,0.1-0.3,0.2
					l-0.2-0.1l1-2.3l0.2,0.1c0,0,0,0.1,0,0.1c0,0.2,0.1,0.4,0.3,0.6c0.3,0.3,0.8,0.5,1.4,0.7s1.2,0.3,1.8,0.3c0.6,0,1.2-0.1,1.6-0.3
					c0.2-0.1,0.4-0.3,0.6-0.5c0.1-0.2,0.2-0.4,0.2-0.6c0-0.3-0.2-0.5-0.5-0.7c-0.2-0.1-0.7-0.2-1.4-0.3l-1.1-0.1
					c-0.7-0.1-1.2-0.1-1.5-0.2c-0.3-0.1-0.6-0.2-0.9-0.3c-0.4-0.2-0.8-0.5-1-0.9c-0.2-0.4-0.3-0.8-0.3-1.3c0-0.8,0.3-1.5,0.8-2
					c0.7-0.7,1.8-1,3.3-1c0.6,0,1.2,0.1,1.7,0.2c0.5,0.1,1.2,0.4,2,0.7c0.3,0.1,0.4,0.2,0.5,0.2c0.1,0,0.2-0.1,0.3-0.2L981.7-425.5z
					"/>
				<path fill="#FFFFCC" d="M988.5-424.7v7.3c0,0.1,0,0.3,0.1,0.3c0.1,0.1,0.2,0.1,0.4,0.2v0.2h-3v-0.2c0.2,0,0.3-0.1,0.4-0.2
					c0.1-0.1,0.1-0.2,0.1-0.3v-7.3h-3c-0.1,0-0.2,0-0.3,0.1c-0.1,0.1-0.1,0.2-0.2,0.4h-0.2v-2.5h0.2c0.1,0.2,0.1,0.3,0.2,0.4
					s0.2,0.1,0.3,0.1h8c0.1,0,0.3,0,0.3-0.1c0.1-0.1,0.1-0.2,0.2-0.4h0.2v2.5H992c0-0.2-0.1-0.3-0.2-0.4c-0.1-0.1-0.2-0.1-0.3-0.1
					H988.5z"/>
				<path fill="#FFFFCC" d="M993.3-418.9c0.3,0,0.6,0.1,0.8,0.3s0.3,0.5,0.3,0.8c0,0.3-0.1,0.6-0.3,0.8c-0.2,0.2-0.5,0.3-0.8,0.3
					c-0.3,0-0.6-0.1-0.8-0.3s-0.3-0.5-0.3-0.8c0-0.3,0.1-0.6,0.3-0.8C992.7-418.8,993-418.9,993.3-418.9z"/>
				<path fill="#FFFFCC" d="M1002.2-422.9v-2.5h0.2c0.1,0.2,0.1,0.3,0.1,0.3c0,0.1,0.1,0.1,0.2,0.1c0,0,0.1,0,0.2,0l0.6-0.2v-0.4
					c0-0.1,0-0.2-0.1-0.3s-0.2-0.1-0.4-0.2v-0.2h2.9v0.2c-0.2,0-0.3,0.1-0.4,0.2c-0.1,0.1-0.1,0.2-0.1,0.3v8.1c0,0.1,0,0.3,0.1,0.3
					c0.1,0.1,0.2,0.1,0.4,0.2v0.2h-2.9v-0.2c0.2,0,0.3-0.1,0.4-0.2c0.1-0.1,0.1-0.2,0.1-0.3v-6.1l-0.7,0.2c-0.2,0-0.3,0.1-0.3,0.2
					c-0.1,0.1-0.1,0.2-0.2,0.4H1002.2z"/>
				<path fill="#FFFFCC" d="M1008.7-417.3l1.2-2.3l0.2,0.1c0,0.1,0,0.2,0,0.3c0,0.2,0.1,0.4,0.4,0.6c0.2,0.2,0.6,0.3,1,0.4
					s0.8,0.2,1.1,0.2c0.8,0,1.4-0.2,2-0.6c0.4-0.3,0.6-0.6,0.8-1c0.2-0.4,0.3-0.9,0.3-1.5c-0.5,0.4-1,0.7-1.4,0.9
					c-0.5,0.2-1,0.3-1.7,0.3c-1,0-1.9-0.2-2.6-0.7c-0.4-0.3-0.7-0.6-1-1.1c-0.2-0.4-0.3-0.9-0.3-1.4c0-1,0.4-1.8,1.3-2.4
					c0.8-0.6,1.8-0.9,3.1-0.9c1.4,0,2.4,0.3,3.2,1c0.5,0.4,0.9,1,1.1,1.7c0.2,0.7,0.4,1.4,0.4,2.1c0,1.5-0.5,2.7-1.4,3.6
					c-1,1-2.2,1.4-3.7,1.4c-0.5,0-1,0-1.4-0.1c-0.4-0.1-0.9-0.3-1.5-0.5c-0.2-0.1-0.3-0.1-0.5-0.1c-0.1,0-0.2,0-0.2,0.1
					c-0.1,0.1-0.1,0.1-0.1,0.1L1008.7-417.3z M1013-424.9c-0.7,0-1.3,0.2-1.7,0.5c-0.4,0.3-0.6,0.7-0.6,1.1c0,0.5,0.2,0.8,0.6,1.1
					c0.4,0.4,1,0.5,1.7,0.5c0.7,0,1.3-0.2,1.8-0.5c0.4-0.3,0.6-0.7,0.6-1.1c0-0.5-0.2-0.9-0.6-1.2
					C1014.4-424.7,1013.8-424.9,1013-424.9z"/>
				<path fill="#FFFFCC" d="M1019-417.3l1.2-2.3l0.2,0.1c0,0.1,0,0.2,0,0.3c0,0.2,0.1,0.4,0.4,0.6c0.2,0.2,0.6,0.3,1,0.4
					s0.8,0.2,1.1,0.2c0.8,0,1.4-0.2,2-0.6c0.4-0.3,0.6-0.6,0.8-1c0.2-0.4,0.3-0.9,0.3-1.5c-0.5,0.4-1,0.7-1.4,0.9
					c-0.5,0.2-1,0.3-1.7,0.3c-1,0-1.9-0.2-2.6-0.7c-0.4-0.3-0.7-0.6-1-1.1c-0.2-0.4-0.3-0.9-0.3-1.4c0-1,0.4-1.8,1.3-2.4
					c0.8-0.6,1.8-0.9,3.1-0.9c1.4,0,2.4,0.3,3.2,1c0.5,0.4,0.9,1,1.1,1.7c0.2,0.7,0.4,1.4,0.4,2.1c0,1.5-0.5,2.7-1.4,3.6
					c-1,1-2.2,1.4-3.7,1.4c-0.5,0-1,0-1.4-0.1c-0.4-0.1-0.9-0.3-1.5-0.5c-0.2-0.1-0.3-0.1-0.5-0.1c-0.1,0-0.2,0-0.2,0.1
					c-0.1,0.1-0.1,0.1-0.1,0.1L1019-417.3z M1023.3-424.9c-0.7,0-1.3,0.2-1.7,0.5c-0.4,0.3-0.6,0.7-0.6,1.1c0,0.5,0.2,0.8,0.6,1.1
					c0.4,0.4,1,0.5,1.7,0.5c0.7,0,1.3-0.2,1.8-0.5c0.4-0.3,0.6-0.7,0.6-1.1c0-0.5-0.2-0.9-0.6-1.2
					C1024.6-424.7,1024-424.9,1023.3-424.9z"/>
				<path fill="#FFFFCC" d="M1035.7-424.7h-6c-0.1,0-0.3,0-0.3,0.1c-0.1,0.1-0.1,0.2-0.2,0.4h-0.2v-2.5h0.2c0,0.2,0.1,0.3,0.2,0.4
					c0.1,0.1,0.2,0.1,0.3,0.1h7.6c0.1,0,0.3,0,0.3-0.1c0.1-0.1,0.1-0.2,0.2-0.4h0.2v1.8l-4.3,7.1c-0.2,0.3-0.3,0.5-0.3,0.5
					c0,0.1,0.1,0.3,0.4,0.3v0.2h-3.4v-0.2c0.2-0.1,0.4-0.1,0.5-0.3c0.1-0.1,0.3-0.3,0.5-0.6L1035.7-424.7z"/>
			</g>
		</g>
		<g>
			<rect x="858.9" y="-502.8" fill="#FFFFFF" width="284" height="2"/>
		</g>
	</g>
</g>
<g display="none">
	<g display="inline">
		<radialGradient id="SVGID_2_" cx="1012.55" cy="-284.2" r="146.7393" gradientUnits="userSpaceOnUse">
			<stop  offset="0" style="stop-color:#753128"/>
			<stop  offset="1" style="stop-color:#421C17"/>
		</radialGradient>
		<path fill="url(#SVGID_2_)" stroke="#FFFFFF" stroke-width="3" stroke-miterlimit="10" d="M1211.6-302.7
			c-36.2-22.2-111.6-37.4-198.2-37.4c-0.3,0-0.6,0-0.9,0s-0.6,0-0.9,0c-86.6,0-162,15.2-198.2,37.5c-0.2,0.1-0.5,0.3-0.7,0.4
			l34.5,73.9c40.6-13.7,99.4-22.4,164.5-22.4c0.3,0,0.6,0,0.9,0s0.6,0,0.9,0c65.1,0,124,8.6,164.5,22.4l34.4-73.9
			C1212.1-302.4,1211.9-302.5,1211.6-302.7z"/>
		<g>
			<path fill="#FFFFFF" d="M846.3-271.4c-1.9-6.3-1.9-11.3,0-15.1c1.9-3.7,6-6.6,12.2-8.6s11.1-2.1,14.7-0.1c3.6,1.9,6.4,6,8.3,12.4
				c1.9,6.3,1.9,11.3,0,15s-6,6.6-12.2,8.6s-11.1,2.1-14.7,0.2C851-261,848.2-265.1,846.3-271.4z M855.7-274.4
				c1.4,4.5,3,7.6,4.9,9.1c1.9,1.6,4.3,1.9,7.2,1c2.9-0.9,4.7-2.6,5.4-5.1c0.7-2.4,0.4-5.9-1-10.4c-1.4-4.5-3-7.6-4.9-9.2
				c-1.9-1.6-4.3-1.9-7.2-1c-2.9,0.9-4.7,2.6-5.4,5.1S854.3-278.9,855.7-274.4z M865.3-265.5c-1.8,0.1-3.4-0.6-4.7-2.1
				c-1.3-1.5-2.5-3.9-3.5-7.3c-1.2-3.9-1.5-6.9-0.9-9s2-3.6,4.4-4.4c1.8-0.6,3.2-0.6,4.5,0c1.2,0.6,2.4,1.7,3.5,3.6
				c-1.2-0.2-2.3-0.3-3.3-0.3s-1.8,0.1-2.5,0.3c-1.7,0.6-2.7,1.5-3.1,2.9c-0.4,1.4-0.1,3.5,0.8,6.4c0.6,2,1.3,3.8,2.1,5.4
				C863.3-268.4,864.2-266.9,865.3-265.5z M873-297.1c3.9,1.7,6.9,3.6,8.9,5.8s3.7,5.3,4.8,9.2c1,3.2,1.4,6.2,1.3,9
				c-0.1,2.9-0.6,5.5-1.7,7.9c-1,2.3-2.6,4.4-4.9,6.3c-2.2,1.9-4.7,3.3-7.5,4.2c-2.6,0.8-5.2,1.1-7.9,0.9c-2.7-0.3-5.6-1.1-8.6-2.4
				c2,0.3,4,0.3,5.9,0.1c2-0.2,4.2-0.7,6.5-1.5c6.5-2.1,10.8-5.3,12.9-9.4c2.1-4.2,2.1-9.7,0.1-16.4c-1.1-3.6-2.4-6.4-3.9-8.5
				C877.5-294,875.5-295.7,873-297.1z"/>
			<path fill="#FFFFFF" d="M892.1-267.8l-1.1-5.7l5.7-1.1l-4.3-23.2l-5.7,1.1l-1.1-5.7l24.5-4.9c3.5-0.7,6-1.1,7.4-1.1
				c1.4,0,2.6,0.1,3.5,0.5c1.4,0.6,2.5,1.5,3.5,2.8c0.9,1.3,1.5,2.8,1.9,4.7c0.5,2.8,0.2,5.1-1,7.1s-3.1,3.2-5.7,3.8l0.2,1.4
				l1.2-0.2c0.4-0.1,0.8,0,1.2,0.2c0.4,0.2,0.7,0.5,0.9,1l2.6,5c0.3,0.6,0.7,1,1.1,1.2c0.4,0.2,0.9,0.3,1.5,0.2l3.5-0.7l1.1,5.7
				l-9,1.8c-1,0.2-1.9,0.1-2.7-0.2c-0.8-0.4-1.4-1-2-2l-4.4-7.5c-0.7-1.3-1.5-2.1-2.3-2.6c-0.8-0.5-1.6-0.7-2.6-0.5l-6.9,1.4
				l1.7,9.4l5.7-1.1l1.1,5.7L892.1-267.8z M887.2-294.9l4.3-0.9l0.8,4.1L887.2-294.9z M892.5-266l21-4.2l-1.4-7.5l3.7,2.1l1.6,8.7
				l-19.9,3.9L892.5-266z M902.5-290.1l10.1-2c2.1-0.4,3.5-1.1,4.1-1.9c0.7-0.9,0.8-2.2,0.5-3.9c-0.3-1.6-1-2.7-2-3.3
				c-1-0.6-2.5-0.7-4.4-0.3l-10.1,2L902.5-290.1z M903.6-292.2l-1.1-5.7l8.8-1.7c1.2-0.2,2.2-0.2,3,0.2c0.7,0.4,1.2,1,1.4,1.9
				c0,0.2,0.1,0.4,0.1,0.6s0,0.3-0.1,0.5l-9.2,1.8l0.3,1.8L903.6-292.2z M908.2-280.5l0.3,1.7l-2.3,0.5l-1.1-5.7l5.2-1
				c0.6-0.1,1.2-0.1,1.6,0.2c0.4,0.2,0.9,0.7,1.3,1.4l1.1,1.8L908.2-280.5z M934.9-274.4l-1.4-7.5l3.8,2.6l1.5,8.2l-8.5,1.7
				c-1.1,0.2-2.1,0.2-3,0.1c-0.9-0.2-1.8-0.5-2.5-1l-3.3-2.3c0.5,0.2,0.9,0.4,1.4,0.4c0.4,0.1,0.9,0,1.4-0.1l0.6-0.1L934.9-274.4z
				 M925-287.8c-0.1-0.3-0.3-0.6-0.6-0.8c-0.3-0.3-0.6-0.5-1-0.7c1.9-1,3.3-2.5,4.1-4.5c0.8-2,1-4.3,0.5-6.8
				c-0.3-1.8-0.9-3.3-1.7-4.5c-0.8-1.2-1.8-2.3-3.2-3.2l4.7,3.5c0.9,0.7,1.6,1.5,2.2,2.6c0.6,1,1,2.2,1.3,3.6
				c0.4,2.3,0.2,4.4-0.5,6.3c-0.8,1.9-2.1,3.8-4.1,5.5l2,1.5l0.1,0.1c0.9,0.7,1.6,1.4,2,2.2l-2.4,0.5c-0.3,0.1-0.5,0-0.7-0.1
				s-0.4-0.4-0.5-0.7L925-287.8z"/>
			<path fill="#FFFFFF" d="M952.2-284l5.8-0.7l0.6,5.8l-20.1,2.4l-0.6-5.8l5.8-0.7l-2.6-23.5l-5.8,0.7l-0.6-5.8l20.1-2.4l0.6,5.8
				l-5.8,0.7L952.2-284z M940.4-300.5l-4.8-3.4l4.4-0.5L940.4-300.5z M943.8-271.3l-5-3.4l21.5-2.5l-0.8-7.6l3.5,2.4l1,8.8
				L943.8-271.3z M953.4-286l-2.2-19.8l5.8-0.7l-0.8-7.6l3.6,3.3l0.9,7.9l-5.8,0.7l1.8,15.8L953.4-286z"/>
			<path fill="#FFFFFF" d="M993.3-296.6l-4.9,0.2l-0.2-4.6l18.4-0.8l0.2,4.6l-5.1,0.2l0.7,15.4l-8.5,0.4l-0.2-4.6
				c-1.4,2-3.1,3.5-5.2,4.6c-2.1,1.1-4.5,1.7-7.3,1.8c-5.3,0.2-9.5-1.2-12.5-4.4c-3-3.1-4.7-7.8-4.9-13.8c-0.3-6.2,1-11,3.7-14.2
				c2.7-3.2,7-5,12.7-5.3c2.4-0.1,4.6,0.2,6.5,0.8c1.9,0.6,3.8,1.7,5.7,3.3l-0.2-3.5l8.1-0.4l0.4,9l-8.1,0.4
				c-1.6-1.5-3.2-2.5-4.9-3.2c-1.7-0.7-3.5-1-5.4-0.9c-3.1,0.1-5.3,1.3-6.7,3.5c-1.4,2.2-2,5.5-1.8,9.8c0.2,4.8,1.2,8.2,2.8,10.3
				c1.7,2.1,4.2,3.1,7.6,2.9c2.7-0.1,4.9-1.3,6.6-3.4C992.5-290.6,993.3-293.3,993.3-296.6z M971.3-279.6c1.7,0.8,3.5,1.3,5.2,1.6
				c1.7,0.3,3.5,0.4,5.3,0.4c1.9-0.1,3.7-0.5,5.4-1.1c1.7-0.7,3.5-1.7,5.3-3l0.2,3.5l0.7,0.6c-1.5,1.1-3.1,2-4.8,2.6
				c-1.7,0.6-3.4,1-5.2,1c-1.2,0.1-2.4-0.1-3.7-0.5s-2.4-0.9-3.5-1.7L971.3-279.6z M981.1-287.1c-1.8-0.3-3.2-1.3-4.1-3.1
				c-0.9-1.8-1.5-4.4-1.6-8c-0.2-3.9,0.3-6.8,1.4-8.7c1.1-1.8,2.9-2.8,5.4-2.9c2-0.1,3.8,0.2,5.5,0.9c1.7,0.7,3.2,1.8,4.6,3.2
				l10-0.5l-0.5-10.8l3.3,3.5l0.4,9.7l-11.1,0.5c-1.7-1.1-3.4-1.9-5.1-2.4s-3.4-0.7-5.2-0.6c-2.2,0.1-3.6,0.8-4.4,2
				c-0.8,1.3-1.1,3.5-1,6.6c0.1,1.9,0.3,3.7,0.7,5.3C979.8-290.4,980.3-288.7,981.1-287.1z M988.5-294.5l3.2-0.1
				c0,0.5-0.1,0.9-0.2,1.3c-0.1,0.4-0.3,0.8-0.4,1.3L988.5-294.5z M994.1-279.4l9.9-0.4l-0.7-15.4l5.1-0.2l-0.3-6.5l3.4,3.5l0.3,6.8
				l-5.1,0.2l0.7,15.4l-9,0.4L994.1-279.4z"/>
			<path fill="#FFFFFF" d="M1017.7-275.7l-4.6-4.1l21.6,0.5l0.1-7.7l3.2,2.8l-0.2,8.9L1017.7-275.7z M1027.6-287.2l5.9,0.1l-0.1,5.8
				l-20.2-0.4l0.1-5.8l5.8,0.1l0.4-23.6l-5.8-0.1l0.1-5.8l20.2,0.4l-0.1,5.8l-5.9-0.1L1027.6-287.2z M1017.9-305.2l-4.4-4.1l4.4,0.1
				V-305.2z M1029-289l0.3-19.9l5.8,0.1l0.1-7.7l3.2,3.7l-0.1,8l-5.8-0.1l-0.3,15.9H1029z"/>
			<path fill="#FFFFFF" d="M1038.7-279.7l20.2,1.9l0.6-7.6l2.9,3.6l-0.7,8.3l-18.7-1.8L1038.7-279.7z M1038.9-281.5l0.5-5.8l5.8,0.5
				l2-23.5l-5.8-0.5l0.5-5.8l18.3,1.7l11.1,27.4l1.7-20.4l-5.8-0.5l0.5-5.8l18,1.7l-0.5,5.8l-5.1-0.5l-2.4,29.3l-11.9-1.1
				l-11.6-27.6l-1.7,20.5l5.8,0.5l-0.5,5.8L1038.9-281.5z M1041.2-309l4.4,0.4l-0.3,4.1L1041.2-309z M1053.9-287.8l1-12.3l2.7,6.4
				l-0.5,6.3L1053.9-287.8z M1061.7-314.8l4,5l-0.3,3.1l5.8,0.5l-1,12.1L1061.7-314.8z M1066.5-277.1l12.3,1.2l2.4-29.3l5.2,0.5
				l0.6-7.6l2.8,4.3l-0.7,8l-5.1-0.5l-2.4,28.9l-11.1-1L1066.5-277.1z"/>
			<path fill="#FFFFFF" d="M1087.5-275.2l18.9,3.9l1.4-7.5l2.6,3.6l-1.6,8.5l-16.9-3.5L1087.5-275.2z M1087.9-277l1.1-5.7l4.9,1
				l15.5-26.8l13.4,2.7l5,31l4.9,1l-1.1,5.7l-18.9-3.9l1.1-5.7l4.8,1l-1.2-7l-12.5-2.6l-3.5,6.1l4.9,1l-1.1,5.7L1087.9-277z
				 M1103.9-281.5l1.6-2.8l10.6,2.2l0.4,3.2L1103.9-281.5z M1107.3-290.4l9.3,1.9l-2.3-14.4L1107.3-290.4z M1109.9-291.7l3.7-6.7
				l0.9,5.7l-1,1.7L1109.9-291.7z M1112.4-270.1l20.3,4.2l1.4-7.5l2.5,3.9l-1.5,8.2l-19.2-3.9L1112.4-270.1z M1129-276.4l-4.8-29.1
				l4.9,9l3.2,20.8L1129-276.4z"/>
			<path fill="#FFFFFF" d="M1136.1-265.1l33.2,11.3l6.2-20.1l2,4.4l-6.3,20.4l-31.8-10.6L1136.1-265.1z M1136.6-266.8l1.7-5.5
				l5.6,1.9l7-22.4l-5.6-1.9l1.7-5.5l19.2,6.5l-1.7,5.5l-5.5-1.9l-7,22.4l10.5,3.6l4-12.8l7.7,2.6l-5.7,18.3L1136.6-266.8z
				 M1147.8-287.8l-3-5.2l4.2,1.4L1147.8-287.8z M1153.9-269l5.9-18.9l5.6,1.9l2.3-7.3l2,4.6l-2.3,7.5l-5.5-1.9l-4.7,15.1
				L1153.9-269z"/>
		</g>
	</g>
	<g display="inline">
		<path fill="#588C38" stroke="#FFFFFF" stroke-width="3" stroke-miterlimit="10" d="M1178.5-218.1c-40.6-15.6-98.4-25-163.4-25
			c-0.3,0-0.2-0.1-0.4-0.1c-0.3,0-1.9,0.1-2.2,0.1c-65,0-124.6,9.4-165.6,25v109.4h330v-109.4
			C1176.9-218.1,1178.6-218.1,1178.5-218.1z"/>
		<g>
			
				<text transform="matrix(1.0069 0 0 1 870.2838 -151.5799)" fill="#FFFFFF" font-family="'FranklinGothic-Heavy'" font-size="69.8267">BBQ HUT</text>
			<g>
				<line fill="none" stroke="#FFFFFF" stroke-width="2" stroke-miterlimit="10" x1="870.4" y1="-132.2" x2="964.4" y2="-132.2"/>
				<line fill="none" stroke="#FFFFFF" stroke-width="2" stroke-miterlimit="10" x1="1059.4" y1="-132.2" x2="1153.4" y2="-132.2"/>
				
					<text transform="matrix(1 0 0 1 972.5182 -127.1424)" fill="#FFFFCC" font-family="'CopperplateGothic-Bold'" font-size="14.3597">EST. 1997</text>
			</g>
			<line fill="none" stroke="#FFFFFF" stroke-width="2" stroke-miterlimit="10" x1="870.4" y1="-212.2" x2="1154.4" y2="-212.2"/>
		</g>
	</g>
</g>
</svg>
