<?xml version="1.0" encoding="utf-8"?>
<!-- Generator: Adobe Illustrator 18.1.1, SVG Export Plug-In . SVG Version: 6.00 Build 0)  -->
<svg version="1.1" id="Layer_1" xmlns="http://www.w3.org/2000/svg" xmlns:xlink="http://www.w3.org/1999/xlink" x="0px" y="0px"
	 viewBox="0 0 600 600" enable-background="new 0 0 600 600" xml:space="preserve">
<g display="none" opacity="0.16">
	<path display="inline" fill="#753128" d="M1642,363.9v1.1C1642,364.8,1642,363.8,1642,363.9z"/>
	<path display="inline" fill="#753128" d="M1642,363.9V378V363.9L1642,363.9z"/>
	<path display="inline" fill="#753128" d="M1642,363.8h-0.2C1641.8,363.8,1641.9,363.8,1642,363.8L1642,363.8z"/>
	<radialGradient id="SVGID_1_" cx="1602" cy="363.7" r="217.8179" gradientUnits="userSpaceOnUse">
		<stop  offset="0" style="stop-color:#FCF69F"/>
		<stop  offset="1" style="stop-color:#165500"/>
	</radialGradient>
	<ellipse display="inline" fill="url(#SVGID_1_)" cx="1602" cy="363.7" rx="246.9" ry="184.2"/>
	<g display="inline">
		<path fill="#AABF9E" d="M1554.8,398.8c-1.8-2.5-3.5-5.1-4.9-7.8l-149.7,79.1c11.1,11.8,24,22.5,38.4,32l118.6-100.3
			C1556.3,400.8,1555.5,399.8,1554.8,398.8z"/>
		<path fill="#AABF9E" d="M1578.7,417.6l-51.6,121.9c9.5,2.2,19.2,4.1,29.1,5.4l31.2-124.5C1584.4,419.8,1581.5,418.8,1578.7,417.6z
			"/>
		<path fill="#AABF9E" d="M1544,374l-182.5,31.9c3.7,12,9.1,23.6,15.8,34.6l168.9-57.8C1545.3,379.9,1544.5,377,1544,374z"/>
		<path fill="#AABF9E" d="M1563.5,408.2l-95.6,110.5c9.5,4.6,19.4,8.7,29.8,12.3l73.1-117.5C1568.2,411.9,1565.7,410.1,1563.5,408.2
			z"/>
		<path fill="#AABF9E" d="M1608.7,305.8l15.4-125.5c-7.5-0.5-15-0.8-22.6-0.8c-2,0-4,0-6,0.1l4.1,125.8
			C1602.6,305.3,1605.7,305.4,1608.7,305.8z"/>
		<path fill="#AABF9E" d="M1645.4,402.7L1760,505c10.2-6.4,19.7-13.4,28.3-20.9l-137.5-88.6C1649.2,398,1647.4,400.4,1645.4,402.7z"
			/>
		<path fill="#AABF9E" d="M1614.5,420.9l27.9,124.7c9.9-1.2,19.6-2.9,29.1-5l-48.4-122.3C1620.3,419.4,1617.4,420.3,1614.5,420.9z"
			/>
		<path fill="#AABF9E" d="M1596.4,422.1L1585,547.7c5.6,0.3,11.2,0.4,16.8,0.4c4,0,7.9-0.1,11.8-0.2l-8.1-125.7
			C1602.5,422.4,1599.4,422.3,1596.4,422.1z"/>
		<path fill="#AABF9E" d="M1631.2,414.3l69.8,118.2c10.2-3.4,20.1-7.3,29.6-11.6L1638.8,409C1636.4,410.9,1633.8,412.7,1631.2,414.3
			z"/>
		<path fill="#AABF9E" d="M1655.1,387.6l158.6,70.1c8-10,14.7-20.7,20-31.8L1658.1,379C1657.3,382,1656.3,384.8,1655.1,387.6z"/>
		<path fill="#AABF9E" d="M1641.2,320.7l100.2-108.8c-9.5-4.9-19.4-9.3-29.7-13.1l-77.6,116.3C1636.6,316.8,1639,318.7,1641.2,320.7
			z"/>
		<path fill="#AABF9E" d="M1658.9,351.9l180.3-37.4c-4.4-11.8-10.2-23-17.4-33.7l-165.4,62.5C1657.5,346,1658.3,348.9,1658.9,351.9z
			"/>
		<path fill="#AABF9E" d="M1648.5,328.9c1.5,2,2.8,4.1,4,6.2l145.4-82.8c-8.3-8.1-17.4-15.8-27.4-22.8l-123.2,97.9
			C1647.8,327.9,1648.1,328.4,1648.5,328.9z"/>
		<path fill="#AABF9E" d="M1590.6,306.4l-23.9-125c-9.9,1.1-19.6,2.5-29,4.4l44.2,122.9C1584.7,307.7,1587.6,306.9,1590.6,306.4z"/>
		<path fill="#AABF9E" d="M1626.2,310.8l55.9-121.2c-9.5-2.4-19.2-4.5-29.2-6l-35.2,124.1C1620.6,308.4,1623.5,309.5,1626.2,310.8z"
			/>
		<path fill="#AABF9E" d="M1543.7,355.8l-184.5-25.5c-2.7,10.9-4.1,22.2-4.1,33.8c0,1.4,0,2.8,0.1,4.1l188-3.2
			C1543.1,361.9,1543.3,358.8,1543.7,355.8z"/>
		<path fill="#AABF9E" d="M1559.1,323.6L1449.2,219c-10.2,6-19.8,12.7-28.7,19.9l132.9,91.7C1555.2,328.2,1557.1,325.8,1559.1,323.6
			z"/>
		<path fill="#AABF9E" d="M1549,338.4l-154.6-74.2c-8.3,9.7-15.5,20-21.3,30.8l172.7,51.9C1546.5,344,1547.7,341.1,1549,338.4z"/>
		<path fill="#AABF9E" d="M1659.8,370l185.9,19.8c1.6-8.6,2.5-17.3,2.5-26.2c0-4-0.2-7.9-0.5-11.9l-187.6,9.1
			C1660.2,363.9,1660.1,367,1659.8,370z"/>
		<path fill="#AABF9E" d="M1566.7,316.9c2.2-1.7,4.6-3.2,7-4.5l-65.4-119.2c-10.2,3.1-20.1,6.8-29.6,10.8l87.2,113.4
			C1566.2,317.3,1566.5,317.1,1566.7,316.9z"/>
	</g>
	
		<ellipse display="inline" fill="none" stroke="#FFFFFF" stroke-width="5" stroke-miterlimit="10" cx="1603" cy="363.7" rx="246.9" ry="184.2"/>
</g>
<g display="none">
	<g display="inline" opacity="0.91">
		<path fill="#21421D" stroke="#FFFFFF" stroke-width="2" stroke-miterlimit="10" d="M1602.6,202.5c0,0-64.4,106.1-195.2,181.1
			c-0.2,0.1-0.4,0.1-0.7,0.3c-1.5,1-2.4,3.2-2.4,5.1c0,3.1,2.4,6,5.3,6h30.6C1549,308,1602.6,202.5,1602.6,202.5z"/>
		<path fill="#21421D" stroke="#FFFFFF" stroke-width="2" stroke-miterlimit="10" d="M1764.8,395h30.5h0.2c2.9,0,5.3-3,5.3-6.1
			c0-1.8-0.8-3.6-2-4.6c-0.5-0.3-1-0.7-1.5-1c-130.6-75-194.6-180.8-194.6-180.8S1656,308,1764.8,395z"/>
		<path fill="#FFFFFF" stroke="#FFFFFF" stroke-width="2" stroke-miterlimit="10" d="M1602.6,203c0,0-53.6,105-162.4,192h31.3
			C1559.3,302,1602.6,203,1602.6,203z"/>
		<path fill="#FFFFFF" stroke="#FFFFFF" stroke-width="2" stroke-miterlimit="10" d="M1764.8,395c-108.8-87-162.2-192-162.2-192
			s43.2,99,131,192H1764.8z"/>
		<path fill="#21421D" stroke="#FFFFFF" stroke-width="2" stroke-miterlimit="10" d="M1733.6,395c-87.8-93-131-192-131-192
			s36,94,109.2,192H1733.6z"/>
		<path fill="#21421D" stroke="#FFFFFF" stroke-width="2" stroke-miterlimit="10" d="M1493.2,395c73.2-98,109.4-192,109.4-192
			s-43.3,99-131.2,192H1493.2z"/>
		<path fill="#FFFFFF" stroke="#FFFFFF" stroke-width="2" stroke-miterlimit="10" d="M1508.3,395c63.1-101,94.3-192,94.3-192
			s-36.2,94-109.4,192H1508.3z"/>
		<path fill="#FFFFFF" stroke="#FFFFFF" stroke-width="2" stroke-miterlimit="10" d="M1711.8,395c-73.1-98-109.2-192-109.2-192
			s31.1,91,94.1,192H1711.8z"/>
		<path fill="#21421D" stroke="#FFFFFF" stroke-width="2" stroke-miterlimit="10" d="M1602.6,203c0,0-31.2,91-94.3,192h11.5h82.8
			h82.7h11.4C1633.7,294,1602.6,203,1602.6,203z"/>
	</g>
	<g display="inline">
		<radialGradient id="SVGID_2_" cx="1603.0002" cy="344.75" r="122.6266" gradientUnits="userSpaceOnUse">
			<stop  offset="0" style="stop-color:#753128"/>
			<stop  offset="1" style="stop-color:#421C17"/>
		</radialGradient>
		<path fill="url(#SVGID_2_)" stroke="#FFFFFF" stroke-width="3" stroke-miterlimit="10" d="M1769.4,329.3
			c-30.2-18.6-93.3-31.3-165.7-31.3c-0.2,0-0.5,0-0.7,0s-0.5,0-0.7,0c-72.4,0-135.4,12.7-165.7,31.3c-0.2,0.1-0.4,0.2-0.6,0.4
			l28.8,61.8c33.9-11.5,83.1-18.7,137.5-18.7c0.2,0,0.5,0,0.7,0s0.5,0,0.7,0c54.4,0,103.6,7.2,137.5,18.7l28.8-61.8
			C1769.8,329.6,1769.6,329.4,1769.4,329.3z"/>
		<g>
			<path fill="#FFFFFF" d="M1464.1,355.5c-1.6-5.3-1.6-9.5,0-12.6s5-5.5,10.2-7.2s9.3-1.7,12.3-0.1s5.3,5.1,6.9,10.3
				c1.6,5.3,1.6,9.4,0,12.6c-1.6,3.1-5,5.5-10.2,7.2s-9.3,1.7-12.3,0.1C1468,364.2,1465.7,360.7,1464.1,355.5z M1471.9,352.9
				c1.1,3.8,2.5,6.3,4.1,7.6c1.6,1.3,3.6,1.6,6,0.8c2.4-0.8,3.9-2.2,4.5-4.2s0.3-4.9-0.8-8.7c-1.1-3.8-2.5-6.3-4.1-7.7
				c-1.6-1.3-3.6-1.6-6-0.8c-2.4,0.8-3.9,2.2-4.5,4.3C1470.5,346.3,1470.8,349.2,1471.9,352.9z M1480,360.4
				c-1.5,0.1-2.8-0.5-3.9-1.7s-2.1-3.3-2.9-6.1c-1-3.2-1.2-5.8-0.8-7.5c0.5-1.8,1.7-3,3.7-3.6c1.5-0.5,2.7-0.5,3.7,0s2,1.5,3,3
				c-1-0.2-1.9-0.3-2.7-0.3c-0.8,0-1.5,0.1-2.1,0.3c-1.4,0.5-2.3,1.3-2.6,2.5c-0.3,1.2-0.1,3,0.6,5.3c0.5,1.7,1.1,3.1,1.7,4.5
				C1478.3,357.9,1479.1,359.2,1480,360.4z M1486.5,334c3.3,1.4,5.8,3,7.5,4.9s3.1,4.4,4,7.7c0.8,2.6,1.2,5.1,1.1,7.5
				s-0.5,4.6-1.4,6.6c-0.9,1.9-2.2,3.7-4.1,5.3c-1.9,1.6-3.9,2.8-6.2,3.5c-2.2,0.7-4.4,0.9-6.6,0.7c-2.3-0.2-4.7-0.9-7.2-2
				c1.6,0.2,3.3,0.3,5,0.1c1.7-0.2,3.5-0.6,5.4-1.2c5.4-1.8,9-4.4,10.7-7.9s1.8-8.1,0.1-13.7c-0.9-3-2-5.4-3.3-7.1
				C1490.2,336.6,1488.5,335.1,1486.5,334z"/>
			<path fill="#FFFFFF" d="M1502.4,358.4l-0.9-4.8l4.8-0.9l-3.6-19.4l-4.8,0.9l-0.9-4.8l20.5-4.1c2.9-0.6,5-0.9,6.2-0.9
				s2.2,0.1,3,0.4c1.2,0.5,2.1,1.2,2.9,2.3c0.8,1.1,1.3,2.4,1.6,3.9c0.4,2.3,0.1,4.3-0.9,5.9s-2.6,2.7-4.7,3.2l0.2,1.2l1-0.2
				c0.3-0.1,0.7,0,1,0.2s0.6,0.4,0.8,0.8l2.1,4.1c0.3,0.5,0.6,0.8,0.9,1c0.4,0.2,0.8,0.2,1.3,0.1l2.9-0.6l0.9,4.8l-7.5,1.5
				c-0.9,0.2-1.6,0.1-2.3-0.2c-0.6-0.3-1.2-0.9-1.7-1.7l-3.7-6.2c-0.6-1.1-1.3-1.8-1.9-2.2c-0.6-0.4-1.4-0.5-2.2-0.4l-5.7,1.1
				l1.4,7.8l4.7-0.9l0.9,4.8L1502.4,358.4z M1498.3,335.8l3.6-0.7l0.6,3.5L1498.3,335.8z M1502.7,359.9l17.6-3.5l-1.2-6.3l3.1,1.8
				l1.4,7.3l-16.6,3.3L1502.7,359.9z M1511.1,339.8l8.4-1.7c1.7-0.3,2.9-0.9,3.4-1.6s0.7-1.8,0.4-3.2c-0.2-1.3-0.8-2.2-1.6-2.7
				c-0.9-0.5-2.1-0.6-3.7-0.2l-8.4,1.7L1511.1,339.8z M1512,338l-0.9-4.8l7.3-1.4c1-0.2,1.9-0.2,2.5,0.1c0.6,0.3,1,0.8,1.2,1.6
				c0,0.2,0.1,0.3,0.1,0.5c0,0.1,0,0.3-0.1,0.5l-7.7,1.5l0.3,1.5L1512,338z M1515.8,347.8l0.3,1.4l-1.9,0.4l-0.9-4.7l4.4-0.9
				c0.5-0.1,1-0.1,1.4,0.1s0.7,0.6,1.1,1.2l0.9,1.5L1515.8,347.8z M1538.1,352.9l-1.2-6.3l3.1,2.2l1.3,6.8l-7.1,1.4
				c-0.9,0.2-1.7,0.2-2.5,0.1s-1.5-0.4-2.1-0.8l-2.8-1.9c0.4,0.2,0.8,0.3,1.2,0.3c0.4,0.1,0.8,0,1.2,0l0.5-0.1L1538.1,352.9z
				 M1529.9,341.7c-0.1-0.3-0.3-0.5-0.5-0.7s-0.5-0.4-0.8-0.6c1.6-0.8,2.8-2.1,3.5-3.8c0.7-1.7,0.8-3.6,0.5-5.7
				c-0.3-1.5-0.7-2.8-1.4-3.8c-0.6-1-1.5-1.9-2.6-2.7l4,2.9c0.7,0.6,1.3,1.3,1.8,2.1c0.5,0.9,0.8,1.9,1,3c0.4,1.9,0.2,3.7-0.4,5.3
				c-0.6,1.6-1.8,3.1-3.5,4.6l1.6,1.3l0.1,0.1c0.8,0.5,1.3,1.2,1.6,1.8l-2,0.4c-0.2,0-0.4,0-0.6-0.1s-0.3-0.3-0.5-0.6L1529.9,341.7z
				"/>
			<path fill="#FFFFFF" d="M1552.6,344.9l4.9-0.6l0.5,4.8l-16.8,2l-0.5-4.8l4.8-0.6l-2.2-19.6l-4.8,0.6l-0.5-4.8l16.8-2l0.5,4.8
				l-4.9,0.6L1552.6,344.9z M1542.7,331.1l-4-2.9l3.7-0.4L1542.7,331.1z M1545.6,355.6l-4.2-2.9l18-2.1l-0.7-6.4l3,2l0.8,7.4
				L1545.6,355.6z M1553.6,343.3l-1.8-16.5l4.8-0.6l-0.7-6.4l3,2.7l0.7,6.6l-4.8,0.6l1.5,13.2L1553.6,343.3z"/>
			<path fill="#FFFFFF" d="M1587,334.4l-4.1,0.2l-0.2-3.9l15.4-0.7l0.2,3.9l-4.2,0.2l0.6,12.9l-7.1,0.3l-0.2-3.8
				c-1.2,1.7-2.6,3-4.4,3.9s-3.8,1.4-6.1,1.5c-4.4,0.2-7.9-1-10.5-3.6c-2.5-2.6-3.9-6.5-4.1-11.6c-0.2-5.2,0.8-9.2,3.1-11.9
				c2.3-2.7,5.8-4.2,10.6-4.4c2-0.1,3.8,0.1,5.4,0.7c1.6,0.5,3.1,1.4,4.7,2.7l-0.1-2.9l6.8-0.3l0.3,7.5l-6.8,0.3
				c-1.3-1.2-2.7-2.1-4.1-2.7s-2.9-0.8-4.5-0.8c-2.6,0.1-4.4,1.1-5.6,3s-1.7,4.6-1.5,8.2c0.2,4,1,6.9,2.3,8.6
				c1.4,1.8,3.5,2.6,6.4,2.4c2.2-0.1,4.1-1.1,5.5-2.9C1586.3,339.4,1587,337.1,1587,334.4z M1568.6,348.6c1.5,0.6,2.9,1.1,4.3,1.4
				s2.9,0.4,4.4,0.3c1.6-0.1,3.1-0.4,4.5-0.9s2.9-1.4,4.4-2.5l0.1,2.9l0.6,0.5c-1.3,0.9-2.6,1.7-4,2.2s-2.9,0.8-4.4,0.9
				c-1,0-2-0.1-3.1-0.4s-2-0.8-2.9-1.4L1568.6,348.6z M1576.8,342.4c-1.5-0.2-2.7-1.1-3.4-2.6c-0.8-1.5-1.2-3.7-1.3-6.7
				c-0.1-3.3,0.2-5.7,1.1-7.3c0.9-1.5,2.4-2.4,4.5-2.4c1.6-0.1,3.2,0.2,4.6,0.7c1.4,0.6,2.7,1.5,3.9,2.7l8.3-0.4l-0.4-9l2.8,2.9
				l0.4,8.1l-9.3,0.4c-1.5-0.9-2.9-1.6-4.3-2s-2.8-0.6-4.4-0.5c-1.8,0.1-3,0.6-3.7,1.7c-0.7,1-0.9,2.9-0.8,5.6
				c0.1,1.6,0.3,3.1,0.6,4.5C1575.7,339.6,1576.1,341,1576.8,342.4z M1583,336.1l2.6-0.1c0,0.4-0.1,0.8-0.2,1.1
				c-0.1,0.4-0.2,0.7-0.4,1.1L1583,336.1z M1587.6,348.8l8.3-0.4l-0.6-12.9l4.2-0.2l-0.2-5.4l2.8,2.9l0.3,5.7l-4.3,0.2l0.6,12.9
				l-7.5,0.3L1587.6,348.8z"/>
			<path fill="#FFFFFF" d="M1607.3,351.8l-3.8-3.4l18.1,0.4l0.1-6.4l2.7,2.4l-0.1,7.4L1607.3,351.8z M1615.6,342.3l4.9,0.1l-0.1,4.9
				l-16.9-0.4l0.1-4.9l4.9,0.1l0.3-19.7l-4.9-0.1l0.1-4.9l16.9,0.4l-0.1,4.9l-4.9-0.1L1615.6,342.3z M1607.6,327.2l-3.6-3.4l3.7,0.1
				L1607.6,327.2z M1616.8,340.7l0.3-16.6l4.9,0.1l0.1-6.4l2.7,3.1l-0.1,6.7l-4.9-0.1l-0.2,13.3L1616.8,340.7z"/>
			<path fill="#FFFFFF" d="M1624.9,348.5l16.9,1.6l0.5-6.4l2.4,3l-0.6,6.9l-15.6-1.5L1624.9,348.5z M1625.1,347l0.4-4.8l4.9,0.5
				l1.6-19.6l-4.9-0.5l0.4-4.8l15.3,1.4l9.3,22.9l1.4-17l-4.9-0.5l0.4-4.8l15,1.4l-0.4,4.8l-4.3-0.4l-2,24.5l-9.9-0.9l-9.7-23.1
				l-1.4,17.2l4.9,0.5l-0.4,4.8L1625.1,347z M1627,324l3.7,0.3l-0.3,3.4L1627,324z M1637.6,341.7l0.9-10.3l2.2,5.3l-0.4,5.3
				L1637.6,341.7z M1644.2,319.2l3.3,4.1l-0.2,2.6l4.9,0.5l-0.8,10.1L1644.2,319.2z M1648.1,350.7l10.3,1l2-24.5l4.3,0.4l0.5-6.4
				l2.4,3.6l-0.6,6.7l-4.3-0.4l-2,24.2l-9.3-0.9L1648.1,350.7z"/>
			<path fill="#FFFFFF" d="M1665.7,352.3l15.8,3.2l1.2-6.3l2.2,3l-1.3,7.1l-14.1-2.9L1665.7,352.3z M1666,350.8l0.9-4.8l4.1,0.8
				l12.9-22.4l11.2,2.3l4.2,25.9l4.1,0.8l-0.9,4.8l-15.8-3.2l0.9-4.8l4,0.8l-1-5.9l-10.4-2.1l-2.9,5.1l4.1,0.8l-0.9,4.8L1666,350.8z
				 M1679.4,347l1.3-2.3l8.8,1.8l0.4,2.7L1679.4,347z M1682.3,339.6l7.8,1.6l-1.9-12.1L1682.3,339.6z M1684.4,338.5l3.1-5.6l0.7,4.8
				l-0.8,1.5L1684.4,338.5z M1686.5,356.5l17,3.5l1.2-6.3l2.1,3.3l-1.3,6.8l-16-3.3L1686.5,356.5z M1700.3,351.3l-4-24.3l4.1,7.5
				l2.7,17.4L1700.3,351.3z"/>
			<path fill="#FFFFFF" d="M1706.3,360.8l27.8,9.4l5.2-16.8l1.6,3.7l-5.3,17.1l-26.5-9L1706.3,360.8z M1706.7,359.3l1.4-4.6l4.6,1.6
				l5.8-18.8l-4.6-1.6l1.4-4.6l16,5.5l-1.4,4.6l-4.6-1.6l-5.8,18.8l8.7,3l3.3-10.7l6.4,2.2l-4.7,15.3L1706.7,359.3z M1716.1,341.7
				l-2.5-4.4l3.5,1.2L1716.1,341.7z M1721.2,357.5l4.9-15.8l4.6,1.6l1.9-6.1l1.6,3.8l-2,6.3l-4.6-1.6l-3.9,12.7L1721.2,357.5z"/>
		</g>
	</g>
	<g display="inline">
		<path fill="#588C38" stroke="#FFFFFF" stroke-width="3" stroke-miterlimit="10" d="M1741.8,400c-33.9-13-82.3-20.9-136.6-20.9
			c-0.2,0-0.1,0-0.4,0c-0.2,0-1.6,0.1-1.9,0.1c-54.3,0-104.4,7.9-138.4,20.9v91.5h276V400H1741.8z"/>
		<g>
			
				<text transform="matrix(1.0069 0 0 1 1484.1621 455.5791)" fill="#FFFFFF" font-family="'FranklinGothic-Heavy'" font-size="58.3521">BBQ HUT</text>
			<g>
				<line fill="none" stroke="#FFFFFF" stroke-width="2" stroke-miterlimit="10" x1="1484" y1="472" x2="1563" y2="472"/>
				<line fill="none" stroke="#FFFFFF" stroke-width="2" stroke-miterlimit="10" x1="1642" y1="472" x2="1721" y2="472"/>
				<text transform="matrix(1 0 0 1 1569.5952 476)" fill="#FFFFCC" font-family="'CopperplateGothic-Bold'" font-size="12">EST. 1995</text>
			</g>
			<line fill="none" stroke="#FFFFFF" stroke-width="2" stroke-miterlimit="10" x1="1484" y1="405" x2="1722" y2="405"/>
		</g>
	</g>
</g>
<g display="none">
	<path display="inline" fill="#753128" stroke="#B2B0A1" stroke-width="4" stroke-miterlimit="10" d="M345,299.9v1.3
		C345,301,345,299.7,345,299.9z"/>
	<path display="inline" fill="#753128" stroke="#B2B0A1" stroke-width="4" stroke-miterlimit="10" d="M345,299.9v16.9V299.9
		L345,299.9z"/>
	<path display="inline" fill="#753128" stroke="#B2B0A1" stroke-width="4" stroke-miterlimit="10" d="M346.7,299.8h-0.2
		C346.6,299.8,346.6,299.9,346.7,299.8L346.7,299.8z"/>
	<radialGradient id="SVGID_3_" cx="298.9" cy="299.7" r="260.6121" gradientUnits="userSpaceOnUse">
		<stop  offset="0" style="stop-color:#FCF69F"/>
		<stop  offset="1" style="stop-color:#165500"/>
	</radialGradient>
	
		<ellipse display="inline" fill="url(#SVGID_3_)" stroke="#B2B0A1" stroke-width="4" stroke-miterlimit="10" cx="298.9" cy="299.7" rx="295.4" ry="220.4"/>
	<g display="inline">
		<path fill="#AABF9E" stroke="#B2B0A1" stroke-width="4" stroke-miterlimit="10" d="M242.4,341.6c-2.2-3-4.2-6.1-5.9-9.3L57.3,427
			c13.3,14.1,28.7,26.9,45.9,38.3l141.9-120.1C244.2,344,243.3,342.8,242.4,341.6z"/>
		<path fill="#AABF9E" stroke="#B2B0A1" stroke-width="4" stroke-miterlimit="10" d="M271,364.2l-61.8,145.9
			c11.3,2.7,23,4.9,34.8,6.5l37.3-149C277.8,366.8,274.4,365.6,271,364.2z"/>
		<path fill="#AABF9E" stroke="#B2B0A1" stroke-width="4" stroke-miterlimit="10" d="M229.5,312L11.2,350.1
			c4.5,14.4,10.9,28.3,18.9,41.4l202.1-69.1C231,319.1,230.1,315.6,229.5,312z"/>
		<path fill="#AABF9E" stroke="#B2B0A1" stroke-width="4" stroke-miterlimit="10" d="M252.8,352.9L138.4,485.2
			c11.4,5.5,23.2,10.4,35.6,14.7l87.4-140.6C258.4,357.4,255.5,355.2,252.8,352.9z"/>
		<path fill="#AABF9E" stroke="#B2B0A1" stroke-width="4" stroke-miterlimit="10" d="M306.9,230.4l18.4-150.2
			c-8.9-0.6-18-0.9-27.1-0.9c-2.4,0-4.8,0-7.2,0.1l5,150.5C299.6,229.8,303.3,229.9,306.9,230.4z"/>
		<path fill="#AABF9E" stroke="#B2B0A1" stroke-width="4" stroke-miterlimit="10" d="M350.8,346.3l137.1,122.5
			c12.2-7.6,23.5-16,33.9-25l-164.6-106C355.4,340.8,353.2,343.6,350.8,346.3z"/>
		<path fill="#AABF9E" stroke="#B2B0A1" stroke-width="4" stroke-miterlimit="10" d="M313.9,368.1l33.4,149.2
			c11.9-1.5,23.5-3.5,34.8-6l-58-146.4C320.8,366.3,317.4,367.3,313.9,368.1z"/>
		<path fill="#AABF9E" stroke="#B2B0A1" stroke-width="4" stroke-miterlimit="10" d="M292.2,369.5l-13.7,150.4
			c6.7,0.3,13.4,0.5,20.1,0.5c4.7,0,9.5-0.1,14.2-0.3l-9.7-150.4C299.5,369.9,295.8,369.8,292.2,369.5z"/>
		<path fill="#AABF9E" stroke="#B2B0A1" stroke-width="4" stroke-miterlimit="10" d="M333.9,360.2l83.5,141.5
			c12.3-4,24.1-8.7,35.4-13.9L342.9,353.9C340.1,356.2,337,358.4,333.9,360.2z"/>
		<path fill="#AABF9E" stroke="#B2B0A1" stroke-width="4" stroke-miterlimit="10" d="M362.4,328.3l189.8,83.9
			c9.5-12,17.6-24.7,24-38.1L366,318C365.1,321.5,363.9,325,362.4,328.3z"/>
		<path fill="#AABF9E" stroke="#B2B0A1" stroke-width="4" stroke-miterlimit="10" d="M345.8,248.2l120-130.1
			c-11.3-5.8-23.2-11.1-35.6-15.7l-92.8,139.2C340.3,243.6,343.1,245.8,345.8,248.2z"/>
		<path fill="#AABF9E" stroke="#B2B0A1" stroke-width="4" stroke-miterlimit="10" d="M367,285.5l215.8-44.7
			c-5.2-14.1-12.2-27.6-20.9-40.3L364,275.2C365.3,278.5,366.3,282,367,285.5z"/>
		<path fill="#AABF9E" stroke="#B2B0A1" stroke-width="4" stroke-miterlimit="10" d="M354.6,258c1.8,2.4,3.4,4.9,4.8,7.4l174-99
			c-9.9-9.7-20.9-18.9-32.8-27.2l-147.4,117C353.7,256.8,354.1,257.4,354.6,258z"/>
		<path fill="#AABF9E" stroke="#B2B0A1" stroke-width="4" stroke-miterlimit="10" d="M285.2,231.1L256.7,81.5
			c-11.8,1.3-23.4,3-34.7,5.3l52.9,147.1C278.2,232.7,281.7,231.8,285.2,231.1z"/>
		<path fill="#AABF9E" stroke="#B2B0A1" stroke-width="4" stroke-miterlimit="10" d="M327.9,236.3l66.9-145.1
			c-11.3-2.9-23-5.3-34.9-7.2l-42.1,148.5C321.2,233.5,324.6,234.8,327.9,236.3z"/>
		<path fill="#AABF9E" stroke="#B2B0A1" stroke-width="4" stroke-miterlimit="10" d="M229.2,290.3L8.4,259.7
			c-3.2,13.1-4.9,26.6-4.9,40.4c0,1.7,0,3.3,0.1,5l224.9-3.9C228.4,297.6,228.7,293.9,229.2,290.3z"/>
		<path fill="#AABF9E" stroke="#B2B0A1" stroke-width="4" stroke-miterlimit="10" d="M247.6,251.7L116.1,126.6
			c-12.3,7.2-23.7,15.2-34.3,23.8l159.1,109.8C242.9,257.1,245.1,254.3,247.6,251.7z"/>
		<path fill="#AABF9E" stroke="#B2B0A1" stroke-width="4" stroke-miterlimit="10" d="M235.4,269.4l-185-88.8
			c-10,11.6-18.5,23.9-25.5,36.8l206.6,62.1C232.5,276.1,233.9,272.6,235.4,269.4z"/>
		<path fill="#AABF9E" stroke="#B2B0A1" stroke-width="4" stroke-miterlimit="10" d="M368,307.2l222.4,23.7c1.9-10.3,3-20.7,3-31.4
			c0-4.8-0.2-9.5-0.6-14.2l-224.4,10.9C368.5,299.9,368.4,303.6,368,307.2z"/>
		<path fill="#AABF9E" stroke="#B2B0A1" stroke-width="4" stroke-miterlimit="10" d="M256.7,243.7c2.7-2,5.5-3.8,8.3-5.4L186.8,95.7
			c-12.2,3.7-24.1,8.1-35.4,13l104.4,135.7C256.1,244.2,256.4,243.9,256.7,243.7z"/>
	</g>
	
		<ellipse display="inline" fill="none" stroke="#B2B0A1" stroke-width="4" stroke-miterlimit="10" cx="300.1" cy="299.7" rx="295.4" ry="220.4"/>
</g>
<circle display="none" fill="none" cx="300.6" cy="307.2" r="250"/>
<g>
	<path fill="#21421D" stroke="#FFFFFF" stroke-width="2" stroke-miterlimit="10" d="M299.6,106.7c0,0-77,127-233.6,216.8
		c-0.3,0.2-0.5,0.2-0.8,0.3c-1.8,1.2-2.9,3.7-2.9,6.1c0,3.7,2.8,7.1,6.3,7.1h36.6C235.5,233,299.6,106.7,299.6,106.7z"/>
	<path fill="#21421D" stroke="#FFFFFF" stroke-width="2" stroke-miterlimit="10" d="M493.7,337h36.5h0.3c3.5,0,6.3-3.5,6.3-7.2
		c0-2.1-1-4.3-2.4-5.5c-0.6-0.3-1.2-0.8-1.8-1.2c-156.3-89.8-232.9-216.4-232.9-216.4S363.5,233,493.7,337z"/>
	<path fill="#FFFFFF" stroke="#FFFFFF" stroke-width="2" stroke-miterlimit="10" d="M299.6,107.2c0,0-64.1,125.8-194.4,229.8h37.4
		C247.8,226,299.6,107.2,299.6,107.2z"/>
	<path fill="#FFFFFF" stroke="#FFFFFF" stroke-width="2" stroke-miterlimit="10" d="M493.7,337C363.5,233,299.6,107.2,299.6,107.2
		S351.3,226,456.3,337H493.7z"/>
	<path fill="#21421D" stroke="#FFFFFF" stroke-width="2" stroke-miterlimit="10" d="M456.3,337c-105-111-156.7-229.8-156.7-229.8
		S342.7,220,430.2,337H456.3z"/>
	<path fill="#21421D" stroke="#FFFFFF" stroke-width="2" stroke-miterlimit="10" d="M168.7,337c87.6-117,130.9-229.8,130.9-229.8
		S247.8,226,142.6,337H168.7z"/>
	<path fill="#FFFFFF" stroke="#FFFFFF" stroke-width="2" stroke-miterlimit="10" d="M186.8,337c75.5-121,112.8-229.8,112.8-229.8
		S256.3,220,168.7,337H186.8z"/>
	<path fill="#FFFFFF" stroke="#FFFFFF" stroke-width="2" stroke-miterlimit="10" d="M430.2,337c-87.5-117-130.6-229.8-130.6-229.8
		S336.8,216,412.2,337H430.2z"/>
	<path fill="#21421D" stroke="#FFFFFF" stroke-width="2" stroke-miterlimit="10" d="M299.6,107.2c0,0-37.3,108.8-112.8,229.8h13.7
		h99.1h98.9h13.7C336.8,216,299.6,107.2,299.6,107.2z"/>
</g>
<g display="none">
	<radialGradient id="SVGID_4_" cx="300.15" cy="277" r="146.7393" gradientUnits="userSpaceOnUse">
		<stop  offset="0" style="stop-color:#753128"/>
		<stop  offset="1" style="stop-color:#421C17"/>
	</radialGradient>
	<path display="inline" fill="url(#SVGID_4_)" stroke="#FFFFFF" stroke-width="3" stroke-miterlimit="10" d="M499.2,258.5
		C463,236.3,387.6,221.1,301,221.1c-0.3,0-0.6,0-0.9,0s-0.6,0-0.9,0c-86.6,0-162,15.2-198.2,37.5c-0.2,0.1-0.5,0.3-0.7,0.4
		l34.5,73.9c40.6-13.7,99.4-22.4,164.5-22.4c0.3,0,0.6,0,0.9,0s0.6,0,0.9,0c65.1,0,124,8.6,164.5,22.4L500,259
		C499.7,258.8,499.5,258.7,499.2,258.5z"/>
	<g display="inline">
		<path fill="#FFFFFF" d="M133.9,289.8c-1.9-6.3-1.9-11.3,0-15.1c1.9-3.7,6-6.6,12.2-8.6s11.1-2.1,14.7-0.1c3.6,1.9,6.4,6,8.3,12.4
			c1.9,6.3,1.9,11.3,0,15s-6,6.6-12.2,8.6s-11.1,2.1-14.7,0.2C138.6,300.2,135.8,296.1,133.9,289.8z M143.3,286.8
			c1.4,4.5,3,7.6,4.9,9.1c1.9,1.6,4.3,1.9,7.2,1s4.7-2.6,5.4-5.1c0.7-2.4,0.4-5.9-1-10.4s-3-7.6-4.9-9.2s-4.3-1.9-7.2-1
			s-4.7,2.6-5.4,5.1S141.9,282.3,143.3,286.8z M152.9,295.7c-1.8,0.1-3.4-0.6-4.7-2.1s-2.5-3.9-3.5-7.3c-1.2-3.9-1.5-6.9-0.9-9
			s2-3.6,4.4-4.4c1.8-0.6,3.2-0.6,4.5,0c1.2,0.6,2.4,1.7,3.5,3.6c-1.2-0.2-2.3-0.3-3.3-0.3s-1.8,0.1-2.5,0.3
			c-1.7,0.6-2.7,1.5-3.1,2.9c-0.4,1.4-0.1,3.5,0.8,6.4c0.6,2,1.3,3.8,2.1,5.4C150.9,292.8,151.8,294.3,152.9,295.7z M160.6,264.1
			c3.9,1.7,6.9,3.6,8.9,5.8s3.7,5.3,4.8,9.2c1,3.2,1.4,6.2,1.3,9c-0.1,2.9-0.6,5.5-1.7,7.9c-1,2.3-2.6,4.4-4.9,6.3
			c-2.2,1.9-4.7,3.3-7.5,4.2c-2.6,0.8-5.2,1.1-7.9,0.9c-2.7-0.3-5.6-1.1-8.6-2.4c2,0.3,4,0.3,5.9,0.1c2-0.2,4.2-0.7,6.5-1.5
			c6.5-2.1,10.8-5.3,12.9-9.4c2.1-4.2,2.1-9.7,0.1-16.4c-1.1-3.6-2.4-6.4-3.9-8.5C165.1,267.2,163.1,265.5,160.6,264.1z"/>
		<path fill="#FFFFFF" d="M179.7,293.4l-1.1-5.7l5.7-1.1l-4.3-23.2l-5.7,1.1l-1.1-5.7l24.5-4.9c3.5-0.7,6-1.1,7.4-1.1
			s2.6,0.1,3.5,0.5c1.4,0.6,2.5,1.5,3.5,2.8c0.9,1.3,1.5,2.8,1.9,4.7c0.5,2.8,0.2,5.1-1,7.1s-3.1,3.2-5.7,3.8l0.2,1.4l1.2-0.2
			c0.4-0.1,0.8,0,1.2,0.2s0.7,0.5,0.9,1l2.6,5c0.3,0.6,0.7,1,1.1,1.2c0.4,0.2,0.9,0.3,1.5,0.2l3.5-0.7l1.1,5.7l-9,1.8
			c-1,0.2-1.9,0.1-2.7-0.2c-0.8-0.4-1.4-1-2-2l-4.4-7.5c-0.7-1.3-1.5-2.1-2.3-2.6s-1.6-0.7-2.6-0.5l-6.9,1.4l1.7,9.4l5.7-1.1
			l1.1,5.7L179.7,293.4z M174.8,266.3l4.3-0.9l0.8,4.1L174.8,266.3z M180.1,295.2l21-4.2l-1.4-7.5l3.7,2.1l1.6,8.7l-19.9,3.9
			L180.1,295.2z M190.1,271.1l10.1-2c2.1-0.4,3.5-1.1,4.1-1.9c0.7-0.9,0.8-2.2,0.5-3.9c-0.3-1.6-1-2.7-2-3.3c-1-0.6-2.5-0.7-4.4-0.3
			l-10.1,2L190.1,271.1z M191.2,269l-1.1-5.7l8.8-1.7c1.2-0.2,2.2-0.2,3,0.2c0.7,0.4,1.2,1,1.4,1.9c0,0.2,0.1,0.4,0.1,0.6
			s0,0.3-0.1,0.5l-9.2,1.8l0.3,1.8L191.2,269z M195.8,280.7l0.3,1.7l-2.3,0.5l-1.1-5.7l5.2-1c0.6-0.1,1.2-0.1,1.6,0.2
			c0.4,0.2,0.9,0.7,1.3,1.4l1.1,1.8L195.8,280.7z M222.5,286.8l-1.4-7.5l3.8,2.6l1.5,8.2l-8.5,1.7c-1.1,0.2-2.1,0.2-3,0.1
			c-0.9-0.2-1.8-0.5-2.5-1l-3.3-2.3c0.5,0.2,0.9,0.4,1.4,0.4c0.4,0.1,0.9,0,1.4-0.1l0.6-0.1L222.5,286.8z M212.6,273.4
			c-0.1-0.3-0.3-0.6-0.6-0.8c-0.3-0.3-0.6-0.5-1-0.7c1.9-1,3.3-2.5,4.1-4.5s1-4.3,0.5-6.8c-0.3-1.8-0.9-3.3-1.7-4.5
			c-0.8-1.2-1.8-2.3-3.2-3.2l4.7,3.5c0.9,0.7,1.6,1.5,2.2,2.6c0.6,1,1,2.2,1.3,3.6c0.4,2.3,0.2,4.4-0.5,6.3
			c-0.8,1.9-2.1,3.8-4.1,5.5l2,1.5l0.1,0.1c0.9,0.7,1.6,1.4,2,2.2l-2.4,0.5c-0.3,0.1-0.5,0-0.7-0.1s-0.4-0.4-0.5-0.7L212.6,273.4z"
			/>
		<path fill="#FFFFFF" d="M239.8,277.2l5.8-0.7l0.6,5.8l-20.1,2.4l-0.6-5.8l5.8-0.7l-2.6-23.5l-5.8,0.7l-0.6-5.8l20.1-2.4l0.6,5.8
			l-5.8,0.7L239.8,277.2z M228,260.7l-4.8-3.4l4.4-0.5L228,260.7z M231.4,289.9l-5-3.4l21.5-2.5l-0.8-7.6l3.5,2.4l1,8.8L231.4,289.9
			z M241,275.2l-2.2-19.8l5.8-0.7l-0.8-7.6l3.6,3.3l0.9,7.9l-5.8,0.7l1.8,15.8L241,275.2z"/>
		<path fill="#FFFFFF" d="M280.9,264.6l-4.9,0.2l-0.2-4.6l18.4-0.8l0.2,4.6l-5.1,0.2l0.7,15.4l-8.5,0.4l-0.2-4.6
			c-1.4,2-3.1,3.5-5.2,4.6s-4.5,1.7-7.3,1.8c-5.3,0.2-9.5-1.2-12.5-4.4c-3-3.1-4.7-7.8-4.9-13.8c-0.3-6.2,1-11,3.7-14.2
			s7-5,12.7-5.3c2.4-0.1,4.6,0.2,6.5,0.8s3.8,1.7,5.7,3.3l-0.2-3.5l8.1-0.4l0.4,9l-8.1,0.4c-1.6-1.5-3.2-2.5-4.9-3.2
			c-1.7-0.7-3.5-1-5.4-0.9c-3.1,0.1-5.3,1.3-6.7,3.5c-1.4,2.2-2,5.5-1.8,9.8c0.2,4.8,1.2,8.2,2.8,10.3c1.7,2.1,4.2,3.1,7.6,2.9
			c2.7-0.1,4.9-1.3,6.6-3.4C280.1,270.6,280.9,267.9,280.9,264.6z M258.9,281.6c1.7,0.8,3.5,1.3,5.2,1.6c1.7,0.3,3.5,0.4,5.3,0.4
			c1.9-0.1,3.7-0.5,5.4-1.1c1.7-0.7,3.5-1.7,5.3-3l0.2,3.5l0.7,0.6c-1.5,1.1-3.1,2-4.8,2.6c-1.7,0.6-3.4,1-5.2,1
			c-1.2,0.1-2.4-0.1-3.7-0.5c-1.3-0.4-2.4-0.9-3.5-1.7L258.9,281.6z M268.7,274.1c-1.8-0.3-3.2-1.3-4.1-3.1c-0.9-1.8-1.5-4.4-1.6-8
			c-0.2-3.9,0.3-6.8,1.4-8.7c1.1-1.8,2.9-2.8,5.4-2.9c2-0.1,3.8,0.2,5.5,0.9s3.2,1.8,4.6,3.2l10-0.5l-0.5-10.8l3.3,3.5l0.4,9.7
			l-11.1,0.5c-1.7-1.1-3.4-1.9-5.1-2.4s-3.4-0.7-5.2-0.6c-2.2,0.1-3.6,0.8-4.4,2c-0.8,1.3-1.1,3.5-1,6.6c0.1,1.9,0.3,3.7,0.7,5.3
			C267.4,270.8,267.9,272.5,268.7,274.1z M276.1,266.7l3.2-0.1c0,0.5-0.1,0.9-0.2,1.3s-0.3,0.8-0.4,1.3L276.1,266.7z M281.7,281.8
			l9.9-0.4l-0.7-15.4l5.1-0.2l-0.3-6.5l3.4,3.5l0.3,6.8l-5.1,0.2l0.7,15.4l-9,0.4L281.7,281.8z"/>
		<path fill="#FFFFFF" d="M305.3,285.5l-4.6-4.1l21.6,0.5l0.1-7.7l3.2,2.8l-0.2,8.9L305.3,285.5z M315.2,274l5.9,0.1l-0.1,5.8
			l-20.2-0.4l0.1-5.8l5.8,0.1l0.4-23.6l-5.8-0.1l0.1-5.8l20.2,0.4l-0.1,5.8l-5.9-0.1L315.2,274z M305.5,256l-4.4-4.1l4.4,0.1V256z
			 M316.6,272.2l0.3-19.9l5.8,0.1l0.1-7.7l3.2,3.7l-0.1,8l-5.8-0.1l-0.3,15.9H316.6z"/>
		<path fill="#FFFFFF" d="M326.3,281.5l20.2,1.9l0.6-7.6l2.9,3.6l-0.7,8.3l-18.7-1.8L326.3,281.5z M326.5,279.7l0.5-5.8l5.8,0.5
			l2-23.5l-5.8-0.5l0.5-5.8l18.3,1.7l11.1,27.4l1.7-20.4l-5.8-0.5l0.5-5.8l18,1.7l-0.5,5.8l-5.1-0.5l-2.4,29.3l-11.9-1.1l-11.6-27.6
			l-1.7,20.5l5.8,0.5l-0.5,5.8L326.5,279.7z M328.8,252.2l4.4,0.4l-0.3,4.1L328.8,252.2z M341.5,273.4l1-12.3l2.7,6.4l-0.5,6.3
			L341.5,273.4z M349.3,246.4l4,5l-0.3,3.1l5.8,0.5l-1,12.1L349.3,246.4z M354.1,284.1l12.3,1.2l2.4-29.3l5.2,0.5l0.6-7.6l2.8,4.3
			l-0.7,8l-5.1-0.5l-2.4,28.9l-11.1-1L354.1,284.1z"/>
		<path fill="#FFFFFF" d="M375.1,286l18.9,3.9l1.4-7.5l2.6,3.6l-1.6,8.5l-16.9-3.5L375.1,286z M375.5,284.2l1.1-5.7l4.9,1l15.5-26.8
			l13.4,2.7l5,31l4.9,1l-1.1,5.7l-18.9-3.9l1.1-5.7l4.8,1l-1.2-7l-12.5-2.6L389,281l4.9,1l-1.1,5.7L375.5,284.2z M391.5,279.7
			l1.6-2.8l10.6,2.2l0.4,3.2L391.5,279.7z M394.9,270.8l9.3,1.9l-2.3-14.4L394.9,270.8z M397.5,269.5l3.7-6.7l0.9,5.7l-1,1.7
			L397.5,269.5z M400,291.1l20.3,4.2l1.4-7.5l2.5,3.9l-1.5,8.2l-19.2-3.9L400,291.1z M416.6,284.8l-4.8-29.1l4.9,9l3.2,20.8
			L416.6,284.8z"/>
		<path fill="#FFFFFF" d="M423.7,296.1l33.2,11.3l6.2-20.1l2,4.4l-6.3,20.4L427,301.5L423.7,296.1z M424.2,294.4l1.7-5.5l5.6,1.9
			l7-22.4l-5.6-1.9l1.7-5.5l19.2,6.5l-1.7,5.5l-5.5-1.9l-7,22.4l10.5,3.6l4-12.8l7.7,2.6l-5.7,18.3L424.2,294.4z M435.4,273.4
			l-3-5.2l4.2,1.4L435.4,273.4z M441.5,292.2l5.9-18.9l5.6,1.9l2.3-7.3l2,4.6L455,280l-5.5-1.9l-4.7,15.1L441.5,292.2z"/>
	</g>
</g>
<g display="none">
	<g display="inline">
		<path fill="#588C38" d="M466.1,343.1c-40.6-15.6-98.4-25-163.4-25c-0.3,0-0.2-0.1-0.4-0.1c-0.3,0-1.9,0.1-2.2,0.1
			c-65,0-124.6,9.4-165.6,25v109.4h330V343.1C464.5,343.1,466.2,343.1,466.1,343.1z"/>
		<path fill="#FFFFFF" d="M466,454H133V342.1l1-0.4c41.9-16,102.5-25.1,166.1-25.1c0.1,0,0.6,0,1,0c0.5,0,1-0.1,1.2-0.1
			c0.2,0,0.4,0,0.6,0.1c63.5,0,121.7,8.9,163.7,25.1l-0.5,1.4v1.5H466V454z M136,451h327V343.5c-41.6-15.4-98.3-23.9-160.3-23.9
			c-0.2,0-0.4,0-0.6-0.1c-0.2,0-0.5,0-0.8,0c-0.5,0-1,0.1-1.2,0.1c-62.8,0-122.5,8.9-164.1,24.5V451z"/>
	</g>
	<g display="inline">
		<g enable-background="new    ">
			<g>
				<path fill="#FFFFFF" d="M162,409.6v-46.5h23.8c4.9,0,8.5,1.2,10.8,3.7c2.3,2.5,3.4,5.3,3.4,8.5c0,2.3-0.7,4.4-2,6.3
					s-3.3,3.2-5.9,3.9c6.1,1.5,9.1,5.1,9.1,10.8c0,3.5-1.1,6.5-3.2,9.3s-6.7,4.1-13.7,4.1H162z M175.2,380.9h6.7
					c1.7,0,2.8-0.4,3.5-1.3c0.7-0.8,1-1.7,1-2.7c0-2.6-1.6-3.9-4.8-3.9h-6.4V380.9z M175.2,399.3h7c1.7,0,3-0.4,3.8-1.3
					c0.8-0.9,1.2-1.8,1.2-2.9s-0.4-2.1-1.2-2.9c-0.8-0.9-2.2-1.3-4.3-1.3h-6.5V399.3z"/>
			</g>
			<g>
				<path fill="#FFFFFF" d="M207.1,409.6v-46.5h23.8c4.9,0,8.5,1.2,10.8,3.7c2.3,2.5,3.4,5.3,3.4,8.5c0,2.3-0.7,4.4-2,6.3
					s-3.3,3.2-5.9,3.9c6.1,1.5,9.1,5.1,9.1,10.8c0,3.5-1.1,6.5-3.2,9.3s-6.7,4.1-13.7,4.1H207.1z M220.4,380.9h6.7
					c1.7,0,2.8-0.4,3.5-1.3c0.7-0.8,1-1.7,1-2.7c0-2.6-1.6-3.9-4.8-3.9h-6.4V380.9z M220.4,399.3h7c1.7,0,3-0.4,3.8-1.3
					c0.8-0.9,1.2-1.8,1.2-2.9s-0.4-2.1-1.2-2.9c-0.8-0.9-2.2-1.3-4.3-1.3h-6.5V399.3z"/>
			</g>
			<g>
				<path fill="#FFFFFF" d="M277.4,409.9c-1.6,0.3-3.2,0.5-4.7,0.5c-6.8,0-12.2-2.2-16.3-6.6c-4.1-4.4-6.1-10.2-6.1-17.2
					c0-7,2-12.8,6-17.3s9.5-6.8,16.5-6.8c6.5,0,11.8,2.1,15.9,6.4c4.1,4.3,6.2,10,6.2,17.1c0,8.7-2.8,15.3-8.4,19.8
					c0.5,1.3,1.9,2,4.4,2c1.1,0,2.4-0.1,3.9-0.4v10.5c-2.5,0.3-4.5,0.4-6,0.4c-2.6,0-4.8-0.5-6.8-1.6
					C279.8,415.5,278.3,413.3,277.4,409.9z M272.5,399.8c2.4,0,4.2-1.1,5.2-3.2c1.1-2.1,1.6-6,1.6-11.5c0-8.1-2.2-12.1-6.6-12.1
					c-4.7,0-7.1,4.6-7.1,13.8C265.7,395.4,268,399.8,272.5,399.8z"/>
			</g>
			<g>
				<path fill="#FFFFFF" d="M358.2,363.1v46.5h-14.4v-18.1h-11v18.1h-14.4v-46.5h14.4v17.1h11v-17.1H358.2z"/>
			</g>
			<g>
				<path fill="#FFFFFF" d="M404.4,363.1v30.8c0,5.8-1.7,10-5.2,12.6c-3.5,2.6-8,3.8-13.6,3.8c-5.9,0-10.6-1.2-14.2-3.7
					c-3.6-2.5-5.4-6.5-5.4-12v-31.6h14.6V393c0,2.2,0.5,3.9,1.4,4.9c0.9,1,2.5,1.5,4.5,1.5c1.7,0,3.2-0.4,4.3-1.1
					c1.1-0.7,1.8-1.6,2-2.5c0.2-0.9,0.3-2.8,0.3-5.5v-27.2H404.4z"/>
			</g>
			<g>
				<path fill="#FFFFFF" d="M431.3,374.2v35.4h-13.6v-35.4H408v-11.1H441v11.1H431.3z"/>
			</g>
		</g>
		<g>
			<g>
				<rect x="158" y="428" fill="#FFFFFF" width="94" height="2"/>
			</g>
			<g>
				<rect x="347" y="428" fill="#FFFFFF" width="94" height="2"/>
			</g>
			<g enable-background="new    ">
				<path fill="#FFFFCC" d="M263.5,429.9v2.6h6.2c0.1,0,0.2,0,0.3-0.1s0.1-0.2,0.2-0.4h0.2v2.5h-0.2c0-0.2-0.1-0.3-0.2-0.4
					c-0.1-0.1-0.2-0.1-0.3-0.1H261v-0.2c0.2,0,0.3-0.1,0.4-0.2c0.1-0.1,0.1-0.2,0.1-0.3v-8.1c0-0.1,0-0.3-0.1-0.3s-0.2-0.1-0.4-0.2
					v-0.2h8.5c0.1,0,0.2,0,0.3-0.1s0.1-0.2,0.2-0.3h0.2v2.5H270c0-0.2-0.1-0.3-0.2-0.3s-0.2-0.1-0.3-0.1h-6v2.3h3.9
					c0.1,0,0.2,0,0.3-0.1s0.1-0.2,0.2-0.4h0.2v2.4h-0.2c0-0.2-0.1-0.3-0.2-0.3c-0.1-0.1-0.2-0.1-0.3-0.1H263.5z"/>
				<path fill="#FFFFCC" d="M280.8,425.3l-1.1,2.3l-0.2-0.1c0,0,0-0.1,0-0.1c0-0.2-0.1-0.3-0.4-0.5c-0.8-0.6-1.8-0.9-2.9-0.9
					c-0.5,0-0.9,0.1-1.3,0.2c-0.3,0.1-0.5,0.2-0.7,0.4c-0.2,0.2-0.3,0.4-0.3,0.6c0,0.4,0.2,0.6,0.7,0.7c0.2,0.1,0.7,0.1,1.4,0.2
					l1.1,0.1c0.7,0.1,1.2,0.2,1.6,0.3s0.8,0.3,1.1,0.5c0.3,0.2,0.6,0.5,0.8,0.9c0.2,0.4,0.3,0.8,0.3,1.2c0,0.7-0.2,1.3-0.7,1.8
					c-0.4,0.5-1,0.8-1.8,1.1c-0.6,0.2-1.3,0.3-2,0.3c-1.3,0-2.5-0.3-3.8-0.9c-0.3-0.1-0.4-0.2-0.5-0.2c-0.1,0-0.2,0.1-0.3,0.2
					l-0.2-0.1l1-2.3l0.2,0.1c0,0,0,0.1,0,0.1c0,0.2,0.1,0.4,0.3,0.6c0.3,0.3,0.8,0.5,1.4,0.7s1.2,0.3,1.8,0.3c0.6,0,1.2-0.1,1.6-0.3
					c0.2-0.1,0.4-0.3,0.6-0.5c0.1-0.2,0.2-0.4,0.2-0.6c0-0.3-0.2-0.5-0.5-0.7c-0.2-0.1-0.7-0.2-1.4-0.3l-1.1-0.1
					c-0.7-0.1-1.2-0.1-1.5-0.2c-0.3-0.1-0.6-0.2-0.9-0.3c-0.4-0.2-0.8-0.5-1-0.9c-0.2-0.4-0.3-0.8-0.3-1.3c0-0.8,0.3-1.5,0.8-2
					c0.7-0.7,1.8-1,3.3-1c0.6,0,1.2,0.1,1.7,0.2c0.5,0.1,1.2,0.4,2,0.7c0.3,0.1,0.4,0.2,0.5,0.2c0.1,0,0.2-0.1,0.3-0.2L280.8,425.3z
					"/>
				<path fill="#FFFFCC" d="M287.5,426.1v7.3c0,0.1,0,0.3,0.1,0.3c0.1,0.1,0.2,0.1,0.4,0.2v0.2h-3v-0.2c0.2,0,0.3-0.1,0.4-0.2
					c0.1-0.1,0.1-0.2,0.1-0.3v-7.3h-3c-0.1,0-0.2,0-0.3,0.1c-0.1,0.1-0.1,0.2-0.2,0.4h-0.2V424h0.2c0.1,0.2,0.1,0.3,0.2,0.4
					s0.2,0.1,0.3,0.1h8c0.1,0,0.3,0,0.3-0.1s0.1-0.2,0.2-0.4h0.2v2.5H291c0-0.2-0.1-0.3-0.2-0.4c-0.1-0.1-0.2-0.1-0.3-0.1H287.5z"/>
				<path fill="#FFFFCC" d="M292.3,431.9c0.3,0,0.6,0.1,0.8,0.3c0.2,0.2,0.3,0.5,0.3,0.8c0,0.3-0.1,0.6-0.3,0.8
					c-0.2,0.2-0.5,0.3-0.8,0.3c-0.3,0-0.6-0.1-0.8-0.3c-0.2-0.2-0.3-0.5-0.3-0.8c0-0.3,0.1-0.6,0.3-0.8
					C291.7,432,292,431.9,292.3,431.9z"/>
				<path fill="#FFFFCC" d="M301.2,427.9v-2.5h0.2c0.1,0.2,0.1,0.3,0.1,0.3c0,0.1,0.1,0.1,0.2,0.1c0,0,0.1,0,0.2,0l0.6-0.2v-0.4
					c0-0.1,0-0.2-0.1-0.3s-0.2-0.1-0.4-0.2v-0.2h2.9v0.2c-0.2,0-0.3,0.1-0.4,0.2c-0.1,0.1-0.1,0.2-0.1,0.3v8.1c0,0.1,0,0.3,0.1,0.3
					c0.1,0.1,0.2,0.1,0.4,0.2v0.2h-2.9v-0.2c0.2,0,0.3-0.1,0.4-0.2c0.1-0.1,0.1-0.2,0.1-0.3v-6.1l-0.7,0.2c-0.2,0-0.3,0.1-0.3,0.2
					c-0.1,0.1-0.1,0.2-0.2,0.4H301.2z"/>
				<path fill="#FFFFCC" d="M307.8,433.5l1.2-2.3l0.2,0.1c0,0.1,0,0.2,0,0.3c0,0.2,0.1,0.4,0.4,0.6c0.2,0.2,0.6,0.3,1,0.4
					s0.8,0.2,1.1,0.2c0.8,0,1.4-0.2,2-0.6c0.4-0.3,0.6-0.6,0.8-1c0.2-0.4,0.3-0.9,0.3-1.5c-0.5,0.4-1,0.7-1.4,0.9
					c-0.5,0.2-1,0.3-1.7,0.3c-1,0-1.9-0.2-2.6-0.7c-0.4-0.3-0.7-0.6-1-1.1c-0.2-0.4-0.3-0.9-0.3-1.4c0-1,0.4-1.8,1.3-2.4
					c0.8-0.6,1.8-0.9,3.1-0.9c1.4,0,2.4,0.3,3.2,1c0.5,0.4,0.9,1,1.1,1.7c0.2,0.7,0.4,1.4,0.4,2.1c0,1.5-0.5,2.7-1.4,3.6
					c-1,1-2.2,1.4-3.7,1.4c-0.5,0-1,0-1.4-0.1c-0.4-0.1-0.9-0.3-1.5-0.5c-0.2-0.1-0.3-0.1-0.5-0.1c-0.1,0-0.2,0-0.2,0.1
					c-0.1,0.1-0.1,0.1-0.1,0.1L307.8,433.5z M312.1,425.9c-0.7,0-1.3,0.2-1.7,0.5c-0.4,0.3-0.6,0.7-0.6,1.1c0,0.5,0.2,0.8,0.6,1.1
					c0.4,0.4,1,0.5,1.7,0.5c0.7,0,1.3-0.2,1.8-0.5c0.4-0.3,0.6-0.7,0.6-1.1c0-0.5-0.2-0.9-0.6-1.2
					C313.4,426.1,312.8,425.9,312.1,425.9z"/>
				<path fill="#FFFFCC" d="M318,433.5l1.2-2.3l0.2,0.1c0,0.1,0,0.2,0,0.3c0,0.2,0.1,0.4,0.4,0.6c0.2,0.2,0.6,0.3,1,0.4
					s0.8,0.2,1.1,0.2c0.8,0,1.4-0.2,2-0.6c0.4-0.3,0.6-0.6,0.8-1c0.2-0.4,0.3-0.9,0.3-1.5c-0.5,0.4-1,0.7-1.4,0.9
					c-0.5,0.2-1,0.3-1.7,0.3c-1,0-1.9-0.2-2.6-0.7c-0.4-0.3-0.7-0.6-1-1.1c-0.2-0.4-0.3-0.9-0.3-1.4c0-1,0.4-1.8,1.3-2.4
					c0.8-0.6,1.8-0.9,3.1-0.9c1.4,0,2.4,0.3,3.2,1c0.5,0.4,0.9,1,1.1,1.7c0.2,0.7,0.4,1.4,0.4,2.1c0,1.5-0.5,2.7-1.4,3.6
					c-1,1-2.2,1.4-3.7,1.4c-0.5,0-1,0-1.4-0.1c-0.4-0.1-0.9-0.3-1.5-0.5c-0.2-0.1-0.3-0.1-0.5-0.1c-0.1,0-0.2,0-0.2,0.1
					c-0.1,0.1-0.1,0.1-0.1,0.1L318,433.5z M322.3,425.9c-0.7,0-1.3,0.2-1.7,0.5c-0.4,0.3-0.6,0.7-0.6,1.1c0,0.5,0.2,0.8,0.6,1.1
					c0.4,0.4,1,0.5,1.7,0.5c0.7,0,1.3-0.2,1.8-0.5c0.4-0.3,0.6-0.7,0.6-1.1c0-0.5-0.2-0.9-0.6-1.2
					C323.7,426.1,323.1,425.9,322.3,425.9z"/>
				<path fill="#FFFFCC" d="M334.8,426.1h-6c-0.1,0-0.3,0-0.3,0.1c-0.1,0.1-0.1,0.2-0.2,0.4h-0.2V424h0.2c0,0.2,0.1,0.3,0.2,0.4
					s0.2,0.1,0.3,0.1h7.6c0.1,0,0.3,0,0.3-0.1s0.1-0.2,0.2-0.4h0.2v1.8l-4.3,7.1c-0.2,0.3-0.3,0.5-0.3,0.5c0,0.1,0.1,0.3,0.4,0.3
					v0.2h-3.4v-0.2c0.2-0.1,0.4-0.1,0.5-0.3c0.1-0.1,0.3-0.3,0.5-0.6L334.8,426.1z"/>
			</g>
		</g>
		<g>
			<rect x="158" y="348" fill="#FFFFFF" width="284" height="2"/>
		</g>
	</g>
</g>
</svg>
