<?xml version="1.0" encoding="utf-8"?>
<!-- Generator: Adobe Illustrator 18.1.1, SVG Export Plug-In . SVG Version: 6.00 Build 0)  -->
<svg version="1.1" id="Layer_1" xmlns="http://www.w3.org/2000/svg" xmlns:xlink="http://www.w3.org/1999/xlink" x="0px" y="0px"
	 viewBox="0 0 600 600" enable-background="new 0 0 600 600" xml:space="preserve">
<circle display="none" opacity="0.85" fill="#FFFFFF" stroke="#B2B0A1" stroke-width="4" stroke-miterlimit="10" enable-background="new    " cx="-402" cy="323.2" r="250"/>
<g display="none">
	<path display="inline" fill="#21421D" stroke="#FFFFFF" stroke-width="2" stroke-miterlimit="10" d="M-401.9,915.7
		c0,0-77,127-233.6,216.8c-0.3,0.2-0.5,0.2-0.8,0.3c-1.8,1.2-2.9,3.7-2.9,6.1c0,3.7,2.8,7.1,6.3,7.1h36.6
		C-466,1042-401.9,915.7-401.9,915.7z"/>
	<path display="inline" fill="#21421D" stroke="#FFFFFF" stroke-width="2" stroke-miterlimit="10" d="M-207.8,1146h36.5h0.3
		c3.5,0,6.3-3.5,6.3-7.2c0-2.1-1-4.3-2.4-5.5c-0.6-0.3-1.2-0.8-1.8-1.2c-156.3-89.8-232.9-216.4-232.9-216.4S-338,1042-207.8,1146z"
		/>
	<path display="inline" fill="#FFFFFF" stroke="#FFFFFF" stroke-width="2" stroke-miterlimit="10" d="M-401.9,916.2
		c0,0-64.1,125.8-194.4,229.8h37.4C-453.8,1035-401.9,916.2-401.9,916.2z"/>
	<path display="inline" fill="#FFFFFF" stroke="#FFFFFF" stroke-width="2" stroke-miterlimit="10" d="M-207.8,1146
		C-338,1042-401.9,916.2-401.9,916.2s51.7,118.8,156.7,229.8H-207.8z"/>
	<path display="inline" fill="#21421D" stroke="#FFFFFF" stroke-width="2" stroke-miterlimit="10" d="M-245.3,1146
		C-350.3,1035-402,916.2-402,916.2s43.1,112.8,130.6,229.8H-245.3z"/>
	<path display="inline" fill="#21421D" stroke="#FFFFFF" stroke-width="2" stroke-miterlimit="10" d="M-532.8,1146
		C-445.3,1029-402,916.2-402,916.2S-453.8,1035-559,1146H-532.8z"/>
	<path display="inline" fill="#FFFFFF" stroke="#FFFFFF" stroke-width="2" stroke-miterlimit="10" d="M-514.8,1146
		c75.5-121,112.8-229.8,112.8-229.8S-445.3,1029-532.8,1146H-514.8z"/>
	<path display="inline" fill="#FFFFFF" stroke="#FFFFFF" stroke-width="2" stroke-miterlimit="10" d="M-271.3,1146
		c-87.5-117-130.6-229.8-130.6-229.8s37.2,108.8,112.6,229.8H-271.3z"/>
	<path display="inline" fill="#21421D" stroke="#FFFFFF" stroke-width="2" stroke-miterlimit="10" d="M-401.9,916.2
		c0,0-37.3,108.8-112.8,229.8h13.7h99.1h98.9h13.7C-364.8,1025-401.9,916.2-401.9,916.2z"/>
</g>
<path display="none" fill="#21421D" stroke="#FFFFFF" stroke-width="2" stroke-miterlimit="10" d="M-423.3,666.7
	c0,0-77,127-233.6,216.8c-0.3,0.2-0.5,0.2-0.8,0.3c-1.8,1.2-2.9,3.7-2.9,6.1c0,3.7,2.8,7.1,6.3,7.1h36.6
	C-487.4,793-423.3,666.7-423.3,666.7z"/>
<path display="none" fill="#21421D" stroke="#FFFFFF" stroke-width="2" stroke-miterlimit="10" d="M-179.6,897h36.5h0.3
	c3.5,0,6.3-3.5,6.3-7.2c0-2.1-1-4.3-2.4-5.5c-0.6-0.3-1.2-0.8-1.8-1.2C-297,793.3-373.6,666.7-373.6,666.7S-309.8,793-179.6,897z"/>
<path display="none" fill="#FFFFFF" stroke="#FFFFFF" stroke-width="2" stroke-miterlimit="10" d="M-403,667.2
	c0,0-64.1,125.8-194.4,229.8h37.4C-454.8,786-403,667.2-403,667.2z"/>
<path display="none" fill="#FFFFFF" stroke="#FFFFFF" stroke-width="2" stroke-miterlimit="10" d="M-208.9,897
	C-339.1,793-403,667.2-403,667.2S-351.3,786-246.3,897H-208.9z"/>
<path display="none" fill="#21421D" stroke="#FFFFFF" stroke-width="2" stroke-miterlimit="10" d="M-233,896.8
	C-338,785.8-389.7,667-389.7,667s43.1,112.8,130.6,229.8H-233z"/>
<path display="none" fill="#21421D" stroke="#FFFFFF" stroke-width="2" stroke-miterlimit="10" d="M-540.9,896.8
	C-453.3,779.8-410,667-410,667s-51.8,118.8-157,229.8H-540.9z"/>
<path display="none" fill="#FFFFFF" stroke="#FFFFFF" stroke-width="2" stroke-miterlimit="10" d="M-515.8,897
	C-440.3,776-403,667.2-403,667.2S-446.3,780-533.9,897H-515.8z"/>
<path display="none" fill="#FFFFFF" stroke="#FFFFFF" stroke-width="2" stroke-miterlimit="10" d="M-272.4,897
	C-359.9,780-403,667.2-403,667.2S-365.8,776-290.4,897H-272.4z"/>
<path display="none" fill="#21421D" stroke="#FFFFFF" stroke-width="2" stroke-miterlimit="10" d="M-401.8,666.7
	c0,0-37.3,108.8-112.8,229.8h13.7h99.1h98.9h13.7C-364.6,775.5-401.8,666.7-401.8,666.7z"/>
<g>
	<radialGradient id="SVGID_1_" cx="300" cy="61" r="146.7393" gradientUnits="userSpaceOnUse">
		<stop  offset="0" style="stop-color:#753128"/>
		<stop  offset="1" style="stop-color:#421C17"/>
	</radialGradient>
	<path fill="url(#SVGID_1_)" stroke="#FFFFFF" stroke-width="3" stroke-miterlimit="10" d="M499,42.5
		C462.8,20.3,387.4,5.1,300.8,5.1c-0.3,0-0.6,0-0.9,0s-0.6,0-0.9,0c-86.6,0-162,15.2-198.2,37.5c-0.2,0.1-0.5,0.3-0.7,0.4l34.5,73.9
		c40.6-13.7,99.4-22.4,164.5-22.4c0.3,0,0.6,0,0.9,0s0.6,0,0.9,0c65.1,0,124,8.6,164.5,22.4L499.8,43
		C499.5,42.8,499.3,42.7,499,42.5z"/>
	<g>
		<path fill="#FFFFFF" d="M133.7,73.8c-1.9-6.3-1.9-11.3,0-15.1c1.9-3.7,6-6.6,12.2-8.6S157,48,160.6,50c3.6,1.9,6.4,6,8.3,12.4
			c1.9,6.3,1.9,11.3,0,15s-6,6.6-12.2,8.6s-11.1,2.1-14.7,0.2C138.4,84.2,135.6,80.1,133.7,73.8z M143.1,70.8c1.4,4.5,3,7.6,4.9,9.1
			c1.9,1.6,4.3,1.9,7.2,1s4.7-2.6,5.4-5.1c0.7-2.4,0.4-5.9-1-10.4s-3-7.6-4.9-9.2s-4.3-1.9-7.2-1s-4.7,2.6-5.4,5.1
			S141.7,66.3,143.1,70.8z M152.7,79.7c-1.8,0.1-3.4-0.6-4.7-2.1s-2.5-3.9-3.5-7.3c-1.2-3.9-1.5-6.9-0.9-9s2-3.6,4.4-4.4
			c1.8-0.6,3.2-0.6,4.5,0c1.2,0.6,2.4,1.7,3.5,3.6c-1.2-0.2-2.3-0.3-3.3-0.3s-1.8,0.1-2.5,0.3c-1.7,0.6-2.7,1.5-3.1,2.9
			c-0.4,1.4-0.1,3.5,0.8,6.4c0.6,2,1.3,3.8,2.1,5.4C150.7,76.8,151.6,78.3,152.7,79.7z M160.4,48.1c3.9,1.7,6.9,3.6,8.9,5.8
			s3.7,5.3,4.8,9.2c1,3.2,1.4,6.2,1.3,9c-0.1,2.9-0.6,5.5-1.7,7.9c-1,2.3-2.6,4.4-4.9,6.3c-2.2,1.9-4.7,3.3-7.5,4.2
			c-2.6,0.8-5.2,1.1-7.9,0.9c-2.7-0.3-5.6-1.1-8.6-2.4c2,0.3,4,0.3,5.9,0.1c2-0.2,4.2-0.7,6.5-1.5c6.5-2.1,10.8-5.3,12.9-9.4
			c2.1-4.2,2.1-9.7,0.1-16.4c-1.1-3.6-2.4-6.4-3.9-8.5C164.9,51.2,162.9,49.5,160.4,48.1z"/>
		<path fill="#FFFFFF" d="M179.5,77.4l-1.1-5.7l5.7-1.1l-4.3-23.2l-5.7,1.1l-1.1-5.7l24.5-4.9c3.5-0.7,6-1.1,7.4-1.1
			s2.6,0.1,3.5,0.5c1.4,0.6,2.5,1.5,3.5,2.8c0.9,1.3,1.5,2.8,1.9,4.7c0.5,2.8,0.2,5.1-1,7.1s-3.1,3.2-5.7,3.8l0.2,1.4l1.2-0.2
			c0.4-0.1,0.8,0,1.2,0.2s0.7,0.5,0.9,1l2.6,5c0.3,0.6,0.7,1,1.1,1.2c0.4,0.2,0.9,0.3,1.5,0.2l3.5-0.7l1.1,5.7l-9,1.8
			c-1,0.2-1.9,0.1-2.7-0.2c-0.8-0.4-1.4-1-2-2l-4.4-7.5c-0.7-1.3-1.5-2.1-2.3-2.6s-1.6-0.7-2.6-0.5l-6.9,1.4l1.7,9.4l5.7-1.1
			l1.1,5.7L179.5,77.4z M174.6,50.3l4.3-0.9l0.8,4.1L174.6,50.3z M179.9,79.2l21-4.2l-1.4-7.5l3.7,2.1l1.6,8.7l-19.9,3.9L179.9,79.2
			z M189.9,55.1l10.1-2c2.1-0.4,3.5-1.1,4.1-1.9c0.7-0.9,0.8-2.2,0.5-3.9c-0.3-1.6-1-2.7-2-3.3c-1-0.6-2.5-0.7-4.4-0.3l-10.1,2
			L189.9,55.1z M191,53l-1.1-5.7l8.8-1.7c1.2-0.2,2.2-0.2,3,0.2c0.7,0.4,1.2,1,1.4,1.9c0,0.2,0.1,0.4,0.1,0.6s0,0.3-0.1,0.5
			l-9.2,1.8l0.3,1.8L191,53z M195.6,64.7l0.3,1.7l-2.3,0.5l-1.1-5.7l5.2-1c0.6-0.1,1.2-0.1,1.6,0.2c0.4,0.2,0.9,0.7,1.3,1.4l1.1,1.8
			L195.6,64.7z M222.3,70.8l-1.4-7.5l3.8,2.6l1.5,8.2l-8.5,1.7c-1.1,0.2-2.1,0.2-3,0.1c-0.9-0.2-1.8-0.5-2.5-1l-3.3-2.3
			c0.5,0.2,0.9,0.4,1.4,0.4c0.4,0.1,0.9,0,1.4-0.1l0.6-0.1L222.3,70.8z M212.4,57.4c-0.1-0.3-0.3-0.6-0.6-0.8
			c-0.3-0.3-0.6-0.5-1-0.7c1.9-1,3.3-2.5,4.1-4.5s1-4.3,0.5-6.8c-0.3-1.8-0.9-3.3-1.7-4.5c-0.8-1.2-1.8-2.3-3.2-3.2l4.7,3.5
			c0.9,0.7,1.6,1.5,2.2,2.6c0.6,1,1,2.2,1.3,3.6c0.4,2.3,0.2,4.4-0.5,6.3c-0.8,1.9-2.1,3.8-4.1,5.5l2,1.5l0.1,0.1
			c0.9,0.7,1.6,1.4,2,2.2l-2.4,0.5c-0.3,0.1-0.5,0-0.7-0.1s-0.4-0.4-0.5-0.7L212.4,57.4z"/>
		<path fill="#FFFFFF" d="M239.6,61.2l5.8-0.7l0.6,5.8l-20.1,2.4l-0.6-5.8l5.8-0.7l-2.6-23.5l-5.8,0.7l-0.6-5.8l20.1-2.4l0.6,5.8
			l-5.8,0.7L239.6,61.2z M227.8,44.7l-4.8-3.4l4.4-0.5L227.8,44.7z M231.2,73.9l-5-3.4l21.5-2.5l-0.8-7.6l3.5,2.4l1,8.8L231.2,73.9z
			 M240.8,59.2l-2.2-19.8l5.8-0.7l-0.8-7.6l3.6,3.3l0.9,7.9l-5.8,0.7l1.8,15.8L240.8,59.2z"/>
		<path fill="#FFFFFF" d="M280.7,48.6l-4.9,0.2l-0.2-4.6l18.4-0.8l0.2,4.6l-5.1,0.2l0.7,15.4l-8.5,0.4l-0.2-4.6
			c-1.4,2-3.1,3.5-5.2,4.6c-2.1,1.1-4.5,1.7-7.3,1.8c-5.3,0.2-9.5-1.2-12.5-4.4c-3-3.1-4.7-7.8-4.9-13.8c-0.3-6.2,1-11,3.7-14.2
			c2.7-3.2,7-5,12.7-5.3c2.4-0.1,4.6,0.2,6.5,0.8c1.9,0.6,3.8,1.7,5.7,3.3l-0.2-3.5l8.1-0.4l0.4,9l-8.1,0.4
			c-1.6-1.5-3.2-2.5-4.9-3.2c-1.7-0.7-3.5-1-5.4-0.9c-3.1,0.1-5.3,1.3-6.7,3.5c-1.4,2.2-2,5.5-1.8,9.8c0.2,4.8,1.2,8.2,2.8,10.3
			c1.7,2.1,4.2,3.1,7.6,2.9c2.7-0.1,4.9-1.3,6.6-3.4C279.9,54.6,280.7,51.9,280.7,48.6z M258.7,65.6c1.7,0.8,3.5,1.3,5.2,1.6
			c1.7,0.3,3.5,0.4,5.3,0.4c1.9-0.1,3.7-0.5,5.4-1.1c1.7-0.7,3.5-1.7,5.3-3l0.2,3.5l0.7,0.6c-1.5,1.1-3.1,2-4.8,2.6
			c-1.7,0.6-3.4,1-5.2,1c-1.2,0.1-2.4-0.1-3.7-0.5s-2.4-0.9-3.5-1.7L258.7,65.6z M268.5,58.1c-1.8-0.3-3.2-1.3-4.1-3.1
			c-0.9-1.8-1.5-4.4-1.6-8c-0.2-3.9,0.3-6.8,1.4-8.7c1.1-1.8,2.9-2.8,5.4-2.9c2-0.1,3.8,0.2,5.5,0.9s3.2,1.8,4.6,3.2l10-0.5
			l-0.5-10.8l3.3,3.5l0.4,9.7l-11.1,0.5c-1.7-1.1-3.4-1.9-5.1-2.4s-3.4-0.7-5.2-0.6c-2.2,0.1-3.6,0.8-4.4,2c-0.8,1.3-1.1,3.5-1,6.6
			c0.1,1.9,0.3,3.7,0.7,5.3C267.2,54.8,267.7,56.5,268.5,58.1z M275.9,50.7l3.2-0.1c0,0.5-0.1,0.9-0.2,1.3c-0.1,0.4-0.3,0.8-0.4,1.3
			L275.9,50.7z M281.5,65.8l9.9-0.4L290.7,50l5.1-0.2l-0.3-6.5l3.4,3.5l0.3,6.8l-5.1,0.2l0.7,15.4l-9,0.4L281.5,65.8z"/>
		<path fill="#FFFFFF" d="M305.1,69.5l-4.6-4.1l21.6,0.5l0.1-7.7l3.2,2.8l-0.2,8.9L305.1,69.5z M315,58l5.9,0.1l-0.1,5.8l-20.2-0.4
			l0.1-5.8l5.8,0.1l0.4-23.6l-5.8-0.1l0.1-5.8l20.2,0.4l-0.1,5.8l-5.9-0.1L315,58z M305.3,40l-4.4-4.1l4.4,0.1V40z M316.4,56.2
			l0.3-19.9l5.8,0.1l0.1-7.7l3.2,3.7l-0.1,8l-5.8-0.1l-0.3,15.9H316.4z"/>
		<path fill="#FFFFFF" d="M326.1,65.5l20.2,1.9l0.6-7.6l2.9,3.6l-0.7,8.3l-18.7-1.8L326.1,65.5z M326.3,63.7l0.5-5.8l5.8,0.5l2-23.5
			l-5.8-0.5l0.5-5.8l18.3,1.7l11.1,27.4l1.7-20.4l-5.8-0.5l0.5-5.8l18,1.7l-0.5,5.8l-5.1-0.5l-2.4,29.3l-11.9-1.1l-11.6-27.6
			l-1.7,20.5l5.8,0.5l-0.5,5.8L326.3,63.7z M328.6,36.2l4.4,0.4l-0.3,4.1L328.6,36.2z M341.3,57.4l1-12.3l2.7,6.4l-0.5,6.3
			L341.3,57.4z M349.1,30.4l4,5l-0.3,3.1l5.8,0.5l-1,12.1L349.1,30.4z M353.9,68.1l12.3,1.2l2.4-29.3l5.2,0.5l0.6-7.6l2.8,4.3
			l-0.7,8l-5.1-0.5L369,73.6l-11.1-1L353.9,68.1z"/>
		<path fill="#FFFFFF" d="M374.9,70l18.9,3.9l1.4-7.5l2.6,3.6l-1.6,8.5L379.3,75L374.9,70z M375.3,68.2l1.1-5.7l4.9,1l15.5-26.8
			l13.4,2.7l5,31l4.9,1l-1.1,5.7l-18.9-3.9l1.1-5.7l4.8,1l-1.2-7l-12.5-2.6l-3.5,6.1l4.9,1l-1.1,5.7L375.3,68.2z M391.3,63.7
			l1.6-2.8l10.6,2.2l0.4,3.2L391.3,63.7z M394.7,54.8l9.3,1.9l-2.3-14.4L394.7,54.8z M397.3,53.5l3.7-6.7l0.9,5.7l-1,1.7L397.3,53.5
			z M399.8,75.1l20.3,4.2l1.4-7.5l2.5,3.9l-1.5,8.2L403.3,80L399.8,75.1z M416.4,68.8l-4.8-29.1l4.9,9l3.2,20.8L416.4,68.8z"/>
		<path fill="#FFFFFF" d="M423.5,80.1l33.2,11.3l6.2-20.1l2,4.4l-6.3,20.4l-31.8-10.6L423.5,80.1z M424,78.4l1.7-5.5l5.6,1.9l7-22.4
			l-5.6-1.9l1.7-5.5l19.2,6.5L452,57l-5.5-1.9l-7,22.4l10.5,3.6l4-12.8l7.7,2.6L456,89.2L424,78.4z M435.2,57.4l-3-5.2l4.2,1.4
			L435.2,57.4z M441.3,76.2l5.9-18.9l5.6,1.9l2.3-7.3l2,4.6l-2.3,7.5l-5.5-1.9l-4.7,15.1L441.3,76.2z"/>
	</g>
</g>
<g display="none">
	<g display="inline">
		<path fill="#588C38" d="M465,148.3c-40.6-15.6-98.4-25-163.4-25c-0.3,0-0.2-0.1-0.4-0.1c-0.3,0-1.9,0.1-2.2,0.1
			c-65,0-124.6,9.4-165.6,25v109.4h330V148.3C463.4,148.3,465.1,148.3,465,148.3z"/>
		<path fill="#FFFFFF" d="M464.9,259.2h-333V147.3l1-0.4c41.9-16,102.5-25.1,166.1-25.1c0.1,0,0.6,0,1,0c0.5,0,1-0.1,1.2-0.1
			c0.2,0,0.4,0,0.6,0.1c63.5,0,121.7,8.9,163.7,25.1l-0.5,1.4v1.5h-0.1V259.2z M134.9,256.2h327V148.7
			c-41.6-15.4-98.3-23.9-160.3-23.9c-0.2,0-0.4,0-0.6-0.1c-0.2,0-0.5,0-0.8,0c-0.5,0-1,0.1-1.2,0.1c-62.8,0-122.5,8.9-164.1,24.5
			V256.2z"/>
	</g>
	<g display="inline">
		<g enable-background="new    ">
			<path fill="#FFFFFF" d="M160.9,214.8v-46.5h23.8c4.9,0,8.5,1.2,10.8,3.7c2.3,2.5,3.4,5.3,3.4,8.5c0,2.3-0.7,4.4-2,6.3
				c-1.3,1.9-3.3,3.2-5.9,3.9c6.1,1.5,9.1,5.1,9.1,10.8c0,3.5-1.1,6.5-3.2,9.3c-2.1,2.7-6.7,4.1-13.7,4.1H160.9z M174.2,186.1h6.7
				c1.7,0,2.8-0.4,3.5-1.3c0.7-0.8,1-1.7,1-2.7c0-2.6-1.6-3.9-4.8-3.9h-6.4V186.1z M174.2,204.5h7c1.7,0,3-0.4,3.8-1.3
				c0.8-0.9,1.2-1.8,1.2-2.9s-0.4-2.1-1.2-2.9c-0.8-0.9-2.2-1.3-4.3-1.3h-6.5V204.5z"/>
			<path fill="#FFFFFF" d="M206.1,214.8v-46.5h23.8c4.9,0,8.5,1.2,10.8,3.7c2.3,2.5,3.4,5.3,3.4,8.5c0,2.3-0.7,4.4-2,6.3
				c-1.3,1.9-3.3,3.2-5.9,3.9c6.1,1.5,9.1,5.1,9.1,10.8c0,3.5-1.1,6.5-3.2,9.3c-2.1,2.7-6.7,4.1-13.7,4.1H206.1z M219.3,186.1h6.7
				c1.7,0,2.8-0.4,3.5-1.3c0.7-0.8,1-1.7,1-2.7c0-2.6-1.6-3.9-4.8-3.9h-6.4V186.1z M219.3,204.5h7c1.7,0,3-0.4,3.8-1.3
				c0.8-0.9,1.2-1.8,1.2-2.9s-0.4-2.1-1.2-2.9c-0.8-0.9-2.2-1.3-4.3-1.3h-6.5V204.5z"/>
			<path fill="#FFFFFF" d="M276.3,215.1c-1.6,0.3-3.2,0.5-4.7,0.5c-6.8,0-12.2-2.2-16.3-6.6s-6.1-10.2-6.1-17.2c0-7,2-12.8,6-17.3
				s9.5-6.8,16.5-6.8c6.5,0,11.8,2.1,15.9,6.4c4.1,4.3,6.2,10,6.2,17.1c0,8.7-2.8,15.3-8.4,19.8c0.5,1.3,1.9,2,4.4,2
				c1.1,0,2.4-0.1,3.9-0.4V223c-2.5,0.3-4.5,0.4-6,0.4c-2.6,0-4.8-0.5-6.8-1.6C278.8,220.7,277.3,218.5,276.3,215.1z M271.5,205
				c2.4,0,4.2-1.1,5.2-3.2s1.6-6,1.6-11.5c0-8.1-2.2-12.1-6.6-12.1c-4.7,0-7.1,4.6-7.1,13.8C264.7,200.6,266.9,205,271.5,205z"/>
			<path fill="#FFFFFF" d="M357.2,168.3v46.5h-14.4v-18.1h-11v18.1h-14.4v-46.5h14.4v17.1h11v-17.1H357.2z"/>
			<path fill="#FFFFFF" d="M403.3,168.3v30.8c0,5.8-1.7,10-5.2,12.6c-3.5,2.6-8,3.8-13.6,3.8c-5.9,0-10.6-1.2-14.2-3.7
				c-3.6-2.5-5.4-6.5-5.4-12v-31.6h14.6v29.9c0,2.2,0.5,3.9,1.4,4.9c0.9,1,2.5,1.5,4.5,1.5c1.7,0,3.2-0.4,4.3-1.1
				c1.1-0.7,1.8-1.6,2-2.5c0.2-0.9,0.3-2.8,0.3-5.5v-27.2H403.3z"/>
			<path fill="#FFFFFF" d="M430.3,179.4v35.4h-13.6v-35.4h-9.7v-11.1H440v11.1H430.3z"/>
		</g>
		<g>
			<g>
				<rect x="156.9" y="233.2" fill="#FFFFFF" width="94" height="2"/>
			</g>
			<g>
				<rect x="345.9" y="233.2" fill="#FFFFFF" width="94" height="2"/>
			</g>
			<g enable-background="new    ">
				<path fill="#FFFFCC" d="M262.5,235.1v2.6h6.2c0.1,0,0.2,0,0.3-0.1c0.1-0.1,0.1-0.2,0.2-0.4h0.2v2.5h-0.2c0-0.2-0.1-0.3-0.2-0.4
					c-0.1-0.1-0.2-0.1-0.3-0.1h-8.7V239c0.2,0,0.3-0.1,0.4-0.2c0.1-0.1,0.1-0.2,0.1-0.3v-8.1c0-0.1,0-0.3-0.1-0.3s-0.2-0.1-0.4-0.2
					v-0.2h8.5c0.1,0,0.2,0,0.3-0.1c0.1-0.1,0.1-0.2,0.2-0.3h0.2v2.5H269c0-0.2-0.1-0.3-0.2-0.3c-0.1-0.1-0.2-0.1-0.3-0.1h-6v2.3h3.9
					c0.1,0,0.2,0,0.3-0.1c0.1-0.1,0.1-0.2,0.2-0.4h0.2v2.4h-0.2c0-0.2-0.1-0.3-0.2-0.3c-0.1-0.1-0.2-0.1-0.3-0.1H262.5z"/>
				<path fill="#FFFFCC" d="M279.7,230.5l-1.1,2.3l-0.2-0.1c0,0,0-0.1,0-0.1c0-0.2-0.1-0.3-0.4-0.5c-0.8-0.6-1.8-0.9-2.9-0.9
					c-0.5,0-0.9,0.1-1.3,0.2c-0.3,0.1-0.5,0.2-0.7,0.4s-0.3,0.4-0.3,0.6c0,0.4,0.2,0.6,0.7,0.7c0.2,0.1,0.7,0.1,1.4,0.2l1.1,0.1
					c0.7,0.1,1.2,0.2,1.6,0.3s0.8,0.3,1.1,0.5c0.3,0.2,0.6,0.5,0.8,0.9c0.2,0.4,0.3,0.8,0.3,1.2c0,0.7-0.2,1.3-0.7,1.8
					c-0.4,0.5-1,0.8-1.8,1.1c-0.6,0.2-1.3,0.3-2,0.3c-1.3,0-2.5-0.3-3.8-0.9c-0.3-0.1-0.4-0.2-0.5-0.2c-0.1,0-0.2,0.1-0.3,0.2
					l-0.2-0.1l1-2.3l0.2,0.1c0,0,0,0.1,0,0.1c0,0.2,0.1,0.4,0.3,0.6c0.3,0.3,0.8,0.5,1.4,0.7s1.2,0.3,1.8,0.3c0.6,0,1.2-0.1,1.6-0.3
					c0.2-0.1,0.4-0.3,0.6-0.5c0.1-0.2,0.2-0.4,0.2-0.6c0-0.3-0.2-0.5-0.5-0.7c-0.2-0.1-0.7-0.2-1.4-0.3l-1.1-0.1
					c-0.7-0.1-1.2-0.1-1.5-0.2c-0.3-0.1-0.6-0.2-0.9-0.3c-0.4-0.2-0.8-0.5-1-0.9c-0.2-0.4-0.3-0.8-0.3-1.3c0-0.8,0.3-1.5,0.8-2
					c0.7-0.7,1.8-1,3.3-1c0.6,0,1.2,0.1,1.7,0.2c0.5,0.1,1.2,0.4,2,0.7c0.3,0.1,0.4,0.2,0.5,0.2c0.1,0,0.2-0.1,0.3-0.2L279.7,230.5z
					"/>
				<path fill="#FFFFCC" d="M286.5,231.3v7.3c0,0.1,0,0.3,0.1,0.3c0.1,0.1,0.2,0.1,0.4,0.2v0.2h-3V239c0.2,0,0.3-0.1,0.4-0.2
					c0.1-0.1,0.1-0.2,0.1-0.3v-7.3h-3c-0.1,0-0.2,0-0.3,0.1c-0.1,0.1-0.1,0.2-0.2,0.4h-0.2v-2.5h0.2c0.1,0.2,0.1,0.3,0.2,0.4
					s0.2,0.1,0.3,0.1h8c0.1,0,0.3,0,0.3-0.1c0.1-0.1,0.1-0.2,0.2-0.4h0.2v2.5H290c0-0.2-0.1-0.3-0.2-0.4c-0.1-0.1-0.2-0.1-0.3-0.1
					H286.5z"/>
				<path fill="#FFFFCC" d="M291.3,237.1c0.3,0,0.6,0.1,0.8,0.3s0.3,0.5,0.3,0.8c0,0.3-0.1,0.6-0.3,0.8c-0.2,0.2-0.5,0.3-0.8,0.3
					c-0.3,0-0.6-0.1-0.8-0.3s-0.3-0.5-0.3-0.8c0-0.3,0.1-0.6,0.3-0.8C290.7,237.2,291,237.1,291.3,237.1z"/>
				<path fill="#FFFFCC" d="M300.2,233.1v-2.5h0.2c0.1,0.2,0.1,0.3,0.1,0.3c0,0.1,0.1,0.1,0.2,0.1c0,0,0.1,0,0.2,0l0.6-0.2v-0.4
					c0-0.1,0-0.2-0.1-0.3s-0.2-0.1-0.4-0.2v-0.2h2.9v0.2c-0.2,0-0.3,0.1-0.4,0.2c-0.1,0.1-0.1,0.2-0.1,0.3v8.1c0,0.1,0,0.3,0.1,0.3
					c0.1,0.1,0.2,0.1,0.4,0.2v0.2h-2.9V239c0.2,0,0.3-0.1,0.4-0.2c0.1-0.1,0.1-0.2,0.1-0.3v-6.1l-0.7,0.2c-0.2,0-0.3,0.1-0.3,0.2
					c-0.1,0.1-0.1,0.2-0.2,0.4H300.2z"/>
				<path fill="#FFFFCC" d="M306.7,238.7l1.2-2.3l0.2,0.1c0,0.1,0,0.2,0,0.3c0,0.2,0.1,0.4,0.4,0.6c0.2,0.2,0.6,0.3,1,0.4
					s0.8,0.2,1.1,0.2c0.8,0,1.4-0.2,2-0.6c0.4-0.3,0.6-0.6,0.8-1c0.2-0.4,0.3-0.9,0.3-1.5c-0.5,0.4-1,0.7-1.4,0.9
					c-0.5,0.2-1,0.3-1.7,0.3c-1,0-1.9-0.2-2.6-0.7c-0.4-0.3-0.7-0.6-1-1.1c-0.2-0.4-0.3-0.9-0.3-1.4c0-1,0.4-1.8,1.3-2.4
					c0.8-0.6,1.8-0.9,3.1-0.9c1.4,0,2.4,0.3,3.2,1c0.5,0.4,0.9,1,1.1,1.7c0.2,0.7,0.4,1.4,0.4,2.1c0,1.5-0.5,2.7-1.4,3.6
					c-1,1-2.2,1.4-3.7,1.4c-0.5,0-1,0-1.4-0.1c-0.4-0.1-0.9-0.3-1.5-0.5c-0.2-0.1-0.3-0.1-0.5-0.1c-0.1,0-0.2,0-0.2,0.1
					c-0.1,0.1-0.1,0.1-0.1,0.1L306.7,238.7z M311,231.1c-0.7,0-1.3,0.2-1.7,0.5c-0.4,0.3-0.6,0.7-0.6,1.1c0,0.5,0.2,0.8,0.6,1.1
					c0.4,0.4,1,0.5,1.7,0.5c0.7,0,1.3-0.2,1.8-0.5c0.4-0.3,0.6-0.7,0.6-1.1c0-0.5-0.2-0.9-0.6-1.2
					C312.4,231.3,311.8,231.1,311,231.1z"/>
				<path fill="#FFFFCC" d="M317,238.7l1.2-2.3l0.2,0.1c0,0.1,0,0.2,0,0.3c0,0.2,0.1,0.4,0.4,0.6c0.2,0.2,0.6,0.3,1,0.4
					s0.8,0.2,1.1,0.2c0.8,0,1.4-0.2,2-0.6c0.4-0.3,0.6-0.6,0.8-1c0.2-0.4,0.3-0.9,0.3-1.5c-0.5,0.4-1,0.7-1.4,0.9
					c-0.5,0.2-1,0.3-1.7,0.3c-1,0-1.9-0.2-2.6-0.7c-0.4-0.3-0.7-0.6-1-1.1c-0.2-0.4-0.3-0.9-0.3-1.4c0-1,0.4-1.8,1.3-2.4
					c0.8-0.6,1.8-0.9,3.1-0.9c1.4,0,2.4,0.3,3.2,1c0.5,0.4,0.9,1,1.1,1.7c0.2,0.7,0.4,1.4,0.4,2.1c0,1.5-0.5,2.7-1.4,3.6
					c-1,1-2.2,1.4-3.7,1.4c-0.5,0-1,0-1.4-0.1c-0.4-0.1-0.9-0.3-1.5-0.5c-0.2-0.1-0.3-0.1-0.5-0.1c-0.1,0-0.2,0-0.2,0.1
					c-0.1,0.1-0.1,0.1-0.1,0.1L317,238.7z M321.3,231.1c-0.7,0-1.3,0.2-1.7,0.5c-0.4,0.3-0.6,0.7-0.6,1.1c0,0.5,0.2,0.8,0.6,1.1
					c0.4,0.4,1,0.5,1.7,0.5c0.7,0,1.3-0.2,1.8-0.5c0.4-0.3,0.6-0.7,0.6-1.1c0-0.5-0.2-0.9-0.6-1.2
					C322.6,231.3,322,231.1,321.3,231.1z"/>
				<path fill="#FFFFCC" d="M333.7,231.3h-6c-0.1,0-0.3,0-0.3,0.1c-0.1,0.1-0.1,0.2-0.2,0.4H327v-2.5h0.2c0,0.2,0.1,0.3,0.2,0.4
					c0.1,0.1,0.2,0.1,0.3,0.1h7.6c0.1,0,0.3,0,0.3-0.1c0.1-0.1,0.1-0.2,0.2-0.4h0.2v1.8l-4.3,7.1c-0.2,0.3-0.3,0.5-0.3,0.5
					c0,0.1,0.1,0.3,0.4,0.3v0.2h-3.4V239c0.2-0.1,0.4-0.1,0.5-0.3c0.1-0.1,0.3-0.3,0.5-0.6L333.7,231.3z"/>
			</g>
		</g>
		<g>
			<rect x="156.9" y="153.2" fill="#FFFFFF" width="284" height="2"/>
		</g>
	</g>
</g>
<g display="none">
	<g display="inline">
		<radialGradient id="SVGID_2_" cx="310.55" cy="371.8" r="146.7393" gradientUnits="userSpaceOnUse">
			<stop  offset="0" style="stop-color:#753128"/>
			<stop  offset="1" style="stop-color:#421C17"/>
		</radialGradient>
		<path fill="url(#SVGID_2_)" stroke="#FFFFFF" stroke-width="3" stroke-miterlimit="10" d="M509.6,353.3
			c-36.2-22.2-111.6-37.4-198.2-37.4c-0.3,0-0.6,0-0.9,0s-0.6,0-0.9,0c-86.6,0-162,15.2-198.2,37.5c-0.2,0.1-0.5,0.3-0.7,0.4
			l34.5,73.9c40.6-13.7,99.4-22.4,164.5-22.4c0.3,0,0.6,0,0.9,0s0.6,0,0.9,0c65.1,0,124,8.6,164.5,22.4l34.4-73.9
			C510.1,353.6,509.9,353.5,509.6,353.3z"/>
		<g>
			<path fill="#FFFFFF" d="M144.3,384.6c-1.9-6.3-1.9-11.3,0-15.1c1.9-3.7,6-6.6,12.2-8.6s11.1-2.1,14.7-0.1c3.6,1.9,6.4,6,8.3,12.4
				c1.9,6.3,1.9,11.3,0,15s-6,6.6-12.2,8.6s-11.1,2.1-14.7,0.2C149,395,146.2,390.9,144.3,384.6z M153.7,381.6
				c1.4,4.5,3,7.6,4.9,9.1c1.9,1.6,4.3,1.9,7.2,1s4.7-2.6,5.4-5.1c0.7-2.4,0.4-5.9-1-10.4s-3-7.6-4.9-9.2s-4.3-1.9-7.2-1
				s-4.7,2.6-5.4,5.1S152.3,377.1,153.7,381.6z M163.3,390.5c-1.8,0.1-3.4-0.6-4.7-2.1s-2.5-3.9-3.5-7.3c-1.2-3.9-1.5-6.9-0.9-9
				s2-3.6,4.4-4.4c1.8-0.6,3.2-0.6,4.5,0c1.2,0.6,2.4,1.7,3.5,3.6c-1.2-0.2-2.3-0.3-3.3-0.3s-1.8,0.1-2.5,0.3
				c-1.7,0.6-2.7,1.5-3.1,2.9c-0.4,1.4-0.1,3.5,0.8,6.4c0.6,2,1.3,3.8,2.1,5.4C161.3,387.6,162.2,389.1,163.3,390.5z M171,358.9
				c3.9,1.7,6.9,3.6,8.9,5.8s3.7,5.3,4.8,9.2c1,3.2,1.4,6.2,1.3,9c-0.1,2.9-0.6,5.5-1.7,7.9c-1,2.3-2.6,4.4-4.9,6.3
				c-2.2,1.9-4.7,3.3-7.5,4.2c-2.6,0.8-5.2,1.1-7.9,0.9c-2.7-0.3-5.6-1.1-8.6-2.4c2,0.3,4,0.3,5.9,0.1c2-0.2,4.2-0.7,6.5-1.5
				c6.5-2.1,10.8-5.3,12.9-9.4c2.1-4.2,2.1-9.7,0.1-16.4c-1.1-3.6-2.4-6.4-3.9-8.5C175.5,362,173.5,360.3,171,358.9z"/>
			<path fill="#FFFFFF" d="M190.1,388.2l-1.1-5.7l5.7-1.1l-4.3-23.2l-5.7,1.1l-1.1-5.7l24.5-4.9c3.5-0.7,6-1.1,7.4-1.1
				s2.6,0.1,3.5,0.5c1.4,0.6,2.5,1.5,3.5,2.8c0.9,1.3,1.5,2.8,1.9,4.7c0.5,2.8,0.2,5.1-1,7.1s-3.1,3.2-5.7,3.8l0.2,1.4l1.2-0.2
				c0.4-0.1,0.8,0,1.2,0.2s0.7,0.5,0.9,1l2.6,5c0.3,0.6,0.7,1,1.1,1.2c0.4,0.2,0.9,0.3,1.5,0.2l3.5-0.7l1.1,5.7l-9,1.8
				c-1,0.2-1.9,0.1-2.7-0.2c-0.8-0.4-1.4-1-2-2l-4.4-7.5c-0.7-1.3-1.5-2.1-2.3-2.6s-1.6-0.7-2.6-0.5l-6.9,1.4l1.7,9.4l5.7-1.1
				l1.1,5.7L190.1,388.2z M185.2,361.1l4.3-0.9l0.8,4.1L185.2,361.1z M190.5,390l21-4.2l-1.4-7.5l3.7,2.1l1.6,8.7l-19.9,3.9
				L190.5,390z M200.5,365.9l10.1-2c2.1-0.4,3.5-1.1,4.1-1.9c0.7-0.9,0.8-2.2,0.5-3.9c-0.3-1.6-1-2.7-2-3.3c-1-0.6-2.5-0.7-4.4-0.3
				l-10.1,2L200.5,365.9z M201.6,363.8l-1.1-5.7l8.8-1.7c1.2-0.2,2.2-0.2,3,0.2c0.7,0.4,1.2,1,1.4,1.9c0,0.2,0.1,0.4,0.1,0.6
				s0,0.3-0.1,0.5l-9.2,1.8l0.3,1.8L201.6,363.8z M206.2,375.5l0.3,1.7l-2.3,0.5l-1.1-5.7l5.2-1c0.6-0.1,1.2-0.1,1.6,0.2
				c0.4,0.2,0.9,0.7,1.3,1.4l1.1,1.8L206.2,375.5z M232.9,381.6l-1.4-7.5l3.8,2.6l1.5,8.2l-8.5,1.7c-1.1,0.2-2.1,0.2-3,0.1
				c-0.9-0.2-1.8-0.5-2.5-1l-3.3-2.3c0.5,0.2,0.9,0.4,1.4,0.4c0.4,0.1,0.9,0,1.4-0.1l0.6-0.1L232.9,381.6z M223,368.2
				c-0.1-0.3-0.3-0.6-0.6-0.8c-0.3-0.3-0.6-0.5-1-0.7c1.9-1,3.3-2.5,4.1-4.5s1-4.3,0.5-6.8c-0.3-1.8-0.9-3.3-1.7-4.5
				s-1.8-2.3-3.2-3.2l4.7,3.5c0.9,0.7,1.6,1.5,2.2,2.6c0.6,1,1,2.2,1.3,3.6c0.4,2.3,0.2,4.4-0.5,6.3c-0.8,1.9-2.1,3.8-4.1,5.5l2,1.5
				l0.1,0.1c0.9,0.7,1.6,1.4,2,2.2l-2.4,0.5c-0.3,0.1-0.5,0-0.7-0.1s-0.4-0.4-0.5-0.7L223,368.2z"/>
			<path fill="#FFFFFF" d="M250.2,372l5.8-0.7l0.6,5.8l-20.1,2.4l-0.6-5.8l5.8-0.7l-2.6-23.5l-5.8,0.7l-0.6-5.8l20.1-2.4l0.6,5.8
				l-5.8,0.7L250.2,372z M238.4,355.5l-4.8-3.4l4.4-0.5L238.4,355.5z M241.8,384.7l-5-3.4l21.5-2.5l-0.8-7.6l3.5,2.4l1,8.8
				L241.8,384.7z M251.4,370l-2.2-19.8l5.8-0.7l-0.8-7.6l3.6,3.3l0.9,7.9l-5.8,0.7l1.8,15.8L251.4,370z"/>
			<path fill="#FFFFFF" d="M291.3,359.4l-4.9,0.2l-0.2-4.6l18.4-0.8l0.2,4.6l-5.1,0.2l0.7,15.4l-8.5,0.4l-0.2-4.6
				c-1.4,2-3.1,3.5-5.2,4.6c-2.1,1.1-4.5,1.7-7.3,1.8c-5.3,0.2-9.5-1.2-12.5-4.4c-3-3.1-4.7-7.8-4.9-13.8c-0.3-6.2,1-11,3.7-14.2
				c2.7-3.2,7-5,12.7-5.3c2.4-0.1,4.6,0.2,6.5,0.8c1.9,0.6,3.8,1.7,5.7,3.3l-0.2-3.5l8.1-0.4l0.4,9l-8.1,0.4
				c-1.6-1.5-3.2-2.5-4.9-3.2c-1.7-0.7-3.5-1-5.4-0.9c-3.1,0.1-5.3,1.3-6.7,3.5c-1.4,2.2-2,5.5-1.8,9.8c0.2,4.8,1.2,8.2,2.8,10.3
				c1.7,2.1,4.2,3.1,7.6,2.9c2.7-0.1,4.9-1.3,6.6-3.4C290.5,365.4,291.3,362.7,291.3,359.4z M269.3,376.4c1.7,0.8,3.5,1.3,5.2,1.6
				c1.7,0.3,3.5,0.4,5.3,0.4c1.9-0.1,3.7-0.5,5.4-1.1c1.7-0.7,3.5-1.7,5.3-3l0.2,3.5l0.7,0.6c-1.5,1.1-3.1,2-4.8,2.6
				c-1.7,0.6-3.4,1-5.2,1c-1.2,0.1-2.4-0.1-3.7-0.5s-2.4-0.9-3.5-1.7L269.3,376.4z M279.1,368.9c-1.8-0.3-3.2-1.3-4.1-3.1
				c-0.9-1.8-1.5-4.4-1.6-8c-0.2-3.9,0.3-6.8,1.4-8.7c1.1-1.8,2.9-2.8,5.4-2.9c2-0.1,3.8,0.2,5.5,0.9c1.7,0.7,3.2,1.8,4.6,3.2
				l10-0.5l-0.5-10.8l3.3,3.5l0.4,9.7l-11.1,0.5c-1.7-1.1-3.4-1.9-5.1-2.4s-3.4-0.7-5.2-0.6c-2.2,0.1-3.6,0.8-4.4,2
				c-0.8,1.3-1.1,3.5-1,6.6c0.1,1.9,0.3,3.7,0.7,5.3C277.8,365.6,278.3,367.3,279.1,368.9z M286.5,361.5l3.2-0.1
				c0,0.5-0.1,0.9-0.2,1.3c-0.1,0.4-0.3,0.8-0.4,1.3L286.5,361.5z M292.1,376.6l9.9-0.4l-0.7-15.4l5.1-0.2l-0.3-6.5l3.4,3.5l0.3,6.8
				l-5.1,0.2l0.7,15.4l-9,0.4L292.1,376.6z"/>
			<path fill="#FFFFFF" d="M315.7,380.3l-4.6-4.1l21.6,0.5l0.1-7.7l3.2,2.8l-0.2,8.9L315.7,380.3z M325.6,368.8l5.9,0.1l-0.1,5.8
				l-20.2-0.4l0.1-5.8l5.8,0.1l0.4-23.6l-5.8-0.1l0.1-5.8l20.2,0.4l-0.1,5.8l-5.9-0.1L325.6,368.8z M315.9,350.8l-4.4-4.1l4.4,0.1
				V350.8z M327,367l0.3-19.9l5.8,0.1l0.1-7.7l3.2,3.7l-0.1,8l-5.8-0.1l-0.3,15.9H327z"/>
			<path fill="#FFFFFF" d="M336.7,376.3l20.2,1.9l0.6-7.6l2.9,3.6l-0.7,8.3l-18.7-1.8L336.7,376.3z M336.9,374.5l0.5-5.8l5.8,0.5
				l2-23.5l-5.8-0.5l0.5-5.8l18.3,1.7l11.1,27.4l1.7-20.4l-5.8-0.5l0.5-5.8l18,1.7l-0.5,5.8l-5.1-0.5l-2.4,29.3l-11.9-1.1
				l-11.6-27.6l-1.7,20.5l5.8,0.5l-0.5,5.8L336.9,374.5z M339.2,347l4.4,0.4l-0.3,4.1L339.2,347z M351.9,368.2l1-12.3l2.7,6.4
				l-0.5,6.3L351.9,368.2z M359.7,341.2l4,5l-0.3,3.1l5.8,0.5l-1,12.1L359.7,341.2z M364.5,378.9l12.3,1.2l2.4-29.3l5.2,0.5l0.6-7.6
				l2.8,4.3l-0.7,8l-5.1-0.5l-2.4,28.9l-11.1-1L364.5,378.9z"/>
			<path fill="#FFFFFF" d="M385.5,380.8l18.9,3.9l1.4-7.5l2.6,3.6l-1.6,8.5l-16.9-3.5L385.5,380.8z M385.9,379l1.1-5.7l4.9,1
				l15.5-26.8l13.4,2.7l5,31l4.9,1l-1.1,5.7l-18.9-3.9l1.1-5.7l4.8,1l-1.2-7l-12.5-2.6l-3.5,6.1l4.9,1l-1.1,5.7L385.9,379z
				 M401.9,374.5l1.6-2.8l10.6,2.2l0.4,3.2L401.9,374.5z M405.3,365.6l9.3,1.9l-2.3-14.4L405.3,365.6z M407.9,364.3l3.7-6.7l0.9,5.7
				l-1,1.7L407.9,364.3z M410.4,385.9l20.3,4.2l1.4-7.5l2.5,3.9l-1.5,8.2l-19.2-3.9L410.4,385.9z M427,379.6l-4.8-29.1l4.9,9
				l3.2,20.8L427,379.6z"/>
			<path fill="#FFFFFF" d="M434.1,390.9l33.2,11.3l6.2-20.1l2,4.4l-6.3,20.4l-31.8-10.6L434.1,390.9z M434.6,389.2l1.7-5.5l5.6,1.9
				l7-22.4l-5.6-1.9l1.7-5.5l19.2,6.5l-1.7,5.5l-5.5-1.9l-7,22.4l10.5,3.6l4-12.8l7.7,2.6l-5.7,18.3L434.6,389.2z M445.8,368.2
				l-3-5.2l4.2,1.4L445.8,368.2z M451.9,387l5.9-18.9l5.6,1.9l2.3-7.3l2,4.6l-2.3,7.5l-5.5-1.9l-4.7,15.1L451.9,387z"/>
		</g>
	</g>
	<g display="inline">
		<path fill="#588C38" stroke="#FFFFFF" stroke-width="3" stroke-miterlimit="10" d="M476.5,437.9c-40.6-15.6-98.4-25-163.4-25
			c-0.3,0-0.2-0.1-0.4-0.1c-0.3,0-1.9,0.1-2.2,0.1c-65,0-124.6,9.4-165.6,25v109.4h330V437.9C474.9,437.9,476.6,437.9,476.5,437.9z"
			/>
		<g>
			
				<text transform="matrix(1.0069 0 0 1 168.2838 504.4201)" fill="#FFFFFF" font-family="'FranklinGothic-Heavy'" font-size="69.8267">BBQ HUT</text>
			<g>
				<line fill="none" stroke="#FFFFFF" stroke-width="2" stroke-miterlimit="10" x1="168.4" y1="523.8" x2="262.4" y2="523.8"/>
				<line fill="none" stroke="#FFFFFF" stroke-width="2" stroke-miterlimit="10" x1="357.4" y1="523.8" x2="451.4" y2="523.8"/>
				
					<text transform="matrix(1 0 0 1 270.5182 528.8576)" fill="#FFFFCC" font-family="'CopperplateGothic-Bold'" font-size="14.3597">EST. 1997</text>
			</g>
			<line fill="none" stroke="#FFFFFF" stroke-width="2" stroke-miterlimit="10" x1="168.4" y1="443.8" x2="452.4" y2="443.8"/>
		</g>
	</g>
</g>
</svg>
