<?xml version="1.0" encoding="utf-8"?>
<!-- Generator: Adobe Illustrator 18.1.1, SVG Export Plug-In . SVG Version: 6.00 Build 0)  -->
<svg version="1.1" id="Layer_1" xmlns="http://www.w3.org/2000/svg" xmlns:xlink="http://www.w3.org/1999/xlink" x="0px" y="0px"
	 viewBox="0 0 600 600" enable-background="new 0 0 600 600" xml:space="preserve">
<circle opacity="0.85" fill="#FFFFFF" stroke="#B2B0A1" stroke-width="4" stroke-miterlimit="10" enable-background="new    " cx="300" cy="323.2" r="250"/>
<g display="none">
	<path display="inline" fill="#21421D" stroke="#FFFFFF" stroke-width="2" stroke-miterlimit="10" d="M300.1,915.7
		c0,0-77,127-233.6,216.8c-0.3,0.2-0.5,0.2-0.8,0.3c-1.8,1.2-2.9,3.7-2.9,6.1c0,3.7,2.8,7.1,6.3,7.1h36.6
		C236,1042,300.1,915.7,300.1,915.7z"/>
	<path display="inline" fill="#21421D" stroke="#FFFFFF" stroke-width="2" stroke-miterlimit="10" d="M494.2,1146h36.5h0.3
		c3.5,0,6.3-3.5,6.3-7.2c0-2.1-1-4.3-2.4-5.5c-0.6-0.3-1.2-0.8-1.8-1.2c-156.3-89.8-232.9-216.4-232.9-216.4S364,1042,494.2,1146z"
		/>
	<path display="inline" fill="#FFFFFF" stroke="#FFFFFF" stroke-width="2" stroke-miterlimit="10" d="M300.1,916.2
		c0,0-64.1,125.8-194.4,229.8h37.4C248.3,1035,300.1,916.2,300.1,916.2z"/>
	<path display="inline" fill="#FFFFFF" stroke="#FFFFFF" stroke-width="2" stroke-miterlimit="10" d="M494.2,1146
		C364,1042,300.1,916.2,300.1,916.2S351.8,1035,456.8,1146H494.2z"/>
	<path display="inline" fill="#21421D" stroke="#FFFFFF" stroke-width="2" stroke-miterlimit="10" d="M456.8,1146
		C351.8,1035,300,916.2,300,916.2S343.2,1029,430.7,1146H456.8z"/>
	<path display="inline" fill="#21421D" stroke="#FFFFFF" stroke-width="2" stroke-miterlimit="10" d="M169.2,1146
		C256.8,1029,300,916.2,300,916.2s-51.8,118.8-157,229.8H169.2z"/>
	<path display="inline" fill="#FFFFFF" stroke="#FFFFFF" stroke-width="2" stroke-miterlimit="10" d="M187.3,1146
		c75.5-121,112.8-229.8,112.8-229.8S256.8,1029,169.2,1146H187.3z"/>
	<path display="inline" fill="#FFFFFF" stroke="#FFFFFF" stroke-width="2" stroke-miterlimit="10" d="M430.7,1146
		c-87.5-117-130.6-229.8-130.6-229.8S337.3,1025,412.7,1146H430.7z"/>
	<path display="inline" fill="#21421D" stroke="#FFFFFF" stroke-width="2" stroke-miterlimit="10" d="M300.1,916.2
		c0,0-37.3,108.8-112.8,229.8H201h99.1H399h13.7C337.3,1025,300.1,916.2,300.1,916.2z"/>
</g>
<path display="none" fill="#21421D" stroke="#FFFFFF" stroke-width="2" stroke-miterlimit="10" d="M278.7,666.7
	c0,0-77,127-233.6,216.8c-0.3,0.2-0.5,0.2-0.8,0.3c-1.8,1.2-2.9,3.7-2.9,6.1c0,3.7,2.8,7.1,6.3,7.1h36.6
	C214.6,793,278.7,666.7,278.7,666.7z"/>
<path display="none" fill="#21421D" stroke="#FFFFFF" stroke-width="2" stroke-miterlimit="10" d="M522.4,897h36.5h0.3
	c3.5,0,6.3-3.5,6.3-7.2c0-2.1-1-4.3-2.4-5.5c-0.6-0.3-1.2-0.8-1.8-1.2C405,793.3,328.4,666.7,328.4,666.7S392.2,793,522.4,897z"/>
<path display="none" fill="#FFFFFF" stroke="#FFFFFF" stroke-width="2" stroke-miterlimit="10" d="M299,667.2
	c0,0-64.1,125.8-194.4,229.8H142C247.2,786,299,667.2,299,667.2z"/>
<path display="none" fill="#FFFFFF" stroke="#FFFFFF" stroke-width="2" stroke-miterlimit="10" d="M493.1,897
	C362.9,793,299,667.2,299,667.2S350.7,786,455.7,897H493.1z"/>
<path display="none" fill="#21421D" stroke="#FFFFFF" stroke-width="2" stroke-miterlimit="10" d="M469,896.8
	C364,785.8,312.3,667,312.3,667s43.1,112.8,130.6,229.8H469z"/>
<path display="none" fill="#21421D" stroke="#FFFFFF" stroke-width="2" stroke-miterlimit="10" d="M161.1,896.8
	C248.7,779.8,292,667,292,667s-51.8,118.8-157,229.8H161.1z"/>
<path display="none" fill="#FFFFFF" stroke="#FFFFFF" stroke-width="2" stroke-miterlimit="10" d="M186.2,897
	C261.7,776,299,667.2,299,667.2S255.7,780,168.1,897H186.2z"/>
<path display="none" fill="#FFFFFF" stroke="#FFFFFF" stroke-width="2" stroke-miterlimit="10" d="M429.6,897
	C342.1,780,299,667.2,299,667.2S336.2,776,411.6,897H429.6z"/>
<path display="none" fill="#21421D" stroke="#FFFFFF" stroke-width="2" stroke-miterlimit="10" d="M300.3,666.7
	c0,0-37.3,108.8-112.8,229.8h13.7h99.1h98.9h13.7C337.4,775.5,300.3,666.7,300.3,666.7z"/>
<g display="none">
	<radialGradient id="SVGID_1_" cx="1002" cy="61" r="146.7393" gradientUnits="userSpaceOnUse">
		<stop  offset="0" style="stop-color:#753128"/>
		<stop  offset="1" style="stop-color:#421C17"/>
	</radialGradient>
	<path display="inline" fill="url(#SVGID_1_)" stroke="#FFFFFF" stroke-width="3" stroke-miterlimit="10" d="M1201,42.5
		c-36.2-22.2-111.6-37.4-198.2-37.4c-0.3,0-0.6,0-0.9,0s-0.6,0-0.9,0c-86.6,0-162,15.2-198.2,37.5c-0.2,0.1-0.5,0.3-0.7,0.4
		l34.5,73.9c40.6-13.7,99.4-22.4,164.5-22.4c0.3,0,0.6,0,0.9,0s0.6,0,0.9,0c65.1,0,124,8.6,164.5,22.4l34.4-73.9
		C1201.5,42.8,1201.3,42.7,1201,42.5z"/>
	<g display="inline">
		<path fill="#FFFFFF" d="M835.7,73.8c-1.9-6.3-1.9-11.3,0-15.1c1.9-3.7,6-6.6,12.2-8.6S859,48,862.6,50c3.6,1.9,6.4,6,8.3,12.4
			c1.9,6.3,1.9,11.3,0,15s-6,6.6-12.2,8.6s-11.1,2.1-14.7,0.2C840.4,84.2,837.6,80.1,835.7,73.8z M845.1,70.8c1.4,4.5,3,7.6,4.9,9.1
			c1.9,1.6,4.3,1.9,7.2,1c2.9-0.9,4.7-2.6,5.4-5.1c0.7-2.4,0.4-5.9-1-10.4c-1.4-4.5-3-7.6-4.9-9.2c-1.9-1.6-4.3-1.9-7.2-1
			c-2.9,0.9-4.7,2.6-5.4,5.1S843.7,66.3,845.1,70.8z M854.7,79.7c-1.8,0.1-3.4-0.6-4.7-2.1c-1.3-1.5-2.5-3.9-3.5-7.3
			c-1.2-3.9-1.5-6.9-0.9-9s2-3.6,4.4-4.4c1.8-0.6,3.2-0.6,4.5,0c1.2,0.6,2.4,1.7,3.5,3.6c-1.2-0.2-2.3-0.3-3.3-0.3s-1.8,0.1-2.5,0.3
			c-1.7,0.6-2.7,1.5-3.1,2.9c-0.4,1.4-0.1,3.5,0.8,6.4c0.6,2,1.3,3.8,2.1,5.4C852.7,76.8,853.6,78.3,854.7,79.7z M862.4,48.1
			c3.9,1.7,6.9,3.6,8.9,5.8s3.7,5.3,4.8,9.2c1,3.2,1.4,6.2,1.3,9c-0.1,2.9-0.6,5.5-1.7,7.9c-1,2.3-2.6,4.4-4.9,6.3
			c-2.2,1.9-4.7,3.3-7.5,4.2c-2.6,0.8-5.2,1.1-7.9,0.9c-2.7-0.3-5.6-1.1-8.6-2.4c2,0.3,4,0.3,5.9,0.1c2-0.2,4.2-0.7,6.5-1.5
			c6.5-2.1,10.8-5.3,12.9-9.4c2.1-4.2,2.1-9.7,0.1-16.4c-1.1-3.6-2.4-6.4-3.9-8.5C866.9,51.2,864.9,49.5,862.4,48.1z"/>
		<path fill="#FFFFFF" d="M881.5,77.4l-1.1-5.7l5.7-1.1l-4.3-23.2l-5.7,1.1l-1.1-5.7l24.5-4.9c3.5-0.7,6-1.1,7.4-1.1
			c1.4,0,2.6,0.1,3.5,0.5c1.4,0.6,2.5,1.5,3.5,2.8c0.9,1.3,1.5,2.8,1.9,4.7c0.5,2.8,0.2,5.1-1,7.1s-3.1,3.2-5.7,3.8l0.2,1.4l1.2-0.2
			c0.4-0.1,0.8,0,1.2,0.2c0.4,0.2,0.7,0.5,0.9,1l2.6,5c0.3,0.6,0.7,1,1.1,1.2c0.4,0.2,0.9,0.3,1.5,0.2l3.5-0.7l1.1,5.7l-9,1.8
			c-1,0.2-1.9,0.1-2.7-0.2c-0.8-0.4-1.4-1-2-2l-4.4-7.5c-0.7-1.3-1.5-2.1-2.3-2.6c-0.8-0.5-1.6-0.7-2.6-0.5l-6.9,1.4l1.7,9.4
			l5.7-1.1l1.1,5.7L881.5,77.4z M876.6,50.3l4.3-0.9l0.8,4.1L876.6,50.3z M881.9,79.2l21-4.2l-1.4-7.5l3.7,2.1l1.6,8.7l-19.9,3.9
			L881.9,79.2z M891.9,55.1l10.1-2c2.1-0.4,3.5-1.1,4.1-1.9c0.7-0.9,0.8-2.2,0.5-3.9c-0.3-1.6-1-2.7-2-3.3c-1-0.6-2.5-0.7-4.4-0.3
			l-10.1,2L891.9,55.1z M893,53l-1.1-5.7l8.8-1.7c1.2-0.2,2.2-0.2,3,0.2c0.7,0.4,1.2,1,1.4,1.9c0,0.2,0.1,0.4,0.1,0.6s0,0.3-0.1,0.5
			l-9.2,1.8l0.3,1.8L893,53z M897.6,64.7l0.3,1.7l-2.3,0.5l-1.1-5.7l5.2-1c0.6-0.1,1.2-0.1,1.6,0.2c0.4,0.2,0.9,0.7,1.3,1.4l1.1,1.8
			L897.6,64.7z M924.3,70.8l-1.4-7.5l3.8,2.6l1.5,8.2l-8.5,1.7c-1.1,0.2-2.1,0.2-3,0.1c-0.9-0.2-1.8-0.5-2.5-1l-3.3-2.3
			c0.5,0.2,0.9,0.4,1.4,0.4c0.4,0.1,0.9,0,1.4-0.1l0.6-0.1L924.3,70.8z M914.4,57.4c-0.1-0.3-0.3-0.6-0.6-0.8
			c-0.3-0.3-0.6-0.5-1-0.7c1.9-1,3.3-2.5,4.1-4.5c0.8-2,1-4.3,0.5-6.8c-0.3-1.8-0.9-3.3-1.7-4.5c-0.8-1.2-1.8-2.3-3.2-3.2l4.7,3.5
			c0.9,0.7,1.6,1.5,2.2,2.6c0.6,1,1,2.2,1.3,3.6c0.4,2.3,0.2,4.4-0.5,6.3c-0.8,1.9-2.1,3.8-4.1,5.5l2,1.5l0.1,0.1
			c0.9,0.7,1.6,1.4,2,2.2l-2.4,0.5c-0.3,0.1-0.5,0-0.7-0.1s-0.4-0.4-0.5-0.7L914.4,57.4z"/>
		<path fill="#FFFFFF" d="M941.6,61.2l5.8-0.7l0.6,5.8l-20.1,2.4l-0.6-5.8l5.8-0.7l-2.6-23.5l-5.8,0.7l-0.6-5.8l20.1-2.4l0.6,5.8
			l-5.8,0.7L941.6,61.2z M929.8,44.7l-4.8-3.4l4.4-0.5L929.8,44.7z M933.2,73.9l-5-3.4l21.5-2.5l-0.8-7.6l3.5,2.4l1,8.8L933.2,73.9z
			 M942.8,59.2l-2.2-19.8l5.8-0.7l-0.8-7.6l3.6,3.3l0.9,7.9l-5.8,0.7l1.8,15.8L942.8,59.2z"/>
		<path fill="#FFFFFF" d="M982.7,48.6l-4.9,0.2l-0.2-4.6l18.4-0.8l0.2,4.6l-5.1,0.2l0.7,15.4l-8.5,0.4l-0.2-4.6
			c-1.4,2-3.1,3.5-5.2,4.6c-2.1,1.1-4.5,1.7-7.3,1.8c-5.3,0.2-9.5-1.2-12.5-4.4c-3-3.1-4.7-7.8-4.9-13.8c-0.3-6.2,1-11,3.7-14.2
			s7-5,12.7-5.3c2.4-0.1,4.6,0.2,6.5,0.8c1.9,0.6,3.8,1.7,5.7,3.3l-0.2-3.5l8.1-0.4l0.4,9l-8.1,0.4c-1.6-1.5-3.2-2.5-4.9-3.2
			c-1.7-0.7-3.5-1-5.4-0.9c-3.1,0.1-5.3,1.3-6.7,3.5c-1.4,2.2-2,5.5-1.8,9.8c0.2,4.8,1.2,8.2,2.8,10.3c1.7,2.1,4.2,3.1,7.6,2.9
			c2.7-0.1,4.9-1.3,6.6-3.4C981.9,54.6,982.7,51.9,982.7,48.6z M960.7,65.6c1.7,0.8,3.5,1.3,5.2,1.6c1.7,0.3,3.5,0.4,5.3,0.4
			c1.9-0.1,3.7-0.5,5.4-1.1c1.7-0.7,3.5-1.7,5.3-3l0.2,3.5l0.7,0.6c-1.5,1.1-3.1,2-4.8,2.6c-1.7,0.6-3.4,1-5.2,1
			c-1.2,0.1-2.4-0.1-3.7-0.5s-2.4-0.9-3.5-1.7L960.7,65.6z M970.5,58.1c-1.8-0.3-3.2-1.3-4.1-3.1c-0.9-1.8-1.5-4.4-1.6-8
			c-0.2-3.9,0.3-6.8,1.4-8.7c1.1-1.8,2.9-2.8,5.4-2.9c2-0.1,3.8,0.2,5.5,0.9s3.2,1.8,4.6,3.2l10-0.5l-0.5-10.8l3.3,3.5l0.4,9.7
			l-11.1,0.5c-1.7-1.1-3.4-1.9-5.1-2.4s-3.4-0.7-5.2-0.6c-2.2,0.1-3.6,0.8-4.4,2c-0.8,1.3-1.1,3.5-1,6.6c0.1,1.9,0.3,3.7,0.7,5.3
			C969.2,54.8,969.7,56.5,970.5,58.1z M977.9,50.7l3.2-0.1c0,0.5-0.1,0.9-0.2,1.3c-0.1,0.4-0.3,0.8-0.4,1.3L977.9,50.7z M983.5,65.8
			l9.9-0.4L992.7,50l5.1-0.2l-0.3-6.5l3.4,3.5l0.3,6.8l-5.1,0.2l0.7,15.4l-9,0.4L983.5,65.8z"/>
		<path fill="#FFFFFF" d="M1007.1,69.5l-4.6-4.1l21.6,0.5l0.1-7.7l3.2,2.8l-0.2,8.9L1007.1,69.5z M1017,58l5.9,0.1l-0.1,5.8
			l-20.2-0.4l0.1-5.8l5.8,0.1l0.4-23.6l-5.8-0.1l0.1-5.8l20.2,0.4l-0.1,5.8l-5.9-0.1L1017,58z M1007.3,40l-4.4-4.1l4.4,0.1V40z
			 M1018.4,56.2l0.3-19.9l5.8,0.1l0.1-7.7l3.2,3.7l-0.1,8l-5.8-0.1l-0.3,15.9H1018.4z"/>
		<path fill="#FFFFFF" d="M1028.1,65.5l20.2,1.9l0.6-7.6l2.9,3.6l-0.7,8.3l-18.7-1.8L1028.1,65.5z M1028.3,63.7l0.5-5.8l5.8,0.5
			l2-23.5l-5.8-0.5l0.5-5.8l18.3,1.7l11.1,27.4l1.7-20.4l-5.8-0.5l0.5-5.8l18,1.7l-0.5,5.8l-5.1-0.5l-2.4,29.3l-11.9-1.1l-11.6-27.6
			l-1.7,20.5l5.8,0.5l-0.5,5.8L1028.3,63.7z M1030.6,36.2l4.4,0.4l-0.3,4.1L1030.6,36.2z M1043.3,57.4l1-12.3l2.7,6.4l-0.5,6.3
			L1043.3,57.4z M1051.1,30.4l4,5l-0.3,3.1l5.8,0.5l-1,12.1L1051.1,30.4z M1055.9,68.1l12.3,1.2l2.4-29.3l5.2,0.5l0.6-7.6l2.8,4.3
			l-0.7,8l-5.1-0.5l-2.4,28.9l-11.1-1L1055.9,68.1z"/>
		<path fill="#FFFFFF" d="M1076.9,70l18.9,3.9l1.4-7.5l2.6,3.6l-1.6,8.5l-16.9-3.5L1076.9,70z M1077.3,68.2l1.1-5.7l4.9,1l15.5-26.8
			l13.4,2.7l5,31l4.9,1l-1.1,5.7l-18.9-3.9l1.1-5.7l4.8,1l-1.2-7l-12.5-2.6l-3.5,6.1l4.9,1l-1.1,5.7L1077.3,68.2z M1093.3,63.7
			l1.6-2.8l10.6,2.2l0.4,3.2L1093.3,63.7z M1096.8,54.8l9.3,1.9l-2.3-14.4L1096.8,54.8z M1099.3,53.5l3.7-6.7l0.9,5.7l-1,1.7
			L1099.3,53.5z M1101.8,75.1l20.3,4.2l1.4-7.5l2.5,3.9l-1.5,8.2l-19.2-3.9L1101.8,75.1z M1118.4,68.8l-4.8-29.1l4.9,9l3.2,20.8
			L1118.4,68.8z"/>
		<path fill="#FFFFFF" d="M1125.5,80.1l33.2,11.3l6.2-20.1l2,4.4l-6.3,20.4l-31.8-10.6L1125.5,80.1z M1126,78.4l1.7-5.5l5.6,1.9
			l7-22.4l-5.6-1.9l1.7-5.5l19.2,6.5l-1.7,5.5l-5.5-1.9l-7,22.4l10.5,3.6l4-12.8l7.7,2.6l-5.7,18.3L1126,78.4z M1137.3,57.4l-3-5.2
			l4.2,1.4L1137.3,57.4z M1143.3,76.2l5.9-18.9l5.6,1.9l2.3-7.3l2,4.6l-2.3,7.5l-5.5-1.9l-4.7,15.1L1143.3,76.2z"/>
	</g>
</g>
<g display="none">
	<path display="inline" fill="#588C38" stroke="#FFFFFF" stroke-width="3" stroke-miterlimit="10" d="M1167,148.3
		c-40.6-15.6-98.4-25-163.4-25c-0.3,0-0.2-0.1-0.4-0.1c-0.3,0-1.9,0.1-2.2,0.1c-65,0-124.6,9.4-165.6,25v109.4h330V148.3
		C1165.4,148.3,1167.1,148.3,1167,148.3z"/>
	<g display="inline">
		
			<text transform="matrix(1.0069 0 0 1 858.8317 214.8201)" fill="#FFFFFF" font-family="'FranklinGothic-Heavy'" font-size="69.8267">BBQ HUT</text>
		<g>
			<line fill="none" stroke="#FFFFFF" stroke-width="2" stroke-miterlimit="10" x1="858.9" y1="234.2" x2="952.9" y2="234.2"/>
			<line fill="none" stroke="#FFFFFF" stroke-width="2" stroke-miterlimit="10" x1="1047.9" y1="234.2" x2="1141.9" y2="234.2"/>
			<text transform="matrix(1 0 0 1 961.066 239.2576)" fill="#FFFFCC" font-family="'CopperplateGothic-Bold'" font-size="14.3597">EST. 1997</text>
		</g>
		<line fill="none" stroke="#FFFFFF" stroke-width="2" stroke-miterlimit="10" x1="858.9" y1="154.2" x2="1142.9" y2="154.2"/>
	</g>
</g>
<g display="none">
	<g display="inline">
		<radialGradient id="SVGID_2_" cx="1012.55" cy="371.8" r="146.7393" gradientUnits="userSpaceOnUse">
			<stop  offset="0" style="stop-color:#753128"/>
			<stop  offset="1" style="stop-color:#421C17"/>
		</radialGradient>
		<path fill="url(#SVGID_2_)" stroke="#FFFFFF" stroke-width="3" stroke-miterlimit="10" d="M1211.6,353.3
			c-36.2-22.2-111.6-37.4-198.2-37.4c-0.3,0-0.6,0-0.9,0s-0.6,0-0.9,0c-86.6,0-162,15.2-198.2,37.5c-0.2,0.1-0.5,0.3-0.7,0.4
			l34.5,73.9c40.6-13.7,99.4-22.4,164.5-22.4c0.3,0,0.6,0,0.9,0s0.6,0,0.9,0c65.1,0,124,8.6,164.5,22.4l34.4-73.9
			C1212.1,353.6,1211.9,353.5,1211.6,353.3z"/>
		<g>
			<path fill="#FFFFFF" d="M846.3,384.6c-1.9-6.3-1.9-11.3,0-15.1c1.9-3.7,6-6.6,12.2-8.6s11.1-2.1,14.7-0.1c3.6,1.9,6.4,6,8.3,12.4
				c1.9,6.3,1.9,11.3,0,15s-6,6.6-12.2,8.6s-11.1,2.1-14.7,0.2C851,395,848.2,390.9,846.3,384.6z M855.7,381.6
				c1.4,4.5,3,7.6,4.9,9.1c1.9,1.6,4.3,1.9,7.2,1c2.9-0.9,4.7-2.6,5.4-5.1c0.7-2.4,0.4-5.9-1-10.4c-1.4-4.5-3-7.6-4.9-9.2
				c-1.9-1.6-4.3-1.9-7.2-1c-2.9,0.9-4.7,2.6-5.4,5.1S854.3,377.1,855.7,381.6z M865.3,390.5c-1.8,0.1-3.4-0.6-4.7-2.1
				c-1.3-1.5-2.5-3.9-3.5-7.3c-1.2-3.9-1.5-6.9-0.9-9s2-3.6,4.4-4.4c1.8-0.6,3.2-0.6,4.5,0c1.2,0.6,2.4,1.7,3.5,3.6
				c-1.2-0.2-2.3-0.3-3.3-0.3s-1.8,0.1-2.5,0.3c-1.7,0.6-2.7,1.5-3.1,2.9c-0.4,1.4-0.1,3.5,0.8,6.4c0.6,2,1.3,3.8,2.1,5.4
				C863.3,387.6,864.2,389.1,865.3,390.5z M873,358.9c3.9,1.7,6.9,3.6,8.9,5.8s3.7,5.3,4.8,9.2c1,3.2,1.4,6.2,1.3,9
				c-0.1,2.9-0.6,5.5-1.7,7.9c-1,2.3-2.6,4.4-4.9,6.3c-2.2,1.9-4.7,3.3-7.5,4.2c-2.6,0.8-5.2,1.1-7.9,0.9c-2.7-0.3-5.6-1.1-8.6-2.4
				c2,0.3,4,0.3,5.9,0.1c2-0.2,4.2-0.7,6.5-1.5c6.5-2.1,10.8-5.3,12.9-9.4c2.1-4.2,2.1-9.7,0.1-16.4c-1.1-3.6-2.4-6.4-3.9-8.5
				C877.5,362,875.5,360.3,873,358.9z"/>
			<path fill="#FFFFFF" d="M892.1,388.2l-1.1-5.7l5.7-1.1l-4.3-23.2l-5.7,1.1l-1.1-5.7l24.5-4.9c3.5-0.7,6-1.1,7.4-1.1
				c1.4,0,2.6,0.1,3.5,0.5c1.4,0.6,2.5,1.5,3.5,2.8c0.9,1.3,1.5,2.8,1.9,4.7c0.5,2.8,0.2,5.1-1,7.1s-3.1,3.2-5.7,3.8l0.2,1.4
				l1.2-0.2c0.4-0.1,0.8,0,1.2,0.2c0.4,0.2,0.7,0.5,0.9,1l2.6,5c0.3,0.6,0.7,1,1.1,1.2c0.4,0.2,0.9,0.3,1.5,0.2l3.5-0.7l1.1,5.7
				l-9,1.8c-1,0.2-1.9,0.1-2.7-0.2c-0.8-0.4-1.4-1-2-2l-4.4-7.5c-0.7-1.3-1.5-2.1-2.3-2.6c-0.8-0.5-1.6-0.7-2.6-0.5l-6.9,1.4
				l1.7,9.4l5.7-1.1l1.1,5.7L892.1,388.2z M887.2,361.1l4.3-0.9l0.8,4.1L887.2,361.1z M892.5,390l21-4.2l-1.4-7.5l3.7,2.1l1.6,8.7
				l-19.9,3.9L892.5,390z M902.5,365.9l10.1-2c2.1-0.4,3.5-1.1,4.1-1.9c0.7-0.9,0.8-2.2,0.5-3.9c-0.3-1.6-1-2.7-2-3.3
				c-1-0.6-2.5-0.7-4.4-0.3l-10.1,2L902.5,365.9z M903.6,363.8l-1.1-5.7l8.8-1.7c1.2-0.2,2.2-0.2,3,0.2c0.7,0.4,1.2,1,1.4,1.9
				c0,0.2,0.1,0.4,0.1,0.6s0,0.3-0.1,0.5l-9.2,1.8l0.3,1.8L903.6,363.8z M908.2,375.5l0.3,1.7l-2.3,0.5l-1.1-5.7l5.2-1
				c0.6-0.1,1.2-0.1,1.6,0.2c0.4,0.2,0.9,0.7,1.3,1.4l1.1,1.8L908.2,375.5z M934.9,381.6l-1.4-7.5l3.8,2.6l1.5,8.2l-8.5,1.7
				c-1.1,0.2-2.1,0.2-3,0.1c-0.9-0.2-1.8-0.5-2.5-1l-3.3-2.3c0.5,0.2,0.9,0.4,1.4,0.4c0.4,0.1,0.9,0,1.4-0.1l0.6-0.1L934.9,381.6z
				 M925,368.2c-0.1-0.3-0.3-0.6-0.6-0.8c-0.3-0.3-0.6-0.5-1-0.7c1.9-1,3.3-2.5,4.1-4.5c0.8-2,1-4.3,0.5-6.8
				c-0.3-1.8-0.9-3.3-1.7-4.5c-0.8-1.2-1.8-2.3-3.2-3.2l4.7,3.5c0.9,0.7,1.6,1.5,2.2,2.6c0.6,1,1,2.2,1.3,3.6
				c0.4,2.3,0.2,4.4-0.5,6.3c-0.8,1.9-2.1,3.8-4.1,5.5l2,1.5l0.1,0.1c0.9,0.7,1.6,1.4,2,2.2l-2.4,0.5c-0.3,0.1-0.5,0-0.7-0.1
				s-0.4-0.4-0.5-0.7L925,368.2z"/>
			<path fill="#FFFFFF" d="M952.2,372l5.8-0.7l0.6,5.8l-20.1,2.4l-0.6-5.8l5.8-0.7l-2.6-23.5l-5.8,0.7l-0.6-5.8l20.1-2.4l0.6,5.8
				l-5.8,0.7L952.2,372z M940.4,355.5l-4.8-3.4l4.4-0.5L940.4,355.5z M943.8,384.7l-5-3.4l21.5-2.5l-0.8-7.6l3.5,2.4l1,8.8
				L943.8,384.7z M953.4,370l-2.2-19.8l5.8-0.7l-0.8-7.6l3.6,3.3l0.9,7.9l-5.8,0.7l1.8,15.8L953.4,370z"/>
			<path fill="#FFFFFF" d="M993.3,359.4l-4.9,0.2l-0.2-4.6l18.4-0.8l0.2,4.6l-5.1,0.2l0.7,15.4l-8.5,0.4l-0.2-4.6
				c-1.4,2-3.1,3.5-5.2,4.6c-2.1,1.1-4.5,1.7-7.3,1.8c-5.3,0.2-9.5-1.2-12.5-4.4c-3-3.1-4.7-7.8-4.9-13.8c-0.3-6.2,1-11,3.7-14.2
				c2.7-3.2,7-5,12.7-5.3c2.4-0.1,4.6,0.2,6.5,0.8c1.9,0.6,3.8,1.7,5.7,3.3l-0.2-3.5l8.1-0.4l0.4,9l-8.1,0.4
				c-1.6-1.5-3.2-2.5-4.9-3.2c-1.7-0.7-3.5-1-5.4-0.9c-3.1,0.1-5.3,1.3-6.7,3.5c-1.4,2.2-2,5.5-1.8,9.8c0.2,4.8,1.2,8.2,2.8,10.3
				c1.7,2.1,4.2,3.1,7.6,2.9c2.7-0.1,4.9-1.3,6.6-3.4C992.5,365.4,993.3,362.7,993.3,359.4z M971.3,376.4c1.7,0.8,3.5,1.3,5.2,1.6
				c1.7,0.3,3.5,0.4,5.3,0.4c1.9-0.1,3.7-0.5,5.4-1.1c1.7-0.7,3.5-1.7,5.3-3l0.2,3.5l0.7,0.6c-1.5,1.1-3.1,2-4.8,2.6
				c-1.7,0.6-3.4,1-5.2,1c-1.2,0.1-2.4-0.1-3.7-0.5s-2.4-0.9-3.5-1.7L971.3,376.4z M981.1,368.9c-1.8-0.3-3.2-1.3-4.1-3.1
				c-0.9-1.8-1.5-4.4-1.6-8c-0.2-3.9,0.3-6.8,1.4-8.7c1.1-1.8,2.9-2.8,5.4-2.9c2-0.1,3.8,0.2,5.5,0.9c1.7,0.7,3.2,1.8,4.6,3.2
				l10-0.5l-0.5-10.8l3.3,3.5l0.4,9.7l-11.1,0.5c-1.7-1.1-3.4-1.9-5.1-2.4s-3.4-0.7-5.2-0.6c-2.2,0.1-3.6,0.8-4.4,2
				c-0.8,1.3-1.1,3.5-1,6.6c0.1,1.9,0.3,3.7,0.7,5.3C979.8,365.6,980.3,367.3,981.1,368.9z M988.5,361.5l3.2-0.1
				c0,0.5-0.1,0.9-0.2,1.3c-0.1,0.4-0.3,0.8-0.4,1.3L988.5,361.5z M994.1,376.6l9.9-0.4l-0.7-15.4l5.1-0.2l-0.3-6.5l3.4,3.5l0.3,6.8
				l-5.1,0.2l0.7,15.4l-9,0.4L994.1,376.6z"/>
			<path fill="#FFFFFF" d="M1017.7,380.3l-4.6-4.1l21.6,0.5l0.1-7.7l3.2,2.8l-0.2,8.9L1017.7,380.3z M1027.6,368.8l5.9,0.1l-0.1,5.8
				l-20.2-0.4l0.1-5.8l5.8,0.1l0.4-23.6l-5.8-0.1l0.1-5.8l20.2,0.4l-0.1,5.8l-5.9-0.1L1027.6,368.8z M1017.9,350.8l-4.4-4.1l4.4,0.1
				V350.8z M1029,367l0.3-19.9l5.8,0.1l0.1-7.7l3.2,3.7l-0.1,8l-5.8-0.1l-0.3,15.9H1029z"/>
			<path fill="#FFFFFF" d="M1038.7,376.3l20.2,1.9l0.6-7.6l2.9,3.6l-0.7,8.3l-18.7-1.8L1038.7,376.3z M1038.9,374.5l0.5-5.8l5.8,0.5
				l2-23.5l-5.8-0.5l0.5-5.8l18.3,1.7l11.1,27.4l1.7-20.4l-5.8-0.5l0.5-5.8l18,1.7l-0.5,5.8l-5.1-0.5l-2.4,29.3l-11.9-1.1
				l-11.6-27.6l-1.7,20.5l5.8,0.5l-0.5,5.8L1038.9,374.5z M1041.2,347l4.4,0.4l-0.3,4.1L1041.2,347z M1053.9,368.2l1-12.3l2.7,6.4
				l-0.5,6.3L1053.9,368.2z M1061.7,341.2l4,5l-0.3,3.1l5.8,0.5l-1,12.1L1061.7,341.2z M1066.5,378.9l12.3,1.2l2.4-29.3l5.2,0.5
				l0.6-7.6l2.8,4.3l-0.7,8l-5.1-0.5l-2.4,28.9l-11.1-1L1066.5,378.9z"/>
			<path fill="#FFFFFF" d="M1087.5,380.8l18.9,3.9l1.4-7.5l2.6,3.6l-1.6,8.5l-16.9-3.5L1087.5,380.8z M1087.9,379l1.1-5.7l4.9,1
				l15.5-26.8l13.4,2.7l5,31l4.9,1l-1.1,5.7l-18.9-3.9l1.1-5.7l4.8,1l-1.2-7l-12.5-2.6l-3.5,6.1l4.9,1l-1.1,5.7L1087.9,379z
				 M1103.9,374.5l1.6-2.8l10.6,2.2l0.4,3.2L1103.9,374.5z M1107.3,365.6l9.3,1.9l-2.3-14.4L1107.3,365.6z M1109.9,364.3l3.7-6.7
				l0.9,5.7l-1,1.7L1109.9,364.3z M1112.4,385.9l20.3,4.2l1.4-7.5l2.5,3.9l-1.5,8.2l-19.2-3.9L1112.4,385.9z M1129,379.6l-4.8-29.1
				l4.9,9l3.2,20.8L1129,379.6z"/>
			<path fill="#FFFFFF" d="M1136.1,390.9l33.2,11.3l6.2-20.1l2,4.4l-6.3,20.4l-31.8-10.6L1136.1,390.9z M1136.6,389.2l1.7-5.5
				l5.6,1.9l7-22.4l-5.6-1.9l1.7-5.5l19.2,6.5l-1.7,5.5l-5.5-1.9l-7,22.4l10.5,3.6l4-12.8l7.7,2.6l-5.7,18.3L1136.6,389.2z
				 M1147.8,368.2l-3-5.2l4.2,1.4L1147.8,368.2z M1153.9,387l5.9-18.9l5.6,1.9l2.3-7.3l2,4.6l-2.3,7.5l-5.5-1.9l-4.7,15.1
				L1153.9,387z"/>
		</g>
	</g>
	<g display="inline">
		<path fill="#588C38" stroke="#FFFFFF" stroke-width="3" stroke-miterlimit="10" d="M1178.5,437.9c-40.6-15.6-98.4-25-163.4-25
			c-0.3,0-0.2-0.1-0.4-0.1c-0.3,0-1.9,0.1-2.2,0.1c-65,0-124.6,9.4-165.6,25v109.4h330V437.9
			C1176.9,437.9,1178.6,437.9,1178.5,437.9z"/>
		<g>
			
				<text transform="matrix(1.0069 0 0 1 870.2838 504.4201)" fill="#FFFFFF" font-family="'FranklinGothic-Heavy'" font-size="69.8267">BBQ HUT</text>
			<g>
				<line fill="none" stroke="#FFFFFF" stroke-width="2" stroke-miterlimit="10" x1="870.4" y1="523.8" x2="964.4" y2="523.8"/>
				<line fill="none" stroke="#FFFFFF" stroke-width="2" stroke-miterlimit="10" x1="1059.4" y1="523.8" x2="1153.4" y2="523.8"/>
				
					<text transform="matrix(1 0 0 1 972.5182 528.8576)" fill="#FFFFCC" font-family="'CopperplateGothic-Bold'" font-size="14.3597">EST. 1997</text>
			</g>
			<line fill="none" stroke="#FFFFFF" stroke-width="2" stroke-miterlimit="10" x1="870.4" y1="443.8" x2="1154.4" y2="443.8"/>
		</g>
	</g>
</g>
</svg>
