<?xml version="1.0" encoding="utf-8"?>
<!-- Generator: Adobe Illustrator 18.1.1, SVG Export Plug-In . SVG Version: 6.00 Build 0)  -->
<svg version="1.1" id="Layer_1" xmlns="http://www.w3.org/2000/svg" xmlns:xlink="http://www.w3.org/1999/xlink" x="0px" y="0px"
	 width="600px" height="600px" viewBox="0 0 600 600" style="enable-background:new 0 0 600 600;" xml:space="preserve">
<style type="text/css">
	.Drop_x0020_Shadow{fill:none;}
	.Outer_x0020_Glow_x0020_5_x0020_pt{fill:none;}
	.Blue_x0020_Neon{fill:none;stroke:#8AACDA;stroke-width:7;stroke-linecap:round;stroke-linejoin:round;}
	.Chrome_x0020_Highlight{fill:url(#SVGID_1_);stroke:#FFFFFF;stroke-width:0.3629;stroke-miterlimit:1;}
	.Jive_GS{fill:#FFDD00;}
	.Alyssa_GS{fill:#A6D0E4;}
	.st0{opacity:0.5;fill:#FFFFFF;stroke:#B2B0A1;stroke-width:12;stroke-miterlimit:10;}
	.st1{display:none;}
	.st2{display:inline;fill:#21421D;}
	.st3{display:inline;fill:#FFFFFF;}
	.st4{display:inline;fill:url(#SVGID_2_);stroke:#FFFFFF;stroke-width:3;stroke-miterlimit:10;}
	.st5{display:inline;}
	.st6{fill:#FFFFFF;}
	.st7{display:inline;fill:#588C38;stroke:#006837;stroke-width:3;stroke-miterlimit:10;}
	.st8{fill:none;stroke:#FFFFFF;stroke-width:3;stroke-miterlimit:10;}
	.st9{enable-background:new    ;}
	.st10{fill:#FFFFCC;}
</style>
<linearGradient id="SVGID_1_" gradientUnits="userSpaceOnUse" x1="0" y1="0" x2="4.489659e-011" y2="-1">
	<stop  offset="0" style="stop-color:#656565"/>
	<stop  offset="0.618" style="stop-color:#1B1B1B"/>
	<stop  offset="0.6292" style="stop-color:#545454"/>
	<stop  offset="0.9831" style="stop-color:#3E3E3E"/>
</linearGradient>
<circle class="st0" cx="295.8" cy="297.7" r="290"/>
<g class="st1">
	<path class="st2" d="M295.7,92.7c-26.1,43.2-58.1,90.5-94.4,137.6c-34.5,44.9-69.1,84.8-101,118.5c-0.1,0.1-0.3,0.1-0.3,0.2v0H41
		v0.4c-3-0.1-5.3-2.8-5.3-6.2c0-1.4,0.4-2.7,1.1-3.7c1.2-0.8,2.4-1.6,3.7-2.4c45.9-30.1,103.2-78.3,160.8-136.7
		C237.6,163.7,269.6,126.3,295.7,92.7z"/>
	<path class="st2" d="M426.8,349h-56.4c-0.1-1-0.1-1-0.2-1h0.2c-28.2-89-53.4-174.3-74.6-255.2c0-0.1,0.1,0,0.1-0.1c0,0,0,0.1,0,0.1
		c0,0.1,0.1,0.1,0.1,0.2c13.9,32,29.4,65.6,46.4,99.9c1,2,2,4,3,6.1c14,28.3,29.1,56.8,44.9,85.5C402.5,306.7,414.6,328,426.8,349z"
		/>
	<path class="st2" d="M201.4,284.4c36.2-65.5,68.2-131.5,94.2-191.6C274.4,173.6,249.2,259,221,348h0.2c-0.1,0-0.1,0-0.2,1h-56.4
		C176.7,328,189.1,306.6,201.4,284.4z"/>
	<path class="st2" d="M295.7,93C295.7,93,295.7,93.1,295.7,93C295.7,93.1,295.7,93.1,295.7,93C295.7,93.1,295.7,93.1,295.7,93
		c0,0.1,0,0.1,0,0.2C295.6,93.1,295.7,93.1,295.7,93z"/>
	<path class="st2" d="M342.3,192.9c-17-34.3-32.6-67.8-46.4-99.8c0-0.1,0-0.1-0.1-0.2c0,0,0-0.1,0-0.1c0,0,0,0,0,0
		c0-0.1-0.1-0.1,0-0.2c0,0.1,0.2,0.2,0.2,0.3v0.3c0,0.3,0.4,0.5,0.5,0.8c0,0,0.1,0,0.1,0c0,0,0,0,0,0c0,0,0,0.1,0.1,0.1l0.2,0.5
		c0,0,0,0,0,0c0,0,0,0,0,0C310.5,126.2,325.7,159.2,342.3,192.9z"/>
	<path class="st2" d="M555.7,342.9c-0.1,3-2.7,5.4-5.7,5.5V348h-58.9c-0.1,0-0.1,0.1-0.2,0.1C459,314.3,424.6,274.9,390.1,230
		c-35.8-46.6-67.5-93.1-93.4-135.8c0,0,0,0,0-0.1c25.9,33.3,57.6,69.9,93.4,106.3c57.6,58.4,114.9,106.6,160.8,136.7
		c1.4,0.9,2.7,1.8,4.1,2.7C555.4,340.7,555.6,341.7,555.7,342.9z"/>
	<path class="st2" d="M555.7,343.2c0,3.4-2.7,6.1-5.7,6.2V349h-59v0c0-0.1-0.1-0.4-0.1-0.6c0-0.1,0-0.5-0.1-0.5h0.3
		c0,0-0.1,0.1-0.1,0.1c-31.9-33.7-66.4-73.1-100.9-118c-35.7-46.5-67.3-92.8-93.2-135.4c0,0,0,0,0,0c0,0,0,0,0,0
		c-0.3-0.4-0.5-0.8-0.8-1.3c0.1,0.2,0.3,0.3,0.4,0.5c0,0,0,0,0,0c0,0.1,0.1,0.1,0.1,0.2c0,0,0,0,0,0c0,0,0,0,0,0c0,0,0,0.1,0,0.1
		c25.9,42.7,57.6,89.3,93.4,135.9c34.5,44.9,69,84.2,100.9,118c0.1,0.1,0.1-0.1,0.2-0.1H550v0.3c3-0.1,5.4-2.5,5.5-5.5
		C555.5,343,555.7,343.1,555.7,343.2z"/>
	<path class="st3" d="M491.1,348h-64.3c-12.1-21-24.4-41.8-36.7-64.1c-15.8-28.6-30.7-57-44.7-85.1c-1-2-2-4-3-6
		c-17-34.3-32.6-67.8-46.4-99.8c0-0.1,0-0.1-0.1-0.2c0,0,0,0,0-0.1c0-0.1-0.1-0.2-0.1-0.2c0,0.1,0.1,0.1,0.1,0.2
		c0.1,0.1,0.2,0.3,0.3,0.4c0.1,0.2,0.3,0.4,0.4,0.7c0,0,0,0,0,0c0.1,0.1,0.1,0.2,0.2,0.3c25.9,42.7,57.6,89.3,93.4,135.9
		c34.5,44.9,69,84.2,100.9,118C491,348.1,491,348,491.1,348z"/>
	<path class="st2" d="M295.6,93.9c0-0.1,0.1-0.2,0.1-0.3c0,0.1,0.1,0.2,0.1,0.3c0-0.3-0.1-0.6-0.1-0.9
		C295.6,93.3,295.6,93.6,295.6,93.9z"/>
	<path class="st3" d="M221,348h0.2h50c8.6-87,16.8-171.4,24.4-254.3c0-0.3,0.1-0.7,0.1-1C274.4,173.5,249.2,259,221,348z"/>
	<path class="st3" d="M370.3,348h-50.2c-8.6-87-17.1-171.4-24.7-254.3c0-0.3,0.6-0.3-0.4-0.6V93c0,0,0.3-0.2,0.3-0.2
		C316.6,173.7,342.1,259,370.3,348z"/>
	<path class="st2" d="M320.2,349c-8.6-88-16.8-172.2-24.5-255.4C288,176.8,279.8,261,271.2,349H320.2z"/>
</g>
<g class="st1">
	
		<radialGradient id="SVGID_2_" cx="297.3601" cy="272.7988" r="165.1463" gradientTransform="matrix(1 0 0 0.917 0 28.0573)" gradientUnits="userSpaceOnUse">
		<stop  offset="0" style="stop-color:#753128"/>
		<stop  offset="1" style="stop-color:#421C17"/>
	</radialGradient>
	<path class="st4" d="M521.4,259.1c-40.7-22.9-125.6-38.6-223.1-38.6c-0.3,0-0.7,0-1,0c-0.3,0-0.7,0-1,0
		c-97.5,0-182.3,15.7-223.1,38.7c-0.2,0.1-0.6,0.3-0.8,0.4l38.8,76.3c45.7-14.1,111.9-23.1,185.1-23.1c0.3,0,0.7,0,1,0s0.7,0,1,0
		c73.3,0,139.6,8.9,185.1,23.1l38.7-76.3C521.9,259.4,521.7,259.3,521.4,259.1z"/>
	<g class="st5">
		<path class="st6" d="M110.3,291.4c-2.1-6.5-2.1-11.7,0-15.6c2.1-3.8,6.8-6.8,13.7-8.9c7-2.1,12.5-2.2,16.5-0.1
			c4.1,2,7.2,6.2,9.3,12.8c2.1,6.5,2.1,11.7,0,15.5c-2.1,3.8-6.8,6.8-13.7,8.9c-7,2.1-12.5,2.2-16.5,0.2
			C115.5,302.2,112.4,297.9,110.3,291.4z M120.8,288.3c1.6,4.6,3.4,7.8,5.5,9.4c2.1,1.7,4.8,2,8.1,1c3.3-0.9,5.3-2.7,6.1-5.3
			c0.8-2.5,0.5-6.1-1.1-10.7c-1.6-4.6-3.4-7.8-5.5-9.5c-2.1-1.7-4.8-2-8.1-1c-3.3,0.9-5.3,2.7-6.1,5.3
			C118.9,280.1,119.3,283.7,120.8,288.3z M131.6,297.5c-2,0.1-3.8-0.6-5.3-2.2c-1.5-1.5-2.8-4-3.9-7.5c-1.4-4-1.7-7.1-1-9.3
			c0.7-2.2,2.3-3.7,5-4.5c2-0.6,3.6-0.6,5.1,0c1.4,0.6,2.7,1.8,3.9,3.7c-1.4-0.2-2.6-0.3-3.7-0.3c-1.1,0-2,0.1-2.8,0.3
			c-1.9,0.6-3,1.5-3.5,3c-0.5,1.4-0.1,3.6,0.9,6.6c0.7,2.1,1.5,3.9,2.4,5.6C129.4,294.5,130.4,296.1,131.6,297.5z M140.3,264.9
			c4.4,1.8,7.8,3.7,10,6c2.3,2.3,4.2,5.5,5.4,9.5c1.1,3.3,1.6,6.4,1.5,9.3c-0.1,3-0.7,5.7-1.9,8.2c-1.1,2.4-2.9,4.5-5.5,6.5
			c-2.5,2-5.3,3.4-8.4,4.3c-2.9,0.8-5.9,1.1-8.9,0.9c-3-0.3-6.3-1.1-9.7-2.5c2.3,0.3,4.5,0.3,6.6,0.1c2.3-0.2,4.7-0.7,7.3-1.5
			c7.3-2.2,12.2-5.5,14.5-9.7c2.4-4.3,2.4-10,0.1-16.9c-1.2-3.7-2.7-6.6-4.4-8.8C145.4,268.1,143.1,266.3,140.3,264.9z"/>
		<path class="st6" d="M161.8,295.1l-1.2-5.9l6.4-1.1l-4.8-23.9l-6.4,1.1l-1.2-5.9l27.6-5.1c3.9-0.7,6.8-1.1,8.3-1.1
			s2.9,0.1,3.9,0.5c1.6,0.6,2.8,1.5,3.9,2.9c1,1.3,1.7,2.9,2.1,4.9c0.6,2.9,0.2,5.3-1.1,7.3c-1.4,2.1-3.5,3.3-6.4,3.9l0.2,1.4
			l1.4-0.2c0.5-0.1,0.9,0,1.4,0.2c0.5,0.2,0.8,0.5,1,1l2.9,5.2c0.3,0.6,0.8,1,1.2,1.2s1,0.3,1.7,0.2l3.9-0.7l1.2,5.9l-10.1,1.9
			c-1.1,0.2-2.1,0.1-3-0.2c-0.9-0.4-1.6-1-2.3-2.1l-5-7.7c-0.8-1.3-1.7-2.2-2.6-2.7c-0.9-0.5-1.8-0.7-2.9-0.5l-7.8,1.4l1.9,9.7
			l6.4-1.1l1.2,5.9L161.8,295.1z M156.3,267.2l4.8-0.9l0.9,4.2L156.3,267.2z M162.3,297l23.6-4.3l-1.6-7.7l4.2,2.2l1.8,9l-22.4,4
			L162.3,297z M173.5,272.1l11.4-2.1c2.4-0.4,3.9-1.1,4.6-2c0.8-0.9,0.9-2.3,0.6-4c-0.3-1.7-1.1-2.8-2.3-3.4c-1.1-0.6-2.8-0.7-5-0.3
			l-11.4,2.1L173.5,272.1z M174.7,270l-1.2-5.9l9.9-1.8c1.4-0.2,2.5-0.2,3.4,0.2c0.8,0.4,1.4,1,1.6,2c0,0.2,0.1,0.4,0.1,0.6
			s0,0.3-0.1,0.5l-10.4,1.9l0.3,1.9L174.7,270z M179.9,282l0.3,1.8l-2.6,0.5l-1.2-5.9l5.9-1c0.7-0.1,1.4-0.1,1.8,0.2
			c0.5,0.2,1,0.7,1.5,1.4l1.2,1.9L179.9,282z M210,288.3l-1.6-7.7l4.3,2.7l1.7,8.5l-9.6,1.8c-1.2,0.2-2.4,0.2-3.4,0.1
			c-1-0.2-2-0.5-2.8-1l-3.7-2.4c0.6,0.2,1,0.4,1.6,0.4c0.5,0.1,1,0,1.6-0.1l0.7-0.1L210,288.3z M198.8,274.5
			c-0.1-0.3-0.3-0.6-0.7-0.8c-0.3-0.3-0.7-0.5-1.1-0.7c2.1-1,3.7-2.6,4.6-4.6c0.9-2.1,1.1-4.4,0.6-7c-0.3-1.9-1-3.4-1.9-4.6
			c-0.9-1.2-2-2.4-3.6-3.3l5.3,3.6c1,0.7,1.8,1.5,2.5,2.7c0.7,1,1.1,2.3,1.5,3.7c0.5,2.4,0.2,4.5-0.6,6.5c-0.9,2-2.4,3.9-4.6,5.7
			l2.3,1.5l0.1,0.1c1,0.7,1.8,1.4,2.3,2.3l-2.7,0.5c-0.3,0.1-0.6,0-0.8-0.1c-0.2-0.1-0.5-0.4-0.6-0.7L198.8,274.5z"/>
		<path class="st6" d="M229.4,278.4l6.5-0.7l0.7,6l-22.6,2.5l-0.7-6l6.5-0.7l-2.9-24.3l-6.5,0.7l-0.7-6l22.6-2.5l0.7,6l-6.5,0.7
			L229.4,278.4z M216.2,261.4l-5.4-3.5l5-0.5L216.2,261.4z M220,291.5l-5.6-3.5l24.2-2.6l-0.9-7.8l3.9,2.5l1.1,9.1L220,291.5z
			 M230.8,276.4l-2.5-20.4l6.5-0.7l-0.9-7.8l4.1,3.4l1,8.2l-6.5,0.7l2,16.3L230.8,276.4z"/>
		<path class="st6" d="M275.7,265.4l-5.5,0.2l-0.2-4.7l20.7-0.8l0.2,4.7l-5.7,0.2l0.8,15.9l-9.6,0.4l-0.2-4.7
			c-1.6,2.1-3.5,3.6-5.9,4.7c-2.4,1.1-5.1,1.8-8.2,1.9c-6,0.2-10.7-1.2-14.1-4.5c-3.4-3.2-5.3-8-5.5-14.2
			c-0.3-6.4,1.1-11.4,4.2-14.7c3-3.3,7.9-5.2,14.3-5.5c2.7-0.1,5.2,0.2,7.3,0.8c2.1,0.6,4.3,1.8,6.4,3.4l-0.2-3.6l9.1-0.4l0.5,9.3
			l-9.1,0.4c-1.8-1.5-3.6-2.6-5.5-3.3c-1.9-0.7-3.9-1-6.1-0.9c-3.5,0.1-6,1.3-7.5,3.6c-1.6,2.3-2.3,5.7-2,10.1
			c0.2,5,1.4,8.5,3.2,10.6c1.9,2.2,4.7,3.2,8.6,3c3-0.1,5.5-1.3,7.4-3.5C274.8,271.6,275.7,268.8,275.7,265.4z M250.9,283
			c1.9,0.8,3.9,1.3,5.9,1.7c1.9,0.3,3.9,0.4,6,0.4c2.1-0.1,4.2-0.5,6.1-1.1c1.9-0.7,3.9-1.8,6-3.1l0.2,3.6l0.8,0.6
			c-1.7,1.1-3.5,2.1-5.4,2.7c-1.9,0.6-3.8,1-5.9,1c-1.4,0.1-2.7-0.1-4.2-0.5c-1.5-0.4-2.7-0.9-3.9-1.8L250.9,283z M262,275.2
			c-2-0.3-3.6-1.3-4.6-3.2c-1-1.9-1.7-4.5-1.8-8.3c-0.2-4,0.3-7,1.6-9c1.2-1.9,3.3-2.9,6.1-3c2.3-0.1,4.3,0.2,6.2,0.9
			c1.9,0.7,3.6,1.9,5.2,3.3l11.3-0.5l-0.6-11.1l3.7,3.6l0.5,10l-12.5,0.5c-1.9-1.1-3.8-2-5.7-2.5c-1.9-0.5-3.8-0.7-5.9-0.6
			c-2.5,0.1-4.1,0.8-5,2.1c-0.9,1.3-1.2,3.6-1.1,6.8c0.1,2,0.3,3.8,0.8,5.5C260.5,271.8,261.1,273.6,262,275.2z M270.3,267.6
			l3.6-0.1c0,0.5-0.1,0.9-0.2,1.3c-0.1,0.4-0.3,0.8-0.5,1.3L270.3,267.6z M276.6,283.2l11.1-0.4l-0.8-15.9l5.7-0.2l-0.3-6.7l3.8,3.6
			l0.3,7l-5.7,0.2l0.8,15.9l-10.1,0.4L276.6,283.2z"/>
		<path class="st6" d="M303.2,287l-5.2-4.2l24.3,0.5l0.1-7.9l3.6,2.9l-0.2,9.2L303.2,287z M314.3,275.1l6.6,0.1l-0.1,6l-22.7-0.4
			l0.1-6l6.5,0.1l0.5-24.4l-6.5-0.1l0.1-6l22.7,0.4l-0.1,6l-6.6-0.1L314.3,275.1z M303.4,256.5l-5-4.2l5,0.1V256.5z M315.9,273.3
			l0.3-20.5l6.5,0.1l0.1-7.9l3.6,3.8l-0.1,8.3l-6.5-0.1l-0.3,16.4H315.9z"/>
		<path class="st6" d="M326.8,282.9l22.7,2l0.7-7.8l3.3,3.7l-0.8,8.6l-21-1.9L326.8,282.9z M327,281l0.6-6l6.5,0.5l2.3-24.3
			l-6.5-0.5l0.6-6l20.6,1.8l12.5,28.3l1.9-21.1l-6.5-0.5l0.6-6l20.3,1.8l-0.6,6l-5.7-0.5l-2.7,30.2l-13.4-1.1l-13.1-28.5l-1.9,21.2
			l6.5,0.5l-0.6,6L327,281z M329.6,252.6l5,0.4l-0.3,4.2L329.6,252.6z M343.9,274.5l1.1-12.7l3,6.6l-0.6,6.5L343.9,274.5z
			 M352.7,246.6l4.5,5.2l-0.3,3.2l6.5,0.5l-1.1,12.5L352.7,246.6z M358.1,285.5l13.8,1.2l2.7-30.2l5.9,0.5l0.7-7.8l3.2,4.4l-0.8,8.3
			l-5.7-0.5l-2.7,29.8l-12.5-1L358.1,285.5z"/>
		<path class="st6" d="M381.7,287.5l21.3,4l1.6-7.7l2.9,3.7l-1.8,8.8l-19-3.6L381.7,287.5z M382.2,285.6l1.2-5.9l5.5,1l17.4-27.7
			l15.1,2.8l5.6,32l5.5,1l-1.2,5.9l-21.3-4l1.2-5.9l5.4,1l-1.4-7.2l-14.1-2.7l-3.9,6.3l5.5,1l-1.2,5.9L382.2,285.6z M400.2,281
			l1.8-2.9l11.9,2.3l0.5,3.3L400.2,281z M404,271.8l10.5,2l-2.6-14.9L404,271.8z M406.9,270.5l4.2-6.9l1,5.9l-1.1,1.8L406.9,270.5z
			 M409.7,292.8l22.8,4.3l1.6-7.7l2.8,4l-1.7,8.5l-21.6-4L409.7,292.8z M428.4,286.3l-5.4-30l5.5,9.3l3.6,21.5L428.4,286.3z"/>
		<path class="st6" d="M436.4,297.9l37.4,11.7l7-20.7l2.3,4.5l-7.1,21.1l-35.8-10.9L436.4,297.9z M437,296.2l1.9-5.7l6.3,2l7.9-23.1
			l-6.3-2l1.9-5.7l21.6,6.7l-1.9,5.7l-6.2-2l-7.9,23.1l11.8,3.7l4.5-13.2l8.7,2.7l-6.4,18.9L437,296.2z M449.6,274.5l-3.4-5.4
			l4.7,1.4L449.6,274.5z M456.4,293.9l6.6-19.5l6.3,2l2.6-7.5l2.3,4.7l-2.6,7.7l-6.2-2l-5.3,15.6L456.4,293.9z"/>
	</g>
</g>
<g class="st1">
	<path class="st7" d="M477,344.7c-40.1-11.7-104.5-19.2-178.2-19.2s-140.5,7.5-180.5,19.2c-2.5,1-4.8,1.9-8.8,2.6v107.1h372V347
		C480.5,346.3,479.1,345.7,477,344.7z"/>
	<g class="st5">
		<g>
			<path class="st6" d="M132.2,405.2v-32.9h16c3.3,0,5.7,0.9,7.3,2.6c1.5,1.8,2.3,3.8,2.3,6c0,1.6-0.4,3.1-1.3,4.4
				c-0.9,1.3-2.2,2.2-4,2.7c4.1,1,6.1,3.6,6.1,7.7c0,2.4-0.7,4.6-2.2,6.5c-1.4,1.9-4.5,2.9-9.2,2.9H132.2z M141.1,384.9h4.5
				c1.1,0,1.9-0.3,2.4-0.9c0.5-0.6,0.7-1.2,0.7-1.9c0-1.8-1.1-2.7-3.2-2.7h-4.3V384.9z M141.1,397.9h4.7c1.2,0,2-0.3,2.6-0.9
				c0.5-0.6,0.8-1.3,0.8-2c0-0.8-0.3-1.4-0.8-2.1c-0.5-0.6-1.5-1-2.9-1h-4.4V397.9z"/>
			<path class="st6" d="M180,405.2l-1.8-6.5h-8.4l-1.9,6.5H160l9.7-32.9H180l9.9,32.9H180z M171.4,391.6h5.1l-2.5-9.5L171.4,391.6z"
				/>
			<path class="st6" d="M220.8,405.2h-10.7l-4.6-12.6h-3v12.6h-9.7v-32.9h16.5c3.6,0,6.5,0.9,8.5,2.7s3,4.1,3,7c0,1.9-0.4,3.6-1.1,5
				s-2.2,2.7-4.5,3.8L220.8,405.2z M202.4,385.6h4.1c1.2,0,2.2-0.3,2.9-0.8c0.7-0.5,1.1-1.3,1.1-2.3c0-2.1-1.2-3.2-3.7-3.2h-4.5
				V385.6z"/>
			<path class="st6" d="M235,389v7.6h-11.7V389H235z"/>
			<path class="st6" d="M238.4,405.2v-32.9h16c3.3,0,5.7,0.9,7.3,2.6c1.5,1.8,2.3,3.8,2.3,6c0,1.6-0.4,3.1-1.3,4.4
				c-0.9,1.3-2.2,2.2-4,2.7c4.1,1,6.1,3.6,6.1,7.7c0,2.4-0.7,4.6-2.2,6.5c-1.4,1.9-4.5,2.9-9.2,2.9H238.4z M247.3,384.9h4.5
				c1.1,0,1.9-0.3,2.4-0.9c0.5-0.6,0.7-1.2,0.7-1.9c0-1.8-1.1-2.7-3.2-2.7h-4.3V384.9z M247.3,397.9h4.7c1.2,0,2-0.3,2.6-0.9
				c0.5-0.6,0.8-1.3,0.8-2c0-0.8-0.3-1.4-0.8-2.1c-0.5-0.6-1.5-1-2.9-1h-4.4V397.9z"/>
			<path class="st6" d="M278.3,389v7.6h-11.7V389H278.3z"/>
			<path class="st6" d="M298.6,405.4c-1.1,0.2-2.1,0.3-3.2,0.3c-4.5,0-8.2-1.6-10.9-4.7c-2.8-3.1-4.1-7.2-4.1-12.2c0-5,1.3-9,4-12.2
				s6.4-4.8,11.1-4.8c4.4,0,8,1.5,10.7,4.5c2.8,3,4.1,7.1,4.1,12.1c0,6.1-1.9,10.8-5.7,14c0.3,0.9,1.3,1.4,2.9,1.4
				c0.7,0,1.6-0.1,2.6-0.3v7.4c-1.7,0.2-3,0.3-4,0.3c-1.7,0-3.3-0.4-4.6-1.1C300.2,409.4,299.2,407.8,298.6,405.4z M295.3,398.3
				c1.6,0,2.8-0.7,3.5-2.2c0.7-1.5,1.1-4.2,1.1-8.2c0-5.7-1.5-8.6-4.4-8.6c-3.2,0-4.8,3.3-4.8,9.8
				C290.7,395.2,292.2,398.3,295.3,398.3z"/>
			<path class="st6" d="M339.9,372.3v21.8c0,4.1-1.2,7.1-3.5,8.9c-2.3,1.8-5.4,2.7-9.2,2.7c-4,0-7.2-0.9-9.6-2.6
				c-2.4-1.7-3.6-4.6-3.6-8.5v-22.3h9.8v21.1c0,1.6,0.3,2.7,1,3.4c0.6,0.7,1.7,1.1,3,1.1c1.2,0,2.1-0.3,2.9-0.8
				c0.7-0.5,1.2-1.1,1.3-1.8c0.1-0.7,0.2-1.9,0.2-3.9v-19.2H339.9z"/>
			<path class="st6" d="M368.8,397.4v7.9h-23.7v-32.9h23.7v7.6h-14.2v4.8h11.5v7.3h-11.5v5.4H368.8z"/>
			<path class="st6" d="M411.2,372.3v32.9h-9.7v-12.8h-7.4v12.8h-9.7v-32.9h9.7v12.1h7.4v-12.1H411.2z"/>
			<path class="st6" d="M442.2,372.3v21.8c0,4.1-1.2,7.1-3.5,8.9c-2.3,1.8-5.4,2.7-9.2,2.7c-4,0-7.2-0.9-9.6-2.6
				c-2.4-1.7-3.6-4.6-3.6-8.5v-22.3h9.8v21.1c0,1.6,0.3,2.7,1,3.4c0.6,0.7,1.7,1.1,3,1.1c1.2,0,2.1-0.3,2.9-0.8
				c0.7-0.5,1.2-1.1,1.3-1.8c0.1-0.7,0.2-1.9,0.2-3.9v-19.2H442.2z"/>
			<path class="st6" d="M460.3,380.2v25h-9.2v-25h-6.5v-7.9h22.2v7.9H460.3z"/>
		</g>
		<line class="st8" x1="125" y1="357.5" x2="474" y2="357.5"/>
		<line class="st8" x1="125.2" y1="424" x2="241.1" y2="424"/>
		<line class="st8" x1="358.2" y1="424" x2="474.1" y2="424"/>
		<g class="st9">
			<path class="st10" d="M255.3,425v3.1h7.6c0.2,0,0.3,0,0.4-0.1c0.1-0.1,0.2-0.2,0.2-0.4h0.3v2.9h-0.3c-0.1-0.2-0.1-0.3-0.2-0.4
				c-0.1-0.1-0.2-0.1-0.4-0.1h-10.7v-0.3c0.2-0.1,0.4-0.1,0.4-0.2c0.1-0.1,0.1-0.2,0.1-0.4v-9.5c0-0.2,0-0.3-0.1-0.4
				c-0.1-0.1-0.2-0.2-0.4-0.2v-0.3h10.5c0.2,0,0.3,0,0.4-0.1c0.1-0.1,0.2-0.2,0.2-0.4h0.3v2.9h-0.3c-0.1-0.2-0.1-0.3-0.2-0.4
				c-0.1-0.1-0.2-0.1-0.4-0.1h-7.4v2.7h4.8c0.2,0,0.3,0,0.4-0.1c0.1-0.1,0.2-0.2,0.2-0.4h0.3v2.8h-0.3c-0.1-0.2-0.1-0.3-0.2-0.4
				c-0.1-0.1-0.2-0.1-0.4-0.1H255.3z"/>
			<path class="st10" d="M276.5,419.6l-1.4,2.6l-0.2-0.1c0-0.1,0-0.1,0-0.1c0-0.2-0.2-0.4-0.5-0.6c-1-0.7-2.2-1-3.6-1
				c-0.6,0-1.1,0.1-1.6,0.2c-0.3,0.1-0.6,0.3-0.8,0.5c-0.2,0.2-0.3,0.5-0.3,0.7c0,0.4,0.3,0.7,0.8,0.9c0.3,0.1,0.9,0.2,1.8,0.2
				l1.4,0.1c0.8,0.1,1.5,0.2,2,0.3c0.5,0.1,0.9,0.3,1.3,0.6c0.4,0.3,0.7,0.6,0.9,1.1c0.2,0.4,0.3,0.9,0.3,1.4c0,0.8-0.3,1.5-0.8,2.1
				c-0.5,0.6-1.2,1-2.3,1.2c-0.8,0.2-1.6,0.3-2.4,0.3c-1.6,0-3.1-0.4-4.6-1.1c-0.3-0.1-0.5-0.2-0.6-0.2c-0.1,0-0.2,0.1-0.4,0.2
				l-0.3-0.1l1.3-2.8l0.3,0.1c0,0,0,0.1,0,0.1c0,0.2,0.1,0.5,0.4,0.7c0.4,0.3,1,0.6,1.7,0.8s1.5,0.3,2.2,0.3c0.8,0,1.4-0.1,2-0.4
				c0.3-0.1,0.5-0.3,0.7-0.5c0.2-0.2,0.3-0.5,0.3-0.7c0-0.4-0.2-0.6-0.6-0.8c-0.3-0.1-0.9-0.2-1.8-0.3l-1.3-0.1
				c-0.9-0.1-1.5-0.2-1.9-0.3c-0.4-0.1-0.7-0.2-1.1-0.4c-0.5-0.2-0.9-0.6-1.2-1.1c-0.3-0.4-0.4-1-0.4-1.5c0-1,0.3-1.7,1-2.4
				c0.9-0.8,2.2-1.2,4-1.2c0.8,0,1.5,0.1,2.1,0.2c0.7,0.1,1.5,0.4,2.4,0.8c0.3,0.1,0.5,0.2,0.6,0.2c0.1,0,0.3-0.1,0.4-0.2
				L276.5,419.6z"/>
			<path class="st10" d="M284.8,420.5v8.5c0,0.2,0,0.3,0.1,0.4c0.1,0.1,0.2,0.2,0.4,0.2v0.3h-3.7v-0.3c0.2-0.1,0.4-0.1,0.4-0.2
				c0.1-0.1,0.1-0.2,0.1-0.4v-8.5h-3.7c-0.2,0-0.3,0-0.4,0.1c-0.1,0.1-0.2,0.2-0.2,0.4h-0.3v-2.9h0.3c0.1,0.2,0.1,0.3,0.2,0.4
				c0.1,0.1,0.2,0.1,0.4,0.1h9.9c0.2,0,0.3,0,0.4-0.1s0.2-0.2,0.2-0.4h0.3v2.9h-0.3c-0.1-0.2-0.1-0.3-0.2-0.4
				c-0.1-0.1-0.2-0.1-0.4-0.1H284.8z"/>
			<path class="st10" d="M290.8,427.4c0.4,0,0.7,0.1,1,0.4c0.3,0.3,0.4,0.6,0.4,1c0,0.4-0.1,0.7-0.4,0.9c-0.3,0.3-0.6,0.4-1,0.4
				c-0.4,0-0.7-0.1-1-0.4c-0.3-0.3-0.4-0.6-0.4-1c0-0.4,0.1-0.7,0.4-0.9C290,427.6,290.4,427.4,290.8,427.4z"/>
			<path class="st10" d="M301.7,422.7v-3h0.3c0.1,0.2,0.1,0.3,0.2,0.4c0.1,0.1,0.1,0.1,0.3,0.1c0.1,0,0.1,0,0.2,0l0.7-0.2v-0.5
				c0-0.2,0-0.3-0.1-0.4c-0.1-0.1-0.2-0.2-0.4-0.2v-0.3h3.6v0.3c-0.2,0.1-0.4,0.1-0.4,0.2c-0.1,0.1-0.1,0.2-0.1,0.4v9.5
				c0,0.2,0,0.3,0.1,0.4c0.1,0.1,0.2,0.2,0.4,0.2v0.3h-3.6v-0.3c0.2-0.1,0.4-0.1,0.4-0.2c0.1-0.1,0.1-0.2,0.1-0.4V422l-0.8,0.2
				c-0.2,0-0.3,0.1-0.4,0.2c-0.1,0.1-0.2,0.2-0.2,0.4H301.7z"/>
			<path class="st10" d="M309.8,429.3l1.5-2.7l0.2,0.1c0,0.1-0.1,0.2-0.1,0.3c0,0.2,0.2,0.4,0.6,0.7c0.3,0.2,0.7,0.3,1.2,0.4
				c0.5,0.1,0.9,0.2,1.4,0.2c1,0,1.8-0.2,2.5-0.7c0.4-0.3,0.8-0.7,1-1.1c0.2-0.4,0.4-1,0.4-1.7c-0.6,0.5-1.2,0.9-1.8,1.1
				c-0.6,0.2-1.3,0.3-2.1,0.3c-1.3,0-2.3-0.3-3.2-0.8c-0.5-0.3-0.9-0.7-1.2-1.3c-0.3-0.5-0.4-1-0.4-1.6c0-1.2,0.5-2.1,1.5-2.8
				c1-0.7,2.3-1,3.8-1c1.7,0,3,0.4,3.9,1.2c0.6,0.5,1.1,1.2,1.4,2c0.3,0.8,0.4,1.6,0.4,2.5c0,1.8-0.6,3.2-1.7,4.3
				c-1.2,1.1-2.7,1.7-4.6,1.7c-0.7,0-1.2-0.1-1.8-0.2c-0.5-0.1-1.1-0.3-1.8-0.6c-0.2-0.1-0.4-0.2-0.6-0.2c-0.1,0-0.2,0-0.3,0.1
				c-0.1,0.1-0.1,0.1-0.2,0.1L309.8,429.3z M315.1,420.3c-0.9,0-1.6,0.2-2.2,0.6c-0.5,0.3-0.7,0.8-0.7,1.3c0,0.5,0.2,1,0.7,1.3
				c0.5,0.4,1.3,0.6,2.2,0.6c0.9,0,1.6-0.2,2.2-0.6c0.5-0.3,0.7-0.8,0.7-1.3c0-0.6-0.2-1-0.7-1.4C316.8,420.6,316,420.3,315.1,420.3
				z"/>
			<path class="st10" d="M322.4,429.3l1.5-2.7l0.2,0.1c0,0.1-0.1,0.2-0.1,0.3c0,0.2,0.2,0.4,0.6,0.7c0.3,0.2,0.7,0.3,1.2,0.4
				c0.5,0.1,0.9,0.2,1.4,0.2c1,0,1.8-0.2,2.5-0.7c0.4-0.3,0.8-0.7,1-1.1c0.2-0.4,0.4-1,0.4-1.7c-0.6,0.5-1.2,0.9-1.8,1.1
				c-0.6,0.2-1.3,0.3-2.1,0.3c-1.3,0-2.3-0.3-3.2-0.8c-0.5-0.3-0.9-0.7-1.2-1.3c-0.3-0.5-0.4-1-0.4-1.6c0-1.2,0.5-2.1,1.5-2.8
				c1-0.7,2.3-1,3.8-1c1.7,0,3,0.4,3.9,1.2c0.6,0.5,1.1,1.2,1.4,2c0.3,0.8,0.4,1.6,0.4,2.5c0,1.8-0.6,3.2-1.7,4.3
				c-1.2,1.1-2.7,1.7-4.6,1.7c-0.7,0-1.2-0.1-1.8-0.2c-0.5-0.1-1.1-0.3-1.8-0.6c-0.2-0.1-0.4-0.2-0.6-0.2c-0.1,0-0.2,0-0.3,0.1
				c-0.1,0.1-0.1,0.1-0.2,0.1L322.4,429.3z M327.8,420.3c-0.9,0-1.6,0.2-2.2,0.6c-0.5,0.3-0.7,0.8-0.7,1.3c0,0.5,0.2,1,0.7,1.3
				c0.5,0.4,1.3,0.6,2.2,0.6c0.9,0,1.6-0.2,2.2-0.6c0.5-0.3,0.7-0.8,0.7-1.3c0-0.6-0.2-1-0.7-1.4
				C329.4,420.6,328.7,420.3,327.8,420.3z"/>
			<path class="st10" d="M343.1,420.5h-7.4c-0.2,0-0.3,0-0.4,0.1c-0.1,0.1-0.2,0.2-0.2,0.4h-0.3v-2.9h0.3c0.1,0.2,0.1,0.3,0.2,0.4
				s0.2,0.1,0.4,0.1h9.3c0.2,0,0.3,0,0.4-0.1s0.2-0.2,0.2-0.4h0.3v2.1l-5.3,8.3c-0.2,0.3-0.3,0.5-0.3,0.6c0,0.2,0.2,0.3,0.5,0.4v0.3
				h-4.2v-0.3c0.2-0.1,0.5-0.2,0.6-0.3c0.2-0.1,0.4-0.4,0.6-0.7L343.1,420.5z"/>
		</g>
	</g>
</g>
</svg>
