<?xml version="1.0" encoding="utf-8"?>
<!-- Generator: Adobe Illustrator 18.1.1, SVG Export Plug-In . SVG Version: 6.00 Build 0)  -->
<svg version="1.1" id="Layer_1" xmlns="http://www.w3.org/2000/svg" xmlns:xlink="http://www.w3.org/1999/xlink" x="0px" y="0px"
	 viewBox="0 0 600 600" style="enable-background:new 0 0 600 600;" xml:space="preserve">
<circle id="circle" style="opacity:0;fill:#FFFFFF;stroke:#B2B0A1;stroke-width:4;stroke-miterlimit:10;enable-background:new    ;" cx="300.3" cy="300.2" r="295"/>
<g id="tent" style="opacity:0;">
	<path style="fill:none;" d="M268.5-206.4c-1,1.5-2,3.2-3.2,4.7C266.5-203.2,267.5-204.9,268.5-206.4z"/>
	<path style="fill:none;" d="M273.4-213.8c-0.8,1.3-1.7,2.6-2.6,4C271.7-211.2,272.6-212.5,273.4-213.8z"/>
	<path style="fill:none;" d="M205.1-117.6c-15.7,20.4-31.3,39.7-46.8,57.9c-1.1,1.4-2.3,2.7-3.6,4.2c-2.3,2.7-4.8,5.5-7.1,8.2
		c-1,1.2-2.1,2.4-3.2,3.7C164.3-66.4,184.6-91,205.1-117.6c21.2-27.5,40.9-55,58.8-81.7c-1.2,1.8-2.5,3.8-3.8,5.6
		C243.1-168.8,224.7-143.2,205.1-117.6z"/>
	<path style="fill:none;" d="M128.1-25.3c-6.5,7.1-12.9,14.1-19.2,20.9C115.1-11.2,121.6-18.1,128.1-25.3z"/>
	<path style="fill:none;" d="M279.5-223.1c-0.9,1.4-1.7,2.7-2.6,4.2C277.7-220.3,278.6-221.8,279.5-223.1z"/>
	<path style="fill:none;" d="M136.7-35c-0.9,1-1.8,2-2.7,3.1c-1.3,1.4-2.6,2.9-3.9,4.4c4.3-4.7,8.5-9.6,12.8-14.4
		c-1.1,1.3-2.3,2.6-3.5,4C138.5-37,137.6-36,136.7-35z"/>
	<path style="fill:none;" d="M285.2-232c-0.7,1.2-1.5,2.3-2.2,3.6C283.7-229.7,284.4-230.9,285.2-232z"/>
	<path style="fill:none;" d="M294.9-247.7c-1,1.6-1.9,3.2-2.9,4.8C293-244.5,293.9-246.1,294.9-247.7z"/>
	<path style="fill:none;" d="M290.1-240c-0.8,1.3-1.7,2.7-2.5,4.1C288.5-237.2,289.3-238.6,290.1-240z"/>
	<path style="fill:none;" d="M455-41.4c12.8,14.5,25.4,28.4,37.6,41.3l0,0C480.4-13.1,467.8-26.9,455-41.4z"/>
	<path style="fill:#21421D;" d="M104.9-0.2c1.3-1.4,2.7-2.8,4.1-4.3c6.3-6.7,12.7-13.6,19.2-20.9c0.7-0.7,1.3-1.5,2-2.2
		c1.3-1.4,2.6-2.9,3.9-4.4c0.9-1,1.8-2,2.7-3.1c0.9-1,1.8-2,2.7-3.1c1.1-1.3,2.3-2.6,3.5-4c0.5-0.6,1-1.1,1.5-1.7
		c1-1.2,2.1-2.4,3.2-3.7c2.3-2.7,4.7-5.5,7.1-8.2c1.2-1.4,2.3-2.7,3.6-4.2c15.5-18.1,31.1-37.4,46.8-57.9
		c19.7-25.6,38.1-51.2,55-76.1c1.3-1.9,2.5-3.8,3.8-5.6c0.5-0.8,1.1-1.6,1.6-2.4c1-1.5,2-3.2,3.2-4.7c0.8-1.1,1.5-2.3,2.3-3.5
		c0.9-1.3,1.7-2.6,2.6-4c1.1-1.7,2.2-3.5,3.4-5.2c0.9-1.4,1.8-2.7,2.6-4.2c1.1-1.8,2.3-3.6,3.5-5.4c0.7-1.2,1.5-2.3,2.2-3.6
		c0.8-1.3,1.6-2.5,2.4-3.9c0.8-1.3,1.7-2.7,2.5-4.1c0.6-1,1.2-1.9,1.8-3c1-1.6,1.9-3.2,3-4.8c0.5-0.8,1-1.6,1.4-2.4
		c0.8-1.3,1.6-2.6,2.3-3.9c-25.8,33.4-57.7,69.9-93.7,106.4C146.4-88.2,88.1-39.5,41.9-10.2c-1.5,0.9-3,1.8-4.4,2.7
		c-0.4,0.6-0.6,1.3-0.6,2.1c0,2.8,3.2,5.1,7,5.1L104.9-0.2L104.9-0.2L104.9-0.2z"/>
	<path style="fill:#21421D;" d="M104.8-0.1C104.8-0.1,104.8-0.2,104.8-0.1L104.8-0.1C104.8-0.2,104.8-0.1,104.8-0.1z"/>
	<path style="fill:#21421D;" d="M560.8-5.2c0,2.5-2.5,4.6-5.9,5h-62.4l0,0c-4.8-5.1-9.6-10.2-14.4-15.5c-1-1-1.9-2.1-2.9-3.2
		c-0.4-0.4-0.8-0.8-1.1-1.3c-0.6-0.6-1.2-1.3-1.7-1.9c-1-1.1-1.9-2.1-3-3.3l0,0c-3.2-3.5-6.3-7-9.6-10.6c-1.6-1.8-3.2-3.6-4.8-5.4
		c-20.4-23.3-41.5-48.7-62.6-76.1c-13.9-18.1-27.3-36.2-39.8-54.1c-4.7-6.6-9.3-13.2-13.7-19.8c-1.5-2.2-2.9-4.4-4.5-6.5
		c-2.3-3.5-4.7-6.9-6.9-10.4c-2.5-3.9-5.1-7.7-7.6-11.6c-2.4-3.9-4.9-7.6-7.3-11.5c-4.8-7.6-9.5-15.2-13.9-22.5
		c25.8,33.4,57.7,69.8,93.7,106.3C450.9-88.1,509.3-39.4,555.5-10c1.6,1,3.2,2,4.8,2.9C560.6-6.5,560.8-5.9,560.8-5.2z"/>
	<path style="fill:#FFFFFF;" d="M298.8-254c-0.8,1.3-1.6,2.6-2.3,3.9c-0.5,0.8-1,1.6-1.4,2.4c-1,1.6-1.9,3.2-3,4.8
		c-0.6,1-1.2,1.9-1.8,3c-0.8,1.3-1.7,2.7-2.5,4.1c-0.8,1.2-1.6,2.5-2.4,3.9c-0.7,1.2-1.5,2.3-2.2,3.6c-1.1,1.8-2.3,3.6-3.5,5.4
		c-0.9,1.4-1.7,2.7-2.6,4.2c-1.1,1.7-2.2,3.5-3.4,5.2c-0.8,1.3-1.7,2.6-2.6,4c-0.7,1.1-1.5,2.3-2.3,3.5c-1,1.5-2,3.2-3.2,4.7
		c-0.5,0.8-1,1.6-1.6,2.4c-17.9,26.8-37.6,54.2-58.8,81.8c-20.4,26.6-40.8,51.2-60.6,73.9c-0.5,0.6-1,1.1-1.5,1.7
		c-4.3,4.9-8.5,9.8-12.8,14.4c-0.7,0.7-1.3,1.5-2,2.2C121.4-18,115-11,108.7-4.3c-1.3,1.4-2.7,2.8-4.1,4.3l0,0h63.8
		c12-21.4,24.2-41.7,36.4-63.8C241.1-129.3,272.8-194.3,298.8-254z"/>
	<path style="fill:#FFFFFF;" d="M104.8-0.2L104.8-0.2C104.8-0.2,104.8-0.1,104.8-0.2C104.8-0.1,104.8-0.1,104.8-0.2
		C104.8-0.1,104.8-0.2,104.8-0.2L104.8-0.2z"/>
	<path style="fill:#FFFFFF;" d="M492.6-0.2L492.6-0.2C492.6-0.1,492.6-0.1,492.6-0.2C492.6-0.1,492.6-0.1,492.6-0.2
		C492.6-0.1,492.6-0.2,492.6-0.2L492.6-0.2z"/>
	<path style="fill:#FFFFFF;" d="M392.3-117.5c-13.9-18.1-27.3-36.2-39.8-54.1c-19.9-28.3-38-56.1-53.9-82.3
		c25.8,59.7,57.7,124.8,93.7,190c12.2,22.1,24.4,42.4,36.4,63.8h63.8c-12.2-12.9-24.8-26.7-37.6-41.3
		C434.6-64.7,413.5-90.1,392.3-117.5z"/>
	<path style="fill:#21421D;" d="M298.8-254c-25.9,59.7-57.7,124.7-93.7,190c-12.2,22.1-24.4,42.4-36.4,63.8h56
		c28-88.5,53-173.2,74.1-253.5c21.1,80.3,46.1,165,74.1,253.5h56.1c-12-21.4-24.2-41.6-36.4-63.8C356.3-129.2,324.6-194.3,298.8-254
		z"/>
	<path style="fill:#FFFFFF;" d="M224.6-0.2h49.8c8.5-87.5,16.7-171,24.3-253.5C277.6-173.4,252.6-88.7,224.6-0.2z"/>
	<path style="fill:#FFFFFF;" d="M323-0.2h49.8c-28-88.5-53-173.2-74.1-253.5C306.3-171.1,314.4-87.7,323-0.2z"/>
	<path style="fill:#21421D;" d="M274.4-0.2h48.6c-8.5-87.5-16.7-171-24.3-253.5C291.1-171.1,283-87.7,274.4-0.2z"/>
</g>
<g id="original" style="opacity:0;">
	
		<radialGradient id="SVGID_1_" cx="-360.1629" cy="319.6393" r="93.3043" gradientTransform="matrix(1.8 0 0 1.6506 947.2 -586.2914)" gradientUnits="userSpaceOnUse">
		<stop  offset="0" style="stop-color:#753128"/>
		<stop  offset="1" style="stop-color:#421C17"/>
	</radialGradient>
	<path style="fill:url(#SVGID_1_);stroke:#FFFFFF;stroke-width:3;stroke-miterlimit:10;" d="M526.9-78.1
		c-41.4-23.3-127.8-39.3-226.9-39.3c-0.3,0-0.7,0-1,0c-0.3,0-0.7,0-1,0c-99.2,0-185.4,16-226.9,39.4c-0.2,0.1-0.6,0.3-0.8,0.4
		L109.6,0c46.5-14.3,113.8-23.5,188.3-23.5c0.3,0,0.7,0,1,0c0.3,0,0.7,0,1,0c74.6,0,142,9.1,188.3,23.5l39.4-77.6
		C527.4-77.8,527.2-77.9,526.9-78.1z"/>
	<g>
		<path style="fill:#FFFFFF;" d="M108.6-45.3c-2.1-6.6-2.1-11.9,0-15.9c2.1-3.9,6.9-6.9,13.9-9.1c7.1-2.1,12.7-2.2,16.8-0.1
			c4.2,2,7.3,6.3,9.5,13c2.1,6.6,2.1,11.9,0,15.8s-6.9,6.9-13.9,9.1c-7.1,2.1-12.7,2.2-16.8,0.2C113.9-34.3,110.8-38.7,108.6-45.3z
			 M119.3-48.4c1.6,4.7,3.5,7.9,5.6,9.6c2.1,1.7,4.9,2,8.2,1c3.4-0.9,5.4-2.7,6.2-5.4c0.8-2.5,0.5-6.2-1.1-10.9s-3.5-7.9-5.6-9.7
			c-2.1-1.7-4.9-2-8.2-1c-3.4,0.9-5.4,2.7-6.2,5.4C117.4-56.8,117.8-53.1,119.3-48.4z M130.3-39.1c-2,0.1-3.9-0.6-5.4-2.2
			c-1.5-1.5-2.8-4.1-4-7.6c-1.4-4.1-1.7-7.2-1-9.5c0.7-2.2,2.3-3.8,5.1-4.6c2-0.6,3.7-0.6,5.2,0c1.4,0.6,2.7,1.8,4,3.8
			c-1.4-0.2-2.6-0.3-3.8-0.3c-1.1,0-2,0.1-2.8,0.3c-1.9,0.6-3.1,1.5-3.6,3.1c-0.5,1.4-0.1,3.7,0.9,6.7c0.7,2.1,1.5,4,2.4,5.7
			C128.1-42.1,129.1-40.5,130.3-39.1z M139.3-72.2c4.5,1.8,7.9,3.8,10.2,6.1c2.3,2.3,4.3,5.6,5.5,9.7c1.1,3.4,1.6,6.5,1.5,9.5
			c-0.1,3.1-0.7,5.8-1.9,8.3c-1.1,2.4-2.9,4.6-5.6,6.6c-2.5,2-5.4,3.5-8.5,4.4c-2.9,0.8-6,1.1-9.1,0.9c-3.1-0.3-6.4-1.1-9.9-2.5
			c2.3,0.3,4.6,0.3,6.7,0.1c2.3-0.2,4.8-0.7,7.4-1.5c7.4-2.2,12.4-5.6,14.8-9.9c2.4-4.4,2.4-10.2,0.1-17.2c-1.2-3.8-2.7-6.7-4.5-9
			C144.3-69,142-70.8,139.3-72.2z"/>
		<path style="fill:#FFFFFF;" d="M161.1-41.5l-1.2-6l6.5-1.1l-4.9-24.3l-6.5,1.1l-1.2-6l28.1-5.2c4-0.7,6.9-1.1,8.4-1.1
			s2.9,0.1,4,0.5c1.6,0.6,2.8,1.5,4,2.9c1,1.3,1.7,2.9,2.1,5c0.6,2.9,0.2,5.4-1.1,7.4c-1.4,2.1-3.6,3.4-6.5,4l0.2,1.4l1.4-0.2
			c0.5-0.1,0.9,0,1.4,0.2s0.8,0.5,1,1l2.9,5.3c0.3,0.6,0.8,1,1.2,1.2s1,0.3,1.7,0.2l4-0.7l1.2,6l-10.3,1.9c-1.1,0.2-2.1,0.1-3.1-0.2
			c-0.9-0.4-1.6-1-2.3-2.1l-5.1-7.8c-0.8-1.3-1.7-2.2-2.6-2.7s-1.8-0.7-2.9-0.5l-7.9,1.4l1.9,9.9l6.5-1.1l1.2,6L161.1-41.5z
			 M155.5-69.9l4.9-0.9l0.9,4.3L155.5-69.9z M161.6-39.6l24-4.4l-1.6-7.8l4.3,2.2l1.8,9.2l-22.8,4.1L161.6-39.6z M172.9-64.9
			l11.6-2.1c2.4-0.4,4-1.1,4.7-2c0.8-0.9,0.9-2.3,0.6-4.1c-0.3-1.7-1.1-2.8-2.3-3.5c-1.1-0.6-2.8-0.7-5.1-0.3l-11.6,2.1L172.9-64.9z
			 M174.1-67l-1.2-6l10.1-1.8c1.4-0.2,2.5-0.2,3.5,0.2c0.8,0.4,1.4,1,1.6,2c0,0.2,0.1,0.4,0.1,0.6s0,0.3-0.1,0.5l-10.6,1.9l0.3,1.9
			L174.1-67z M179.4-54.8l0.3,1.8l-2.6,0.5l-1.2-6l6-1c0.7-0.1,1.4-0.1,1.8,0.2c0.5,0.2,1,0.7,1.5,1.4l1.2,1.9L179.4-54.8z
			 M210.1-48.4l-1.6-7.8l4.4,2.7l1.7,8.6l-9.8,1.8c-1.2,0.2-2.4,0.2-3.5,0.1c-1-0.2-2-0.5-2.8-1l-3.8-2.4c0.6,0.2,1,0.4,1.6,0.4
			c0.5,0.1,1,0,1.6-0.1l0.7-0.1L210.1-48.4z M198.8-62.5c-0.1-0.3-0.3-0.6-0.7-0.8c-0.3-0.3-0.7-0.5-1.1-0.7c2.1-1,3.8-2.6,4.7-4.7
			c0.9-2.1,1.1-4.5,0.6-7.1c-0.3-1.9-1-3.5-1.9-4.7c-0.9-1.2-2-2.4-3.7-3.4l5.4,3.7c1,0.7,1.8,1.5,2.5,2.7c0.7,1,1.1,2.3,1.5,3.8
			c0.5,2.4,0.2,4.6-0.6,6.6c-0.9,2-2.4,4-4.7,5.8l2.3,1.5l0.1,0.1c1,0.7,1.8,1.4,2.3,2.3l-2.7,0.5c-0.3,0.1-0.6,0-0.8-0.1
			s-0.5-0.4-0.6-0.7L198.8-62.5z"/>
		<path style="fill:#FFFFFF;" d="M229.8-58.5l6.6-0.7l0.7,6.1l-23,2.5l-0.7-6.1l6.6-0.7l-2.9-24.7l-6.6,0.7l-0.7-6.1l23-2.5l0.7,6.1
			l-6.6,0.7L229.8-58.5z M216.4-75.8l-5.5-3.6l5.1-0.5L216.4-75.8z M220.2-45.2l-5.7-3.6l24.6-2.6l-0.9-7.9l4,2.5l1.1,9.3
			L220.2-45.2z M231.3-60.5l-2.5-20.8l6.6-0.7l-0.9-7.9l4.2,3.5l1,8.3l-6.6,0.7l2,16.6L231.3-60.5z"/>
		<path style="fill:#FFFFFF;" d="M276.9-71.7l-5.6,0.2l-0.2-4.8l21.1-0.8l0.2,4.8l-5.8,0.2l0.8,16.2l-9.8,0.4l-0.2-4.8
			c-1.6,2.1-3.6,3.7-6,4.8c-2.4,1.1-5.2,1.8-8.3,1.9c-6.1,0.2-10.9-1.2-14.3-4.6c-3.5-3.3-5.4-8.1-5.6-14.4
			c-0.3-6.5,1.1-11.6,4.3-15c3.1-3.4,8-5.3,14.5-5.6c2.7-0.1,5.3,0.2,7.4,0.8c2.1,0.6,4.4,1.8,6.5,3.5l-0.2-3.7l9.3-0.4l0.5,9.5
			l-9.3,0.4c-1.8-1.5-3.7-2.6-5.6-3.4c-1.9-0.7-4-1-6.2-0.9c-3.6,0.1-6.1,1.3-7.6,3.7c-1.6,2.3-2.3,5.8-2,10.3
			c0.2,5.1,1.4,8.6,3.3,10.8c1.9,2.2,4.8,3.3,8.7,3.1c3.1-0.1,5.6-1.3,7.5-3.6C276-65.4,276.9-68.3,276.9-71.7z M251.7-53.8
			c1.9,0.8,4,1.3,6,1.7c1.9,0.3,4,0.4,6.1,0.4c2.1-0.1,4.3-0.5,6.2-1.1c1.9-0.7,4-1.8,6.1-3.2l0.2,3.7l0.8,0.6
			c-1.7,1.1-3.6,2.1-5.5,2.7c-1.9,0.6-3.9,1-6,1c-1.4,0.1-2.7-0.1-4.3-0.5c-1.5-0.4-2.7-0.9-4-1.8L251.7-53.8z M262.9-61.7
			c-2-0.3-3.7-1.3-4.7-3.3c-1-1.9-1.7-4.6-1.8-8.4c-0.2-4.1,0.3-7.1,1.6-9.2c1.2-1.9,3.4-2.9,6.2-3.1c2.3-0.1,4.4,0.2,6.3,0.9
			c1.9,0.7,3.7,1.9,5.3,3.4l11.5-0.5l-0.6-11.3l3.8,3.7l0.5,10.2l-12.7,0.5c-1.9-1.1-3.9-2-5.8-2.5c-1.9-0.5-3.9-0.7-6-0.6
			c-2.5,0.1-4.2,0.8-5.1,2.1c-0.9,1.3-1.2,3.7-1.1,6.9c0.1,2,0.3,3.9,0.8,5.6C261.4-65.2,262-63.4,262.9-61.7z M271.4-69.5l3.7-0.1
			c0,0.5-0.1,0.9-0.2,1.3c-0.1,0.4-0.3,0.8-0.5,1.3L271.4-69.5z M277.8-53.6l11.3-0.4l-0.8-16.2l5.8-0.2l-0.3-6.8l3.9,3.7l0.3,7.1
			l-5.8,0.2L293-50l-10.3,0.4L277.8-53.6z"/>
		<path style="fill:#FFFFFF;" d="M304.9-49.7l-5.3-4.3l24.7,0.5l0.1-8l3.7,2.9l-0.2,9.4L304.9-49.7z M316.1-61.8l6.7,0.1l-0.1,6.1
			l-23.1-0.4l0.1-6.1l6.6,0.1l0.5-24.8l-6.6-0.1l0.1-6.1l23.1,0.4l-0.1,6.1l-6.7-0.1L316.1-61.8z M305.1-80.8L300-85l5.1,0.1V-80.8z
			 M317.8-63.7l0.3-20.9l6.6,0.1l0.1-8l3.7,3.9l-0.1,8.4l-6.6-0.1l-0.3,16.7h-3.7V-63.7z"/>
		<path style="fill:#FFFFFF;" d="M328.9-53.9l23.1,2l0.7-7.9L356-56l-0.8,8.7l-21.4-1.9L328.9-53.9z M329.1-55.8l0.6-6.1l6.6,0.5
			l2.3-24.7l-6.6-0.5l0.6-6.1l21,1.8l12.7,28.8l1.9-21.5l-6.6-0.5l0.6-6.1l20.6,1.8l-0.6,6.1l-5.8-0.5l-2.7,30.7l-13.6-1.1l-13.3-29
			l-1.9,21.6l6.6,0.5l-0.6,6.1L329.1-55.8z M331.7-84.7l5.1,0.4l-0.3,4.3L331.7-84.7z M346.3-62.5l1.1-12.9l3.1,6.7l-0.6,6.6
			L346.3-62.5z M355.2-90.8l4.6,5.3l-0.3,3.3l6.6,0.5L365-69.1L355.2-90.8z M360.7-51.3l14,1.2l2.7-30.7l6,0.5l0.7-7.9l3.3,4.5
			l-0.8,8.4l-5.8-0.5l-2.7,30.3l-12.7-1L360.7-51.3z"/>
		<path style="fill:#FFFFFF;" d="M384.7-49.2l21.7,4.1L408-53l2.9,3.8l-1.8,9l-19.3-3.7L384.7-49.2z M385.2-51.2l1.2-6l5.6,1
			l17.7-28.2l15.4,2.8l5.7,32.6l5.6,1l-1.2,6L413.5-46l1.2-6l5.5,1l-1.4-7.3L404.4-61l-4,6.4l5.6,1l-1.2,6L385.2-51.2z M403.5-55.8
			l1.8-2.9l12.1,2.3l0.5,3.4L403.5-55.8z M407.4-65.2l10.7,2l-2.6-15.2L407.4-65.2z M410.3-66.5l4.3-7l1,6l-1.1,1.8L410.3-66.5z
			 M413.2-43.8l23.2,4.4l1.6-7.8l2.8,4.1l-1.7,8.6l-22-4.1L413.2-43.8z M432.2-50.5L426.7-81l5.6,9.5l3.7,21.9L432.2-50.5z"/>
		<path style="fill:#FFFFFF;" d="M440.4-38.7l38,11.9l7.1-21.1l2.3,4.6l-7.2,21.5l-36.4-11.1L440.4-38.7z M441-40.4l1.9-5.8l6.4,2
			l8-23.5l-6.4-2l1.9-5.8l22,6.8l-1.9,5.8l-6.3-2l-8,23.5l12,3.8l4.6-13.4l8.9,2.7l-6.5,19.2L441-40.4z M453.8-62.5l-3.5-5.5
			l4.8,1.4L453.8-62.5z M460.7-42.7l6.7-19.8l6.4,2l2.6-7.6l2.3,4.8l-2.6,7.8l-6.3-2l-5.4,15.9L460.7-42.7z"/>
	</g>
</g>
<g id="bbqh" style="opacity:0;">
	<path style="fill:#588C38;stroke:#FFFFFF;stroke-width:4;stroke-miterlimit:10;" d="M484.9,619.5C444.1,607.6,378.6,600,303.6,600
		s-142.9,7.6-183.6,19.5c-2.5,1-4.9,1.9-9,2.6v108.9h378.4V621.9C488.5,621.2,487,620.5,484.9,619.5z"/>
	<g>
		<path style="fill:#FFFFFF;" d="M134.2,683.7v-33.5h16.3c3.4,0,5.8,0.9,7.4,2.6c1.5,1.8,2.3,3.9,2.3,6.1c0,1.6-0.4,3.2-1.3,4.5
			c-0.9,1.3-2.2,2.2-4.1,2.7c4.2,1,6.2,3.7,6.2,7.8c0,2.4-0.7,4.7-2.2,6.6c-1.4,1.9-4.6,3-9.4,3L134.2,683.7L134.2,683.7z
			 M143.2,663.1h4.6c1.1,0,1.9-0.3,2.4-0.9s0.7-1.2,0.7-1.9c0-1.8-1.1-2.7-3.3-2.7h-4.4L143.2,663.1L143.2,663.1z M143.2,676.3h4.8
			c1.2,0,2-0.3,2.6-0.9c0.5-0.6,0.8-1.3,0.8-2c0-0.8-0.3-1.4-0.8-2.1c-0.5-0.6-1.5-1-2.9-1h-4.5L143.2,676.3L143.2,676.3z"/>
		<path style="fill:#FFFFFF;" d="M182.8,683.7l-1.8-6.6h-8.5l-1.9,6.6h-8l9.9-33.5h10.5l10.1,33.5H182.8z M174,669.9h5.2l-2.5-9.7
			L174,669.9z"/>
		<path style="fill:#FFFFFF;" d="M224.3,683.7h-10.9l-4.7-12.8h-3.1v12.8h-9.9v-33.5h16.8c3.7,0,6.6,0.9,8.6,2.7s3.1,4.2,3.1,7.1
			c0,1.9-0.4,3.7-1.1,5.1s-2.2,2.7-4.6,3.9L224.3,683.7z M205.6,663.8h4.2c1.2,0,2.2-0.3,2.9-0.8c0.7-0.5,1.1-1.3,1.1-2.3
			c0-2.1-1.2-3.3-3.8-3.3h-4.6L205.6,663.8L205.6,663.8z"/>
		<path style="fill:#FFFFFF;" d="M238.7,667.2v7.7h-11.9v-7.7H238.7z"/>
		<path style="fill:#FFFFFF;" d="M242.2,683.7v-33.5h16.3c3.4,0,5.8,0.9,7.4,2.6c1.5,1.8,2.3,3.9,2.3,6.1c0,1.6-0.4,3.2-1.3,4.5
			c-0.9,1.3-2.2,2.2-4.1,2.7c4.2,1,6.2,3.7,6.2,7.8c0,2.4-0.7,4.7-2.2,6.6c-1.4,1.9-4.6,3-9.4,3L242.2,683.7L242.2,683.7z
			 M251.2,663.1h4.6c1.1,0,1.9-0.3,2.4-0.9c0.5-0.6,0.7-1.2,0.7-1.9c0-1.8-1.1-2.7-3.3-2.7h-4.4L251.2,663.1L251.2,663.1z
			 M251.2,676.3h4.8c1.2,0,2-0.3,2.6-0.9c0.5-0.6,0.8-1.3,0.8-2c0-0.8-0.3-1.4-0.8-2.1c-0.5-0.6-1.5-1-3-1h-4.5L251.2,676.3
			L251.2,676.3z"/>
		<path style="fill:#FFFFFF;" d="M282.8,667.2v7.7h-11.9v-7.7H282.8z"/>
		<path style="fill:#FFFFFF;" d="M303.4,683.9c-1.1,0.2-2.1,0.3-3.3,0.3c-4.6,0-8.3-1.6-11.1-4.8c-2.8-3.2-4.2-7.3-4.2-12.4
			c0-5.1,1.3-9.2,4.1-12.4c2.7-3.3,6.5-4.9,11.3-4.9c4.5,0,8.1,1.5,10.9,4.6c2.8,3.1,4.2,7.2,4.2,12.3c0,6.2-1.9,11-5.8,14.2
			c0.3,0.9,1.3,1.4,2.9,1.4c0.7,0,1.6-0.1,2.6-0.3v7.5c-1.7,0.2-3.1,0.3-4.1,0.3c-1.7,0-3.4-0.4-4.7-1.1
			C305.1,688,304,686.4,303.4,683.9z M300.1,676.7c1.6,0,2.8-0.7,3.6-2.2c0.7-1.5,1.1-4.3,1.1-8.3c0-5.8-1.5-8.7-4.5-8.7
			c-3.3,0-4.9,3.4-4.9,10C295.4,673.5,296.9,676.7,300.1,676.7z"/>
		<path style="fill:#FFFFFF;" d="M345.4,650.3v22.2c0,4.2-1.2,7.2-3.6,9.1c-2.3,1.8-5.5,2.7-9.4,2.7c-4.1,0-7.3-0.9-9.8-2.6
			c-2.4-1.7-3.7-4.7-3.7-8.6v-22.7h10v21.5c0,1.6,0.3,2.7,1,3.5c0.6,0.7,1.7,1.1,3.1,1.1c1.2,0,2.1-0.3,2.9-0.8
			c0.7-0.5,1.2-1.1,1.3-1.8c0.1-0.7,0.2-1.9,0.2-4v-19.5L345.4,650.3L345.4,650.3z"/>
		<path style="fill:#FFFFFF;" d="M374.8,675.8v8h-24.1v-33.5h24.1v7.7h-14.4v4.9h11.7v7.4h-11.7v5.5L374.8,675.8L374.8,675.8z"/>
		<path style="fill:#FFFFFF;" d="M418,650.3v33.5h-9.9v-13h-7.5v13h-9.9v-33.5h9.9v12.3h7.5v-12.3H418z"/>
		<path style="fill:#FFFFFF;" d="M449.5,650.3v22.2c0,4.2-1.2,7.2-3.6,9.1c-2.3,1.8-5.5,2.7-9.4,2.7c-4.1,0-7.3-0.9-9.8-2.6
			c-2.4-1.7-3.7-4.7-3.7-8.6v-22.7h10v21.5c0,1.6,0.3,2.7,1,3.5c0.6,0.7,1.7,1.1,3.1,1.1c1.2,0,2.1-0.3,3-0.8
			c0.7-0.5,1.2-1.1,1.3-1.8c0.1-0.7,0.2-1.9,0.2-4v-19.5L449.5,650.3L449.5,650.3z"/>
		<path style="fill:#FFFFFF;" d="M467.9,658.3v25.4h-9.4v-25.4H452v-8h22.6v8H467.9z"/>
	</g>
	<line style="fill:none;stroke:#FFFFFF;stroke-width:3;stroke-miterlimit:10;" x1="126.8" y1="635.2" x2="481.9" y2="635.2"/>
	<line style="fill:none;stroke:#FFFFFF;stroke-width:3;stroke-miterlimit:10;" x1="127" y1="702.8" x2="244.9" y2="702.8"/>
	<line style="fill:none;stroke:#FFFFFF;stroke-width:3;stroke-miterlimit:10;" x1="364.1" y1="702.8" x2="482" y2="702.8"/>
	<g style="enable-background:new    ;">
		<path style="fill:#FFFFCC;" d="M259.4,703.9v3.2h7.7c0.2,0,0.3,0,0.4-0.1c0.1-0.1,0.2-0.2,0.2-0.4h0.3v2.9h-0.3
			c-0.1-0.2-0.1-0.3-0.2-0.4c-0.1-0.1-0.2-0.1-0.4-0.1h-10.9v-0.3c0.2-0.1,0.4-0.1,0.4-0.2c0.1-0.1,0.1-0.2,0.1-0.4v-9.7
			c0-0.2,0-0.3-0.1-0.4c-0.1-0.1-0.2-0.2-0.4-0.2v-0.3h10.7c0.2,0,0.3,0,0.4-0.1c0.1-0.1,0.2-0.2,0.2-0.4h0.3v3h-0.3
			c-0.1-0.2-0.1-0.3-0.2-0.4c-0.1-0.1-0.2-0.1-0.4-0.1h-7.5v2.7h4.9c0.2,0,0.3,0,0.4-0.1c0.1-0.1,0.2-0.2,0.2-0.4h0.3v2.8h-0.3
			c-0.1-0.2-0.1-0.3-0.2-0.4c-0.1-0.1-0.2-0.1-0.4-0.1h-4.9V703.9z"/>
		<path style="fill:#FFFFCC;" d="M281,698.4l-1.4,2.6l-0.2-0.1c0-0.1,0-0.1,0-0.1c0-0.2-0.2-0.4-0.5-0.6c-1-0.7-2.2-1-3.7-1
			c-0.6,0-1.1,0.1-1.6,0.2c-0.3,0.1-0.6,0.3-0.8,0.5c-0.2,0.2-0.3,0.5-0.3,0.7c0,0.4,0.3,0.7,0.8,0.9c0.3,0.1,0.9,0.2,1.8,0.2
			l1.4,0.1c0.8,0.1,1.5,0.2,2,0.3c0.5,0.1,0.9,0.3,1.3,0.6s0.7,0.6,0.9,1.1c0.2,0.4,0.3,0.9,0.3,1.4c0,0.8-0.3,1.5-0.8,2.1
			c-0.5,0.6-1.2,1-2.3,1.2c-0.8,0.2-1.6,0.3-2.4,0.3c-1.6,0-3.2-0.4-4.7-1.1c-0.3-0.1-0.5-0.2-0.6-0.2c-0.1,0-0.2,0.1-0.4,0.2
			l-0.3-0.1l1.3-2.8l0.3,0.1v0.1c0,0.2,0.1,0.5,0.4,0.7c0.4,0.3,1,0.6,1.7,0.8c0.7,0.2,1.5,0.3,2.2,0.3c0.8,0,1.4-0.1,2-0.4
			c0.3-0.1,0.5-0.3,0.7-0.5c0.2-0.2,0.3-0.5,0.3-0.7c0-0.4-0.2-0.6-0.6-0.8c-0.3-0.1-0.9-0.2-1.8-0.3l-1.3-0.1
			c-0.9-0.1-1.5-0.2-1.9-0.3c-0.4-0.1-0.7-0.2-1.1-0.4c-0.5-0.2-0.9-0.6-1.2-1.1c-0.3-0.4-0.4-1-0.4-1.5c0-1,0.3-1.7,1-2.4
			c0.9-0.8,2.2-1.2,4.1-1.2c0.8,0,1.5,0.1,2.1,0.2c0.7,0.1,1.5,0.4,2.4,0.8c0.3,0.1,0.5,0.2,0.6,0.2c0.1,0,0.3-0.1,0.4-0.2
			L281,698.4z"/>
		<path style="fill:#FFFFCC;" d="M289.4,699.3v8.6c0,0.2,0,0.3,0.1,0.4c0.1,0.1,0.2,0.2,0.4,0.2v0.3h-3.8v-0.3
			c0.2-0.1,0.4-0.1,0.4-0.2c0.1-0.1,0.1-0.2,0.1-0.4v-8.6h-3.8c-0.2,0-0.3,0-0.4,0.1c-0.1,0.1-0.2,0.2-0.2,0.4H282v-3h0.3
			c0.1,0.2,0.1,0.3,0.2,0.4c0.1,0.1,0.2,0.1,0.4,0.1H293c0.2,0,0.3,0,0.4-0.1c0.1-0.1,0.2-0.2,0.2-0.4h0.3v3h-0.3
			c-0.1-0.2-0.1-0.3-0.2-0.4c-0.1-0.1-0.2-0.1-0.4-0.1H289.4z"/>
		<path style="fill:#FFFFCC;" d="M295.5,706.3c0.4,0,0.7,0.1,1,0.4c0.3,0.3,0.4,0.6,0.4,1c0,0.4-0.1,0.7-0.4,0.9
			c-0.3,0.3-0.6,0.4-1,0.4s-0.7-0.1-1-0.4c-0.3-0.3-0.4-0.6-0.4-1c0-0.4,0.1-0.7,0.4-0.9C294.7,706.5,295.1,706.3,295.5,706.3z"/>
		<path style="fill:#FFFFCC;" d="M306.6,701.5v-3.1h0.3c0.1,0.2,0.1,0.3,0.2,0.4c0.1,0.1,0.1,0.1,0.3,0.1c0.1,0,0.1,0,0.2,0l0.7-0.2
			v-0.5c0-0.2,0-0.3-0.1-0.4c-0.1-0.1-0.2-0.2-0.4-0.2v-0.3h3.7v0.3c-0.2,0.1-0.4,0.1-0.4,0.2c-0.1,0.1-0.1,0.2-0.1,0.4v9.7
			c0,0.2,0,0.3,0.1,0.4c0.1,0.1,0.2,0.2,0.4,0.2v0.3h-3.7v-0.3c0.2-0.1,0.4-0.1,0.4-0.2c0.1-0.1,0.1-0.2,0.1-0.4v-7.1l-0.8,0.2
			c-0.2,0-0.3,0.1-0.4,0.2c-0.1,0.1-0.2,0.2-0.2,0.4h-0.3L306.6,701.5L306.6,701.5z"/>
		<path style="fill:#FFFFCC;" d="M314.8,708.2l1.5-2.7l0.2,0.1c0,0.1-0.1,0.2-0.1,0.3c0,0.2,0.2,0.4,0.6,0.7
			c0.3,0.2,0.7,0.3,1.2,0.4c0.5,0.1,0.9,0.2,1.4,0.2c1,0,1.8-0.2,2.5-0.7c0.4-0.3,0.8-0.7,1-1.1c0.2-0.4,0.4-1,0.4-1.7
			c-0.6,0.5-1.2,0.9-1.8,1.1c-0.6,0.2-1.3,0.3-2.1,0.3c-1.3,0-2.3-0.3-3.3-0.8c-0.5-0.3-0.9-0.7-1.2-1.3c-0.3-0.5-0.4-1-0.4-1.6
			c0-1.2,0.5-2.1,1.5-2.8c1-0.7,2.3-1,3.9-1c1.7,0,3.1,0.4,4,1.2c0.6,0.5,1.1,1.2,1.4,2c0.3,0.8,0.4,1.6,0.4,2.5
			c0,1.8-0.6,3.3-1.7,4.4c-1.2,1.1-2.7,1.7-4.7,1.7c-0.7,0-1.2-0.1-1.8-0.2c-0.5-0.1-1.1-0.3-1.8-0.6c-0.2-0.1-0.4-0.2-0.6-0.2
			c-0.1,0-0.2,0-0.3,0.1c-0.1,0.1-0.1,0.1-0.2,0.1L314.8,708.2z M320.2,699.1c-0.9,0-1.6,0.2-2.2,0.6c-0.5,0.3-0.7,0.8-0.7,1.3
			c0,0.5,0.2,1,0.7,1.3c0.5,0.4,1.3,0.6,2.2,0.6c0.9,0,1.6-0.2,2.2-0.6c0.5-0.3,0.7-0.8,0.7-1.3c0-0.6-0.2-1-0.7-1.4
			C321.9,699.4,321.1,699.1,320.2,699.1z"/>
		<path style="fill:#FFFFCC;" d="M327.6,708.2l1.5-2.7l0.2,0.1c0,0.1-0.1,0.2-0.1,0.3c0,0.2,0.2,0.4,0.6,0.7
			c0.3,0.2,0.7,0.3,1.2,0.4c0.5,0.1,0.9,0.2,1.4,0.2c1,0,1.8-0.2,2.5-0.7c0.4-0.3,0.8-0.7,1-1.1c0.2-0.4,0.4-1,0.4-1.7
			c-0.6,0.5-1.2,0.9-1.8,1.1c-0.6,0.2-1.3,0.3-2.1,0.3c-1.3,0-2.3-0.3-3.3-0.8c-0.5-0.3-0.9-0.7-1.2-1.3c-0.3-0.5-0.4-1-0.4-1.6
			c0-1.2,0.5-2.1,1.5-2.8c1-0.7,2.3-1,3.9-1c1.7,0,3.1,0.4,4,1.2c0.6,0.5,1.1,1.2,1.4,2c0.3,0.8,0.4,1.6,0.4,2.5
			c0,1.8-0.6,3.3-1.7,4.4c-1.2,1.1-2.7,1.7-4.7,1.7c-0.7,0-1.2-0.1-1.8-0.2c-0.5-0.1-1.1-0.3-1.8-0.6c-0.2-0.1-0.4-0.2-0.6-0.2
			c-0.1,0-0.2,0-0.3,0.1c-0.1,0.1-0.1,0.1-0.2,0.1L327.6,708.2z M333.1,699.1c-0.9,0-1.6,0.2-2.2,0.6c-0.5,0.3-0.7,0.8-0.7,1.3
			c0,0.5,0.2,1,0.7,1.3c0.5,0.4,1.3,0.6,2.2,0.6c0.9,0,1.6-0.2,2.2-0.6c0.5-0.3,0.7-0.8,0.7-1.3c0-0.6-0.2-1-0.7-1.4
			C334.8,699.4,334.1,699.1,333.1,699.1z"/>
		<path style="fill:#FFFFCC;" d="M348.7,699.3h-7.5c-0.2,0-0.3,0-0.4,0.1c-0.1,0.1-0.2,0.2-0.2,0.4h-0.3v-3h0.3
			c0.1,0.2,0.1,0.3,0.2,0.4c0.1,0.1,0.2,0.1,0.4,0.1h9.5c0.2,0,0.3,0,0.4-0.1c0.1-0.1,0.2-0.2,0.2-0.4h0.3v2.1l-5.4,8.4
			c-0.2,0.3-0.3,0.5-0.3,0.6c0,0.2,0.2,0.3,0.5,0.4v0.3h-4.3v-0.3c0.2-0.1,0.5-0.2,0.6-0.3c0.2-0.1,0.4-0.4,0.6-0.7L348.7,699.3z"/>
	</g>
</g>
</svg>
