<?xml version="1.0" encoding="utf-8"?>
<!-- Generator: Adobe Illustrator 18.1.1, SVG Export Plug-In . SVG Version: 6.00 Build 0)  -->
<svg version="1.1" id="Layer_1" xmlns="http://www.w3.org/2000/svg" xmlns:xlink="http://www.w3.org/1999/xlink" x="0px" y="0px"
	 viewBox="0 0 600 600" style="enable-background:new 0 0 600 600;" xml:space="preserve">
<style type="text/css">
	.st0{opacity:0.85;fill:#FFFFFF;stroke:#B2B0A1;stroke-width:4;stroke-miterlimit:10;enable-background:new    ;}
	.st1{fill:none;}
	.st2{fill:#21421D;}
	.st3{fill:#FFFFFF;}
	.st4{fill:url(#SVGID_1_);stroke:#FFFFFF;stroke-width:3;stroke-miterlimit:10;}
	.st5{fill:#588C38;stroke:#FFFFFF;stroke-width:4;stroke-miterlimit:10;}
	.st6{fill:none;stroke:#FFFFFF;stroke-width:3;stroke-miterlimit:10;}
	.st7{enable-background:new    ;}
	.st8{fill:#FFFFCC;}
	
</style>
<!-- CIRCLE -->
<circle class="st0" cx="299.6" cy="299" r="290" id="circle"/>
<g id="tent">
	<path class="st1" d="M268.4,138.1c-1,1.5-2,3.1-3.1,4.6C266.4,141.2,267.4,139.6,268.4,138.1z"/>
	<path class="st1" d="M273.2,130.8c-0.8,1.3-1.7,2.6-2.6,3.9C271.5,133.4,272.4,132.1,273.2,130.8z"/>
	<path class="st1" d="M206,225.4c-15.4,20.1-30.8,39-46,56.9c-1.1,1.4-2.3,2.7-3.5,4.1c-2.3,2.7-4.7,5.4-7,8.1
		c-1,1.2-2.1,2.4-3.1,3.6C165.9,275.7,185.9,251.5,206,225.4c20.8-27,40.2-54.1,57.8-80.3c-1.2,1.8-2.5,3.7-3.7,5.5
		C243.4,175.1,225.3,200.2,206,225.4z"/>
	<path class="st1" d="M130.3,316.1c-6.4,7-12.7,13.9-18.9,20.5C117.6,330,123.9,323.2,130.3,316.1z"/>
	<path class="st1" d="M279.2,121.7c-0.9,1.4-1.7,2.7-2.6,4.1C277.4,124.4,278.3,123,279.2,121.7z"/>
	<path class="st1" d="M138.8,306.6c-0.9,1-1.8,2-2.7,3c-1.3,1.4-2.6,2.9-3.8,4.3c4.2-4.6,8.4-9.4,12.6-14.2
		c-1.1,1.3-2.3,2.6-3.4,3.9C140.6,304.6,139.7,305.6,138.8,306.6z"/>
	<path class="st1" d="M284.8,112.9c-0.7,1.2-1.5,2.3-2.2,3.5C283.3,115.2,284,114,284.8,112.9z"/>
	<path class="st1" d="M294.3,97.5c-1,1.6-1.9,3.1-2.9,4.7C292.4,100.6,293.3,99.1,294.3,97.5z"/>
	<path class="st1" d="M289.6,105.1c-0.8,1.3-1.7,2.7-2.5,4C288,107.8,288.8,106.4,289.6,105.1z"/>
	<path class="st1" d="M451.7,300.3c12.6,14.3,25,27.9,37,40.6h0C476.7,328.1,464.3,314.6,451.7,300.3z"/>
	<path class="st2" d="M107.5,340.8c1.3-1.4,2.7-2.8,4-4.2c6.2-6.6,12.5-13.4,18.9-20.5c0.7-0.7,1.3-1.5,2-2.2
		c1.3-1.4,2.6-2.9,3.8-4.3c0.9-1,1.8-2,2.7-3c0.9-1,1.8-2,2.7-3c1.1-1.3,2.3-2.6,3.4-3.9c0.5-0.6,1-1.1,1.5-1.7
		c1-1.2,2.1-2.4,3.1-3.6c2.3-2.7,4.6-5.4,7-8.1c1.2-1.4,2.3-2.7,3.5-4.1c15.2-17.8,30.6-36.8,46-56.9c19.4-25.2,37.5-50.3,54.1-74.8
		c1.3-1.9,2.5-3.7,3.7-5.5c0.5-0.8,1.1-1.6,1.6-2.4c1-1.5,2-3.1,3.1-4.6c0.8-1.1,1.5-2.3,2.3-3.4c0.9-1.3,1.7-2.6,2.6-3.9
		c1.1-1.7,2.2-3.4,3.3-5.1c0.9-1.4,1.8-2.7,2.6-4.1c1.1-1.8,2.3-3.5,3.4-5.3c0.7-1.2,1.5-2.3,2.2-3.5c0.8-1.3,1.6-2.5,2.4-3.8
		c0.8-1.3,1.7-2.7,2.5-4c0.6-1,1.2-1.9,1.8-2.9c1-1.6,1.9-3.1,2.9-4.7c0.5-0.8,1-1.6,1.4-2.4c0.8-1.3,1.6-2.6,2.3-3.8
		c-25.4,32.8-56.7,68.7-92.1,104.6C148.3,254.3,91,302.2,45.6,331c-1.5,0.9-2.9,1.8-4.3,2.7c-0.4,0.6-0.6,1.3-0.6,2.1
		c0,2.8,3.1,5,6.9,5H107.5L107.5,340.8L107.5,340.8z"/>
	<path class="st2" d="M107.4,340.9C107.4,340.9,107.4,340.8,107.4,340.9L107.4,340.9C107.4,340.8,107.4,340.9,107.4,340.9z"/>
	<path class="st2" d="M555.7,335.9c0,2.5-2.5,4.5-5.8,4.9h-61.3v0c-4.7-5-9.4-10-14.2-15.2c-1-1-1.9-2.1-2.9-3.1
		c-0.4-0.4-0.8-0.8-1.1-1.3c-0.6-0.6-1.2-1.3-1.7-1.9c-1-1.1-1.9-2.1-2.9-3.2v0c-3.1-3.4-6.2-6.9-9.4-10.4c-1.6-1.8-3.1-3.5-4.7-5.3
		c-20.1-22.9-40.8-47.9-61.5-74.8c-13.7-17.8-26.8-35.6-39.1-53.2c-4.6-6.5-9.1-13-13.5-19.5c-1.5-2.2-2.9-4.3-4.4-6.4
		c-2.3-3.4-4.6-6.8-6.8-10.2c-2.5-3.8-5-7.6-7.5-11.4c-2.4-3.8-4.8-7.5-7.2-11.3c-4.7-7.5-9.3-14.9-13.7-22.1
		c25.4,32.8,56.7,68.6,92.1,104.5c57.6,58.4,115,106.3,160.4,135.2c1.6,1,3.1,2,4.7,2.9C555.5,334.6,555.7,335.2,555.7,335.9z"/>
	<path class="st3" d="M298.1,91.3c-0.8,1.3-1.6,2.6-2.3,3.8c-0.5,0.8-1,1.6-1.4,2.4c-1,1.6-1.9,3.1-2.9,4.7c-0.6,1-1.2,1.9-1.8,2.9
		c-0.8,1.3-1.7,2.7-2.5,4c-0.8,1.2-1.6,2.5-2.4,3.8c-0.7,1.2-1.5,2.3-2.2,3.5c-1.1,1.8-2.3,3.5-3.4,5.3c-0.9,1.4-1.7,2.7-2.6,4.1
		c-1.1,1.7-2.2,3.4-3.3,5.1c-0.8,1.3-1.7,2.6-2.6,3.9c-0.7,1.1-1.5,2.3-2.3,3.4c-1,1.5-2,3.1-3.1,4.6c-0.5,0.8-1,1.6-1.6,2.4
		c-17.6,26.3-37,53.3-57.8,80.4c-20.1,26.1-40.1,50.3-59.6,72.6c-0.5,0.6-1,1.1-1.5,1.7c-4.2,4.8-8.4,9.6-12.6,14.2
		c-0.7,0.7-1.3,1.5-2,2.2c-6.4,7-12.7,13.9-18.9,20.5c-1.3,1.4-2.7,2.8-4,4.2h0h62.7c11.8-21,23.8-41,35.8-62.7
		C241.4,213.9,272.6,150,298.1,91.3z"/>
	<path class="st3" d="M107.4,340.8L107.4,340.8C107.4,340.8,107.4,340.9,107.4,340.8C107.4,340.9,107.4,340.9,107.4,340.8
		C107.4,340.9,107.4,340.8,107.4,340.8L107.4,340.8z"/>
	<path class="st3" d="M488.7,340.8L488.7,340.8C488.7,340.9,488.7,340.9,488.7,340.8C488.7,340.9,488.7,340.9,488.7,340.8
		C488.7,340.9,488.7,340.8,488.7,340.8L488.7,340.8z"/>
	<path class="st3" d="M390.1,225.5c-13.7-17.8-26.8-35.6-39.1-53.2c-19.6-27.8-37.4-55.1-53-80.9c25.4,58.7,56.7,122.7,92.1,186.8
		c12,21.7,24,41.7,35.8,62.7h62.7c-12-12.7-24.4-26.2-37-40.6C431.6,277.4,410.9,252.4,390.1,225.5z"/>
	<path class="st2" d="M298.1,91.3C272.6,150,241.4,213.9,206,278.1c-12,21.7-24,41.7-35.8,62.7h55.1c27.5-87,52.1-170.3,72.8-249.2
		c20.7,78.9,45.3,162.2,72.8,249.2H426c-11.8-21-23.8-40.9-35.8-62.7C354.7,214,323.5,150,298.1,91.3z"/>
	<path class="st3" d="M225.2,340.8h49c8.4-86,16.4-168.1,23.9-249.2C277.3,170.5,252.7,253.8,225.2,340.8z"/>
	<path class="st3" d="M321.9,340.8h49c-27.5-87-52.1-170.3-72.8-249.2C305.5,172.8,313.5,254.8,321.9,340.8z"/>
	<path class="st2" d="M274.2,340.8h47.8c-8.4-86-16.4-168.1-23.9-249.2C290.6,172.8,282.6,254.8,274.2,340.8z"/>
</g>
<!-- ORIGINAL BANNER -->
<g id="original">
	
		<radialGradient id="SVGID_1_" cx="298.2" cy="332.9415" r="165.1012" gradientTransform="matrix(1 0 0 -0.917 0 578.2573)" gradientUnits="userSpaceOnUse">
		<stop  offset="0" style="stop-color:#753128"/>
		<stop  offset="1" style="stop-color:#421C17"/>
	</radialGradient>
	<path class="st4" d="M522.4,253.8c-40.7-22.9-125.6-38.6-223.1-38.6c-0.3,0-0.7,0-1,0s-0.7,0-1,0c-97.5,0-182.3,15.7-223.1,38.7
		c-0.2,0.1-0.6,0.3-0.8,0.4l38.8,76.3c45.7-14.1,111.9-23.1,185.1-23.1c0.3,0,0.7,0,1,0s0.7,0,1,0c73.3,0,139.6,8.9,185.1,23.1
		l38.7-76.3C522.9,254.1,522.7,254,522.4,253.8z"/>
	<g>
		<path class="st3" d="M111.2,286.1c-2.1-6.5-2.1-11.7,0-15.6c2.1-3.8,6.8-6.8,13.7-8.9c7-2.1,12.5-2.2,16.5-0.1
			c4.1,2,7.2,6.2,9.3,12.8c2.1,6.5,2.1,11.7,0,15.5s-6.8,6.8-13.7,8.9c-7,2.1-12.5,2.2-16.5,0.2
			C116.4,296.9,113.3,292.6,111.2,286.1z M121.7,283c1.6,4.6,3.4,7.8,5.5,9.4c2.1,1.7,4.8,2,8.1,1c3.3-0.9,5.3-2.7,6.1-5.3
			c0.8-2.5,0.5-6.1-1.1-10.7s-3.4-7.8-5.5-9.5s-4.8-2-8.1-1c-3.3,0.9-5.3,2.7-6.1,5.3C119.8,274.8,120.2,278.4,121.7,283z
			 M132.5,292.2c-2,0.1-3.8-0.6-5.3-2.2c-1.5-1.5-2.8-4-3.9-7.5c-1.4-4-1.7-7.1-1-9.3c0.7-2.2,2.3-3.7,5-4.5c2-0.6,3.6-0.6,5.1,0
			c1.4,0.6,2.7,1.8,3.9,3.7c-1.4-0.2-2.6-0.3-3.7-0.3c-1.1,0-2,0.1-2.8,0.3c-1.9,0.6-3,1.5-3.5,3c-0.5,1.4-0.1,3.6,0.9,6.6
			c0.7,2.1,1.5,3.9,2.4,5.6C130.3,289.2,131.3,290.8,132.5,292.2z M141.3,259.6c4.4,1.8,7.8,3.7,10,6c2.3,2.3,4.2,5.5,5.4,9.5
			c1.1,3.3,1.6,6.4,1.5,9.3c-0.1,3-0.7,5.7-1.9,8.2c-1.1,2.4-2.9,4.5-5.5,6.5c-2.5,2-5.3,3.4-8.4,4.3c-2.9,0.8-5.9,1.1-8.9,0.9
			c-3-0.3-6.3-1.1-9.7-2.5c2.3,0.3,4.5,0.3,6.6,0.1c2.3-0.2,4.7-0.7,7.3-1.5c7.3-2.2,12.2-5.5,14.5-9.7c2.4-4.3,2.4-10,0.1-16.9
			c-1.2-3.7-2.7-6.6-4.4-8.8C146.3,262.8,144,261,141.3,259.6z"/>
		<path class="st3" d="M162.8,289.8l-1.2-5.9l6.4-1.1l-4.8-23.9l-6.4,1.1l-1.2-5.9l27.6-5.1c3.9-0.7,6.8-1.1,8.3-1.1
			s2.9,0.1,3.9,0.5c1.6,0.6,2.8,1.5,3.9,2.9c1,1.3,1.7,2.9,2.1,4.9c0.6,2.9,0.2,5.3-1.1,7.3c-1.4,2.1-3.5,3.3-6.4,3.9l0.2,1.4
			l1.4-0.2c0.5-0.1,0.9,0,1.4,0.2s0.8,0.5,1,1l2.9,5.2c0.3,0.6,0.8,1,1.2,1.2s1,0.3,1.7,0.2l3.9-0.7l1.2,5.9l-10.1,1.9
			c-1.1,0.2-2.1,0.1-3-0.2c-0.9-0.4-1.6-1-2.3-2.1l-5-7.7c-0.8-1.3-1.7-2.2-2.6-2.7c-0.9-0.5-1.8-0.7-2.9-0.5l-7.8,1.4l1.9,9.7
			l6.4-1.1l1.2,5.9L162.8,289.8z M157.3,261.9l4.8-0.9l0.9,4.2L157.3,261.9z M163.3,291.7l23.6-4.3l-1.6-7.7l4.2,2.2l1.8,9l-22.4,4
			L163.3,291.7z M174.4,266.8l11.4-2.1c2.4-0.4,3.9-1.1,4.6-2c0.8-0.9,0.9-2.3,0.6-4s-1.1-2.8-2.3-3.4c-1.1-0.6-2.8-0.7-5-0.3
			l-11.4,2.1L174.4,266.8z M175.6,264.7l-1.2-5.9l9.9-1.8c1.4-0.2,2.5-0.2,3.4,0.2c0.8,0.4,1.4,1,1.6,2c0,0.2,0.1,0.4,0.1,0.6
			s0,0.3-0.1,0.5l-10.4,1.9l0.3,1.9L175.6,264.7z M180.8,276.7l0.3,1.8l-2.6,0.5l-1.2-5.9l5.9-1c0.7-0.1,1.4-0.1,1.8,0.2
			c0.5,0.2,1,0.7,1.5,1.4l1.2,1.9L180.8,276.7z M210.9,283l-1.6-7.7l4.3,2.7l1.7,8.5l-9.6,1.8c-1.2,0.2-2.4,0.2-3.4,0.1
			c-1-0.2-2-0.5-2.8-1l-3.7-2.4c0.6,0.2,1,0.4,1.6,0.4c0.5,0.1,1,0,1.6-0.1l0.7-0.1L210.9,283z M199.8,269.2
			c-0.1-0.3-0.3-0.6-0.7-0.8c-0.3-0.3-0.7-0.5-1.1-0.7c2.1-1,3.7-2.6,4.6-4.6c0.9-2.1,1.1-4.4,0.6-7c-0.3-1.9-1-3.4-1.9-4.6
			c-0.9-1.2-2-2.4-3.6-3.3l5.3,3.6c1,0.7,1.8,1.5,2.5,2.7c0.7,1,1.1,2.3,1.5,3.7c0.5,2.4,0.2,4.5-0.6,6.5c-0.9,2-2.4,3.9-4.6,5.7
			l2.3,1.5l0.1,0.1c1,0.7,1.8,1.4,2.3,2.3l-2.7,0.5c-0.3,0.1-0.6,0-0.8-0.1c-0.2-0.1-0.5-0.4-0.6-0.7L199.8,269.2z"/>
		<path class="st3" d="M230.3,273.1l6.5-0.7l0.7,6l-22.6,2.5l-0.7-6l6.5-0.7l-2.9-24.3l-6.5,0.7l-0.7-6l22.6-2.5l0.7,6l-6.5,0.7
			L230.3,273.1z M217.1,256.1l-5.4-3.5l5-0.5L217.1,256.1z M220.9,286.2l-5.6-3.5l24.2-2.6l-0.9-7.8l3.9,2.5l1.1,9.1L220.9,286.2z
			 M231.8,271.1l-2.5-20.4l6.5-0.7l-0.9-7.8l4.1,3.4l1,8.2l-6.5,0.7l2,16.3L231.8,271.1z"/>
		<path class="st3" d="M276.6,260.1l-5.5,0.2l-0.2-4.7l20.7-0.8l0.2,4.7l-5.7,0.2l0.8,15.9l-9.6,0.4l-0.2-4.7
			c-1.6,2.1-3.5,3.6-5.9,4.7s-5.1,1.8-8.2,1.9c-6,0.2-10.7-1.2-14.1-4.5c-3.4-3.2-5.3-8-5.5-14.2c-0.3-6.4,1.1-11.4,4.2-14.7
			c3-3.3,7.9-5.2,14.3-5.5c2.7-0.1,5.2,0.2,7.3,0.8c2.1,0.6,4.3,1.8,6.4,3.4l-0.2-3.6l9.1-0.4l0.5,9.3l-9.1,0.4
			c-1.8-1.5-3.6-2.6-5.5-3.3s-3.9-1-6.1-0.9c-3.5,0.1-6,1.3-7.5,3.6c-1.6,2.3-2.3,5.7-2,10.1c0.2,5,1.4,8.5,3.2,10.6
			c1.9,2.2,4.7,3.2,8.6,3c3-0.1,5.5-1.3,7.4-3.5C275.7,266.3,276.6,263.5,276.6,260.1z M251.8,277.7c1.9,0.8,3.9,1.3,5.9,1.7
			c1.9,0.3,3.9,0.4,6,0.4c2.1-0.1,4.2-0.5,6.1-1.1c1.9-0.7,3.9-1.8,6-3.1l0.2,3.6l0.8,0.6c-1.7,1.1-3.5,2.1-5.4,2.7s-3.8,1-5.9,1
			c-1.4,0.1-2.7-0.1-4.2-0.5s-2.7-0.9-3.9-1.8L251.8,277.7z M262.9,269.9c-2-0.3-3.6-1.3-4.6-3.2c-1-1.9-1.7-4.5-1.8-8.3
			c-0.2-4,0.3-7,1.6-9c1.2-1.9,3.3-2.9,6.1-3c2.3-0.1,4.3,0.2,6.2,0.9c1.9,0.7,3.6,1.9,5.2,3.3l11.3-0.5l-0.6-11.1l3.7,3.6l0.5,10
			l-12.5,0.5c-1.9-1.1-3.8-2-5.7-2.5c-1.9-0.5-3.8-0.7-5.9-0.6c-2.5,0.1-4.1,0.8-5,2.1c-0.9,1.3-1.2,3.6-1.1,6.8
			c0.1,2,0.3,3.8,0.8,5.5C261.4,266.5,262,268.3,262.9,269.9z M271.2,262.3l3.6-0.1c0,0.5-0.1,0.9-0.2,1.3s-0.3,0.8-0.5,1.3
			L271.2,262.3z M277.5,277.9l11.1-0.4l-0.8-15.9l5.7-0.2l-0.3-6.7l3.8,3.6l0.3,7l-5.7,0.2l0.8,15.9l-10.1,0.4L277.5,277.9z"/>
		<path class="st3" d="M304.1,281.7l-5.2-4.2l24.3,0.5l0.1-7.9l3.6,2.9l-0.2,9.2L304.1,281.7z M315.2,269.8l6.6,0.1l-0.1,6
			l-22.7-0.4l0.1-6l6.5,0.1l0.5-24.4l-6.5-0.1l0.1-6l22.7,0.4l-0.1,6l-6.6-0.1L315.2,269.8z M304.3,251.2l-5-4.2l5,0.1V251.2z
			 M316.8,268l0.3-20.5l6.5,0.1l0.1-7.9l3.6,3.8l-0.1,8.3l-6.5-0.1l-0.3,16.4h-3.6V268z"/>
		<path class="st3" d="M327.7,277.6l22.7,2l0.7-7.8l3.3,3.7l-0.8,8.6l-21-1.9L327.7,277.6z M327.9,275.7l0.6-6l6.5,0.5l2.3-24.3
			l-6.5-0.5l0.6-6l20.6,1.8l12.5,28.3l1.9-21.1l-6.5-0.5l0.6-6l20.3,1.8l-0.6,6l-5.7-0.5l-2.7,30.2l-13.4-1.1l-13.1-28.5l-1.9,21.2
			l6.5,0.5l-0.6,6L327.9,275.7z M330.5,247.3l5,0.4l-0.3,4.2L330.5,247.3z M344.8,269.2l1.1-12.7l3,6.6l-0.6,6.5L344.8,269.2z
			 M353.6,241.3l4.5,5.2l-0.3,3.2l6.5,0.5l-1.1,12.5L353.6,241.3z M359,280.2l13.8,1.2l2.7-30.2l5.9,0.5l0.7-7.8l3.2,4.4l-0.8,8.3
			l-5.7-0.5l-2.7,29.8l-12.5-1L359,280.2z"/>
		<path class="st3" d="M382.6,282.2l21.3,4l1.6-7.7l2.9,3.7l-1.8,8.8l-19-3.6L382.6,282.2z M383.1,280.3l1.2-5.9l5.5,1l17.4-27.7
			l15.1,2.8l5.6,32l5.5,1l-1.2,5.9l-21.3-4l1.2-5.9l5.4,1l-1.4-7.2l-14.1-2.7l-3.9,6.3l5.5,1l-1.2,5.9L383.1,280.3z M401.1,275.7
			l1.8-2.9l11.9,2.3l0.5,3.3L401.1,275.7z M404.9,266.5l10.5,2l-2.6-14.9L404.9,266.5z M407.8,265.2l4.2-6.9l1,5.9l-1.1,1.8
			L407.8,265.2z M410.6,287.5l22.8,4.3l1.6-7.7l2.8,4l-1.7,8.5l-21.6-4L410.6,287.5z M429.3,281l-5.4-30l5.5,9.3l3.6,21.5L429.3,281
			z"/>
		<path class="st3" d="M437.3,292.6l37.4,11.7l7-20.7l2.3,4.5l-7.1,21.1l-35.8-10.9L437.3,292.6z M437.9,290.9l1.9-5.7l6.3,2
			l7.9-23.1l-6.3-2l1.9-5.7l21.6,6.7l-1.9,5.7l-6.2-2l-7.9,23.1l11.8,3.7l4.5-13.2l8.7,2.7l-6.4,18.9L437.9,290.9z M450.5,269.2
			l-3.4-5.4l4.7,1.4L450.5,269.2z M457.3,288.6l6.6-19.5l6.3,2l2.6-7.5l2.3,4.7l-2.6,7.7l-6.2-2l-5.3,15.6L457.3,288.6z"/>
	</g>
</g>
	<!-- GREEN HUT CONTAINER -->
<g id="bbqh_hut">
	<path class="st5" d="M481.1,339.7C441,328,376.6,320.5,302.9,320.5s-140.5,7.5-180.5,19.2c-2.5,1-4.8,1.9-8.8,2.6v107.1h372V342
		C484.6,341.3,483.2,340.7,481.1,339.7z" id="hut_green_container"/>
	<!-- ALL ELEMENTS INSIDE GREEN HUT CONTAINER -->
	<g id="bbqh_writing">
		<path class="st3" d="M136.3,402.8v-32.9h16c3.3,0,5.7,0.9,7.3,2.6c1.5,1.8,2.3,3.8,2.3,6c0,1.6-0.4,3.1-1.3,4.4
			c-0.9,1.3-2.2,2.2-4,2.7c4.1,1,6.1,3.6,6.1,7.7c0,2.4-0.7,4.6-2.2,6.5c-1.4,1.9-4.5,2.9-9.2,2.9L136.3,402.8L136.3,402.8z
			 M145.2,382.5h4.5c1.1,0,1.9-0.3,2.4-0.9s0.7-1.2,0.7-1.9c0-1.8-1.1-2.7-3.2-2.7h-4.3L145.2,382.5L145.2,382.5z M145.2,395.5h4.7
			c1.2,0,2-0.3,2.6-0.9c0.5-0.6,0.8-1.3,0.8-2c0-0.8-0.3-1.4-0.8-2.1c-0.5-0.6-1.5-1-2.9-1h-4.4L145.2,395.5L145.2,395.5z"/>
		<path class="st3" d="M184.1,402.8l-1.8-6.5h-8.4l-1.9,6.5h-7.9l9.7-32.9h10.3l9.9,32.9H184.1z M175.5,389.2h5.1l-2.5-9.5
			L175.5,389.2z"/>
		<path class="st3" d="M224.9,402.8h-10.7l-4.6-12.6h-3v12.6h-9.7v-32.9h16.5c3.6,0,6.5,0.9,8.5,2.7s3,4.1,3,7c0,1.9-0.4,3.6-1.1,5
			s-2.2,2.7-4.5,3.8L224.9,402.8z M206.5,383.2h4.1c1.2,0,2.2-0.3,2.9-0.8s1.1-1.3,1.1-2.3c0-2.1-1.2-3.2-3.7-3.2h-4.5L206.5,383.2
			L206.5,383.2z"/>
		<path class="st3" d="M239.1,386.6v7.6h-11.7v-7.6H239.1z"/>
		<path class="st3" d="M242.5,402.8v-32.9h16c3.3,0,5.7,0.9,7.3,2.6c1.5,1.8,2.3,3.8,2.3,6c0,1.6-0.4,3.1-1.3,4.4s-2.2,2.2-4,2.7
			c4.1,1,6.1,3.6,6.1,7.7c0,2.4-0.7,4.6-2.2,6.5c-1.4,1.9-4.5,2.9-9.2,2.9L242.5,402.8L242.5,402.8z M251.4,382.5h4.5
			c1.1,0,1.9-0.3,2.4-0.9s0.7-1.2,0.7-1.9c0-1.8-1.1-2.7-3.2-2.7h-4.3L251.4,382.5L251.4,382.5z M251.4,395.5h4.7
			c1.2,0,2-0.3,2.6-0.9c0.5-0.6,0.8-1.3,0.8-2c0-0.8-0.3-1.4-0.8-2.1c-0.5-0.6-1.5-1-2.9-1h-4.4L251.4,395.5L251.4,395.5z"/>
		<path class="st3" d="M282.4,386.6v7.6h-11.7v-7.6H282.4z"/>
		<path class="st3" d="M302.7,403c-1.1,0.2-2.1,0.3-3.2,0.3c-4.5,0-8.2-1.6-10.9-4.7c-2.8-3.1-4.1-7.2-4.1-12.2s1.3-9,4-12.2
			s6.4-4.8,11.1-4.8c4.4,0,8,1.5,10.7,4.5c2.8,3,4.1,7.1,4.1,12.1c0,6.1-1.9,10.8-5.7,14c0.3,0.9,1.3,1.4,2.9,1.4
			c0.7,0,1.6-0.1,2.6-0.3v7.4c-1.7,0.2-3,0.3-4,0.3c-1.7,0-3.3-0.4-4.6-1.1C304.3,407,303.3,405.4,302.7,403z M299.4,395.9
			c1.6,0,2.8-0.7,3.5-2.2s1.1-4.2,1.1-8.2c0-5.7-1.5-8.6-4.4-8.6c-3.2,0-4.8,3.3-4.8,9.8C294.8,392.8,296.3,395.9,299.4,395.9z"/>
		<path class="st3" d="M344,369.9v21.8c0,4.1-1.2,7.1-3.5,8.9s-5.4,2.7-9.2,2.7c-4,0-7.2-0.9-9.6-2.6s-3.6-4.6-3.6-8.5v-22.3h9.8
			V391c0,1.6,0.3,2.7,1,3.4c0.6,0.7,1.7,1.1,3,1.1c1.2,0,2.1-0.3,2.9-0.8c0.7-0.5,1.2-1.1,1.3-1.8c0.1-0.7,0.2-1.9,0.2-3.9v-19.2
			L344,369.9L344,369.9z"/>
		<path class="st3" d="M372.9,395v7.9h-23.7V370h23.7v7.6h-14.2v4.8h11.5v7.3h-11.5v5.4L372.9,395L372.9,395z"/>
		<path class="st3" d="M415.3,369.9v32.9h-9.7V390h-7.4v12.8h-9.7v-32.9h9.7V382h7.4v-12.1H415.3z"/>
		<path class="st3" d="M446.3,369.9v21.8c0,4.1-1.2,7.1-3.5,8.9s-5.4,2.7-9.2,2.7c-4,0-7.2-0.9-9.6-2.6s-3.6-4.6-3.6-8.5v-22.3h9.8
			V391c0,1.6,0.3,2.7,1,3.4c0.6,0.7,1.7,1.1,3,1.1c1.2,0,2.1-0.3,2.9-0.8c0.7-0.5,1.2-1.1,1.3-1.8c0.1-0.7,0.2-1.9,0.2-3.9v-19.2
			L446.3,369.9L446.3,369.9z"/>
		<path class="st3" d="M464.4,377.8v25h-9.2v-25h-6.5v-7.9h22.2v7.9H464.4z"/>
	</g>
	<line class="st6" x1="129.1" y1="355.1" x2="478.1" y2="355.1" id="top_line"/>
	<line class="st6" x1="129.3" y1="421.6" x2="245.2" y2="421.6" id="bottom_line_left"/>
	<line class="st6" x1="362.3" y1="421.6" x2="478.2" y2="421.6" id="bottom_line_right"/>
	<g class="st7" id="est_writing">
		<path class="st8" d="M259.4,422.6v3.1h7.6c0.2,0,0.3,0,0.4-0.1s0.2-0.2,0.2-0.4h0.3v2.9h-0.3c-0.1-0.2-0.1-0.3-0.2-0.4
			s-0.2-0.1-0.4-0.1h-10.7v-0.3c0.2-0.1,0.4-0.1,0.4-0.2c0.1-0.1,0.1-0.2,0.1-0.4v-9.5c0-0.2,0-0.3-0.1-0.4
			c-0.1-0.1-0.2-0.2-0.4-0.2v-0.3h10.5c0.2,0,0.3,0,0.4-0.1s0.2-0.2,0.2-0.4h0.3v2.9h-0.3c-0.1-0.2-0.1-0.3-0.2-0.4
			s-0.2-0.1-0.4-0.1h-7.4v2.7h4.8c0.2,0,0.3,0,0.4-0.1s0.2-0.2,0.2-0.4h0.3v2.8h-0.3c-0.1-0.2-0.1-0.3-0.2-0.4s-0.2-0.1-0.4-0.1
			h-4.8V422.6z"/>
		<path class="st8" d="M280.6,417.2l-1.4,2.6l-0.2-0.1c0-0.1,0-0.1,0-0.1c0-0.2-0.2-0.4-0.5-0.6c-1-0.7-2.2-1-3.6-1
			c-0.6,0-1.1,0.1-1.6,0.2c-0.3,0.1-0.6,0.3-0.8,0.5c-0.2,0.2-0.3,0.5-0.3,0.7c0,0.4,0.3,0.7,0.8,0.9c0.3,0.1,0.9,0.2,1.8,0.2
			l1.4,0.1c0.8,0.1,1.5,0.2,2,0.3c0.5,0.1,0.9,0.3,1.3,0.6c0.4,0.3,0.7,0.6,0.9,1.1c0.2,0.4,0.3,0.9,0.3,1.4c0,0.8-0.3,1.5-0.8,2.1
			s-1.2,1-2.3,1.2c-0.8,0.2-1.6,0.3-2.4,0.3c-1.6,0-3.1-0.4-4.6-1.1c-0.3-0.1-0.5-0.2-0.6-0.2s-0.2,0.1-0.4,0.2l-0.3-0.1l1.3-2.8
			l0.3,0.1v0.1c0,0.2,0.1,0.5,0.4,0.7c0.4,0.3,1,0.6,1.7,0.8s1.5,0.3,2.2,0.3c0.8,0,1.4-0.1,2-0.4c0.3-0.1,0.5-0.3,0.7-0.5
			s0.3-0.5,0.3-0.7c0-0.4-0.2-0.6-0.6-0.8c-0.3-0.1-0.9-0.2-1.8-0.3l-1.3-0.1c-0.9-0.1-1.5-0.2-1.9-0.3c-0.4-0.1-0.7-0.2-1.1-0.4
			c-0.5-0.2-0.9-0.6-1.2-1.1c-0.3-0.4-0.4-1-0.4-1.5c0-1,0.3-1.7,1-2.4c0.9-0.8,2.2-1.2,4-1.2c0.8,0,1.5,0.1,2.1,0.2
			c0.7,0.1,1.5,0.4,2.4,0.8c0.3,0.1,0.5,0.2,0.6,0.2s0.3-0.1,0.4-0.2L280.6,417.2z"/>
		<path class="st8" d="M288.9,418.1v8.5c0,0.2,0,0.3,0.1,0.4s0.2,0.2,0.4,0.2v0.3h-3.7v-0.3c0.2-0.1,0.4-0.1,0.4-0.2
			c0.1-0.1,0.1-0.2,0.1-0.4v-8.5h-3.7c-0.2,0-0.3,0-0.4,0.1s-0.2,0.2-0.2,0.4h-0.3v-2.9h0.3c0.1,0.2,0.1,0.3,0.2,0.4
			s0.2,0.1,0.4,0.1h9.9c0.2,0,0.3,0,0.4-0.1s0.2-0.2,0.2-0.4h0.3v2.9H293c-0.1-0.2-0.1-0.3-0.2-0.4s-0.2-0.1-0.4-0.1H288.9z"/>
		<path class="st8" d="M294.9,425c0.4,0,0.7,0.1,1,0.4s0.4,0.6,0.4,1s-0.1,0.7-0.4,0.9c-0.3,0.3-0.6,0.4-1,0.4s-0.7-0.1-1-0.4
			s-0.4-0.6-0.4-1s0.1-0.7,0.4-0.9C294.1,425.2,294.5,425,294.9,425z"/>
		<path class="st8" d="M305.8,420.3v-3h0.3c0.1,0.2,0.1,0.3,0.2,0.4s0.1,0.1,0.3,0.1c0.1,0,0.1,0,0.2,0l0.7-0.2v-0.5
			c0-0.2,0-0.3-0.1-0.4s-0.2-0.2-0.4-0.2v-0.3h3.6v0.3c-0.2,0.1-0.4,0.1-0.4,0.2c-0.1,0.1-0.1,0.2-0.1,0.4v9.5c0,0.2,0,0.3,0.1,0.4
			s0.2,0.2,0.4,0.2v0.3H307v-0.3c0.2-0.1,0.4-0.1,0.4-0.2c0.1-0.1,0.1-0.2,0.1-0.4v-7l-0.8,0.2c-0.2,0-0.3,0.1-0.4,0.2
			s-0.2,0.2-0.2,0.4h-0.3V420.3z"/>
		<path class="st8" d="M313.9,426.9l1.5-2.7l0.2,0.1c0,0.1-0.1,0.2-0.1,0.3c0,0.2,0.2,0.4,0.6,0.7c0.3,0.2,0.7,0.3,1.2,0.4
			s0.9,0.2,1.4,0.2c1,0,1.8-0.2,2.5-0.7c0.4-0.3,0.8-0.7,1-1.1s0.4-1,0.4-1.7c-0.6,0.5-1.2,0.9-1.8,1.1c-0.6,0.2-1.3,0.3-2.1,0.3
			c-1.3,0-2.3-0.3-3.2-0.8c-0.5-0.3-0.9-0.7-1.2-1.3c-0.3-0.5-0.4-1-0.4-1.6c0-1.2,0.5-2.1,1.5-2.8c1-0.7,2.3-1,3.8-1
			c1.7,0,3,0.4,3.9,1.2c0.6,0.5,1.1,1.2,1.4,2s0.4,1.6,0.4,2.5c0,1.8-0.6,3.2-1.7,4.3c-1.2,1.1-2.7,1.7-4.6,1.7
			c-0.7,0-1.2-0.1-1.8-0.2c-0.5-0.1-1.1-0.3-1.8-0.6c-0.2-0.1-0.4-0.2-0.6-0.2c-0.1,0-0.2,0-0.3,0.1c-0.1,0.1-0.1,0.1-0.2,0.1
			L313.9,426.9z M319.2,417.9c-0.9,0-1.6,0.2-2.2,0.6c-0.5,0.3-0.7,0.8-0.7,1.3s0.2,1,0.7,1.3c0.5,0.4,1.3,0.6,2.2,0.6
			c0.9,0,1.6-0.2,2.2-0.6c0.5-0.3,0.7-0.8,0.7-1.3c0-0.6-0.2-1-0.7-1.4C320.9,418.2,320.1,417.9,319.2,417.9z"/>
		<path class="st8" d="M326.5,426.9l1.5-2.7l0.2,0.1c0,0.1-0.1,0.2-0.1,0.3c0,0.2,0.2,0.4,0.6,0.7c0.3,0.2,0.7,0.3,1.2,0.4
			s0.9,0.2,1.4,0.2c1,0,1.8-0.2,2.5-0.7c0.4-0.3,0.8-0.7,1-1.1s0.4-1,0.4-1.7c-0.6,0.5-1.2,0.9-1.8,1.1c-0.6,0.2-1.3,0.3-2.1,0.3
			c-1.3,0-2.3-0.3-3.2-0.8c-0.5-0.3-0.9-0.7-1.2-1.3c-0.3-0.5-0.4-1-0.4-1.6c0-1.2,0.5-2.1,1.5-2.8c1-0.7,2.3-1,3.8-1
			c1.7,0,3,0.4,3.9,1.2c0.6,0.5,1.1,1.2,1.4,2s0.4,1.6,0.4,2.5c0,1.8-0.6,3.2-1.7,4.3c-1.2,1.1-2.7,1.7-4.6,1.7
			c-0.7,0-1.2-0.1-1.8-0.2c-0.5-0.1-1.1-0.3-1.8-0.6c-0.2-0.1-0.4-0.2-0.6-0.2c-0.1,0-0.2,0-0.3,0.1c-0.1,0.1-0.1,0.1-0.2,0.1
			L326.5,426.9z M331.9,417.9c-0.9,0-1.6,0.2-2.2,0.6c-0.5,0.3-0.7,0.8-0.7,1.3s0.2,1,0.7,1.3c0.5,0.4,1.3,0.6,2.2,0.6
			c0.9,0,1.6-0.2,2.2-0.6c0.5-0.3,0.7-0.8,0.7-1.3c0-0.6-0.2-1-0.7-1.4C333.5,418.2,332.8,417.9,331.9,417.9z"/>
		<path class="st8" d="M347.2,418.1h-7.4c-0.2,0-0.3,0-0.4,0.1s-0.2,0.2-0.2,0.4h-0.3v-2.9h0.3c0.1,0.2,0.1,0.3,0.2,0.4
			s0.2,0.1,0.4,0.1h9.3c0.2,0,0.3,0,0.4-0.1s0.2-0.2,0.2-0.4h0.3v2.1l-5.3,8.3c-0.2,0.3-0.3,0.5-0.3,0.6c0,0.2,0.2,0.3,0.5,0.4v0.3
			h-4.2v-0.3c0.2-0.1,0.5-0.2,0.6-0.3c0.2-0.1,0.4-0.4,0.6-0.7L347.2,418.1z"/>
	</g>
</g>
</svg>
