<?xml version="1.0" encoding="utf-8"?>
<!-- Generator: Adobe Illustrator 18.1.1, SVG Export Plug-In . SVG Version: 6.00 Build 0)  -->
<svg version="1.1" id="Layer_1" xmlns="http://www.w3.org/2000/svg" xmlns:xlink="http://www.w3.org/1999/xlink" x="0px" y="0px"
	 width="600px" height="600px" viewBox="0 0 600 600" style="enable-background:new 0 0 600 600;" xml:space="preserve">
<style type="text/css">
	.st0{display:none;opacity:0.5;fill:#FFFFFF;stroke:#B2B0A1;stroke-width:12;stroke-miterlimit:10;enable-background:new    ;}
	.st1{fill:none;}
	.st2{fill:#21421D;}
	.st3{fill:#FFFFFF;}
	.st4{display:none;}
	.st5{display:inline;fill:url(#SVGID_1_);stroke:#FFFFFF;stroke-width:3;stroke-miterlimit:10;}
	.st6{display:inline;}
	.st7{display:inline;fill:#588C38;stroke:#006837;stroke-width:3;stroke-miterlimit:10;}
	.st8{fill:none;stroke:#FFFFFF;stroke-width:3;stroke-miterlimit:10;}
	.st9{enable-background:new    ;}
	.st10{fill:#FFFFCC;}
</style>
<circle class="st0" cx="295.8" cy="297.7" r="290"/>
<g>
	<path class="st1" d="M265.9,142.3c-1,1.5-2,3.1-3.1,4.6C263.8,145.3,264.8,143.8,265.9,142.3z"/>
	<path class="st1" d="M270.7,135c-0.8,1.3-1.7,2.6-2.6,3.9C269,137.6,269.8,136.3,270.7,135z"/>
	<path class="st1" d="M203.4,229.6c-15.4,20.1-30.8,39-46,56.9c-1.1,1.4-2.3,2.7-3.5,4.1c-2.3,2.7-4.7,5.4-7,8.1
		c-1,1.2-2.1,2.4-3.1,3.6C163.3,279.9,183.4,255.7,203.4,229.6c20.8-27,40.2-54.1,57.8-80.3c-1.2,1.8-2.5,3.7-3.7,5.5
		C240.9,179.3,222.8,204.4,203.4,229.6z"/>
	<path class="st1" d="M127.8,320.3c-6.4,7-12.7,13.9-18.9,20.5C115.1,334.2,121.4,327.3,127.8,320.3z"/>
	<path class="st1" d="M276.6,125.8c-0.9,1.4-1.7,2.7-2.6,4.1C274.8,128.5,275.7,127.2,276.6,125.8z"/>
	<path class="st1" d="M136.3,310.8c-0.9,1-1.8,2-2.7,3c-1.3,1.4-2.6,2.9-3.8,4.3c4.2-4.6,8.4-9.4,12.6-14.2
		c-1.1,1.3-2.3,2.6-3.4,3.9C138,308.8,137.2,309.8,136.3,310.8z"/>
	<path class="st1" d="M282.2,117c-0.7,1.2-1.5,2.3-2.2,3.5C280.7,119.4,281.5,118.2,282.2,117z"/>
	<path class="st1" d="M291.7,101.7c-1,1.6-1.9,3.1-2.9,4.7C289.8,104.8,290.8,103.3,291.7,101.7z"/>
	<path class="st1" d="M287.1,109.3c-0.8,1.3-1.7,2.7-2.5,4C285.4,111.9,286.2,110.6,287.1,109.3z"/>
	<path class="st1" d="M449.1,304.4c12.6,14.3,25,27.9,37,40.6h0C474.1,332.3,461.7,318.8,449.1,304.4z"/>
	<path class="st2" d="M104.9,345c1.3-1.4,2.7-2.8,4-4.2c6.2-6.6,12.5-13.4,18.9-20.5c0.7-0.7,1.3-1.5,2-2.2c1.3-1.4,2.6-2.9,3.8-4.3
		c0.9-1,1.8-2,2.7-3c0.9-1,1.8-2,2.7-3c1.1-1.3,2.3-2.6,3.4-3.9c0.5-0.6,1-1.1,1.5-1.7c1-1.2,2.1-2.4,3.1-3.6c2.3-2.7,4.6-5.4,7-8.1
		c1.2-1.4,2.3-2.7,3.5-4.1c15.2-17.8,30.6-36.8,46-56.9c19.4-25.2,37.5-50.3,54.1-74.8c1.3-1.9,2.5-3.7,3.7-5.5
		c0.5-0.8,1.1-1.6,1.6-2.4c1-1.5,2-3.1,3.1-4.6c0.8-1.1,1.5-2.3,2.3-3.4c0.9-1.3,1.7-2.6,2.6-3.9c1.1-1.7,2.2-3.4,3.3-5.1
		c0.9-1.4,1.8-2.7,2.6-4.1c1.1-1.8,2.3-3.5,3.4-5.3c0.7-1.2,1.5-2.3,2.2-3.5c0.8-1.3,1.6-2.5,2.4-3.8c0.8-1.3,1.7-2.7,2.5-4
		c0.6-1,1.2-1.9,1.8-2.9c1-1.6,1.9-3.1,2.9-4.7c0.5-0.8,1-1.6,1.4-2.4c0.8-1.3,1.6-2.6,2.3-3.8c-25.4,32.8-56.7,68.7-92.1,104.6
		C145.8,258.5,88.5,306.3,43.1,335.2c-1.5,0.9-2.9,1.8-4.3,2.7c-0.4,0.6-0.6,1.3-0.6,2.1c0,2.8,3.1,5,6.9,5H104.9L104.9,345
		L104.9,345z"/>
	<path class="st2" d="M104.9,345C104.9,345,104.9,345,104.9,345L104.9,345C104.9,345,104.9,345,104.9,345z"/>
	<path class="st2" d="M553.2,340.1c0,2.5-2.5,4.5-5.8,4.9h-61.3v0c-4.7-5-9.4-10-14.2-15.2c-1-1-1.9-2.1-2.9-3.1
		c-0.4-0.4-0.8-0.8-1.1-1.3c-0.6-0.6-1.2-1.3-1.7-1.9c-1-1.1-1.9-2.1-2.9-3.2v0c-3.1-3.4-6.2-6.9-9.4-10.4c-1.6-1.8-3.1-3.5-4.7-5.3
		c-20.1-22.9-40.8-47.9-61.5-74.8c-13.7-17.8-26.8-35.6-39.1-53.2c-4.6-6.5-9.1-13-13.5-19.5c-1.5-2.2-2.9-4.3-4.4-6.4
		c-2.3-3.4-4.6-6.8-6.8-10.2c-2.5-3.8-5-7.6-7.5-11.4c-2.4-3.8-4.8-7.5-7.2-11.3c-4.7-7.5-9.3-14.9-13.7-22.1
		c25.4,32.8,56.7,68.6,92.1,104.5c57.6,58.4,115,106.3,160.4,135.2c1.6,1,3.1,2,4.7,2.9C553,338.7,553.2,339.4,553.2,340.1z"/>
	<path class="st3" d="M295.5,95.5c-0.8,1.3-1.6,2.6-2.3,3.8c-0.5,0.8-1,1.6-1.4,2.4c-1,1.6-1.9,3.1-2.9,4.7c-0.6,1-1.2,1.9-1.8,2.9
		c-0.8,1.3-1.7,2.7-2.5,4c-0.8,1.2-1.6,2.5-2.4,3.8c-0.7,1.2-1.5,2.3-2.2,3.5c-1.1,1.8-2.3,3.5-3.4,5.3c-0.9,1.4-1.7,2.7-2.6,4.1
		c-1.1,1.7-2.2,3.4-3.3,5.1c-0.8,1.3-1.7,2.6-2.6,3.9c-0.7,1.1-1.5,2.3-2.3,3.4c-1,1.5-2,3.1-3.1,4.6c-0.5,0.8-1,1.6-1.6,2.4
		c-17.6,26.3-37,53.3-57.8,80.4c-20.1,26.1-40.1,50.3-59.6,72.6c-0.5,0.6-1,1.1-1.5,1.7c-4.2,4.8-8.4,9.6-12.6,14.2
		c-0.7,0.7-1.3,1.5-2,2.2c-6.4,7-12.7,13.9-18.9,20.5c-1.3,1.4-2.7,2.8-4,4.2h0h62.7c11.8-21,23.8-41,35.8-62.7
		C238.8,218.1,270.1,154.2,295.5,95.5z"/>
	<path class="st3" d="M104.8,345L104.8,345C104.8,345,104.8,345.1,104.8,345C104.8,345.1,104.8,345.1,104.8,345
		C104.9,345,104.9,345,104.8,345L104.8,345z"/>
	<path class="st3" d="M486.1,345L486.1,345C486.1,345,486.1,345,486.1,345C486.2,345.1,486.2,345.1,486.1,345
		C486.2,345,486.2,345,486.1,345L486.1,345z"/>
	<path class="st3" d="M387.6,229.6c-13.7-17.8-26.8-35.6-39.1-53.2c-19.6-27.8-37.4-55.1-53-80.9c25.4,58.7,56.7,122.7,92.1,186.8
		c12,21.7,24,41.7,35.8,62.7h62.7c-12-12.7-24.4-26.2-37-40.6C429,281.6,408.3,256.6,387.6,229.6z"/>
	<path class="st2" d="M295.5,95.5c-25.4,58.7-56.7,122.6-92.1,186.8c-12,21.7-24,41.7-35.8,62.7h55.1c27.5-87,52.1-170.3,72.8-249.2
		c20.7,78.9,45.3,162.2,72.8,249.2h55.1c-11.8-21-23.8-40.9-35.8-62.7C352.2,218.2,320.9,154.2,295.5,95.5z"/>
	<path class="st3" d="M222.7,345h49c8.4-86,16.4-168.1,23.9-249.2C274.8,174.7,250.2,258,222.7,345z"/>
	<path class="st3" d="M319.4,345h49c-27.5-87-52.1-170.3-72.8-249.2C303,176.9,311,259,319.4,345z"/>
	<path class="st2" d="M271.6,345h47.8C311,259,303,176.9,295.5,95.8C288,176.9,280,259,271.6,345z"/>
</g>
<g class="st4">
	
		<radialGradient id="SVGID_1_" cx="297.25" cy="321.7637" r="165.1012" gradientTransform="matrix(1 0 0 -0.917 0 578.2573)" gradientUnits="userSpaceOnUse">
		<stop  offset="0" style="stop-color:#753128"/>
		<stop  offset="1" style="stop-color:#421C17"/>
	</radialGradient>
	<path class="st5" d="M521.4,264.1c-40.7-22.9-125.6-38.6-223.1-38.6c-0.3,0-0.7,0-1,0s-0.7,0-1,0c-97.5,0-182.3,15.7-223.1,38.7
		c-0.2,0.1-0.6,0.3-0.8,0.4l38.8,76.3c45.7-14.1,111.9-23.1,185.1-23.1c0.3,0,0.7,0,1,0s0.7,0,1,0c73.3,0,139.6,8.9,185.1,23.1
		l38.7-76.3C521.9,264.4,521.7,264.3,521.4,264.1z"/>
	<g class="st6">
		<path class="st3" d="M110.3,296.4c-2.1-6.5-2.1-11.7,0-15.6c2.1-3.8,6.8-6.8,13.7-8.9c7-2.1,12.5-2.2,16.5-0.1
			c4.1,2,7.2,6.2,9.3,12.8c2.1,6.5,2.1,11.7,0,15.5s-6.8,6.8-13.7,8.9c-7,2.1-12.5,2.2-16.5,0.2
			C115.5,307.2,112.4,302.9,110.3,296.4z M120.8,293.3c1.6,4.6,3.4,7.8,5.5,9.4c2.1,1.7,4.8,2,8.1,1c3.3-0.9,5.3-2.7,6.1-5.3
			c0.8-2.5,0.5-6.1-1.1-10.7s-3.4-7.8-5.5-9.5s-4.8-2-8.1-1c-3.3,0.9-5.3,2.7-6.1,5.3C118.9,285.1,119.3,288.7,120.8,293.3z
			 M131.6,302.5c-2,0.1-3.8-0.6-5.3-2.2c-1.5-1.5-2.8-4-3.9-7.5c-1.4-4-1.7-7.1-1-9.3c0.7-2.2,2.3-3.7,5-4.5c2-0.6,3.6-0.6,5.1,0
			c1.4,0.6,2.7,1.8,3.9,3.7c-1.4-0.2-2.6-0.3-3.7-0.3c-1.1,0-2,0.1-2.8,0.3c-1.9,0.6-3,1.5-3.5,3c-0.5,1.4-0.1,3.6,0.9,6.6
			c0.7,2.1,1.5,3.9,2.4,5.6C129.4,299.5,130.4,301.1,131.6,302.5z M140.3,269.9c4.4,1.8,7.8,3.7,10,6c2.3,2.3,4.2,5.5,5.4,9.5
			c1.1,3.3,1.6,6.4,1.5,9.3c-0.1,3-0.7,5.7-1.9,8.2c-1.1,2.4-2.9,4.5-5.5,6.5c-2.5,2-5.3,3.4-8.4,4.3c-2.9,0.8-5.9,1.1-8.9,0.9
			c-3-0.3-6.3-1.1-9.7-2.5c2.3,0.3,4.5,0.3,6.6,0.1c2.3-0.2,4.7-0.7,7.3-1.5c7.3-2.2,12.2-5.5,14.5-9.7c2.4-4.3,2.4-10,0.1-16.9
			c-1.2-3.7-2.7-6.6-4.4-8.8C145.4,273.1,143.1,271.3,140.3,269.9z"/>
		<path class="st3" d="M161.8,300.1l-1.2-5.9l6.4-1.1l-4.8-23.9l-6.4,1.1l-1.2-5.9l27.6-5.1c3.9-0.7,6.8-1.1,8.3-1.1
			s2.9,0.1,3.9,0.5c1.6,0.6,2.8,1.5,3.9,2.9c1,1.3,1.7,2.9,2.1,4.9c0.6,2.9,0.2,5.3-1.1,7.3c-1.4,2.1-3.5,3.3-6.4,3.9l0.2,1.4
			l1.4-0.2c0.5-0.1,0.9,0,1.4,0.2s0.8,0.5,1,1l2.9,5.2c0.3,0.6,0.8,1,1.2,1.2s1,0.3,1.7,0.2l3.9-0.7l1.2,5.9l-10.1,1.9
			c-1.1,0.2-2.1,0.1-3-0.2c-0.9-0.4-1.6-1-2.3-2.1l-5-7.7c-0.8-1.3-1.7-2.2-2.6-2.7c-0.9-0.5-1.8-0.7-2.9-0.5l-7.8,1.4l1.9,9.7
			l6.4-1.1l1.2,5.9L161.8,300.1z M156.3,272.2l4.8-0.9l0.9,4.2L156.3,272.2z M162.3,302l23.6-4.3l-1.6-7.7l4.2,2.2l1.8,9l-22.4,4
			L162.3,302z M173.5,277.1l11.4-2.1c2.4-0.4,3.9-1.1,4.6-2c0.8-0.9,0.9-2.3,0.6-4c-0.3-1.7-1.1-2.8-2.3-3.4c-1.1-0.6-2.8-0.7-5-0.3
			l-11.4,2.1L173.5,277.1z M174.7,275l-1.2-5.9l9.9-1.8c1.4-0.2,2.5-0.2,3.4,0.2c0.8,0.4,1.4,1,1.6,2c0,0.2,0.1,0.4,0.1,0.6
			s0,0.3-0.1,0.5l-10.4,1.9l0.3,1.9L174.7,275z M179.9,287l0.3,1.8l-2.6,0.5l-1.2-5.9l5.9-1c0.7-0.1,1.4-0.1,1.8,0.2
			c0.5,0.2,1,0.7,1.5,1.4l1.2,1.9L179.9,287z M210,293.3l-1.6-7.7l4.3,2.7l1.7,8.5l-9.6,1.8c-1.2,0.2-2.4,0.2-3.4,0.1
			c-1-0.2-2-0.5-2.8-1l-3.7-2.4c0.6,0.2,1,0.4,1.6,0.4c0.5,0.1,1,0,1.6-0.1l0.7-0.1L210,293.3z M198.8,279.5
			c-0.1-0.3-0.3-0.6-0.7-0.8c-0.3-0.3-0.7-0.5-1.1-0.7c2.1-1,3.7-2.6,4.6-4.6c0.9-2.1,1.1-4.4,0.6-7c-0.3-1.9-1-3.4-1.9-4.6
			s-2-2.4-3.6-3.3l5.3,3.6c1,0.7,1.8,1.5,2.5,2.7c0.7,1,1.1,2.3,1.5,3.7c0.5,2.4,0.2,4.5-0.6,6.5c-0.9,2-2.4,3.9-4.6,5.7l2.3,1.5
			l0.1,0.1c1,0.7,1.8,1.4,2.3,2.3l-2.7,0.5c-0.3,0.1-0.6,0-0.8-0.1s-0.5-0.4-0.6-0.7L198.8,279.5z"/>
		<path class="st3" d="M229.4,283.4l6.5-0.7l0.7,6l-22.6,2.5l-0.7-6l6.5-0.7l-2.9-24.3l-6.5,0.7l-0.7-6l22.6-2.5l0.7,6l-6.5,0.7
			L229.4,283.4z M216.2,266.4l-5.4-3.5l5-0.5L216.2,266.4z M220,296.5l-5.6-3.5l24.2-2.6l-0.9-7.8l3.9,2.5l1.1,9.1L220,296.5z
			 M230.8,281.4l-2.5-20.4l6.5-0.7l-0.9-7.8l4.1,3.4l1,8.2l-6.5,0.7l2,16.3L230.8,281.4z"/>
		<path class="st3" d="M275.7,270.4l-5.5,0.2l-0.2-4.7l20.7-0.8l0.2,4.7l-5.7,0.2l0.8,15.9l-9.6,0.4l-0.2-4.7
			c-1.6,2.1-3.5,3.6-5.9,4.7s-5.1,1.8-8.2,1.9c-6,0.2-10.7-1.2-14.1-4.5c-3.4-3.2-5.3-8-5.5-14.2c-0.3-6.4,1.1-11.4,4.2-14.7
			c3-3.3,7.9-5.2,14.3-5.5c2.7-0.1,5.2,0.2,7.3,0.8c2.1,0.6,4.3,1.8,6.4,3.4l-0.2-3.6l9.1-0.4l0.5,9.3l-9.1,0.4
			c-1.8-1.5-3.6-2.6-5.5-3.3c-1.9-0.7-3.9-1-6.1-0.9c-3.5,0.1-6,1.3-7.5,3.6c-1.6,2.3-2.3,5.7-2,10.1c0.2,5,1.4,8.5,3.2,10.6
			c1.9,2.2,4.7,3.2,8.6,3c3-0.1,5.5-1.3,7.4-3.5C274.8,276.6,275.7,273.8,275.7,270.4z M250.9,288c1.9,0.8,3.9,1.3,5.9,1.7
			c1.9,0.3,3.9,0.4,6,0.4c2.1-0.1,4.2-0.5,6.1-1.1c1.9-0.7,3.9-1.8,6-3.1l0.2,3.6l0.8,0.6c-1.7,1.1-3.5,2.1-5.4,2.7s-3.8,1-5.9,1
			c-1.4,0.1-2.7-0.1-4.2-0.5s-2.7-0.9-3.9-1.8L250.9,288z M262,280.2c-2-0.3-3.6-1.3-4.6-3.2c-1-1.9-1.7-4.5-1.8-8.3
			c-0.2-4,0.3-7,1.6-9c1.2-1.9,3.3-2.9,6.1-3c2.3-0.1,4.3,0.2,6.2,0.9c1.9,0.7,3.6,1.9,5.2,3.3l11.3-0.5l-0.6-11.1l3.7,3.6l0.5,10
			l-12.5,0.5c-1.9-1.1-3.8-2-5.7-2.5c-1.9-0.5-3.8-0.7-5.9-0.6c-2.5,0.1-4.1,0.8-5,2.1c-0.9,1.3-1.2,3.6-1.1,6.8
			c0.1,2,0.3,3.8,0.8,5.5C260.5,276.8,261.1,278.6,262,280.2z M270.3,272.6l3.6-0.1c0,0.5-0.1,0.9-0.2,1.3s-0.3,0.8-0.5,1.3
			L270.3,272.6z M276.6,288.2l11.1-0.4l-0.8-15.9l5.7-0.2l-0.3-6.7l3.8,3.6l0.3,7l-5.7,0.2l0.8,15.9l-10.1,0.4L276.6,288.2z"/>
		<path class="st3" d="M303.2,292l-5.2-4.2l24.3,0.5l0.1-7.9l3.6,2.9l-0.2,9.2L303.2,292z M314.3,280.1l6.6,0.1l-0.1,6l-22.7-0.4
			l0.1-6l6.5,0.1l0.5-24.4l-6.5-0.1l0.1-6l22.7,0.4l-0.1,6l-6.6-0.1L314.3,280.1z M303.4,261.5l-5-4.2l5,0.1V261.5z M315.9,278.3
			l0.3-20.5l6.5,0.1l0.1-7.9l3.6,3.8l-0.1,8.3l-6.5-0.1l-0.3,16.4h-3.6V278.3z"/>
		<path class="st3" d="M326.8,287.9l22.7,2l0.7-7.8l3.3,3.7l-0.8,8.6l-21-1.9L326.8,287.9z M327,286l0.6-6l6.5,0.5l2.3-24.3
			l-6.5-0.5l0.6-6l20.6,1.8l12.5,28.3l1.9-21.1l-6.5-0.5l0.6-6l20.3,1.8l-0.6,6l-5.7-0.5l-2.7,30.2l-13.4-1.1l-13.1-28.5l-1.9,21.2
			l6.5,0.5l-0.6,6L327,286z M329.6,257.6l5,0.4l-0.3,4.2L329.6,257.6z M343.9,279.5l1.1-12.7l3,6.6l-0.6,6.5L343.9,279.5z
			 M352.7,251.6l4.5,5.2l-0.3,3.2l6.5,0.5l-1.1,12.5L352.7,251.6z M358.1,290.5l13.8,1.2l2.7-30.2l5.9,0.5l0.7-7.8l3.2,4.4l-0.8,8.3
			l-5.7-0.5l-2.7,29.8l-12.5-1L358.1,290.5z"/>
		<path class="st3" d="M381.7,292.5l21.3,4l1.6-7.7l2.9,3.7l-1.8,8.8l-19-3.6L381.7,292.5z M382.2,290.6l1.2-5.9l5.5,1l17.4-27.7
			l15.1,2.8l5.6,32l5.5,1l-1.2,5.9l-21.3-4l1.2-5.9l5.4,1l-1.4-7.2l-14.1-2.7l-3.9,6.3l5.5,1l-1.2,5.9L382.2,290.6z M400.2,286
			l1.8-2.9l11.9,2.3l0.5,3.3L400.2,286z M404,276.8l10.5,2l-2.6-14.9L404,276.8z M406.9,275.5l4.2-6.9l1,5.9l-1.1,1.8L406.9,275.5z
			 M409.7,297.8l22.8,4.3l1.6-7.7l2.8,4l-1.7,8.5l-21.6-4L409.7,297.8z M428.4,291.3l-5.4-30l5.5,9.3l3.6,21.5L428.4,291.3z"/>
		<path class="st3" d="M436.4,302.9l37.4,11.7l7-20.7l2.3,4.5l-7.1,21.1l-35.8-10.9L436.4,302.9z M437,301.2l1.9-5.7l6.3,2l7.9-23.1
			l-6.3-2l1.9-5.7l21.6,6.7l-1.9,5.7l-6.2-2l-7.9,23.1l11.8,3.7l4.5-13.2l8.7,2.7l-6.4,18.9L437,301.2z M449.6,279.5l-3.4-5.4
			l4.7,1.4L449.6,279.5z M456.4,298.9l6.6-19.5l6.3,2l2.6-7.5l2.3,4.7l-2.6,7.7l-6.2-2l-5.3,15.6L456.4,298.9z"/>
	</g>
</g>
<g class="st4">
	<path class="st7" d="M479.9,347.5c-40.1-11.7-104.5-19.2-178.2-19.2s-140.5,7.5-180.5,19.2c-2.5,1-4.8,1.9-8.8,2.6v107.1h372V349.8
		C483.4,349.1,482,348.5,479.9,347.5z"/>
	<g class="st6">
		<g>
			<path class="st3" d="M135.1,410.7v-32.9h16c3.3,0,5.7,0.9,7.3,2.6c1.5,1.8,2.3,3.8,2.3,6c0,1.6-0.4,3.1-1.3,4.4
				c-0.9,1.3-2.2,2.2-4,2.7c4.1,1,6.1,3.6,6.1,7.7c0,2.4-0.7,4.6-2.2,6.5c-1.4,1.9-4.5,2.9-9.2,2.9L135.1,410.7L135.1,410.7z
				 M144,390.3h4.5c1.1,0,1.9-0.3,2.4-0.9c0.5-0.6,0.7-1.2,0.7-1.9c0-1.8-1.1-2.7-3.2-2.7h-4.3L144,390.3L144,390.3z M144,403.3h4.7
				c1.2,0,2-0.3,2.6-0.9c0.5-0.6,0.8-1.3,0.8-2c0-0.8-0.3-1.4-0.8-2.1c-0.5-0.6-1.5-1-2.9-1H144L144,403.3L144,403.3z"/>
			<path class="st3" d="M182.9,410.7l-1.8-6.5h-8.4l-1.9,6.5h-7.9l9.7-32.9h10.3l9.9,32.9H182.9z M174.3,397h5.1l-2.5-9.5L174.3,397
				z"/>
			<path class="st3" d="M223.7,410.7H213l-4.6-12.6h-3v12.6h-9.7v-32.9h16.5c3.6,0,6.5,0.9,8.5,2.7c2,1.8,3,4.1,3,7
				c0,1.9-0.4,3.6-1.1,5c-0.7,1.4-2.2,2.7-4.5,3.8L223.7,410.7z M205.3,391h4.1c1.2,0,2.2-0.3,2.9-0.8s1.1-1.3,1.1-2.3
				c0-2.1-1.2-3.2-3.7-3.2h-4.5L205.3,391L205.3,391z"/>
			<path class="st3" d="M237.9,394.5v7.6h-11.7v-7.6H237.9z"/>
			<path class="st3" d="M241.3,410.7v-32.9h16c3.3,0,5.7,0.9,7.3,2.6c1.5,1.8,2.3,3.8,2.3,6c0,1.6-0.4,3.1-1.3,4.4s-2.2,2.2-4,2.7
				c4.1,1,6.1,3.6,6.1,7.7c0,2.4-0.7,4.6-2.2,6.5c-1.4,1.9-4.5,2.9-9.2,2.9L241.3,410.7L241.3,410.7z M250.2,390.3h4.5
				c1.1,0,1.9-0.3,2.4-0.9c0.5-0.6,0.7-1.2,0.7-1.9c0-1.8-1.1-2.7-3.2-2.7h-4.3L250.2,390.3L250.2,390.3z M250.2,403.3h4.7
				c1.2,0,2-0.3,2.6-0.9c0.5-0.6,0.8-1.3,0.8-2c0-0.8-0.3-1.4-0.8-2.1c-0.5-0.6-1.5-1-2.9-1h-4.4L250.2,403.3L250.2,403.3z"/>
			<path class="st3" d="M281.1,394.5v7.6h-11.7v-7.6H281.1z"/>
			<path class="st3" d="M301.5,410.8c-1.1,0.2-2.1,0.3-3.2,0.3c-4.5,0-8.2-1.6-10.9-4.7c-2.8-3.1-4.1-7.2-4.1-12.2s1.3-9,4-12.2
				s6.4-4.8,11.1-4.8c4.4,0,8,1.5,10.7,4.5c2.8,3,4.1,7.1,4.1,12.1c0,6.1-1.9,10.8-5.7,14c0.3,0.9,1.3,1.4,2.9,1.4
				c0.7,0,1.6-0.1,2.6-0.3v7.4c-1.7,0.2-3,0.3-4,0.3c-1.7,0-3.3-0.4-4.6-1.1C303.1,414.8,302.1,413.3,301.5,410.8z M298.1,403.8
				c1.6,0,2.8-0.7,3.5-2.2s1.1-4.2,1.1-8.2c0-5.7-1.5-8.6-4.4-8.6c-3.2,0-4.8,3.3-4.8,9.8C293.6,400.7,295.1,403.8,298.1,403.8z"/>
			<path class="st3" d="M342.8,377.8v21.8c0,4.1-1.2,7.1-3.5,8.9s-5.4,2.7-9.2,2.7c-4,0-7.2-0.9-9.6-2.6s-3.6-4.6-3.6-8.5v-22.3h9.8
				v21.1c0,1.6,0.3,2.7,1,3.4c0.6,0.7,1.7,1.1,3,1.1c1.2,0,2.1-0.3,2.9-0.8c0.7-0.5,1.2-1.1,1.3-1.8c0.1-0.7,0.2-1.9,0.2-3.9v-19.2
				L342.8,377.8L342.8,377.8z"/>
			<path class="st3" d="M371.6,402.8v7.9h-23.7v-32.9h23.7v7.6h-14.2v4.8h11.5v7.3h-11.5v5.4L371.6,402.8L371.6,402.8z"/>
			<path class="st3" d="M414.1,377.8v32.9h-9.7v-12.8H397v12.8h-9.7v-32.9h9.7v12.1h7.4v-12.1H414.1z"/>
			<path class="st3" d="M445.1,377.8v21.8c0,4.1-1.2,7.1-3.5,8.9s-5.4,2.7-9.2,2.7c-4,0-7.2-0.9-9.6-2.6s-3.6-4.6-3.6-8.5v-22.3h9.8
				v21.1c0,1.6,0.3,2.7,1,3.4c0.6,0.7,1.7,1.1,3,1.1c1.2,0,2.1-0.3,2.9-0.8c0.7-0.5,1.2-1.1,1.3-1.8c0.1-0.7,0.2-1.9,0.2-3.9v-19.2
				L445.1,377.8L445.1,377.8z"/>
			<path class="st3" d="M463.1,385.7v25h-9.2v-25h-6.5v-7.9h22.2v7.9H463.1z"/>
		</g>
		<line class="st8" x1="127.9" y1="363" x2="476.9" y2="363"/>
		<line class="st8" x1="128.1" y1="429.5" x2="244" y2="429.5"/>
		<line class="st8" x1="361.1" y1="429.5" x2="477" y2="429.5"/>
		<g class="st9">
			<path class="st10" d="M258.2,430.5v3.1h7.6c0.2,0,0.3,0,0.4-0.1c0.1-0.1,0.2-0.2,0.2-0.4h0.3v2.9h-0.3c-0.1-0.2-0.1-0.3-0.2-0.4
				c-0.1-0.1-0.2-0.1-0.4-0.1h-10.7v-0.3c0.2-0.1,0.4-0.1,0.4-0.2c0.1-0.1,0.1-0.2,0.1-0.4V425c0-0.2,0-0.3-0.1-0.4
				c-0.1-0.1-0.2-0.2-0.4-0.2v-0.3h10.5c0.2,0,0.3,0,0.4-0.1c0.1-0.1,0.2-0.2,0.2-0.4h0.3v2.9h-0.3c-0.1-0.2-0.1-0.3-0.2-0.4
				c-0.1-0.1-0.2-0.1-0.4-0.1h-7.4v2.7h4.8c0.2,0,0.3,0,0.4-0.1c0.1-0.1,0.2-0.2,0.2-0.4h0.3v2.8h-0.3c-0.1-0.2-0.1-0.3-0.2-0.4
				c-0.1-0.1-0.2-0.1-0.4-0.1L258.2,430.5L258.2,430.5z"/>
			<path class="st10" d="M279.4,425l-1.4,2.6l-0.2-0.1c0-0.1,0-0.1,0-0.1c0-0.2-0.2-0.4-0.5-0.6c-1-0.7-2.2-1-3.6-1
				c-0.6,0-1.1,0.1-1.6,0.2c-0.3,0.1-0.6,0.3-0.8,0.5c-0.2,0.2-0.3,0.5-0.3,0.7c0,0.4,0.3,0.7,0.8,0.9c0.3,0.1,0.9,0.2,1.8,0.2
				l1.4,0.1c0.8,0.1,1.5,0.2,2,0.3c0.5,0.1,0.9,0.3,1.3,0.6c0.4,0.3,0.7,0.6,0.9,1.1c0.2,0.4,0.3,0.9,0.3,1.4c0,0.8-0.3,1.5-0.8,2.1
				c-0.5,0.6-1.2,1-2.3,1.2c-0.8,0.2-1.6,0.3-2.4,0.3c-1.6,0-3.1-0.4-4.6-1.1c-0.3-0.1-0.5-0.2-0.6-0.2s-0.2,0.1-0.4,0.2l-0.3-0.1
				l1.3-2.8l0.3,0.1v0.1c0,0.2,0.1,0.5,0.4,0.7c0.4,0.3,1,0.6,1.7,0.8c0.7,0.2,1.5,0.3,2.2,0.3c0.8,0,1.4-0.1,2-0.4
				c0.3-0.1,0.5-0.3,0.7-0.5s0.3-0.5,0.3-0.7c0-0.4-0.2-0.6-0.6-0.8c-0.3-0.1-0.9-0.2-1.8-0.3l-1.3-0.1c-0.9-0.1-1.5-0.2-1.9-0.3
				s-0.7-0.2-1.1-0.4c-0.5-0.2-0.9-0.6-1.2-1.1c-0.3-0.4-0.4-1-0.4-1.5c0-1,0.3-1.7,1-2.4c0.9-0.8,2.2-1.2,4-1.2
				c0.8,0,1.5,0.1,2.1,0.2c0.7,0.1,1.5,0.4,2.4,0.8c0.3,0.1,0.5,0.2,0.6,0.2s0.3-0.1,0.4-0.2L279.4,425z"/>
			<path class="st10" d="M287.6,426v8.5c0,0.2,0,0.3,0.1,0.4c0.1,0.1,0.2,0.2,0.4,0.2v0.3h-3.7V435c0.2-0.1,0.4-0.1,0.4-0.2
				c0.1-0.1,0.1-0.2,0.1-0.4V426h-3.7c-0.2,0-0.3,0-0.4,0.1c-0.1,0.1-0.2,0.2-0.2,0.4h-0.3v-2.9h0.3c0.1,0.2,0.1,0.3,0.2,0.4
				c0.1,0.1,0.2,0.1,0.4,0.1h9.9c0.2,0,0.3,0,0.4-0.1c0.1-0.1,0.2-0.2,0.2-0.4h0.3v2.9h-0.3c-0.1-0.2-0.1-0.3-0.2-0.4
				c-0.1-0.1-0.2-0.1-0.4-0.1H287.6z"/>
			<path class="st10" d="M293.6,432.8c0.4,0,0.7,0.1,1,0.4s0.4,0.6,0.4,1c0,0.4-0.1,0.7-0.4,0.9c-0.3,0.3-0.6,0.4-1,0.4
				s-0.7-0.1-1-0.4s-0.4-0.6-0.4-1c0-0.4,0.1-0.7,0.4-0.9C292.9,433,293.3,432.8,293.6,432.8z"/>
			<path class="st10" d="M304.6,428.2v-3h0.3c0.1,0.2,0.1,0.3,0.2,0.4c0.1,0.1,0.1,0.1,0.3,0.1c0.1,0,0.1,0,0.2,0l0.7-0.2V425
				c0-0.2,0-0.3-0.1-0.4c-0.1-0.1-0.2-0.2-0.4-0.2V424h3.6v0.3c-0.2,0.1-0.4,0.1-0.4,0.2c-0.1,0.1-0.1,0.2-0.1,0.4v9.5
				c0,0.2,0,0.3,0.1,0.4c0.1,0.1,0.2,0.2,0.4,0.2v0.3h-3.6V435c0.2-0.1,0.4-0.1,0.4-0.2c0.1-0.1,0.1-0.2,0.1-0.4v-7l-0.8,0.2
				c-0.2,0-0.3,0.1-0.4,0.2c-0.1,0.1-0.2,0.2-0.2,0.4L304.6,428.2L304.6,428.2z"/>
			<path class="st10" d="M312.6,434.8l1.5-2.7l0.2,0.1c0,0.1-0.1,0.2-0.1,0.3c0,0.2,0.2,0.4,0.6,0.7c0.3,0.2,0.7,0.3,1.2,0.4
				c0.5,0.1,0.9,0.2,1.4,0.2c1,0,1.8-0.2,2.5-0.7c0.4-0.3,0.8-0.7,1-1.1c0.2-0.4,0.4-1,0.4-1.7c-0.6,0.5-1.2,0.9-1.8,1.1
				c-0.6,0.2-1.3,0.3-2.1,0.3c-1.3,0-2.3-0.3-3.2-0.8c-0.5-0.3-0.9-0.7-1.2-1.3c-0.3-0.5-0.4-1-0.4-1.6c0-1.2,0.5-2.1,1.5-2.8
				s2.3-1,3.8-1c1.7,0,3,0.4,3.9,1.2c0.6,0.5,1.1,1.2,1.4,2s0.4,1.6,0.4,2.5c0,1.8-0.6,3.2-1.7,4.3c-1.2,1.1-2.7,1.7-4.6,1.7
				c-0.7,0-1.2-0.1-1.8-0.2c-0.5-0.1-1.1-0.3-1.8-0.6c-0.2-0.1-0.4-0.2-0.6-0.2c-0.1,0-0.2,0-0.3,0.1c-0.1,0.1-0.1,0.1-0.2,0.1
				L312.6,434.8z M318,425.8c-0.9,0-1.6,0.2-2.2,0.6c-0.5,0.3-0.7,0.8-0.7,1.3s0.2,1,0.7,1.3c0.5,0.4,1.3,0.6,2.2,0.6
				c0.9,0,1.6-0.2,2.2-0.6c0.5-0.3,0.7-0.8,0.7-1.3c0-0.6-0.2-1-0.7-1.4C319.6,426,318.9,425.8,318,425.8z"/>
			<path class="st10" d="M325.3,434.8l1.5-2.7l0.2,0.1c0,0.1-0.1,0.2-0.1,0.3c0,0.2,0.2,0.4,0.6,0.7c0.3,0.2,0.7,0.3,1.2,0.4
				c0.5,0.1,0.9,0.2,1.4,0.2c1,0,1.8-0.2,2.5-0.7c0.4-0.3,0.8-0.7,1-1.1c0.2-0.4,0.4-1,0.4-1.7c-0.6,0.5-1.2,0.9-1.8,1.1
				c-0.6,0.2-1.3,0.3-2.1,0.3c-1.3,0-2.3-0.3-3.2-0.8c-0.5-0.3-0.9-0.7-1.2-1.3c-0.3-0.5-0.4-1-0.4-1.6c0-1.2,0.5-2.1,1.5-2.8
				s2.3-1,3.8-1c1.7,0,3,0.4,3.9,1.2c0.6,0.5,1.1,1.2,1.4,2s0.4,1.6,0.4,2.5c0,1.8-0.6,3.2-1.7,4.3c-1.2,1.1-2.7,1.7-4.6,1.7
				c-0.7,0-1.2-0.1-1.8-0.2c-0.5-0.1-1.1-0.3-1.8-0.6c-0.2-0.1-0.4-0.2-0.6-0.2c-0.1,0-0.2,0-0.3,0.1c-0.1,0.1-0.1,0.1-0.2,0.1
				L325.3,434.8z M330.6,425.8c-0.9,0-1.6,0.2-2.2,0.6c-0.5,0.3-0.7,0.8-0.7,1.3s0.2,1,0.7,1.3c0.5,0.4,1.3,0.6,2.2,0.6
				c0.9,0,1.6-0.2,2.2-0.6c0.5-0.3,0.7-0.8,0.7-1.3c0-0.6-0.2-1-0.7-1.4C332.3,426,331.6,425.8,330.6,425.8z"/>
			<path class="st10" d="M346,426h-7.4c-0.2,0-0.3,0-0.4,0.1c-0.1,0.1-0.2,0.2-0.2,0.4h-0.3v-2.9h0.3c0.1,0.2,0.1,0.3,0.2,0.4
				c0.1,0.1,0.2,0.1,0.4,0.1h9.3c0.2,0,0.3,0,0.4-0.1c0.1-0.1,0.2-0.2,0.2-0.4h0.3v2.1l-5.3,8.3c-0.2,0.3-0.3,0.5-0.3,0.6
				c0,0.2,0.2,0.3,0.5,0.4v0.3h-4.2V435c0.2-0.1,0.5-0.2,0.6-0.3c0.2-0.1,0.4-0.4,0.6-0.7L346,426z"/>
		</g>
	</g>
</g>
</svg>
