<?xml version="1.0" encoding="utf-8"?>
<!-- Generator: Adobe Illustrator 18.1.1, SVG Export Plug-In . SVG Version: 6.00 Build 0)  -->
<svg version="1.1" id="Layer_1" xmlns="http://www.w3.org/2000/svg" xmlns:xlink="http://www.w3.org/1999/xlink" x="0px" y="0px"
	 viewBox="0 0 600 600" style="enable-background:new 0 0 600 600;" xml:space="preserve">
<circle id="circle" style="opacity:0;fill:#FFFFFF;stroke:#5C7782;stroke-width:7;stroke-miterlimit:10;enable-background:new    ;" cx="299.3" cy="300.2" r="300"/>
<g id="ring_x5F_leaf" style="opacity:0;">
	<g>
		<g>
			<path style="fill:#588C38;stroke:#C9CEC6;stroke-width:4;stroke-miterlimit:10;" d="M297.7,567.9c0.1,0.1,0.1,0.2,0.3,0.2
				c0.2,0.1,0.5,0.1,0.9,0.1c0.4,0,0.8,0,1.4,0c9.1,0.2,18.6-0.2,27.9-1.4c3-0.4,6-0.8,9-1.4c3-0.5,5.9-1.3,8.6-1.9
				c1.4-0.3,2.7-0.6,4.2-0.9c1.4-0.3,2.6-0.8,4-1.3c2.5-0.8,5-1.7,7.3-2.5c0.6-0.3,1.4-0.5,2.1-0.8c0.6-0.3,1.4-0.6,1.9-0.8
				c1.3-0.5,2.4-1.3,3.5-1.8c7.2-3.7,10.2-7.2,12.3-10.1c0.9-1.4,1.4-2.5,1.8-3.8c0.4-1.3,0.8-2.3,2-3.9c0.6-0.8,0.2-0.9,0.3-1.6
				c0-0.1,0-0.2-0.4-0.2c-0.2,0.1-0.6,0.2-0.9,0.3c-4.3,1.6-8.7,3-13.1,4.5c-2.2,0.6-4.4,1.4-6.6,2.1c-2.2,0.6-4.3,1.4-6.5,2
				c-3,0.8-6,1.7-8.8,2.4c-3,0.8-5.9,1.4-8.7,2.2c-1.4,0.3-2.9,0.8-4.3,1.2c-1.4,0.3-2.9,0.6-4.2,0.8c-2.7,0.6-5.6,1.3-8.1,1.9
				c-3,0.6-6.3,1.4-8.7,2c-4.4,1.4-8.1,2.3-10.8,3.6c-2.7,1.3-4.5,2.4-5.7,3.7C296.7,564.6,296.7,566.3,297.7,567.9z"/>
			<path style="fill:#588C38;stroke:#C9CEC6;stroke-width:4;stroke-miterlimit:10;" d="M298.1,578c1.2,1.3,3,2.3,6.1,3.5
				c3,0.9,6.9,2.1,12.1,2.5c2.9,0.3,6.5,0.4,10.1,0.5c3,0,6.1-0.1,9.4-0.2c1.7-0.1,3.1-0.1,4.8-0.2c1.7-0.2,3.4-0.3,5-0.5
				c3.4-0.4,6.8-0.8,10.2-1.4c3.5-0.6,6.9-1.3,10.4-2c2.5-0.4,5.1-1.2,7.7-1.8c2.5-0.6,5.2-1.4,7.8-2c2.5-0.6,5.1-1.6,7.7-2.4
				c2.5-0.8,5.1-1.7,7.6-2.5c0.3-0.1,0.8-0.3,1.2-0.4c0.4-0.2,0.3-0.3,0.2-0.4c-0.4-0.3-0.8-0.5-1.4-0.8c-2.2-1.3-4.8-2.5-8.4-3.4
				c-3.8-0.9-8.3-1.6-16.8-0.9c-1.3,0.1-2.5,0.2-4,0.3c-0.6,0.1-1.4,0.1-2.2,0.2c-0.8,0.1-1.6,0.1-2.3,0.2c-2.5,0.3-5.2,0.6-8.1,0.9
				c-1.4,0.1-2.7,0.4-4.2,0.5c-1.4,0.1-2.9,0.2-4.3,0.4c-3,0.2-5.9,0.6-9,0.9c-3,0.2-6.1,0.5-9.1,0.8c-9.4,0.9-18.7,2.1-28,2.5
				c-0.4,0-0.9,0.1-1.4,0.1c-0.4,0-0.8,0.1-0.9,0.2c-0.2,0.1-0.3,0.2-0.3,0.2C296.7,574.6,296.6,576.3,298.1,578z"/>
		</g>
		<g>
			<path style="fill:#588C38;stroke:#C9CEC6;stroke-width:4;stroke-miterlimit:10;" d="M400.7,546.9c0.1,0.1,0.2,0.1,0.4,0.1
				c0.2,0,0.5-0.1,0.9-0.2c0.4-0.1,0.8-0.3,1.4-0.4c8.6-3.5,17-7.3,25.2-12.1c2.6-1.6,5.2-3,7.8-4.7c2.4-1.7,4.8-3.5,7.3-5.1
				c1.3-0.8,2.3-1.7,3.5-2.5c1.2-0.8,2.1-1.8,3.1-2.6c2.1-1.8,4-3.6,5.8-5.2c2.1-2.2,4-4.3,5.6-6.2c1.4-1.6,2.4-3,3.4-4.3
				c0.8-1.4,1.6-2.6,2.1-3.8c1.2-2.3,1.7-4.2,2.1-6c0.8-3.4-0.4-5,0.5-8.6c0.3-0.9-0.1-0.9-0.2-1.6c0-0.1-0.1-0.2-0.4,0
				c-0.2,0.1-0.5,0.4-0.8,0.6c-0.8,0.8-1.7,1.6-2.5,2.3c-0.8,0.8-1.8,1.6-2.6,2.3c-1.8,1.6-3.6,3-5.2,4.7c-1.8,1.6-3.6,3-5.2,4.5
				c-1.8,1.4-3.6,3-5.2,4.4c-9.7,7.8-19.6,14.8-28.3,21.3c-2.5,1.8-5.2,3.7-7.3,5.2c-3.7,3-6.5,5.2-8.6,7.5c-2,2.1-3.4,4-3.8,5.7
				C398.3,544.3,399,545.9,400.7,546.9z"/>
			<path style="fill:#588C38;stroke:#C9CEC6;stroke-width:4;stroke-miterlimit:10;" d="M404.9,556.2c1.6,0.6,3.8,0.9,6.9,0.8
				c1.6-0.1,3.5-0.3,5.5-0.6c2.1-0.3,4.3-0.8,6.8-1.7c2.7-0.8,6.2-2.1,9.4-3.5c11.1-4.7,23.5-11.3,35.2-19.4c2.1-1.4,4.2-3,6.3-4.7
				c2.1-1.6,4.3-3,6.4-4.8c2.1-1.8,4.1-3.5,6.2-5.2c0.9-0.8,2-1.8,3-2.6c0.9-0.8,2-1.8,2.9-2.7c0.3-0.3,0.5-0.5,0.8-0.8
				c0.3-0.4,0.2-0.4,0.1-0.4c-0.5-0.1-1.2-0.1-1.6-0.2c-2.5-0.3-5.5-0.3-9,0.2c-1.9,0.3-4,0.6-6.5,1.6c-1.3,0.4-2.6,0.9-4.1,1.7
				c-1.6,0.6-3.1,1.4-5.1,2.3c-2.2,1.2-4.7,2.4-7.6,4c-2.2,1.4-4.7,2.6-7,4c-1.3,0.6-2.4,1.4-3.7,2.1c-1.3,0.6-2.5,1.4-3.9,2.1
				c-2.6,1.4-5.2,2.9-7.9,4.3c-2.6,1.4-5.5,2.7-8.1,4.3c-8.3,4.5-16.4,9.1-24.8,13.1c-0.4,0.2-0.8,0.4-1.3,0.6
				c-0.3,0.2-0.6,0.4-0.8,0.5c-0.2,0.2-0.2,0.3-0.2,0.3C402.2,553.6,402.7,555.1,404.9,556.2z"/>
		</g>
		<g>
			<path style="fill:#588C38;stroke:#C9CEC6;stroke-width:4;stroke-miterlimit:10;" d="M487.5,488.1c0.1,0,0.2,0,0.4-0.1
				c0.2-0.1,0.5-0.3,0.8-0.5c0.3-0.2,0.6-0.5,0.9-0.8c1.7-1.7,3.4-3.1,5-4.8s3-3.5,4.7-5.1c1.6-1.8,3-3.6,4.7-5.2
				c1.4-1.9,2.9-3.7,4.3-5.6c3.8-4.7,7-10,10.2-14.8c1.4-2.4,2.7-5,4.1-7.5c1.3-2.4,2.4-4.7,3.4-6.9c1.2-2.9,2.1-5.5,2.7-7.8
				c0.6-1.9,0.9-3.7,1.4-5.2c0.3-1.6,0.4-3,0.5-4.2c0.1-2.5,0-4.5-0.2-6.3c-0.5-3.5-2.4-4.5-2.7-8.2c-0.1-1.2-0.5-0.8-0.8-1.4
				c-0.1-0.1-0.2-0.2-0.4,0.2c-0.1,0.2-0.3,0.5-0.4,0.8c-0.4,0.9-0.9,2.1-1.4,3c-0.4,1.2-0.9,2.1-1.4,3c-0.9,2.1-2.1,4.2-3,6.3
				c-0.5,1.2-0.9,2.1-1.6,3c-0.5,0.9-1.2,2-1.7,3c-1.2,2-2.1,4.1-3.1,6.1c-0.6,1.4-1.4,2.7-2.2,4c-0.8,1.4-1.6,2.6-2.3,4
				c-0.8,1.4-1.6,2.6-2.2,4c-0.8,1.4-1.6,2.5-2.3,3.9c-1.6,2.5-3,5.1-4.5,7.6c-1.6,2.4-3,4.7-4.4,7c-1.6,2.7-3.5,5.5-4.7,7.7
				c-1.2,2-2.1,3.9-3,5.7c-0.8,1.7-1.6,3.1-2.1,4.5c-1.2,2.7-1.6,5-1.4,6.6C484.3,486.4,485.4,487.5,487.5,488.1z"/>
			<path style="fill:#588C38;stroke:#C9CEC6;stroke-width:4;stroke-miterlimit:10;" d="M494.9,494.8c1.7,0,3.9-0.5,6.8-2
				c1.4-0.6,3-1.6,4.7-2.6c1.7-1.2,3.6-2.5,5.6-4.1c2.2-1.9,5-4.2,7.5-6.8c2.1-2.1,4.3-4.4,6.4-6.8c2.1-2.4,4.2-5,6.3-7.7
				c1.2-1.4,2.1-2.6,3.1-4c0.9-1.4,2-2.7,3-4.2c0.9-1.4,2-2.9,3-4.3c0.9-1.4,2-2.9,2.9-4.4c1.4-2.2,2.7-4.4,4.1-6.6
				c0.6-1.2,1.4-2.2,2.1-3.5c0.6-1.3,1.4-2.3,1.9-3.6c1.3-2.3,2.5-4.7,3.8-7l0.8-1.8l0.8-1.8c0.5-1.3,1.2-2.4,1.7-3.7
				c0.1-0.3,0.3-0.8,0.4-1.2c0.1-0.5,0-0.5-0.1-0.4c-0.5,0.1-0.9,0.2-1.6,0.3c-2.4,0.6-5.2,1.8-8.2,3.7c-1.7,0.9-3.5,2.1-5.6,3.9
				c-0.9,0.8-2.1,1.9-3.1,3c-1.2,1.3-2.3,2.5-3.8,4.2c-1.7,1.9-3.6,4.1-5.5,6.5c-1.4,2.1-3.1,4.2-5,6.4c-1.8,2.2-3.5,4.5-5.2,6.8
				c-3.9,4.5-7.6,9.4-11.5,14.1c-1.4,1.9-2.9,3.8-4.3,5.6c-1.6,1.8-3,3.7-4.4,5.5c-1.4,1.8-2.9,3.7-4.4,5.5l-4.7,5.2
				c-0.3,0.3-0.6,0.8-0.8,1.2s-0.4,0.6-0.5,0.8c-0.1,0.2-0.1,0.3-0.1,0.4C491.4,493.4,492.6,494.8,494.9,494.8z"/>
		</g>
		<g>
			<path style="fill:#588C38;stroke:#C9CEC6;stroke-width:4;stroke-miterlimit:10;" d="M545,400.2c0.1,0,0.2,0,0.3-0.2
				c0.1-0.2,0.3-0.4,0.5-0.8c0.2-0.3,0.4-0.8,0.5-1.3c0.8-2.1,1.9-4.2,2.6-6.4c0.7-2.2,1.6-4.3,2.3-6.5c1.7-4.3,2.9-8.8,4.1-13.4
				c0.4-1.4,0.8-2.9,1.2-4.4c0.3-1.4,0.5-3,0.8-4.4c0.5-3,1.2-5.9,1.6-8.7c0.3-2.9,0.6-5.7,0.8-8.4c0.1-1.4,0.2-2.6,0.3-4
				c0.1-1.4,0-2.5,0-3.8c0-3-0.2-5.9-0.4-8.2c-0.1-2-0.4-3.8-0.8-5.2c-0.3-1.6-0.8-2.9-1.3-4.1c-0.8-2.4-1.8-4.2-2.6-5.8
				c-1.8-2.9-4-3.1-5.8-6.4c-0.5-0.9-0.8-0.6-1.3-0.8c-0.1-0.1-0.2-0.1-0.3,0.3c0,0.2-0.1,0.6-0.1,0.9c0,4.7-0.4,9.3-0.6,14
				c-0.1,1.3-0.1,2.3-0.2,3.6c-0.1,1.2-0.2,2.3-0.3,3.5c-0.2,2.3-0.4,4.5-0.6,6.9l-0.2,2.3c-0.1,0.8-0.2,1.6-0.3,2.3
				c-0.2,1.6-0.4,3-0.5,4.5c-0.4,3-0.6,6.1-1.3,9c-0.4,3-0.8,5.9-1.3,8.6c-0.4,2.7-0.9,5.6-1.4,8.2c-0.2,1.6-0.4,3-0.6,4.7
				c-0.2,1.6-0.5,3-0.6,4.2c-0.3,2.3-0.5,4.4-0.5,6.3c0,0.9-0.1,1.9-0.1,2.6c0,0.8,0,1.7,0,2.3c0,3,0.4,5.1,1.3,6.6
				C541.5,399.9,542.9,400.6,545,400.2z"/>
			<path style="fill:#588C38;stroke:#C9CEC6;stroke-width:4;stroke-miterlimit:10;" d="M554.5,403.7c3-1.3,7.6-5.6,12.4-14.7
				c0.6-1.4,1.4-2.7,2.2-4.3c0.6-1.6,1.4-3.1,2-4.8c1.2-2.7,2.3-5.8,3.5-8.7c0.9-3,2-6.2,3-9.6c0.9-3.1,1.8-6.6,2.5-10
				c0.3-1.7,0.8-3.5,1.2-5.1l0.5-2.5l0.4-2.6c0.4-2.5,0.8-5.1,1.3-7.8c0.2-1.4,0.4-2.6,0.5-4c0.1-1.4,0.2-2.6,0.4-4
				c0.4-5.2,1.2-10.8,1.2-16c0-0.4,0-0.8,0-1.2c-0.1-0.5-0.2-0.4-0.3-0.4c-0.4,0.3-0.8,0.6-1.4,0.9c-2.1,1.6-4.1,3.6-6.2,6.5
				c-1.2,1.6-2.3,3.4-3.6,5.7c-0.5,1.3-1.3,2.5-1.8,4.1c-0.5,1.6-1.2,3.4-1.9,5.2c-0.8,2.3-1.7,5.1-2.5,8.1
				c-0.3,1.3-0.5,2.5-0.9,3.9c-0.3,1.4-0.8,2.6-1.2,4c-0.8,2.6-1.6,5.5-2.3,8.3c-0.8,2.7-1.8,5.7-2.5,8.6c-0.4,1.4-0.8,2.9-1.3,4.4
				c-0.4,1.4-0.8,2.9-1.4,4.4c-0.6,2.3-1.4,4.5-1.9,6.9l-0.4,1.7l-0.5,1.7l-0.9,3.4c-0.6,2.2-1.4,4.4-2,6.8
				c-0.6,2.2-1.6,4.4-2.3,6.6c-0.1,0.4-0.3,0.8-0.4,1.4c-0.1,0.4-0.2,0.8-0.2,0.9c0,0.2,0,0.3,0.1,0.4
				C550.7,403.7,552.3,404.5,554.5,403.7z"/>
		</g>
		<g>
			<path style="fill:#588C38;stroke:#C9CEC6;stroke-width:4;stroke-miterlimit:10;" d="M564.3,297.1c0.1-0.1,0.2-0.1,0.2-0.3
				c0.1-0.2,0.1-0.5,0.1-0.9c0-0.4,0-0.8,0-1.4c0-2.3,0-4.7,0-6.9c0-2.3-0.2-4.7-0.3-6.9c-0.1-2.3-0.3-4.7-0.4-6.9
				c-0.2-2.3-0.5-4.7-0.8-6.9l-0.6-4.5l-0.3-2.2c-0.1-0.8-0.3-1.4-0.4-2.2c-0.6-3-1.4-5.9-2-8.6c-0.5-2.9-1.6-5.6-2.3-8.1
				c-0.8-2.5-1.7-5-2.5-7.3c-1.3-2.7-2.4-5.2-3.7-7.5c-0.8-1.8-1.8-3.4-2.7-4.7c-0.8-1.4-1.9-2.4-2.6-3.4c-1.7-1.9-3.4-3.1-4.7-4.2
				c-2.7-2-4.8-1.4-7.8-3.8c-0.8-0.6-0.9-0.2-1.6-0.3c-0.1,0-0.2,0-0.2,0.4c0.1,0.2,0.2,0.6,0.3,0.9c0.4,1.2,0.8,2.1,1.3,3.1
				c0.3,1.2,0.8,2.2,1.2,3.4c0.8,2.2,1.6,4.4,2.3,6.6c0.4,1.2,0.8,2.2,1.2,3.4s0.6,2.2,0.9,3.4c0.6,2.2,1.4,4.4,2.1,6.5
				c1.6,6,3.5,11.9,4.7,17.6c0.3,1.4,0.8,2.9,1.2,4.3c0.2,0.6,0.3,1.4,0.5,2.1c0.2,0.6,0.3,1.4,0.4,2.1c0.6,2.7,1.3,5.6,1.9,8.1
				c0.2,0.8,0.4,1.6,0.5,2.3c0.2,0.8,0.3,1.6,0.5,2.3c0.3,1.6,0.6,2.9,0.9,4.2c0.6,2.2,1.3,4.2,1.9,6c0.6,1.8,1.2,3.4,1.8,4.7
				c1.3,2.6,2.4,4.5,3.7,5.7C560.8,298.3,562.6,298.3,564.3,297.1z"/>
			<path style="fill:#588C38;stroke:#C9CEC6;stroke-width:4;stroke-miterlimit:10;" d="M574.2,296.6c1.3-1.2,2.3-3.1,3.5-6.2
				c0.5-1.6,0.9-3.1,1.4-5.2c0.3-2,0.6-4.3,0.8-6.9c0.1-1.4,0.2-3,0.3-4.7c0-0.8,0.1-1.8,0.1-2.6c0-0.8,0-1.8,0-2.6
				c0-3-0.1-6.1-0.3-9.4c0-0.8-0.1-1.7-0.1-2.4c-0.1-0.8-0.1-1.7-0.2-2.4c-0.2-1.7-0.3-3.4-0.5-5c-0.6-6.8-2.1-13.6-3.5-20.6
				c-0.5-2.5-1.3-5.1-1.9-7.7c-0.6-2.5-1.3-5.2-2.1-7.8c-0.8-2.5-1.7-5.1-2.4-7.7c-0.4-1.3-0.8-2.5-1.3-3.8
				c-0.4-1.3-0.9-2.4-1.4-3.8c-0.1-0.3-0.3-0.8-0.4-1.2c-0.2-0.4-0.3-0.3-0.4-0.2c-0.3,0.4-0.5,0.8-0.8,1.4
				c-1.4,2.2-2.3,4.8-3.1,8.4c-0.4,1.9-0.8,4-1.2,6.6c-0.1,1.4-0.1,2.7-0.1,4.4c0,1.7,0.1,3.6,0.2,5.7c0.1,2.5,0.4,5.2,0.8,8.4
				c0.3,2.5,0.6,5.2,0.9,8.1c0.3,2.7,0.8,5.7,0.9,8.6c0.3,3,0.5,5.9,0.9,9c0.2,1.6,0.3,3,0.4,4.5c0.1,1.6,0.3,3,0.4,4.5
				c0.3,2.3,0.5,4.7,0.8,6.9c0.2,2.3,0.4,4.7,0.8,6.9c0.2,2.3,0.5,4.7,0.8,6.9l0.4,6.9c0,0.4,0.1,0.9,0.1,1.4s0.1,0.8,0.2,0.9
				c0.1,0.2,0.2,0.3,0.2,0.3C570.9,298.1,572.5,298.3,574.2,296.6z"/>
		</g>
		<g>
			<path style="fill:#588C38;stroke:#C9CEC6;stroke-width:4;stroke-miterlimit:10;" d="M542.4,194.5c0.1-0.1,0.1-0.2,0.1-0.4
				c0-0.2-0.1-0.5-0.2-0.9s-0.3-0.8-0.4-1.4c-0.8-2.1-1.8-4.2-2.6-6.4c-0.4-1.2-0.8-2.1-1.4-3.1l-1.6-3c-0.9-2.1-2.1-4.2-3-6.3
				c-1.2-2.1-2.3-4.1-3.6-6.1c-3-5.2-6.5-10.3-10-15c-1.7-2.3-3.6-4.4-5.2-6.5c-0.8-0.9-1.8-2-2.6-3c-0.4-0.4-0.8-0.9-1.4-1.4
				c-0.4-0.4-0.8-0.8-1.4-1.4c-2.2-2.1-4.3-4-6.2-5.5c-0.8-0.6-1.6-1.3-2.2-1.8c-0.8-0.5-1.4-0.9-2.1-1.4c-1.4-0.8-2.5-1.6-3.8-2.1
				c-2.3-1.2-4.2-1.7-6-2.1c-3.4-0.8-5.1,0.5-8.6-0.4c-0.9-0.3-0.9,0.1-1.6,0.2c-0.1,0-0.2,0.1,0,0.4c0.1,0.2,0.4,0.5,0.6,0.8
				c6.3,6.6,12.6,14,18.4,20.8c0.9,1.2,1.9,2.4,2.9,3.7c1,1.3,1.9,2.4,2.9,3.7s1.9,2.4,2.9,3.6c0.8,1.3,1.8,2.4,2.6,3.7
				c1.8,2.4,3.7,4.7,5.2,6.9c1.7,2.3,3.4,4.5,4.8,6.8c2,2.4,3.7,5.2,5.2,7.3c1.4,1.8,2.7,3.5,4.1,4.7c1.3,1.4,2.3,2.6,3.5,3.7
				c2.1,2,4,3.1,5.6,3.8C539.8,196.9,541.3,196.1,542.4,194.5z"/>
			<path style="fill:#588C38;stroke:#C9CEC6;stroke-width:4;stroke-miterlimit:10;" d="M551.6,190.2c0.6-1.6,0.8-3.8,0.8-6.9
				c-0.1-1.6-0.3-3.5-0.6-5.5c-0.4-2-0.9-4.2-1.8-6.6c-0.4-1.4-0.9-3-1.6-4.5c-0.3-0.8-0.5-1.7-0.8-2.4c-0.3-0.8-0.6-1.7-0.9-2.4
				c-1.3-2.7-2.5-5.7-3.9-8.6c-0.6-1.4-1.4-2.9-2.2-4.3s-1.6-2.9-2.4-4.4c-0.8-1.4-1.7-3-2.5-4.4c-0.8-1.4-1.9-2.9-2.7-4.4
				c-0.9-1.4-1.9-2.9-2.9-4.4c-0.9-1.4-1.9-3-3-4.3c-6-8.3-12.7-17-20.2-24.7c-0.3-0.3-0.5-0.5-0.8-0.8c-0.4-0.3-0.4-0.2-0.4-0.1
				c-0.1,0.5-0.1,1.2-0.2,1.6c-0.3,2.5-0.3,5.5,0.3,9c0.3,1.9,0.6,4,1.6,6.5c0.4,1.3,0.9,2.6,1.7,4.1c0.3,0.8,0.6,1.6,1.2,2.3
				c0.4,0.8,0.8,1.8,1.4,2.6c1.2,2.2,2.4,4.7,4,7.6c0.3,0.5,0.6,1.2,0.9,1.7c0.3,0.5,0.6,1.2,0.9,1.8c0.6,1.3,1.4,2.3,2,3.6
				c0.6,1.3,1.4,2.4,2.1,3.7c0.8,1.3,1.4,2.4,2.1,3.8c1.4,2.6,2.9,5.2,4.3,7.9l1.2,2c0.3,0.6,0.6,1.4,1.2,2c0.6,1.4,1.4,2.6,2.2,4
				c1.2,2.1,2.3,4.1,3.6,6.1c1.2,2.1,2.2,4.1,3.4,6.2l1.7,3c0.5,0.9,1.2,2,1.7,3l3,6.3c0.2,0.4,0.4,0.8,0.6,1.3
				c0.2,0.3,0.4,0.6,0.5,0.8c0.2,0.2,0.3,0.2,0.4,0.2C549,193,550.7,192.3,551.6,190.2z"/>
		</g>
		<g>
			<path style="fill:#588C38;stroke:#C9CEC6;stroke-width:4;stroke-miterlimit:10;" d="M482.7,108.3c0-0.1,0-0.2-0.1-0.4
				c-0.1-0.2-0.3-0.5-0.5-0.8c-0.2-0.3-0.5-0.6-0.8-0.9c-1.7-1.7-3.1-3.4-4.8-4.8c-1.8-1.6-3.5-3-5.2-4.7c-3.5-3.1-7.2-6-10.8-8.8
				c-1.3-0.8-2.4-1.9-3.7-2.6c-1.3-0.8-2.5-1.7-3.8-2.5s-2.5-1.7-3.8-2.4c-1.3-0.8-2.4-1.7-3.8-2.3c-5.1-2.7-9.9-5.6-14.4-7.2
				c-2.9-1.2-5.5-2.1-7.8-2.7c-3.9-1.2-6.9-1.6-9.6-1.8c-1.3-0.1-2.4-0.1-3.5,0s-2,0.2-2.9,0.3c-3.5,0.5-4.4,2.4-8.1,2.9
				c-1.2,0.1-0.8,0.5-1.4,0.8c-0.1,0.1-0.2,0.2,0.2,0.4c0.2,0.1,0.5,0.3,0.8,0.4c2.1,0.9,4.2,1.9,6.3,2.9c2.1,0.9,4.2,2.1,6.3,3
				c2.1,0.9,4.2,2,6.3,3c2,1.2,4.1,2.1,6.1,3.1c10.8,5.9,21.5,12.1,30.5,17.8c1.4,0.8,2.7,1.7,4,2.4c1.4,0.8,2.5,1.6,3.7,2.2
				c2,1.2,3.9,2.1,5.6,2.9c0.8,0.4,1.7,0.8,2.4,1.2c0.8,0.3,1.4,0.6,2.2,0.8c2.7,1.2,5,1.4,6.5,1.4
				C481.1,111.5,482.4,110.3,482.7,108.3z"/>
			<path style="fill:#588C38;stroke:#C9CEC6;stroke-width:4;stroke-miterlimit:10;" d="M489.5,100.8c0-1.7-0.5-3.9-2-6.8
				c-0.3-0.6-0.8-1.4-1.3-2.3c-0.4-0.8-0.9-1.6-1.6-2.4c-1.2-1.7-2.5-3.6-4.2-5.6c-0.8-1.2-2-2.4-3.1-3.7c-1.3-1.3-2.4-2.4-3.7-3.7
				c-8.6-8.6-19.6-17.2-31.5-24.7c-2.2-1.4-4.4-2.7-6.6-4.1c-1.2-0.6-2.3-1.4-3.5-2c-1.3-0.6-2.3-1.3-3.6-1.9
				c-2.3-1.3-4.7-2.5-7-3.8c-2.4-1.2-4.8-2.2-7.3-3.4c-0.3-0.1-0.8-0.3-1.2-0.4c-0.5-0.1-0.5,0-0.4,0.1c0.1,0.5,0.2,0.9,0.3,1.6
				c0.6,2.4,1.8,5.2,3.8,8.2c0.9,1.6,2.2,3.4,4,5.5c1.8,2,4,4.3,7.3,6.9c1.9,1.7,4.1,3.6,6.5,5.5c4.2,2.9,8.6,6.6,13.3,10.2
				c2.3,1.8,4.7,3.8,6.9,5.7c1.3,0.8,2.4,1.9,3.7,2.7c1.3,0.8,2.3,2,3.6,2.9c3.7,3,7.6,5.8,11.1,8.7c1.8,1.4,3.7,2.9,5.5,4.4
				c1.8,1.4,3.6,3,5.2,4.5c0.3,0.3,0.8,0.6,1.2,0.8c0.3,0.2,0.6,0.4,0.8,0.5c0.2,0.1,0.3,0.1,0.4,0.1
				C488.2,104.3,489.5,103.2,489.5,100.8z"/>
		</g>
		<g>
			<path style="fill:#588C38;stroke:#C9CEC6;stroke-width:4;stroke-miterlimit:10;" d="M394.6,51.6c0-0.1,0-0.2-0.2-0.3
				c-0.2-0.1-0.4-0.3-0.8-0.5c-0.3-0.2-0.8-0.4-1.3-0.5l-3.1-1.4l-3.1-1.3c-2.2-0.8-4.3-1.6-6.5-2.3c-2.2-0.8-4.4-1.4-6.6-2.1
				c-2.2-0.6-4.5-1.3-6.8-1.9c-1.4-0.4-3-0.8-4.4-0.9c-1.4-0.3-3-0.5-4.4-0.8c-3-0.5-5.9-1.3-8.7-1.4c-2.9-0.3-5.7-0.6-8.4-0.8
				c-2.6-0.3-5.2-0.2-7.8-0.2c-3,0-5.9,0.2-8.2,0.4c-4,0.5-7,1.3-9.4,2.1c-2.4,0.8-4.2,1.8-5.7,2.7c-2.9,1.9-3.1,4-6.4,5.8
				c-0.9,0.5-0.5,0.8-0.8,1.3c-0.1,0.1-0.1,0.2,0.3,0.3c0.2,0,0.6,0.1,0.9,0.1c2.3,0.1,4.7,0.1,6.9,0.2c2.3,0.1,4.7,0.3,6.9,0.4
				c2.3,0.1,4.7,0.2,6.9,0.4c2.3,0.2,4.5,0.4,6.9,0.6c1.6,0.1,3,0.2,4.7,0.3c1.6,0.2,3,0.3,4.5,0.5c3,0.4,6.1,0.6,9,1.2
				c5.9,0.9,11.7,1.6,16.9,2.5c1.6,0.2,3,0.4,4.7,0.6c1.6,0.2,3,0.3,4.3,0.5c4.5,0.6,8.3,0.8,11.3,0.5c3,0,5.1-0.4,6.5-1.3
				C394.4,55.2,394.9,53.5,394.6,51.6z"/>
			<path style="fill:#588C38;stroke:#C9CEC6;stroke-width:4;stroke-miterlimit:10;" d="M398,42.2c-0.6-1.6-2-3.5-4.4-5.6
				c-2.4-2-5.8-4.3-10.3-6.8c-0.6-0.3-1.4-0.8-2-1.2c-0.8-0.3-1.6-0.6-2.3-0.9c-1.6-0.6-3.1-1.4-4.8-2c-5.6-2.4-11.8-4.2-18.3-6.2
				c-3.1-0.8-6.6-1.7-10-2.4c-1.7-0.3-3.5-0.8-5.1-1.2c-1.8-0.3-3.5-0.5-5.2-0.8c-2.5-0.4-5.1-0.8-7.8-1.3c-2.6-0.4-5.2-0.5-8-0.8
				c-2.6-0.2-5.2-0.4-8-0.6c-2.6-0.1-5.2-0.2-8-0.2c-0.4,0-0.8,0-1.2,0c-0.5,0.1-0.4,0.2-0.4,0.3c0.3,0.4,0.6,0.8,0.9,1.4
				c1.6,2,3.7,4.1,6.6,6.1c1.6,0.9,3.4,2.3,5.8,3.6c2.4,1.3,5.5,2.4,9.4,3.6c2.3,0.8,5.1,1.7,8.1,2.5c5.1,1.2,10.5,2.7,16.2,4.2
				c2.9,0.6,5.8,1.7,8.6,2.4c1.4,0.4,2.9,0.8,4.4,1.3l2.2,0.5l2.2,0.6c2.3,0.6,4.5,1.4,6.9,1.9c1.2,0.3,2.3,0.5,3.5,0.8
				c1.2,0.3,2.2,0.6,3.4,0.9c2.2,0.6,4.4,1.4,6.8,2l3.4,0.9l3.4,1.3c0.4,0.1,0.8,0.3,1.4,0.4c0.5,0.1,0.8,0.2,0.9,0.2s0.3,0,0.4-0.1
				C398.1,45.8,398.8,44.3,398,42.2z"/>
		</g>
		<g>
			<path style="fill:#588C38;stroke:#C9CEC6;stroke-width:4;stroke-miterlimit:10;" d="M291.3,33.2c-0.1-0.1-0.1-0.2-0.3-0.2
				c-0.2-0.1-0.5-0.1-0.9-0.1s-0.8,0-1.4,0c-1.2,0-2.3,0-3.5,0c-1.2,0-2.3,0-3.5,0.1c-2.3,0.1-4.7,0.2-6.9,0.3l-3.6,0.2l-1.8,0.1
				l-1.8,0.2c-2.3,0.3-4.7,0.6-6.9,0.8l-4.5,0.6c-1.4,0.3-3,0.5-4.4,0.8c-3,0.6-5.9,1.4-8.6,2c-2.7,0.8-5.5,1.7-8.1,2.4
				c-2.5,0.8-5,1.7-7.2,2.6c-2.7,1.3-5.2,2.4-7.5,3.7c-1.8,0.8-3.4,1.9-4.5,2.7c-1.4,0.8-2.4,1.9-3.4,2.6c-1.9,1.7-3,3.4-4.2,4.7
				c-2,2.9-1.4,5-3.7,7.8c-0.6,0.8-0.2,0.9-0.3,1.6c0,0.1,0,0.2,0.4,0.1c0.2-0.1,0.6-0.2,0.9-0.3c1.2-0.4,2.1-0.8,3.1-1.3l1.7-0.6
				l1.7-0.5c2.2-0.8,4.4-1.6,6.6-2.3c1.2-0.4,2.2-0.8,3.4-1.3c1.2-0.3,2.2-0.6,3.4-0.9c2.2-0.6,4.3-1.4,6.5-2.1l2.2-0.6l2.2-0.6
				c1.4-0.4,3-0.8,4.4-1.3c1.4-0.4,2.9-0.8,4.3-1.4c1.4-0.4,2.9-0.8,4.3-1.2c2.9-0.8,5.8-1.4,8.6-2.2c2.7-0.6,5.6-1.3,8.1-2
				c1.6-0.4,3-0.8,4.5-1.3c1.4-0.3,2.9-0.6,4.2-0.9c2.2-0.6,4.2-1.3,6-1.9c0.8-0.3,1.8-0.6,2.5-0.9c0.8-0.3,1.6-0.5,2.2-0.8
				c2.6-1.3,4.5-2.4,5.7-3.7C292.6,36.7,292.6,34.9,291.3,33.2z"/>
			<path style="fill:#588C38;stroke:#C9CEC6;stroke-width:4;stroke-miterlimit:10;" d="M290.9,23.3c-1.2-1.3-3.1-2.3-6.2-3.5
				c-0.8-0.2-1.6-0.5-2.4-0.8c-0.8-0.2-1.8-0.4-2.7-0.5c-2-0.3-4.3-0.6-6.9-0.8c-1.4-0.1-3-0.2-4.7-0.3c-1.7,0-3.6,0-5.2,0
				c-3,0-6.1,0.1-9.4,0.3c-3.1,0.3-6.5,0.6-9.9,0.9c-1.7,0.2-3.5,0.3-5.1,0.6c-1.7,0.3-3.5,0.5-5.1,0.8c-1.7,0.3-3.5,0.6-5.2,0.9
				l-2.5,0.4c-0.8,0.2-1.7,0.4-2.5,0.6c-2.5,0.6-5,1.3-7.7,1.9c-1.4,0.3-2.5,0.6-3.9,0.9c-1.3,0.4-2.5,0.8-3.9,1.3
				c-2.5,0.8-5.1,1.7-7.7,2.4l-1.9,0.6l-1.9,0.8c-1.3,0.4-2.4,0.9-3.7,1.4c-0.3,0.1-0.8,0.3-1.2,0.4c-0.4,0.2-0.3,0.3-0.2,0.4
				c0.4,0.3,0.8,0.5,1.4,0.8c2.2,1.4,4.8,2.3,8.4,3c1.9,0.4,4,0.8,6.6,1.2c1.4,0.1,2.7,0.1,4.4,0.1c1.7-0.1,3.5-0.2,5.6-0.3
				c2.5-0.1,5.2-0.4,8.4-0.8c2.5-0.4,5.2-0.8,8-1.2c2.7-0.3,5.7-0.8,8.6-1.2c3-0.3,5.9-0.5,9-0.9c1.6-0.2,3-0.4,4.5-0.5
				c1.6-0.1,3-0.3,4.5-0.4c2.3-0.2,4.7-0.5,6.9-0.8c1.2-0.2,2.3-0.3,3.5-0.4l3.5-0.3c2.3-0.2,4.7-0.5,6.9-0.8
				c1.2-0.1,2.3-0.2,3.5-0.3l3.6-0.2c0.4,0,0.9-0.1,1.4-0.1s0.8-0.1,0.9-0.2c0.2-0.1,0.3-0.2,0.3-0.2
				C292.5,26.6,292.5,24.8,290.9,23.3z"/>
		</g>
		<g>
			<path style="fill:#588C38;stroke:#C9CEC6;stroke-width:4;stroke-miterlimit:10;" d="M189.1,56c-0.1-0.1-0.2-0.1-0.4-0.1
				s-0.5,0.1-0.9,0.2c-0.4,0.1-0.8,0.3-1.4,0.4c-2.1,0.8-4.3,1.8-6.4,2.6c-2.1,0.9-4.2,2-6.3,3c-4.2,2-8.3,4.3-12.3,6.8
				c-1.4,0.8-2.6,1.6-3.9,2.3c-1.3,0.8-2.5,1.7-3.8,2.5c-2.4,1.8-5,3.4-7.2,5.2c-2.2,1.8-4.4,3.7-6.5,5.5c-0.9,0.8-2,1.8-3,2.6
				c-0.8,0.8-1.8,1.8-2.6,2.6c-2.1,2.2-4,4.3-5.5,6.1c-2.5,3.1-4.1,5.9-5.2,8.2c-1.2,2.3-1.7,4.2-2,6c-0.8,3.5,0.6,5.1-0.4,8.6
				c-0.3,0.9,0.2,0.9,0.2,1.6c0,0.1,0.1,0.2,0.4,0c0.2-0.1,0.5-0.4,0.8-0.6c1.7-1.6,3.4-3.1,5-4.7c1.8-1.6,3.5-3,5.2-4.7
				c0.8-0.8,1.8-1.6,2.5-2.3c0.8-0.8,1.7-1.6,2.6-2.3c1.8-1.4,3.6-3,5.2-4.4c9.6-7.9,19.3-15.4,27.9-21.7c1.3-0.9,2.5-1.9,3.8-2.9
				c1.3-0.8,2.4-1.8,3.5-2.5c7.2-5.9,11.2-10.1,12.1-13.1C191.5,58.6,190.9,57.1,189.1,56z"/>
			<path style="fill:#588C38;stroke:#C9CEC6;stroke-width:4;stroke-miterlimit:10;" d="M184.8,46.9c-3-1.3-9.3-1.4-19.1,1.9
				c-1.4,0.4-3,0.9-4.5,1.6c-1.6,0.6-3.1,1.4-4.7,2.1c-11.2,4.7-23.3,11.8-34.6,19.9c-2.1,1.6-4.2,3-6.3,4.7l-1.6,1.3l-1.6,1.3
				c-0.9,0.8-2.1,1.7-3,2.5c-2.1,1.8-4.1,3.5-6.1,5.2c-2,1.9-3.9,3.7-5.8,5.6c-0.3,0.3-0.5,0.5-0.8,0.8c-0.3,0.4-0.2,0.4-0.1,0.4
				c0.5,0.1,1.2,0.1,1.7,0.2c2.5,0.3,5.5,0.3,9-0.3c1.9-0.3,4-0.8,6.5-1.7c2.5-0.8,5.6-2.1,9.1-4.2c2.2-1.2,4.7-2.4,7.6-4
				c1.2-0.6,2.2-1.4,3.4-2.1c1.2-0.6,2.3-1.4,3.6-2.1c2.4-1.4,4.8-2.9,7.5-4.3c2.5-1.4,5.2-2.9,7.9-4.3c1.4-0.8,2.6-1.6,4-2.3
				c1.4-0.8,2.6-1.4,4-2.2c2.1-1.2,4.1-2.3,6.1-3.6l1.6-0.8l1.6-0.8l3-1.7c2-1.2,4.1-2.3,6.1-3.5s4.1-2.1,6.2-3.1
				c0.4-0.2,0.8-0.4,1.3-0.6c0.3-0.2,0.6-0.4,0.8-0.5c0.2-0.2,0.2-0.3,0.2-0.4C187.5,49.5,186.9,47.8,184.8,46.9z"/>
		</g>
		<g>
			<path style="fill:#588C38;stroke:#C9CEC6;stroke-width:4;stroke-miterlimit:10;" d="M103.6,116.4c-0.1,0-0.2,0-0.4,0.1
				c-0.2,0.1-0.5,0.3-0.8,0.5c-0.3,0.2-0.6,0.5-0.9,0.8l-2.4,2.4l-2.3,2.5c-1.6,1.8-3,3.5-4.7,5.2c-1.6,1.7-3,3.6-4.4,5.5
				c-1.4,1.9-2.9,3.7-4.3,5.6c-1.8,2.4-3.5,5-5.1,7.5c-0.8,1.3-1.7,2.5-2.4,3.8c-0.8,1.3-1.4,2.5-2.2,3.8c-1.4,2.5-2.7,5-4,7.5
				c-1.3,2.4-2.2,4.8-3,7c-1.2,2.9-2.1,5.5-2.6,7.8c-1.2,3.9-1.6,6.9-1.7,9.6c-0.1,2.5,0.2,4.5,0.4,6.3c0.5,3.5,2.4,4.4,2.9,8.1
				c0.1,1.2,0.5,0.8,0.8,1.4c0.1,0.1,0.2,0.2,0.4-0.2c0.1-0.2,0.3-0.5,0.4-0.8c0.9-2.1,1.9-4.2,2.9-6.3c0.4-1.2,0.8-2.1,1.4-3.1
				l1.6-3c0.9-2.1,2-4.2,3-6.3c1-2.2,2.1-4.1,3.1-6.1c2.7-5.6,6-10.8,8.7-16.1c1.6-2.5,3-5.1,4.4-7.6c0.8-1.3,1.4-2.4,2.1-3.7
				c0.8-1.3,1.4-2.3,2.1-3.5c1.7-2.6,3.1-5.6,4.5-7.8c2.3-4,3.9-7.5,4.8-10.3c0.9-2.7,1.4-4.8,1.4-6.5
				C106.8,117.8,105.5,116.7,103.6,116.4z"/>
			<path style="fill:#588C38;stroke:#C9CEC6;stroke-width:4;stroke-miterlimit:10;" d="M96,109.6c-1.7,0-3.9,0.5-6.8,2
				c-2.7,1.4-6.2,3.8-10.2,6.9c-1.2,0.8-2.3,2-3.6,3.1c-1.3,1.3-2.4,2.4-3.7,3.7c-0.9,1.2-2.1,2.2-3.1,3.4c-1.2,1.2-2.1,2.3-3,3.6
				c-2.1,2.4-4.2,5-6.3,7.7c-4,5.5-8.2,11.1-11.8,17.2c-1.4,2.2-2.7,4.4-4.1,6.6c-1.3,2.3-2.5,4.7-3.8,6.9
				c-2.6,4.7-4.7,9.7-6.9,14.4c-0.1,0.3-0.3,0.8-0.4,1.2c-0.1,0.4,0,0.5,0.1,0.4c0.5-0.1,0.9-0.2,1.6-0.4c2.5-0.6,5.2-1.8,8.2-3.8
				c1.7-0.9,3.4-2.3,5.2-4c2-1.8,4.3-4.1,6.9-7.3c1.6-2,3.5-4.1,5.2-6.6c1.6-2.1,3-4.3,4.7-6.5c1.8-2.2,3.6-4.4,5.2-6.9
				c0.8-1.2,1.8-2.3,2.6-3.6c0.8-1.3,1.9-2.3,2.9-3.6c1.9-2.3,3.7-4.8,5.7-7.2c1.4-1.9,2.9-3.7,4.3-5.6c1.4-1.9,2.7-3.8,4.3-5.6
				c1.4-1.8,2.9-3.7,4.3-5.5l2.2-2.7l2.3-2.6c0.3-0.3,0.6-0.8,0.8-1.2c0.2-0.3,0.4-0.6,0.5-0.8c0.1-0.2,0.1-0.3,0.1-0.4
				C99.6,111,98.3,109.6,96,109.6z"/>
		</g>
		<g>
			<path style="fill:#588C38;stroke:#C9CEC6;stroke-width:4;stroke-miterlimit:10;" d="M47.7,204.9c-0.1,0-0.2,0-0.3,0.2
				c-0.1,0.2-0.3,0.5-0.5,0.8c-0.2,0.3-0.4,0.8-0.5,1.3c-1.8,4.2-3.1,8.6-4.8,13c-1.4,4.4-2.6,9-3.9,13.5c-0.6,3-1.3,6-1.9,8.8
				c-0.2,1.4-0.5,2.9-0.8,4.4c-0.2,1.4-0.3,2.9-0.5,4.3c-0.3,2.9-0.6,5.7-0.8,8.4c-0.1,2.6-0.1,5.2-0.1,7.8c0,3,0.1,5.8,0.5,8.2
				c0.5,4,1.3,6.9,2.1,9.4c0.2,0.5,0.4,1.2,0.6,1.7c0.2,0.5,0.4,0.9,0.8,1.4c0.5,0.8,0.9,1.8,1.6,2.5c1.9,2.9,4,3,5.8,6.3
				c0.5,0.8,0.8,0.5,1.3,0.8c0.1,0.1,0.2,0.1,0.3-0.3c0-0.2,0.1-0.6,0.1-0.9c0.2-4.5,0.1-9.3,0.4-14c0.1-2.3,0.2-4.7,0.3-6.9
				c0.1-2.3,0.4-4.5,0.5-6.8c0.1-1.6,0.2-3,0.4-4.7l0.2-2.3l0.3-2.3c0.3-3,0.8-6,0.9-9c0.1-1.4,0.4-2.9,0.5-4.4
				c0.2-1.4,0.4-2.9,0.5-4.3c0.3-2.9,0.6-5.7,1.2-8.2c0.4-3,0.9-6.3,1.3-9c1.2-9.1,0.5-15-0.8-17.8
				C51.3,205.1,49.7,204.4,47.7,204.9z"/>
			<path style="fill:#588C38;stroke:#C9CEC6;stroke-width:4;stroke-miterlimit:10;" d="M38.2,201.6c-3.1,1.3-7.3,5.8-12.2,14.8
				c-1.3,2.5-2.6,6-4,9.1c-0.5,1.4-1.3,2.7-1.7,4.3c-0.4,1.4-0.9,3-1.4,4.5c-0.9,3-2,6.2-2.9,9.6c-0.8,3.4-1.6,6.6-2.3,10
				c-0.2,0.8-0.3,1.7-0.5,2.5l-0.4,2.5c-0.3,1.8-0.5,3.5-0.8,5.2c-0.3,2.5-0.8,5.1-1.3,7.8c-0.2,2.6-0.5,5.2-0.8,8
				c-0.6,5.2-0.6,10.8-0.8,16c0,0.4,0,0.8,0,1.2c0.1,0.5,0.2,0.4,0.3,0.4c0.4-0.3,0.8-0.6,1.4-0.9c2-1.6,4.1-3.7,6.1-6.6
				c1.2-1.6,2.1-3.4,3.4-5.8c1.3-2.4,2.4-5.5,3.6-9.4c0.6-2.4,1.6-5.1,2.4-8.2c0.5-2.5,1.3-5.1,1.9-7.9c0.8-2.6,1.6-5.5,2.3-8.3
				c0.3-1.4,0.8-2.9,1.2-4.3c0.4-1.4,0.8-2.9,1.3-4.3c0.8-2.9,1.7-5.9,2.3-8.8c1.4-4.5,2.5-9.1,3.7-13.6c1.4-4.4,2.5-9,4-13.4
				c0.1-0.4,0.3-0.8,0.4-1.4c0.1-0.4,0.2-0.8,0.2-0.9c0-0.2,0-0.3-0.1-0.4C41.9,201.5,40.3,200.8,38.2,201.6z"/>
		</g>
		<g>
			<path style="fill:#588C38;stroke:#C9CEC6;stroke-width:4;stroke-miterlimit:10;" d="M30.3,308c-0.1,0.1-0.2,0.1-0.2,0.3
				c-0.1,0.2-0.1,0.5-0.1,0.9c0,0.4,0,0.8,0,1.4c0,1.2,0,2.3,0,3.5l0.1,3.5c0.1,2.3,0.2,4.7,0.3,6.9c0.1,1.2,0.1,2.3,0.2,3.5
				l0.4,3.5c0.3,2.3,0.6,4.7,0.8,6.9l0.3,2.2l0.4,2.2c0.3,1.4,0.6,3,0.8,4.4c0.3,1.4,0.6,2.9,0.9,4.3c0.1,0.6,0.3,1.4,0.4,2.1
				c0.2,0.6,0.4,1.4,0.5,2.1c1.7,5.6,3.1,10.8,5.2,15.2c1.3,2.7,2.4,5.2,3.7,7.5c2,3.6,3.9,6,5.7,7.9c1.7,1.9,3.1,3,4.7,4.1
				c2.9,2,4.8,1.4,7.8,3.6c0.8,0.6,0.9,0.2,1.6,0.3c0.1,0,0.2,0,0.1-0.4c-0.1-0.2-0.2-0.6-0.3-0.9c-0.8-2.1-1.7-4.3-2.5-6.4
				c-0.8-2.2-1.6-4.4-2.3-6.5c-0.8-2.2-1.7-4.3-2.3-6.5s-1.4-4.3-2.1-6.5c-0.4-1.4-0.9-2.9-1.4-4.4c-0.4-1.4-0.8-3-1.3-4.4
				c-0.4-1.4-0.8-2.9-1.4-4.3c-0.5-1.4-0.8-2.9-1.3-4.3c-1.4-5.8-3-11.3-4.3-16.5c-0.4-1.6-0.8-3-1.3-4.5c-0.2-0.8-0.4-1.4-0.6-2.2
				c-0.2-0.6-0.3-1.4-0.5-2c-1.3-4.4-2.5-8-3.9-10.6c-1.3-2.6-2.4-4.5-3.7-5.6C33.7,306.9,32,307,30.3,308z"/>
			<path style="fill:#588C38;stroke:#C9CEC6;stroke-width:4;stroke-miterlimit:10;" d="M20.3,308.8c-1.3,1.3-2.3,3.1-3.4,6.2
				c-0.8,3-1.7,6.9-2.2,12.1c-0.1,0.8-0.1,1.4-0.2,2.3c0,0.8,0,1.7,0,2.4c0,1.7,0,3.6,0,5.2c0.1,3,0,6.2,0.4,9.3
				c0.3,3.1,0.6,6.5,0.9,9.9c0.1,1.7,0.4,3.4,0.8,5.1c0.3,1.7,0.5,3.5,0.8,5.1s0.6,3.5,0.9,5.2c0.3,1.7,0.8,3.5,1.3,5.1
				c0.6,2.5,1.3,5,1.9,7.7c0.3,1.4,0.6,2.5,1.2,3.9c0.4,1.3,0.8,2.5,1.3,3.9c0.8,2.5,1.7,5.1,2.5,7.7c0.9,2.5,1.9,5,2.9,7.5
				c0.1,0.3,0.3,0.8,0.4,1.2c0.2,0.4,0.3,0.3,0.4,0.2c0.2-0.4,0.5-0.8,0.8-1.4c1.3-2.2,2.3-5,3-8.4c0.3-1.9,0.8-4,0.9-6.6
				c0.2-2.6,0.1-5.9-0.4-10c-0.1-2.5-0.4-5.2-0.8-8.4c-0.9-5.1-1.6-10.8-2.4-16.5c-0.1-0.8-0.2-1.4-0.3-2.2s-0.1-1.4-0.2-2.2
				c-0.2-1.4-0.3-3-0.5-4.5c-0.2-1.6-0.4-3-0.5-4.5c-0.1-0.8-0.2-1.6-0.3-2.2l-0.2-2.3c-0.2-2.3-0.5-4.7-0.8-6.9
				c-0.2-1.2-0.3-2.3-0.5-3.5c-0.2-1.2-0.2-2.3-0.4-3.5c-0.2-2.3-0.5-4.7-0.8-6.9l-0.4-3.5c-0.1-1.2-0.1-2.3-0.2-3.5
				c0-0.4-0.1-0.9-0.1-1.4c0-0.4-0.1-0.8-0.2-0.9c-0.1-0.2-0.2-0.3-0.2-0.3C23.7,307.2,22,307.1,20.3,308.8z"/>
		</g>
		<g>
			<path style="fill:#588C38;stroke:#C9CEC6;stroke-width:4;stroke-miterlimit:10;" d="M53.9,410.1c-0.1,0.1-0.1,0.2-0.1,0.4
				c0,0.2,0.1,0.5,0.2,0.9c0.1,0.4,0.3,0.8,0.4,1.4c0.4,1.2,0.8,2.1,1.4,3.1c0.4,0.9,0.9,2.1,1.4,3c0.9,2.1,2,4.2,3,6.3
				c0.9,2.1,2.1,4.1,3.4,6.2c1.3,2,2.3,4.1,3.6,6.1c6.4,10.3,13.9,20,21.1,26.8c1.2,1.2,2.2,2,3.1,3c0.5,0.4,0.9,0.8,1.6,1.4
				c0.5,0.4,0.9,0.8,1.6,1.2c3.1,2.4,5.9,4.1,8.2,5.1c1.2,0.5,2.2,0.8,3.1,1.3c0.9,0.3,2,0.5,2.9,0.6c3.4,0.6,5.1-0.6,8.6,0.3
				c0.9,0.3,0.9-0.2,1.6-0.2c0.1,0,0.2-0.1,0-0.4c-0.1-0.2-0.4-0.5-0.6-0.8c-3-3.5-6.5-6.6-9.6-10.2c-1.6-1.8-3-3.5-4.7-5.1
				c-1.6-1.8-3-3.6-4.4-5.2c-4.1-4.7-7.8-9.6-11.5-14.1c-3.6-4.7-7.2-9.1-10.3-13.6c-0.9-1.3-1.9-2.5-2.9-3.8
				c-0.9-1.3-1.9-2.3-2.6-3.5c-2.9-3.7-5.5-6.3-7.7-8.3c-2.1-2-4-3.1-5.6-3.7C56.5,407.5,54.9,408.4,53.9,410.1z"/>
			<path style="fill:#588C38;stroke:#C9CEC6;stroke-width:4;stroke-miterlimit:10;" d="M44.9,414.6c-0.6,1.6-0.8,3.9-0.6,7
				c0.3,3,1.3,7,2.6,12.1c0.2,0.6,0.4,1.4,0.8,2.2c0.3,0.8,0.6,1.6,0.8,2.3c0.6,1.6,1.4,3.1,2.1,4.7c2.3,5.6,5.5,11.2,8.7,17.2
				c1.8,2.9,3.6,5.8,5.5,8.7c1.8,3,3.9,5.8,6,8.6c1.6,2.1,3,4.2,4.7,6.3c1.7,2,3.4,4.1,5.1,6.2c3.4,4.2,7,8,10.8,11.9
				c0.3,0.3,0.5,0.5,0.8,0.8c0.4,0.3,0.4,0.2,0.4,0.1c0.1-0.5,0.1-1.2,0.2-1.7c0.3-2.5,0.3-5.5-0.4-9c-0.2-0.8-0.3-1.9-0.6-3
				c-0.3-0.9-0.6-2.2-0.9-3.5c-0.8-2.5-2.1-5.6-4.2-9.1c-0.3-0.5-0.6-1.2-0.8-1.7c-0.3-0.5-0.6-1.3-0.9-1.9
				c-0.6-1.3-1.4-2.5-2.2-3.9c-5.7-8.6-11.3-19.5-17.6-30c-1.2-2.1-2.3-4.1-3.6-6.1l-1.8-3c-0.6-0.9-1.2-2-1.8-3
				c-1.2-2-2.3-4.1-3.5-6.1c-0.5-0.9-1.2-2-1.7-3l-1.6-3c-0.2-0.4-0.4-0.8-0.6-1.3c-0.2-0.3-0.4-0.6-0.5-0.8
				c-0.2-0.2-0.3-0.2-0.4-0.2C47.4,411.9,45.7,412.4,44.9,414.6z"/>
		</g>
		<g>
			<path style="fill:#588C38;stroke:#C9CEC6;stroke-width:4;stroke-miterlimit:10;" d="M115,495c0,0.1,0,0.2,0.1,0.4
				c0.1,0.2,0.3,0.5,0.5,0.8c0.2,0.3,0.5,0.6,0.8,0.9c3.4,3.1,6.8,6.3,10.2,9.4c3.7,2.9,7.2,5.9,11.1,8.6c5,3.5,10,6.9,15.1,9.7
				c1.3,0.6,2.5,1.4,3.8,2.1c1.3,0.6,2.4,1.4,3.7,1.9c2.4,1.2,4.8,2.1,7,3c1.4,0.5,2.7,1.2,4.1,1.6s2.5,0.8,3.8,0.9
				c3.9,1.2,6.9,1.7,9.4,1.7c2.5,0,4.5-0.2,6.3-0.5c3.4-0.6,4.4-2.4,8-2.9c1.2-0.1,0.8-0.5,1.4-0.8c0.1-0.1,0.2-0.2-0.2-0.4
				c-0.2-0.1-0.5-0.2-0.8-0.4c-2.1-0.9-4.2-1.9-6.3-2.9c-2.1-0.9-4.3-1.8-6.4-2.9c-2.1-0.9-4.2-2-6.3-3c-0.9-0.4-2.1-0.9-3-1.4
				c-0.9-0.5-2-1.2-3-1.6c-11.1-5.5-21.5-11.9-30.8-17.2c-2.6-1.6-5.5-3.4-7.9-4.4c-8.1-4.5-13.6-6.2-16.9-6
				C116.4,491.7,115.3,493,115,495z"/>
			<path style="fill:#588C38;stroke:#C9CEC6;stroke-width:4;stroke-miterlimit:10;" d="M108.3,502.7c-0.1,3.5,2.5,9,9.1,16.9
				c1.9,2.1,4.5,4.7,6.9,7.2c8.7,8.2,19.7,16.9,31.9,24.1c1.2,0.6,2.2,1.4,3.4,2c1.2,0.6,2.3,1.4,3.5,1.9c2.3,1.3,4.7,2.5,6.9,3.8
				c2.3,1.4,4.7,2.3,7.2,3.6c2.4,1.2,4.8,2.2,7.3,3.4c0.3,0.2,0.8,0.3,1.2,0.4c0.5,0.1,0.5,0,0.4-0.1c-0.1-0.5-0.3-0.9-0.4-1.6
				c-0.6-2.4-1.9-5.2-3.8-8.2c-0.9-1.6-2.2-3.4-4.1-5.2c-1.8-2-4.1-4.3-7.3-6.9c-0.9-0.8-2-1.7-3-2.4c-1.2-0.8-2.3-1.8-3.6-2.7
				c-2.1-1.6-4.3-3-6.5-4.7c-1.2-0.8-2.2-1.7-3.5-2.5c-1.2-0.8-2.3-1.8-3.5-2.6c-4.7-3.5-9.4-7.5-14.4-10.9
				c-3.8-2.9-7.5-5.8-11.2-8.6c-3.7-3-7.3-5.8-10.8-8.7c-0.3-0.3-0.8-0.6-1.2-0.8c-0.3-0.2-0.6-0.4-0.8-0.5
				c-0.2-0.1-0.3-0.1-0.4-0.1C109.5,499.1,108.3,500.3,108.3,502.7z"/>
		</g>
		<g>
			<path style="fill:#588C38;stroke:#C9CEC6;stroke-width:4;stroke-miterlimit:10;" d="M203.8,550.1c0,0.1,0,0.2,0.2,0.3
				s0.5,0.3,0.8,0.5s0.8,0.3,1.3,0.5c2.1,0.8,4.3,1.7,6.4,2.4c2.2,0.8,4.3,1.7,6.5,2.3c2.2,0.6,4.4,1.4,6.8,2
				c2.2,0.6,4.5,1.4,6.8,1.8c3,0.6,6,1.3,8.8,1.9c1.4,0.3,3,0.4,4.4,0.6c1.4,0.2,2.9,0.3,4.3,0.5c5.8,0.8,11.2,0.8,16.1,0.8
				c3,0,5.8-0.3,8.2-0.6c4-0.5,6.9-1.3,9.4-2.1c2.3-0.9,4.1-2,5.7-3c2.9-1.9,3-4,6.3-5.8c0.8-0.5,0.5-0.8,0.8-1.3
				c0.1-0.1,0.1-0.2-0.3-0.3c-0.2,0-0.6-0.1-0.9-0.1c-2.3-0.1-4.7-0.1-6.9-0.2c-2.3,0-4.7,0-6.9-0.2c-2.3-0.1-4.7-0.2-6.9-0.3
				c-1.2,0-2.3-0.1-3.5-0.1c-1.2-0.1-2.2-0.2-3.4-0.3c-3-0.2-6.1-0.5-9.1-0.8c-3-0.3-6-0.8-9-0.9c-1.4-0.2-3-0.2-4.4-0.4
				s-2.9-0.4-4.3-0.5c-2.9-0.3-5.7-0.6-8.3-0.9c-3-0.4-6.3-0.9-8.8-1.3c-1.2-0.1-2.2-0.1-3.4-0.2c-0.9-0.1-2-0.2-3-0.2
				c-1.9-0.1-3.6-0.1-5,0c-3,0.2-5.2,0.8-6.5,1.4C203.9,546.5,203.4,548.1,203.8,550.1z"/>
			<path style="fill:#588C38;stroke:#C9CEC6;stroke-width:4;stroke-miterlimit:10;" d="M200.5,559.6c0.6,1.6,2.1,3.4,4.5,5.2
				c1.3,0.9,2.6,2.1,4.4,3.1c0.8,0.5,1.8,1.2,2.7,1.8c0.9,0.5,2.1,1.2,3.1,1.7c2.5,1.3,6,2.6,9.1,4c2.7,1.2,5.8,2,8.8,3
				c1.6,0.4,3,0.9,4.7,1.4c1.6,0.5,3.1,0.8,4.8,1.3c3.4,0.8,6.6,1.6,10,2.3c3.5,0.6,6.9,1.3,10.3,1.8c1.3,0.2,2.5,0.4,3.9,0.6
				c1.4,0.1,2.5,0.3,3.9,0.4c2.6,0.2,5.2,0.5,8,0.8c2.6,0.3,5.2,0.3,8,0.4c2.6,0.1,5.2,0.1,8,0.2c0.4,0,0.8,0,1.2,0
				c0.5-0.1,0.4-0.2,0.4-0.3c-0.3-0.4-0.6-0.8-0.9-1.4c-1.6-2-3.7-4.1-6.6-6.1c-1.6-1.2-3.4-2.2-5.8-3.4c-2.4-1.2-5.5-2.4-9.4-3.6
				c-2.4-0.8-5.1-1.4-8.2-2.2c-2.5-0.5-5.1-1.3-7.9-1.9c-0.6-0.1-1.4-0.3-2.1-0.4c-0.6-0.2-1.4-0.3-2.1-0.5
				c-1.4-0.3-2.7-0.8-4.2-1.2c-1.5-0.3-2.9-0.8-4.3-1.2s-2.9-0.6-4.3-1.2c-2.9-0.8-5.9-1.7-8.8-2.3c-2.3-0.5-4.5-1.3-6.9-1.8
				c-2.2-0.5-4.5-1.3-6.8-1.8c-2.3-0.5-4.4-1.3-6.8-1.9l-6.6-2c-0.4-0.1-0.8-0.2-1.4-0.3c-0.4-0.1-0.8-0.2-0.9-0.2
				c-0.2,0-0.3,0-0.4,0.1C200.5,555.9,199.7,557.5,200.5,559.6z"/>
		</g>
	</g>
</g>
<g id="tent" style="opacity:0;">
	<path style="fill:#21421D;stroke:#FFFFFF;stroke-width:2;stroke-miterlimit:10;" d="M295.9,98.1c0,0-76.7,126.5-232.7,215.9
		c-0.3,0.2-0.4,0.2-0.8,0.3c-1.8,1.3-2.9,3.7-2.9,6.1c0,3.7,2.7,7,6.3,7h36.4C231.9,223.9,295.9,98.1,295.9,98.1z"/>
	<path style="fill:#21421D;stroke:#FFFFFF;stroke-width:2;stroke-miterlimit:10;" d="M489.2,327.5h36.3h0.3c3.5,0,6.3-3.5,6.3-7.2
		c0-2.1-0.9-4.3-2.4-5.5c-0.5-0.3-1.3-0.8-1.8-1.3C372.3,224.1,296.1,98,296.1,98S359.6,223.9,489.2,327.5z"/>
	<path style="fill:#FFFFFF;stroke:#FFFFFF;stroke-width:2;stroke-miterlimit:10;" d="M295.9,98.5c0,0-63.8,125.3-193.6,228.8h37.3
		C244.3,216.8,295.9,98.5,295.9,98.5z"/>
	<path style="fill:#FFFFFF;stroke:#FFFFFF;stroke-width:2;stroke-miterlimit:10;" d="M489.2,327.5
		C359.6,223.9,295.9,98.6,295.9,98.6s51.5,118.3,156,228.8H489.2z"/>
	<path style="fill:#21421D;stroke:#FFFFFF;stroke-width:2;stroke-miterlimit:10;" d="M451.9,327.5C347.4,216.9,296,98.6,296,98.6
		s42.9,112.2,130,228.8H451.9z"/>
	<path style="fill:#21421D;stroke:#FFFFFF;stroke-width:2;stroke-miterlimit:10;" d="M165.5,327.5C252.7,210.8,296,98.6,296,98.6
		s-51.6,118.3-156.4,228.8H165.5z"/>
	<path style="fill:#FFFFFF;stroke:#FFFFFF;stroke-width:2;stroke-miterlimit:10;" d="M183.5,327.5C258.8,207,295.9,98.6,295.9,98.6
		s-43.1,112.3-130.5,228.8H183.5z"/>
	<path style="fill:#FFFFFF;stroke:#FFFFFF;stroke-width:2;stroke-miterlimit:10;" d="M425.9,327.5
		C338.8,210.8,295.9,98.5,295.9,98.5s36.9,108.3,112.2,228.8H426L425.9,327.5L425.9,327.5z"/>
	<path style="fill:#21421D;stroke:#FFFFFF;stroke-width:2;stroke-miterlimit:10;" d="M295.9,98.5c0,0-37.2,108.3-112.3,228.8h13.6
		H296h98.5h13.6C332.9,206.8,295.9,98.5,295.9,98.5z"/>
</g>
<g id="original" style="opacity:0;">
	
		<radialGradient id="SVGID_1_" cx="546.2794" cy="506.3683" r="247.4355" gradientTransform="matrix(0.5904 0 0 0.5904 -26.0145 -18.709)" gradientUnits="userSpaceOnUse">
		<stop  offset="0" style="stop-color:#753128"/>
		<stop  offset="1" style="stop-color:#421C17"/>
	</radialGradient>
	<path style="fill:url(#SVGID_1_);stroke:#FFFFFF;stroke-width:3;stroke-miterlimit:10;" d="M494.6,261.9
		c-36-22.1-111.2-37.3-197.3-37.3c-0.3,0-0.5,0-0.8,0c-0.3,0-0.5,0-0.8,0c-86.2,0-161.3,15.2-197.3,37.4c-0.2,0.1-0.4,0.3-0.6,0.4
		l34.3,73.6c40.4-13.6,98.9-22.3,163.9-22.3c0.3,0,0.5,0,0.8,0s0.5,0,0.8,0c64.9,0,123.4,8.6,163.9,22.3l34.2-73.6
		C495.2,262.1,494.9,262,494.6,261.9z"/>
	<g>
		<path style="fill:#FFFFFF;" d="M130.7,293c-1.9-6.3-1.9-11.3,0-15.1c1.9-3.7,6-6.5,12.2-8.6c6.2-2.1,11.1-2.1,14.7-0.1
			c3.6,1.9,6.4,6,8.3,12.3c1.9,6.3,1.9,11.3,0,15s-6,6.5-12.2,8.6c-6.2,2-11.1,2.1-14.7,0.2C135.5,303.3,132.7,299.2,130.7,293z
			 M140.2,290c1.4,4.4,3,7.6,4.8,9.1c1.9,1.6,4.3,1.9,7.2,0.9c2.9-0.8,4.7-2.5,5.5-5.1c0.6-2.4,0.4-5.9-0.9-10.3
			c-1.4-4.4-3-7.6-4.8-9.1c-1.9-1.6-4.3-1.9-7.2-0.9c-2.9,0.8-4.7,2.5-5.5,5.1C138.5,282,138.8,285.5,140.2,290z M149.7,298.8
			c-1.8,0.1-3.5-0.5-4.7-2.1c-1.3-1.6-2.4-3.9-3.5-7.3c-1.3-3.9-1.4-6.9-0.8-9c0.5-2.1,2-3.6,4.4-4.4c1.8-0.5,3.1-0.5,4.4,0
			c1.3,0.5,2.4,1.7,3.5,3.6c-1.3-0.2-2.3-0.3-3.4-0.3c-0.9,0-1.8,0.1-2.4,0.3c-1.7,0.5-2.6,1.4-3,2.9c-0.4,1.4-0.1,3.5,0.8,6.4
			c0.5,2,1.4,3.8,2.1,5.5C147.7,296,148.6,297.4,149.7,298.8z M157.4,267.4c3.9,1.7,6.9,3.6,8.8,5.8c2,2.2,3.7,5.2,4.7,9.1
			c0.9,3.1,1.4,6.2,1.4,9c-0.1,2.9-0.5,5.5-1.7,7.9c-0.9,2.3-2.5,4.4-4.8,6.3c-2.2,1.9-4.7,3.4-7.5,4.2c-2.5,0.8-5.2,1.2-7.9,0.8
			c-2.6-0.3-5.6-1.2-8.6-2.4c2,0.3,4,0.3,5.9,0.1c2-0.2,4.2-0.6,6.4-1.4c6.4-2.1,10.8-5.2,12.9-9.3c2.1-4.2,2.1-9.7,0.1-16.3
			c-1.2-3.6-2.4-6.4-3.9-8.4C161.9,270.6,159.9,268.8,157.4,267.4z"/>
		<path style="fill:#FFFFFF;" d="M176.5,296.6l-1.2-5.7l5.7-1.2l-4.3-23.2l-5.7,1.2l-1.2-5.7l24.4-4.8c3.5-0.6,6-1.2,7.5-1.2
			c1.4,0,2.5,0.1,3.5,0.4c1.4,0.5,2.4,1.4,3.5,2.7c0.8,1.4,1.4,2.7,1.9,4.7c0.4,2.7,0.2,5.1-0.9,7c-1.3,2-3,3.1-5.7,3.8l0.2,1.4
			l1.3-0.2c0.4-0.1,0.8,0,1.3,0.2c0.4,0.2,0.6,0.4,0.8,0.9l2.5,5c0.3,0.5,0.6,0.9,1.2,1.3c0.4,0.2,0.8,0.3,1.4,0.2l3.5-0.6l1.2,5.7
			l-9,1.8c-0.9,0.2-1.9,0.1-2.6-0.2c-0.8-0.4-1.4-0.9-2-2l-4.5-7.5c-0.6-1.4-1.4-2.1-2.3-2.5c-0.8-0.4-1.6-0.6-2.5-0.4l-6.9,1.4
			l1.7,9.3l5.7-1.2l1.2,5.7L176.5,296.6z M171.6,269.6l4.3-0.8l0.8,4.1L171.6,269.6z M176.7,298.3l20.9-4.2l-1.4-7.5l3.7,2.1
			l1.6,8.6l-19.8,3.9L176.7,298.3z M186.7,274.4l10.1-2c2.1-0.4,3.5-1.2,4.1-1.9c0.6-0.8,0.8-2.2,0.4-3.9c-0.3-1.6-0.9-2.6-2-3.4
			c-0.9-0.5-2.4-0.6-4.4-0.3l-10.1,2L186.7,274.4z M187.8,272.2l-1.2-5.7l8.7-1.7c1.3-0.2,2.2-0.2,3,0.2c0.6,0.4,1.3,0.9,1.4,1.9
			c0,0.2,0.1,0.4,0.1,0.5s0,0.3-0.1,0.4l-9.1,1.8l0.3,1.8L187.8,272.2z M192.4,283.9l0.3,1.7l-2.3,0.4l-1.2-5.7l5.2-0.9
			c0.5-0.1,1.3-0.1,1.6,0.2c0.4,0.2,0.8,0.6,1.4,1.4l1.2,1.8L192.4,283.9z M219,290l-1.4-7.5l3.8,2.5l1.4,8.2l-8.4,1.7
			c-1.2,0.2-2.1,0.2-3,0.1c-0.8-0.2-1.8-0.4-2.4-0.9l-3.4-2.3c0.4,0.2,0.8,0.4,1.4,0.4c0.4,0.1,0.8,0,1.4-0.1l0.5-0.1L219,290z
			 M209.1,276.7c-0.1-0.3-0.3-0.5-0.5-0.8c-0.3-0.3-0.5-0.4-0.9-0.6c1.9-0.9,3.4-2.4,4.1-4.4c0.8-2,0.9-4.3,0.4-6.8
			c-0.3-1.8-0.8-3.4-1.7-4.4c-0.8-1.3-1.8-2.3-3.1-3.1l4.7,3.5c0.8,0.6,1.6,1.4,2.2,2.5c0.5,0.9,0.9,2.2,1.4,3.6
			c0.4,2.3,0.2,4.4-0.4,6.3c-0.8,1.9-2.1,3.8-4.1,5.5l2,1.4l0.1,0.1c0.8,0.6,1.6,1.4,2,2.2l-2.4,0.4c-0.3,0.1-0.4,0-0.6-0.1
			c-0.2-0.1-0.4-0.4-0.4-0.6L209.1,276.7z"/>
		<path style="fill:#FFFFFF;" d="M236.3,280.5l5.8-0.6l0.5,5.8l-20,2.4l-0.5-5.8l5.8-0.6l-2.5-23.4l-5.8,0.6l-0.5-5.8l20-2.4
			l0.5,5.8l-5.8,0.6L236.3,280.5z M224.6,264l-4.7-3.5l4.4-0.4L224.6,264z M227.8,293.1l-5-3.5l21.3-2.4l-0.8-7.6l3.5,2.4l0.9,8.7
			L227.8,293.1z M237.5,278.4l-2.2-19.7l5.8-0.6l-0.8-7.6l3.6,3.4l0.8,7.9l-5.8,0.6l1.8,15.7L237.5,278.4z"/>
		<path style="fill:#FFFFFF;" d="M277.2,267.8l-4.8,0.2l-0.2-4.5l18.3-0.8l0.2,4.5l-5,0.2l0.6,15.2l-8.4,0.4l-0.2-4.5
			c-1.4,2-3,3.5-5.2,4.5c-2.1,1.2-4.4,1.7-7.3,1.8c-5.2,0.2-9.4-1.3-12.4-4.4c-3-3-4.7-7.8-4.8-13.8c-0.3-6.2,0.9-10.9,3.7-14.2
			c2.6-3.1,6.9-5,12.6-5.2c2.4-0.1,4.5,0.2,6.4,0.8c1.9,0.5,3.8,1.7,5.7,3.4l-0.2-3.5l8.1-0.4l0.4,9l-8.1,0.4
			c-1.6-1.4-3.1-2.4-4.8-3.1c-1.7-0.6-3.5-0.9-5.5-0.8c-3,0.1-5.2,1.4-6.6,3.5c-1.4,2.2-2,5.5-1.8,9.8c0.2,4.7,1.3,8.2,2.7,10.3
			c1.7,2.1,4.2,3,7.6,2.9c2.6-0.1,4.8-1.4,6.5-3.5C276.4,273.8,277.2,271.2,277.2,267.8z M255.3,284.8c1.7,0.8,3.5,1.4,5.2,1.6
			c1.7,0.3,3.5,0.4,5.2,0.4c1.9-0.1,3.7-0.4,5.5-1.2c1.7-0.6,3.5-1.7,5.2-3l0.2,3.5l0.6,0.5c-1.4,1.2-3,2-4.7,2.5
			c-1.7,0.5-3.5,0.9-5.2,0.9c-1.3,0.1-2.4-0.1-3.7-0.4c-1.4-0.4-2.4-0.8-3.5-1.7L255.3,284.8z M265.1,277.4c-1.8-0.3-3.1-1.4-4.1-3
			c-0.8-1.8-1.4-4.4-1.6-8c-0.2-3.9,0.3-6.8,1.4-8.6c1.2-1.8,2.9-2.7,5.5-2.9c2-0.1,3.8,0.2,5.5,0.8c1.7,0.6,3.1,1.8,4.5,3.1l10-0.4
			l-0.4-10.8l3.4,3.5l0.4,9.7l-11.1,0.4c-1.7-1.2-3.5-1.9-5.1-2.4c-1.7-0.4-3.5-0.6-5.2-0.5c-2.2,0.1-3.6,0.8-4.4,2
			c-0.8,1.4-1.2,3.5-0.9,6.5c0.1,1.9,0.3,3.7,0.6,5.2C263.7,274,264.3,275.7,265.1,277.4z M272.4,269.9l3.1-0.1
			c0,0.4-0.1,0.8-0.2,1.4c-0.1,0.4-0.3,0.8-0.4,1.4L272.4,269.9z M278.1,284.9l9.9-0.4l-0.6-15.2l5.1-0.2l-0.3-6.4l3.5,3.5l0.3,6.8
			l-5.1,0.2l0.6,15.2l-9,0.4L278.1,284.9z"/>
		<path style="fill:#FFFFFF;" d="M301.5,288.7l-4.5-4.1l21.5,0.4l0.1-7.7l3.1,2.7l-0.2,8.8L301.5,288.7z M311.4,277.3l5.9,0.1
			l-0.1,5.8l-20.2-0.4l0.1-5.8l5.8,0.1l0.4-23.5l-5.8-0.1l0.1-5.8l20.2,0.4l-0.1,5.8l-5.9-0.1L311.4,277.3z M301.6,259.3l-4.4-4.1
			l4.4,0.1V259.3z M312.8,275.5l0.3-19.8l5.8,0.1l0.1-7.7l3.1,3.7l-0.1,8l-5.8-0.1l-0.3,15.9C315.9,275.5,312.8,275.5,312.8,275.5z"
			/>
		<path style="fill:#FFFFFF;" d="M322.4,284.7l20.2,1.9l0.5-7.6l2.9,3.6l-0.6,8.3l-18.6-1.8L322.4,284.7z M322.6,283l0.4-5.8
			l5.8,0.4l2-23.4l-5.8-0.4l0.4-5.8l18.2,1.7l11.1,27.3l1.7-20.3l-5.8-0.4l0.4-5.8l17.9,1.7l-0.4,5.8l-5.1-0.4l-2.4,29.1l-11.9-1.2
			L337.6,258l-1.7,20.4l5.8,0.4l-0.4,5.8L322.6,283z M324.9,255.6l4.4,0.4l-0.3,4.1L324.9,255.6z M337.5,276.7l0.9-12.3l2.6,6.4
			l-0.4,6.3L337.5,276.7z M345.3,249.8l4,5l-0.3,3l5.8,0.4l-0.9,12.1L345.3,249.8z M350.1,287.4l12.3,1.3l2.4-29.1l5.2,0.4l0.5-7.6
			l2.7,4.3l-0.6,8l-5.1-0.4l-2.4,28.8l-11.1-0.9L350.1,287.4z"/>
		<path style="fill:#FFFFFF;" d="M371,289.2l18.8,3.9l1.4-7.5l2.5,3.6l-1.6,8.4l-16.9-3.5L371,289.2z M371.4,287.4l1.2-5.7l4.8,0.9
			l15.4-26.8l13.3,2.6l5,30.9l4.8,0.9l-1.2,5.7l-18.8-3.9l1.2-5.7l4.7,0.9l-1.3-6.9l-12.4-2.5l-3.5,6.1l4.8,0.9l-1.2,5.7
			L371.4,287.4z M387.3,283l1.6-2.7l10.5,2.2l0.4,3.1L387.3,283z M390.7,274l9.3,1.9l-2.3-14.3L390.7,274z M393.4,272.8l3.7-6.6
			l0.8,5.7l-0.9,1.7L393.4,272.8z M395.9,294.4l20.2,4.2l1.4-7.5l2.4,3.9l-1.4,8.2l-19.1-3.9L395.9,294.4z M412.4,288l-4.7-29.1
			l4.8,9l3.1,20.8L412.4,288z"/>
		<path style="fill:#FFFFFF;" d="M419.4,299.2l33,11.3l6.2-20l2,4.4l-6.3,20.3l-31.7-10.5L419.4,299.2z M419.9,297.5l1.7-5.5
			l5.6,1.9l6.9-22.3l-5.6-1.9l1.7-5.5l19.1,6.4l-1.7,5.5l-5.5-1.9l-6.9,22.3l10.4,3.6l4-12.7l7.7,2.5l-5.7,18.2L419.9,297.5z
			 M431.1,276.7l-3-5.2l4.2,1.4L431.1,276.7z M437.1,295.3l5.9-18.8l5.6,1.9l2.3-7.3l2,4.5l-2.3,7.5l-5.5-1.9l-4.7,15.1L437.1,295.3
			z"/>
	</g>
</g>
<g id="bbqh" style="opacity:0;">
	<path style="fill:#588C38;stroke:#ECF9FF;stroke-width:4;stroke-miterlimit:10;" d="M454.4,338.9c-35.2-10-91.6-16.4-156.4-16.4
		s-123.3,6.4-158.3,16.4c-2.2,0.8-4.2,1.6-7.8,2.2v91.4h326.3v-91.7C457.5,340.4,456.2,339.6,454.4,338.9z"/>
	<g>
		<g>
			<path style="fill:#FFFFFF;stroke:#ECF9FF;stroke-miterlimit:10;" d="M148.1,392.7v-28h14.1c2.9,0,5,0.8,6.4,2.2s2,3.4,2,5.1
				c0,1.4-0.4,2.6-1.2,3.8c-0.6,1.2-1.9,1.9-3.5,2.3c3.6,0.8,5.5,3,5.5,6.5c0,2.1-0.5,3.9-1.9,5.6c-1.3,1.6-4,2.4-8.1,2.4
				L148.1,392.7L148.1,392.7z M155.9,375.4h4c0.9,0,1.7-0.3,2.1-0.8c0.4-0.4,0.5-0.9,0.5-1.6c0-1.4-0.9-2.3-2.7-2.3H156L155.9,375.4
				L155.9,375.4z M155.9,386.6h4.1c1.2,0,1.8-0.3,2.3-0.8c0.4-0.4,0.6-1.2,0.6-1.7c0-0.6-0.3-1.3-0.6-1.8c-0.4-0.4-1.4-0.8-2.5-0.8
				h-3.9V386.6L155.9,386.6z"/>
			<path style="fill:#FFFFFF;stroke:#ECF9FF;stroke-miterlimit:10;" d="M190,392.7l-1.6-5.6H181l-1.7,5.6h-6.9l8.4-28h9.1l8.6,28
				H190z M182.6,381.1h4.4l-2.2-8.1L182.6,381.1z"/>
			<path style="fill:#FFFFFF;stroke:#ECF9FF;stroke-miterlimit:10;" d="M225.8,392.7h-9.3l-4.1-10.8h-2.5v10.8h-8.4v-28h14.4
				c3.1,0,5.7,0.8,7.5,2.3c1.8,1.4,2.5,3.5,2.5,6c0,1.6-0.4,3-0.9,4.3c-0.5,1.3-1.9,2.3-4,3.4L225.8,392.7z M209.7,376h3.6
				c1.2,0,1.9-0.3,2.5-0.6c0.5-0.4,0.9-1.2,0.9-2c0-1.8-1.2-2.6-3.4-2.6h-4L209.7,376L209.7,376z"/>
			<path style="fill:#FFFFFF;stroke:#ECF9FF;stroke-miterlimit:10;" d="M238.2,378.9v6.4h-10.3v-6.4H238.2z"/>
			<path style="fill:#FFFFFF;stroke:#ECF9FF;stroke-miterlimit:10;" d="M241.3,392.7v-28h14.1c2.9,0,5,0.8,6.4,2.2
				c1.4,1.4,2,3.4,2,5.1c0,1.4-0.4,2.6-1.2,3.8c-0.8,1.2-1.9,1.9-3.5,2.3c3.6,0.8,5.5,3,5.5,6.5c0,2.1-0.5,3.9-1.9,5.6
				c-1.3,1.6-4,2.4-8.1,2.4L241.3,392.7L241.3,392.7z M249.1,375.4h4c0.9,0,1.7-0.3,2.1-0.8c0.4-0.4,0.5-0.9,0.5-1.6
				c0-1.4-0.9-2.3-2.7-2.3h-3.8L249.1,375.4L249.1,375.4z M249.1,386.6h4.1c1.2,0,1.8-0.3,2.3-0.8c0.4-0.4,0.6-1.2,0.6-1.7
				c0-0.6-0.3-1.3-0.6-1.8c-0.4-0.4-1.4-0.8-2.5-0.8h-4L249.1,386.6L249.1,386.6z"/>
			<path style="fill:#FFFFFF;stroke:#ECF9FF;stroke-miterlimit:10;" d="M276.3,378.9v6.4H266v-6.4H276.3z"/>
			<path style="fill:#FFFFFF;stroke:#ECF9FF;stroke-miterlimit:10;" d="M294.2,392.9c-0.9,0.2-1.8,0.3-2.7,0.3c-4,0-7.2-1.4-9.6-4
				c-2.4-2.6-3.6-6.2-3.6-10.4c0-4.2,1.2-7.7,3.5-10.4c2.4-2.6,5.6-4.1,9.8-4.1c3.9,0,6.9,1.4,9.3,3.9s3.6,6.1,3.6,10.3
				c0,5.2-1.7,9.3-5,12c0.3,0.8,1.2,1.3,2.5,1.3c0.5,0,1.4-0.1,2.3-0.3v6.3c-1.4,0.2-2.5,0.3-3.5,0.3c-1.4,0-2.9-0.3-4.1-0.8
				C295.5,396.3,294.7,395,294.2,392.9z M291.2,386.9c1.4,0,2.4-0.5,3-1.9c0.5-1.4,0.9-3.6,0.9-6.9c0-4.8-1.4-7.5-3.9-7.5
				c-2.7,0-4.2,2.7-4.2,8.3C287.1,384.1,288.5,386.9,291.2,386.9z"/>
			<path style="fill:#FFFFFF;stroke:#ECF9FF;stroke-miterlimit:10;" d="M330.2,364.7v18.6c0,3.5-1.2,6.1-3,7.6
				c-2,1.4-4.7,2.3-8.1,2.3c-3.5,0-6.3-0.8-8.4-2.2c-2.1-1.4-3.1-3.9-3.1-7.3v-19.1h8.6v18.2c0,1.4,0.3,2.3,0.8,2.9
				c0.4,0.5,1.4,0.8,2.5,0.8s1.8-0.3,2.5-0.6c0.5-0.4,1.2-0.8,1.2-1.4c0.1-0.5,0.2-1.6,0.2-3.4v-16.4L330.2,364.7L330.2,364.7z"/>
			<path style="fill:#FFFFFF;stroke:#ECF9FF;stroke-miterlimit:10;" d="M355.7,386v6.8h-20.8v-28h20.8v6.4h-12.5v4.1h10.1v6.3h-10.1
				v4.5L355.7,386L355.7,386z"/>
			<path style="fill:#FFFFFF;stroke:#ECF9FF;stroke-miterlimit:10;" d="M392.8,364.7v28h-8.4v-10.9H378v10.9h-8.4v-28h8.4V375h6.4
				v-10.3H392.8z"/>
			<path style="fill:#FFFFFF;stroke:#ECF9FF;stroke-miterlimit:10;" d="M420.1,364.7v18.6c0,3.5-1.2,6.1-3,7.6
				c-1.9,1.5-4.7,2.3-8.1,2.3c-3.5,0-6.3-0.8-8.4-2.2s-3.1-3.9-3.1-7.3v-19.1h8.6v18.2c0,1.4,0.3,2.3,0.8,2.9
				c0.4,0.5,1.4,0.8,2.5,0.8s1.8-0.3,2.5-0.6c0.5-0.4,1.2-0.8,1.2-1.4c0.1-0.5,0.2-1.6,0.2-3.4v-16.4L420.1,364.7L420.1,364.7z"/>
			<path style="fill:#FFFFFF;stroke:#ECF9FF;stroke-miterlimit:10;" d="M436,371.3v21.3h-8.1v-21.3h-5.7v-6.8h19.4v6.8H436
				L436,371.3z"/>
		</g>
		<line style="fill:none;stroke:#ECF9FF;stroke-width:3;stroke-miterlimit:10;" x1="141.9" y1="352" x2="448.1" y2="352"/>
		<line style="fill:none;stroke:#ECF9FF;stroke-width:3;stroke-miterlimit:10;" x1="142" y1="408.8" x2="243.6" y2="408.8"/>
		<line style="fill:none;stroke:#ECF9FF;stroke-width:3;stroke-miterlimit:10;" x1="346.4" y1="408.8" x2="448.1" y2="408.8"/>
		<g style="enable-background:new    ;">
			<path style="fill:#FFFFCC;stroke:#ECF9FF;stroke-miterlimit:10;" d="M256.1,409.5v2.6h6.6c0.2,0,0.3,0,0.4-0.1s0.2-0.2,0.2-0.3
				h0.3v2.4h-0.3c-0.1-0.2-0.1-0.3-0.2-0.3c-0.1-0.1-0.2-0.1-0.4-0.1h-9.3v-0.2c0.2-0.1,0.4-0.1,0.4-0.2c0.1-0.1,0.1-0.2,0.1-0.3
				v-8.1c0-0.2,0-0.3-0.1-0.3c-0.1-0.1-0.2-0.2-0.4-0.2V404h9.1c0.2,0,0.3,0,0.4-0.1c0.1-0.1,0.2-0.2,0.2-0.3h0.3v2.4h-0.3
				c-0.1-0.2-0.1-0.3-0.2-0.3c-0.1-0.1-0.2-0.1-0.4-0.1h-6.4v2.3h4.2c0.2,0,0.3,0,0.4-0.1c0.1-0.1,0.2-0.2,0.2-0.3h0.3v2.4h-0.3
				c-0.1-0.2-0.1-0.3-0.2-0.3c-0.1-0.1-0.2-0.1-0.4-0.1L256.1,409.5L256.1,409.5z"/>
			<path style="fill:#FFFFCC;stroke:#ECF9FF;stroke-miterlimit:10;" d="M274.8,405l-1.3,2.2l-0.2-0.1c0-0.1,0-0.1,0-0.1
				c0-0.2-0.2-0.3-0.4-0.4c-0.8-0.5-1.9-0.8-3.1-0.8c-0.4,0-0.9,0.1-1.4,0.2c-0.3,0.1-0.4,0.3-0.6,0.4c-0.2,0.2-0.3,0.4-0.3,0.5
				c0,0.3,0.3,0.5,0.6,0.8c0.3,0.1,0.8,0.2,1.6,0.2l1.3,0.1c0.6,0.1,1.4,0.2,1.8,0.3c0.4,0.1,0.8,0.3,1.2,0.4
				c0.4,0.3,0.5,0.4,0.8,0.8c0.2,0.3,0.3,0.8,0.3,1.3c0,0.6-0.3,1.4-0.6,1.8c-0.4,0.4-1.2,0.8-2,0.9c-0.6,0.2-1.4,0.3-2.1,0.3
				c-1.4,0-2.6-0.3-4.1-0.8c-0.3-0.1-0.4-0.2-0.4-0.2s-0.2,0.1-0.4,0.2L265,413l1.2-2.4l0.3,0.1v0.1c0,0.2,0.1,0.4,0.4,0.5
				c0.4,0.3,0.8,0.4,1.4,0.6c0.5,0.2,1.4,0.3,1.9,0.3c0.6,0,1.3-0.1,1.8-0.3c0.3-0.1,0.4-0.3,0.5-0.4c0.2-0.1,0.3-0.4,0.3-0.5
				c0-0.3-0.2-0.4-0.4-0.6c-0.3-0.1-0.8-0.2-1.6-0.3l-1.2-0.1c-0.8-0.1-1.4-0.2-1.7-0.3c-0.4-0.1-0.5-0.2-0.9-0.3
				c-0.4-0.2-0.8-0.4-1.2-0.8c-0.3-0.3-0.4-0.8-0.4-1.4c0-0.8,0.3-1.4,0.8-2.1c0.8-0.6,1.9-0.9,3.5-0.9c0.6,0,1.4,0.1,1.8,0.2
				c0.5,0.1,1.4,0.3,2.1,0.6c0.3,0.1,0.4,0.2,0.4,0.2s0.3-0.1,0.4-0.2L274.8,405z"/>
			<path style="fill:#FFFFCC;stroke:#ECF9FF;stroke-miterlimit:10;" d="M282,405.8v7.3c0,0.2,0,0.3,0.1,0.3c0.1,0.1,0.2,0.2,0.4,0.2
				v0.3h-3.4v-0.3c0.2-0.1,0.4-0.1,0.4-0.2c0.1-0.1,0.1-0.2,0.1-0.3v-7.3h-3.4c-0.2,0-0.3,0-0.4,0.1c-0.1,0.1-0.2,0.2-0.2,0.3h-0.3
				v-2.4h0.3c0.1,0.2,0.1,0.3,0.2,0.3c0.1,0.1,0.2,0.1,0.4,0.1h8.6c0.2,0,0.3,0,0.4-0.1c0.1-0.1,0.2-0.2,0.2-0.3h0.3v2.4h-0.3
				c-0.1-0.2-0.1-0.3-0.2-0.3c-0.1-0.1-0.2-0.1-0.4-0.1H282L282,405.8z"/>
			<path style="fill:#FFFFCC;stroke:#ECF9FF;stroke-miterlimit:10;" d="M287.2,411.6c0.4,0,0.5,0.1,0.8,0.3c0.3,0.3,0.4,0.4,0.4,0.8
				c0,0.4-0.1,0.5-0.4,0.8c-0.3,0.3-0.4,0.3-0.8,0.3s-0.5-0.1-0.8-0.3c-0.3-0.3-0.4-0.4-0.4-0.8c0-0.4,0.1-0.5,0.4-0.8
				C286.6,411.9,286.9,411.6,287.2,411.6z"/>
			<path style="fill:#FFFFCC;stroke:#ECF9FF;stroke-miterlimit:10;" d="M296.8,407.7v-2.5h0.3c0.1,0.2,0.1,0.3,0.2,0.3
				c0.1,0.1,0.1,0.1,0.3,0.1c0.1,0,0.1,0,0.2,0l0.5-0.2v-0.4c0-0.2,0-0.3-0.1-0.3s-0.2-0.2-0.4-0.2v-0.3h3.1v0.3
				c-0.2,0.1-0.4,0.1-0.4,0.2c-0.1,0.1-0.1,0.2-0.1,0.3v8.1c0,0.2,0,0.3,0.1,0.3c0.1,0.1,0.2,0.2,0.4,0.2v0.3h-3.1v-0.3
				c0.2-0.1,0.4-0.1,0.4-0.2c0.1-0.1,0.1-0.2,0.1-0.3v-6l-0.6,0.2c-0.2,0-0.3,0.1-0.4,0.2c-0.1,0.1-0.2,0.2-0.2,0.3h-0.3V407.7
				L296.8,407.7z"/>
			<path style="fill:#FFFFCC;stroke:#ECF9FF;stroke-miterlimit:10;" d="M303.8,413.3l1.4-2.3l0.2,0.1c0,0.1-0.1,0.2-0.1,0.3
				c0,0.2,0.2,0.3,0.4,0.5c0.3,0.2,0.5,0.3,1.2,0.3c0.4,0.1,0.8,0.2,1.3,0.2c0.8,0,1.6-0.2,2.2-0.5c0.4-0.3,0.6-0.5,0.8-0.8
				c0.2-0.3,0.4-0.8,0.4-1.4c-0.4,0.4-1.2,0.8-1.6,0.8c-0.4,0.1-1.2,0.3-1.8,0.3c-1.2,0-2-0.3-2.7-0.6c-0.4-0.3-0.8-0.5-1.2-1.2
				c-0.3-0.4-0.4-0.8-0.4-1.4c0-0.9,0.4-1.8,1.4-2.4c0.8-0.6,2-0.8,3.4-0.8c1.4,0,2.5,0.3,3.5,0.9c0.4,0.4,0.9,0.9,1.3,1.7
				c0.3,0.6,0.4,1.4,0.4,2.1c0,1.4-0.4,2.6-1.4,3.7c-1.2,0.8-2.4,1.4-4.1,1.4c-0.5,0-1.2-0.1-1.6-0.2c-0.4-0.1-0.9-0.3-1.6-0.4
				c-0.2-0.1-0.4-0.2-0.4-0.2C304.1,413.3,304,413.3,303.8,413.3c-0.1,0.2-0.1,0.2-0.2,0.2L303.8,413.3z M308.6,405.6
				c-0.8,0-1.4,0.2-1.9,0.4c-0.4,0.3-0.5,0.6-0.5,1.2s0.2,0.8,0.5,1.2c0.4,0.3,1.2,0.4,1.9,0.4c0.8,0,1.4-0.2,1.9-0.4
				c0.4-0.3,0.5-0.6,0.5-1.2s-0.2-0.8-0.5-1.3C310.1,405.9,309.4,405.6,308.6,405.6z"/>
			<path style="fill:#FFFFCC;stroke:#ECF9FF;stroke-miterlimit:10;" d="M315,413.3l1.4-2.3l0.2,0.1c0,0.1-0.1,0.2-0.1,0.3
				c0,0.2,0.2,0.3,0.4,0.5c0.3,0.2,0.5,0.3,1.2,0.3c0.4,0.1,0.8,0.2,1.3,0.2c0.8,0,1.6-0.2,2.2-0.5c0.4-0.3,0.6-0.5,0.8-0.8
				c0.2-0.3,0.4-0.8,0.4-1.4c-0.4,0.4-1.2,0.8-1.6,0.8c-0.4,0.2-1.2,0.3-1.8,0.3c-1.2,0-2-0.3-2.7-0.6c-0.4-0.3-0.8-0.5-1.2-1.2
				c-0.3-0.4-0.4-0.8-0.4-1.4c0-0.9,0.4-1.8,1.4-2.4c0.8-0.6,2-0.8,3.4-0.8c1.4,0,2.5,0.3,3.5,0.9c0.4,0.4,0.9,0.9,1.3,1.7
				c0.3,0.6,0.4,1.4,0.4,2.1c0,1.4-0.4,2.6-1.4,3.7c-1.2,0.8-2.4,1.4-4.1,1.4c-0.5,0-1.2-0.1-1.6-0.2s-0.9-0.3-1.6-0.4
				c-0.2-0.1-0.4-0.2-0.4-0.2C315.2,413.3,315.1,413.3,315,413.3c-0.1,0.2-0.1,0.2-0.2,0.2L315,413.3z M319.7,405.6
				c-0.8,0-1.4,0.2-1.9,0.4c-0.4,0.3-0.5,0.6-0.5,1.2s0.2,0.8,0.5,1.2c0.4,0.3,1.2,0.4,1.9,0.4c0.7,0,1.4-0.2,1.9-0.4
				c0.4-0.3,0.5-0.6,0.5-1.2s-0.2-0.8-0.5-1.3C321.2,405.9,320.5,405.6,319.7,405.6z"/>
			<path style="fill:#FFFFCC;stroke:#ECF9FF;stroke-miterlimit:10;" d="M333.1,405.8h-6.4c-0.2,0-0.3,0-0.4,0.1
				c-0.1,0.1-0.2,0.2-0.2,0.3h-0.3v-2.4h0.3c0.1,0.2,0.1,0.3,0.2,0.3c0.1,0.1,0.2,0.1,0.4,0.1h8.2c0.2,0,0.3,0,0.4-0.1
				c0.1-0.1,0.2-0.2,0.2-0.3h0.3v1.8l-4.7,7c-0.2,0.3-0.3,0.4-0.3,0.4c0,0.2,0.2,0.3,0.4,0.3v0.3h-3.7v-0.3c0.2-0.1,0.4-0.2,0.4-0.3
				c0.2-0.1,0.4-0.3,0.4-0.5L333.1,405.8z"/>
		</g>
	</g>
</g>
<g id="under_x5F_leaf" style="opacity:0;">
	<g>
		<path style="fill:#1E411A;" d="M315.2,457.1c-3-6.1-6.6-9.1-13.6-8.8c3.6,1.6,6.6,3.4,8,6.3c-1.6-2.9-5.1-4.4-8.8-5.7
			c1.2,2.4,2,4.8,4.7,6.5C308.3,457.1,311.6,457.4,315.2,457.1z"/>
		<path style="fill:#1E411A;" d="M328.5,457.1c-3-6.1-6.6-9.1-13.6-8.8c3.6,1.6,6.6,3.4,8,6.3c-1.6-2.9-5.1-4.4-8.8-5.7
			c1.2,2.4,2,4.8,4.7,6.5C321.6,457.1,324.9,457.4,328.5,457.1z"/>
		<path style="fill:#1E411A;" d="M341.8,457.1c-3-6.1-6.6-9.1-13.6-8.8c3.6,1.6,6.6,3.4,8,6.3c-1.6-2.9-5.1-4.4-8.8-5.7
			c1.2,2.4,2,4.8,4.7,6.5C334.9,457.1,338.3,457.4,341.8,457.1z"/>
		<path style="fill:#1E411A;" d="M355.1,457.1c-3-6.1-6.6-9.1-13.6-8.8c3.6,1.6,6.6,3.4,8,6.3c-1.6-2.9-5.1-4.4-8.8-5.7
			c1.2,2.4,2,4.8,4.7,6.5C348.2,457.1,351.4,457.4,355.1,457.1z"/>
		<path style="fill:#1E411A;" d="M368.3,457.1c-3-6.1-6.6-9.1-13.6-8.8c3.6,1.6,6.6,3.4,8,6.3c-1.6-2.9-5.1-4.4-8.8-5.7
			c1.2,2.4,2,4.8,4.7,6.5C361.5,457.1,364.7,457.4,368.3,457.1z"/>
		<path style="fill:#1E411A;" d="M381.6,457.1c-3-6.1-6.6-9.1-13.6-8.8c3.6,1.6,6.6,3.4,8,6.3c-1.6-2.9-5.1-4.4-8.8-5.7
			c1.2,2.4,2,4.8,4.7,6.5C374.8,457.1,378,457.4,381.6,457.1z"/>
		<path style="fill:#1E411A;" d="M393.4,456.1c-2.6-5.5-6-8.2-12.1-7.9c3,1.4,5.9,3,7,5.7c-1.4-2.5-4.5-4-7.9-5.1
			c0.9,2.1,1.8,4.3,4.2,5.9C387.3,456.1,390.2,456.6,393.4,456.1z"/>
		<path style="fill:#1E411A;" d="M403.4,455.2c-2.3-4.7-5.2-7.2-10.6-6.9c2.7,1.3,5.2,2.5,6.2,5c-1.3-2.2-4-3.5-6.9-4.4
			c0.8,1.9,1.6,3.9,3.8,5.1C398.2,455.3,400.7,455.5,403.4,455.2z"/>
		<path style="fill:#1E411A;" d="M412.2,454.4c-2.1-4.1-4.5-6.2-9.1-6c2.4,0.9,4.4,2.2,5.5,4.3c-1.2-2-3.5-3-6-3.9
			c0.8,1.7,1.4,3.4,3.1,4.4C407.4,454.4,409.7,454.6,412.2,454.4z"/>
		<path style="fill:#1E411A;" d="M315.2,437.3c-3,6.1-6.6,9.1-13.6,8.8c3.6-1.6,6.6-3.4,8-6.3c-1.6,2.9-5.1,4.4-8.8,5.7
			c1.2-2.4,2-4.8,4.7-6.5C308.3,437.2,311.6,436.8,315.2,437.3z"/>
		<path style="fill:#1E411A;" d="M328.5,437.3c-3,6.1-6.6,9.1-13.6,8.8c3.6-1.6,6.6-3.4,8-6.3c-1.6,2.9-5.1,4.4-8.8,5.7
			c1.2-2.4,2-4.8,4.7-6.5C321.6,437.2,324.9,436.8,328.5,437.3z"/>
		<path style="fill:#1E411A;" d="M341.8,437.3c-3,6.1-6.6,9.1-13.6,8.8c3.6-1.6,6.6-3.4,8-6.3c-1.6,2.9-5.1,4.4-8.8,5.7
			c1.2-2.4,2-4.8,4.7-6.5C334.9,437.2,338.3,436.8,341.8,437.3z"/>
		<path style="fill:#1E411A;" d="M355.1,437.3c-3,6.1-6.6,9.1-13.6,8.8c3.6-1.6,6.6-3.4,8-6.3c-1.6,2.9-5.1,4.4-8.8,5.7
			c1.2-2.4,2-4.8,4.7-6.5C348.2,437.2,351.4,436.8,355.1,437.3z"/>
		<path style="fill:#1E411A;" d="M368.3,437.3c-3,6.1-6.6,9.1-13.6,8.8c3.6-1.6,6.6-3.4,8-6.3c-1.6,2.9-5.1,4.4-8.8,5.7
			c1.2-2.4,2-4.8,4.7-6.5C361.5,437.2,364.7,436.8,368.3,437.3z"/>
		<path style="fill:#1E411A;" d="M381.6,437.3c-3,6.1-6.6,9.1-13.6,8.8c3.6-1.6,6.6-3.4,8-6.3c-1.6,2.9-5.1,4.4-8.8,5.7
			c1.2-2.4,2-4.8,4.7-6.5C374.8,437.2,378,436.8,381.6,437.3z"/>
		<path style="fill:#1E411A;" d="M393.4,438.2c-2.6,5.5-6,8.2-12.1,7.9c3-1.4,5.9-3,7-5.7c-1.4,2.5-4.5,4-7.9,5.1
			c0.9-2.1,1.8-4.3,4.2-5.9C387.3,438,390.2,437.9,393.4,438.2z"/>
		<path style="fill:#1E411A;" d="M403.4,439c-2.3,4.7-5.2,7.2-10.6,6.9c2.7-1.3,5.2-2.5,6.2-5c-1.3,2.2-4,3.5-6.9,4.4
			c0.8-1.9,1.6-3.9,3.8-5.1C398.2,439,400.7,438.7,403.4,439z"/>
		<path style="fill:#1E411A;" d="M412.2,440c-2.1,4.1-4.5,6.2-9.1,6c2.4-0.9,4.4-2.2,5.5-4.3c-1.2,2-3.5,3-6,3.9
			c0.8-1.7,1.4-3.4,3.1-4.4C407.4,440,409.7,439.7,412.2,440z"/>
		<path style="fill:#1E411A;" d="M417,446.7c-2.5-2.1-4.8-2.4-8.3,0c2-0.4,3.9-0.5,5.1,0.5c-1.3-0.9-3.4-0.5-5.5,0.1
			c0.9,0.8,1.8,1.8,3.5,1.8C413.6,449,415.2,448.2,417,446.7z"/>
		<polygon style="fill:#1E411A;" points="391.6,446.7 311.5,446.8 292.1,446.2 292.1,447.9 391.6,447.4 408.4,447.1 		"/>
	</g>
	<g>
		<path style="fill:#1E411A;" d="M274.8,437.3c3,6.1,6.6,9.1,13.6,8.8c-3.6-1.6-6.6-3.4-8-6.3c1.6,2.9,5.1,4.4,8.8,5.7
			c-1.2-2.4-2-4.8-4.7-6.5C281.6,437.2,278.2,436.8,274.8,437.3z"/>
		<path style="fill:#1E411A;" d="M261.4,437.3c3,6.1,6.6,9.1,13.6,8.8c-3.6-1.6-6.6-3.4-8-6.3c1.6,2.9,5.1,4.4,8.8,5.7
			c-1.2-2.4-2-4.8-4.7-6.5C268.2,437.2,265,436.8,261.4,437.3z"/>
		<path style="fill:#1E411A;" d="M248.2,437.3c3,6.1,6.6,9.1,13.6,8.8c-3.6-1.6-6.6-3.4-8-6.3c1.6,2.9,5.1,4.4,8.8,5.7
			c-1.2-2.4-2-4.8-4.7-6.5C255,437.2,251.7,436.8,248.2,437.3z"/>
		<path style="fill:#1E411A;" d="M234.9,437.3c3,6.1,6.6,9.1,13.6,8.8c-3.6-1.6-6.6-3.4-8-6.3c1.6,2.9,5.1,4.4,8.8,5.7
			c-1.2-2.4-2-4.8-4.7-6.5C241.7,437.2,238.3,436.8,234.9,437.3z"/>
		<path style="fill:#1E411A;" d="M221.5,437.3c3,6.1,6.6,9.1,13.6,8.8c-3.6-1.6-6.6-3.4-8-6.3c1.6,2.9,5.1,4.4,8.8,5.7
			c-1.2-2.4-2-4.8-4.7-6.5C228.4,437.2,225.1,436.8,221.5,437.3z"/>
		<path style="fill:#1E411A;" d="M208.3,437.3c3,6.1,6.6,9.1,13.6,8.8c-3.6-1.6-6.6-3.4-8-6.3c1.6,2.9,5.1,4.4,8.8,5.7
			c-1.2-2.4-2-4.8-4.7-6.5C215.1,437.2,211.8,436.8,208.3,437.3z"/>
		<path style="fill:#1E411A;" d="M196.6,438.2c2.6,5.5,6,8.2,12.1,7.9c-3-1.4-5.9-3-7-5.7c1.4,2.5,4.5,4,7.9,5.1
			c-0.9-2.1-1.8-4.3-4.2-5.9C202.9,438.1,199.7,437.9,196.6,438.2z"/>
		<path style="fill:#1E411A;" d="M186.3,439c2.3,4.7,5.2,7.2,10.6,6.9c-2.7-1.3-5.2-2.5-6.2-5c1.3,2.2,4,3.5,6.9,4.4
			c-0.8-1.9-1.6-3.9-3.8-5.1C191.7,439,189.2,438.7,186.3,439z"/>
		<path style="fill:#1E411A;" d="M177.7,440c2.1,4.1,4.5,6.2,9.1,6c-2.4-0.9-4.4-2.2-5.5-4.3c1.2,2,3.5,3,6,3.9
			c-0.8-1.7-1.4-3.4-3.1-4.4C182.3,440,180.1,439.7,177.7,440z"/>
		<path style="fill:#1E411A;" d="M274.8,457.1c3-6.1,6.6-9.1,13.6-8.8c-3.6,1.6-6.6,3.4-8,6.3c1.6-2.9,5.1-4.4,8.8-5.7
			c-1.2,2.4-2,4.8-4.7,6.5C281.6,457.1,278.2,457.4,274.8,457.1z"/>
		<path style="fill:#1E411A;" d="M261.4,457.1c3-6.1,6.6-9.1,13.6-8.8c-3.6,1.6-6.6,3.4-8,6.3c1.6-2.9,5.1-4.4,8.8-5.7
			c-1.2,2.4-2,4.8-4.7,6.5C268.2,457.1,265,457.4,261.4,457.1z"/>
		<path style="fill:#1E411A;" d="M248.2,457.1c3-6.1,6.6-9.1,13.6-8.8c-3.6,1.6-6.6,3.4-8,6.3c1.6-2.9,5.1-4.4,8.8-5.7
			c-1.2,2.4-2,4.8-4.7,6.5C255,457.1,251.7,457.4,248.2,457.1z"/>
		<path style="fill:#1E411A;" d="M234.9,457.1c3-6.1,6.6-9.1,13.6-8.8c-3.6,1.6-6.6,3.4-8,6.3c1.6-2.9,5.1-4.4,8.8-5.7
			c-1.2,2.4-2,4.8-4.7,6.5C241.7,457.1,238.3,457.4,234.9,457.1z"/>
		<path style="fill:#1E411A;" d="M221.5,457.1c3-6.1,6.6-9.1,13.6-8.8c-3.6,1.6-6.6,3.4-8,6.3c1.6-2.9,5.1-4.4,8.8-5.7
			c-1.2,2.4-2,4.8-4.7,6.5C228.4,457.1,225.1,457.4,221.5,457.1z"/>
		<path style="fill:#1E411A;" d="M208.3,457.1c3-6.1,6.6-9.1,13.6-8.8c-3.6,1.6-6.6,3.4-8,6.3c1.6-2.9,5.1-4.4,8.8-5.7
			c-1.2,2.4-2,4.8-4.7,6.5C215.1,457.1,211.8,457.4,208.3,457.1z"/>
		<path style="fill:#1E411A;" d="M196.6,456.1c2.6-5.5,6-8.2,12.1-7.9c-3,1.4-5.9,3-7,5.7c1.4-2.5,4.5-4,7.9-5.1
			c-0.9,2.1-1.8,4.3-4.2,5.9C202.7,456.1,199.7,456.6,196.6,456.1z"/>
		<path style="fill:#1E411A;" d="M186.3,455.2c2.3-4.7,5.2-7.2,10.6-6.9c-2.7,1.3-5.2,2.5-6.2,5c1.3-2.2,4-3.5,6.9-4.4
			c-0.8,1.9-1.6,3.9-3.8,5.1C191.7,455.3,189.2,455.5,186.3,455.2z"/>
		<path style="fill:#1E411A;" d="M177.7,454.4c2.1-4.1,4.5-6.2,9.1-6c-2.4,0.9-4.4,2.2-5.5,4.3c1.2-2,3.5-3,6-3.9
			c-0.8,1.7-1.4,3.4-3.1,4.4C182.3,454.4,180.1,454.6,177.7,454.4z"/>
		<path style="fill:#1E411A;" d="M172.9,447.5c2.5,2.1,4.8,2.4,8.3,0c-2,0.4-3.9,0.5-5.1-0.5c1.3,0.9,3.4,0.5,5.5-0.1
			c-0.9-0.8-1.8-1.8-3.5-1.8C176.3,445.2,174.5,446.2,172.9,447.5z"/>
		<polygon style="fill:#1E411A;" points="198.3,447.5 278.4,447.4 297.6,448.2 297.6,446.4 198.3,446.8 181.5,447.1 		"/>
	</g>
</g>
</svg>
