<?xml version="1.0" encoding="utf-8"?>
<!-- Generator: Adobe Illustrator 18.1.1, SVG Export Plug-In . SVG Version: 6.00 Build 0)  -->
<svg version="1.1" id="Layer_1" xmlns="http://www.w3.org/2000/svg" xmlns:xlink="http://www.w3.org/1999/xlink" x="0px" y="0px"
	 viewBox="0 0 600 600" enable-background="new 0 0 600 600" xml:space="preserve">
<path fill="#FFFFFF" stroke="#000000" stroke-miterlimit="10" d="M600,300c0,1.6,0,3.2,0,4.7c0,1.6-0.1,3.2-0.1,4.7
	c0,1.1-0.1,2.2-0.1,3.3c0,0.3,0,0.5,0,0.7c0,0.4,0,0.8,0,1.1c0,0,0,0.1,0,0.1c0,1.2-0.1,2.4-0.2,3.6c-0.2,2.8-0.4,5.6-0.6,8.4
	c-1.4,16-4.3,31.5-8.1,46.7c0,0-0.2,0-0.2,0c0,0,0,0,0,0s0.2,0,0.2,0c0,0.2,0,0.3,0,0.5c-2.5,9.9-5.4,19.5-8.9,29
	c-0.3,0.8-0.6,1.7-0.9,2.5c-6.8,18.2-15.4,35.6-25.5,51.9c-7.9,12.8-16.7,24.9-26.3,36.3c-0.2,0.3-0.5,0.6-0.7,0.8
	c-3,3.5-6.1,7-9.2,10.3c-0.1,0.1-0.1,0.1-0.2,0.2c-15.9,17-33.7,32.1-53.1,45c-1.3,0.8-2.5,1.7-3.8,2.5
	c-16.2,10.4-33.5,19.3-51.6,26.5c-34.2,13.5-71.5,21-110.5,21s-76.3-7.5-110.5-21c-18.1-7.2-35.4-16.1-51.6-26.5
	c-1.3-0.8-2.5-1.7-3.8-2.5c-11.7-7.8-22.8-16.3-33.2-25.6C79,505,60,482.4,44.6,457.5c-10.1-16.3-18.7-33.7-25.5-52
	c-0.3-0.8-0.6-1.7-0.9-2.5c-3.4-9.5-6.5-19.1-8.9-29c-0.1-0.2-0.1-0.3-0.1-0.5c0,0,0,0,0-0.1c-0.3-1.3-0.6-2.6-0.9-3.9
	c0-0.2-0.1-0.4-0.1-0.6c-0.5-2-0.9-3.9-1.3-5.9c0-0.1,0-0.2,0-0.3c-0.1-0.7-0.3-1.3-0.5-2c0,0,0,0,0,0c-0.3-1-0.5-2-0.6-3.1
	c0,0,0,0,0-0.1c0-0.3-0.1-0.7-0.1-1v0c-0.2-0.6-0.3-1.2-0.5-1.8c0,0,0,0,0,0c-1.3-5.1-1.5-10.3-2.5-15.5v0c0-1.5-0.3-3-0.5-4.5
	c-0.1-1.1-0.3-2.1-0.4-3.2c-0.2-1.9-0.4-3.9-0.6-5.8c-0.2-2.3-0.4-4.6-0.5-6.9c-0.2-3.1-0.3-6.2-0.4-9.4C0,306.4,0,303.2,0,300
	c0-6.4,0.2-12.6,0.6-18.9c0.1-2.1,0-4.3,0.2-6.4C2,259.8,4.5,245.2,7.5,231v0c1-0.2,0.3-0.4,0.4-0.6c0.3-1.3,0.7-2.6,1.1-3.9
	c0,0,0.1-0.1,0.1-0.1c2.6-10.4,5.8-20.6,9.5-30.5c0.4-1,0.8-2,1.1-3c6.8-17.7,15.1-34.6,25-50.5c0,0,0,0,0,0
	c15.7-25.5,35.2-48.4,57.6-68.1c10.5-9.2,21.7-17.7,33.4-25.4c1.5-1,2.9-1.9,4.4-2.8c12.7-8,26-15.1,39.9-21.2
	C216.7,8.9,257.3,0,300,0s83.3,8.9,120.1,25c13.9,6.1,27.2,13.1,39.9,21.2c0.2,0.1,0.4,0.2,0.5,0.3c1.3,0.8,2.6,1.7,3.9,2.5
	C484,61.9,502,77,518.1,94l0,0c0.9,0.9,1.8,1.9,2.6,2.8c2.6,2.8,5.2,5.7,7.7,8.6c6,7,11.6,14.3,16.9,21.8c3.5,5,6.9,10.1,10.1,15.3
	c9.8,15.9,18.2,32.8,25,50.5c0.1,0.2,0.1,0.3,0.2,0.5c0.3,0.8,0.6,1.7,0.9,2.5c3.7,9.9,6.9,20.1,9.5,30.5c0,0,0,0,0,0.1
	c3.7,14.7,6.5,29.9,8,45.3c0.1,0.7,0,1.4,0,2.2c0,0.4,0,0.8,0.1,1.1c0.1,0.4,0.2,0.9,0.5,1.3v0c0,1.4,0,2.7,0.1,4
	c0,0.3-0.1,0.6,0,0.9c0.1,1.2,0.1,2.5,0.2,3.7c0,0.3,0,0.7,0,1.1c0.1,1.4,0.1,2.8,0.1,4.3c0,1,0,2,0.1,3c0,0.1,0,0.3,0,0.4
	c0,0.5,0,0.9,0,1.4C600,296.8,600,298.4,600,300z"/>
<g>
	<path fill="#85D375" d="M600,300c0,25.3-3.1,50.2-9.1,73.7c0,0,0-0.7,0,0.3H9.1c-0.3-2-0.6-2.9-0.9-4.2c0-0.2-0.1-0.5-0.1-0.7
		c-3.8-16.5-6.3-33.2-7.4-50.2C0.2,312.7,0,306.4,0,300c0-6.4,0.2-12.7,0.6-18.9c1.1-17,3.6-33.6,7.4-50.1c0.1-0.2,0.1-0.1,0.1-0.3
		c0.3-1.3,0.6-2.7,0.9-3.7h581.9c0,0,0-0.2,0-0.2C596.9,250.3,600,274.7,600,300z"/>
	<g>
		<rect x="44.6" y="252.4" fill="#4D4B45" width="95.9" height="95.9"/>
		<rect x="156.1" y="252.4" fill="#4D4B45" width="225" height="22.3"/>
		<rect x="156.1" y="297" fill="#4D4B45" width="299.3" height="37.8"/>
		<rect x="498" y="272" fill="#4D4B45" width="57.4" height="56.8"/>
	</g>
</g>
<g opacity="0.55">
	<g>
		<path fill="#85D375" d="M581.8,403c-0.3,0.8-0.6,1.7-0.9,2.5c-6.8,18.2-15.4,35.6-25.5,51.9c-10.5,17-22.6,32.9-36.2,47.4
			c-15.9,17-33.8,32.2-53.3,45.2H134.1c-11.7-7.8-22.8-16.3-33.2-25.6C79,505,60,482.4,44.6,457.5c-10.1-16.3-18.7-33.7-25.5-52
			c-0.3-0.8-0.6-1.7-0.9-2.5H581.8z"/>
		<g>
			<path fill="#4D4B45" d="M141,428v96h-40.1C79,505,60,482.4,45,457.5V428H141z"/>
			<rect x="156.1" y="428.4" fill="#4D4B45" width="225" height="22.3"/>
			<rect x="156.1" y="473" fill="#4D4B45" width="299.3" height="37.8"/>
			<path fill="#4D4B45" d="M555,448v9.4c-10,17-22.2,32.6-35.8,47.6H498v-57H555z"/>
		</g>
	</g>
	<g>
		<path fill="#85D375" d="M300,600c-39,0-76.3-7.5-110.5-21h220.9C376.3,592.5,339,600,300,600z"/>
	</g>
	<g>
		<path fill="#85D375" d="M581.5,196h-563c0.4-1,0.8-2,1.1-3c6.8-17.7,15.1-34.6,25-50.5c0,0,0,0,0,0c15.7-25.5,35.2-48.4,57.6-68.1
			c10.5-9.2,21.7-17.7,33.4-25.4h328.7C484,61.9,502,77,518.1,94l0,0c0.9,0.9,1.8,1.9,2.6,2.8c2.6,2.8,5.2,5.7,7.7,8.6
			c6,7,11.6,14.3,16.9,21.8c3.5,5,6.9,10.1,10.1,15.3c9.8,15.9,18.2,32.8,25,50.5c0.1,0.2,0.1,0.3,0.2,0.5
			C580.9,194.3,581.2,195.2,581.5,196z"/>
		<g>
			<path fill="#4D4B45" d="M141,74v96H45v-27.5C60,117,79.8,94,102.2,74H141z"/>
			<rect x="156.1" y="74.4" fill="#4D4B45" width="225" height="22.3"/>
			<rect x="156.1" y="119" fill="#4D4B45" width="299.3" height="37.8"/>
			<path fill="#4D4B45" d="M555,142.5v8.5h-57V94h20.1C532.1,109,545,125.1,555,142.5z"/>
		</g>
	</g>
	<g>
		<path fill="#85D375" d="M300,0c42.7,0,83.3,8.9,120.1,25H179.9C216.7,8.9,257.3,0,300,0z"/>
	</g>
</g>
</svg>
