<?xml version="1.0" encoding="utf-8"?>
<!-- Generator: Adobe Illustrator 19.0.0, SVG Export Plug-In . SVG Version: 6.00 Build 0)  -->
<svg version="1.1" xmlns="http://www.w3.org/2000/svg" xmlns:xlink="http://www.w3.org/1999/xlink" x="0px" y="0px"
	 viewBox="0 0 847.458 370.482" style="enable-background:new 0 0 847.458 370.482;" xml:space="preserve">
<style type="text/css">
	.st0{fill:#FFFFFF;}
	.st1{fill:#FFFFFF;stroke:#231F20;stroke-miterlimit:10;}
	.st2{fill:#006838;}
	.st3{fill:none;stroke:#231F20;stroke-width:3;stroke-miterlimit:10;}
	.st4{fill:none;stroke:#231F20;stroke-width:4;stroke-miterlimit:10;}
	.st5{fill:none;stroke:#231F20;stroke-miterlimit:10;}
	.st6{fill:#FFFFFF;stroke:#231F20;stroke-width:3;stroke-miterlimit:10;}
	.st7{display:none;}
	.st8{display:inline;}
	.st9{fill:#39B54A;}
</style>
<g id="Layer_7">
	<rect id="XMLID_255_" x="302.236" y="158.233" class="st0" width="524" height="69.333"/>
	<rect id="XMLID_256_" x="313.57" y="140.9" class="st0" width="24" height="26.667"/>
</g>
<g id="Layer_6">
	<rect id="XMLID_241_" x="17.903" y="227.619" class="st1" width="809.25" height="128.531"/>
</g>
<g id="BBQ_HUT">
	<g id="XMLID_186_">
		<path id="XMLID_192_" d="M150.208,288.965c4.318,6.265,6.478,13.291,6.478,21.077c0,10.427-3.714,19.343-11.143,26.748
			c-7.428,7.406-16.355,11.109-26.782,11.109H80.903v-37.857v-16.244v-21.681v-5.37v-27.051h27.051
			c7.429,0,13.794,2.651,19.097,7.954s7.954,11.669,7.954,19.097c0,2.909-0.447,5.728-1.343,8.458
			C140.375,278.114,145.889,282.7,150.208,288.965z M107.954,272.117c3.625,0,5.437-1.79,5.437-5.37
			c0-3.625-1.812-5.437-5.437-5.437h-5.37v5.437v5.37H107.954z M107.954,293.798h-5.37v16.244v16.177h16.177
			c4.475,0,8.301-1.577,11.479-4.732c3.177-3.155,4.766-6.97,4.766-11.444s-1.589-8.301-4.766-11.479
			c-3.178-3.177-7.004-4.766-11.479-4.766H107.954z"/>
		<path id="XMLID_196_" d="M267.735,288.965c4.318,6.265,6.478,13.291,6.478,21.077c0,10.427-3.714,19.343-11.143,26.748
			c-7.428,7.406-16.355,11.109-26.782,11.109H198.43v-37.857v-16.244v-21.681v-5.37v-27.051h27.051
			c7.429,0,13.794,2.651,19.097,7.954s7.954,11.669,7.954,19.097c0,2.909-0.447,5.728-1.343,8.458
			C257.902,278.114,263.417,282.7,267.735,288.965z M225.481,272.117c3.625,0,5.437-1.79,5.437-5.37
			c0-3.625-1.812-5.437-5.437-5.437h-5.37v5.437v5.37H225.481z M225.481,293.798h-5.37v16.244v16.177h16.177
			c4.475,0,8.301-1.577,11.479-4.732c3.177-3.155,4.766-6.97,4.766-11.444s-1.589-8.301-4.766-11.479
			c-3.178-3.177-7.004-4.766-11.479-4.766H225.481z"/>
		<path id="XMLID_200_" d="M374.693,255.605c10.605,10.605,15.908,23.337,15.908,38.193c0,10.874-2.998,20.809-8.995,29.803
			l9.196,9.129l-15.304,15.237l-9.196-9.062c-9.084,5.996-19.019,8.994-29.803,8.994c-14.901,0-27.644-5.292-38.227-15.875
			s-15.875-23.325-15.875-38.227c0-14.856,5.292-27.588,15.875-38.193c10.583-10.605,23.325-15.908,38.227-15.908
			C351.356,239.697,364.088,244.999,374.693,255.605z M351.737,293.731l14.096,14.029c2.104-4.386,3.154-9.039,3.154-13.962
			c0-8.905-3.188-16.546-9.564-22.923c-6.377-6.376-14.018-9.564-22.923-9.564c-8.95,0-16.591,3.188-22.923,9.564
			c-6.332,6.377-9.498,14.018-9.498,22.923c0,8.95,3.166,16.591,9.498,22.923s13.973,9.498,22.923,9.498
			c4.922,0,9.599-1.052,14.028-3.155l-14.096-14.028L351.737,293.731z"/>
		<path id="XMLID_203_" d="M485.707,239.697v43.295h32.421v-43.295h21.681V347.9h-21.681v-43.295h-32.421V347.9h-21.681V239.697
			H485.707z"/>
		<path id="XMLID_206_" d="M669.821,239.697v43.295v21.613c0,11.948-4.239,22.151-12.72,30.608
			c-8.479,8.458-18.671,12.687-30.574,12.687c-11.948,0-22.151-4.229-30.608-12.687c-8.458-8.457-12.687-18.66-12.687-30.608
			v-21.613v-43.295h21.681v43.295v19.398v2.215c0,5.952,2.114,11.042,6.344,15.271c4.229,4.229,9.318,6.344,15.271,6.344
			c5.906,0,10.985-2.114,15.236-6.344c4.252-4.229,6.377-9.318,6.377-15.271v-2.215v-19.398v-43.295H669.821z"/>
		<path id="XMLID_208_" d="M762.244,239.697h27.051v21.614h-27.051V347.9h-21.681v-86.589h-27.051v-21.614h27.051H762.244z"/>
	</g>
</g>
<g id="Hut">
	<g id="XMLID_1_">
		<g id="XMLID_58_">
			<g id="XMLID_3_">
				<path id="XMLID_4_" d="M612.043,227.619v2.281h-103.07v-1.518c-8.29,0-16.49-0.591-24.58-1.764h100.44c0,0,0,0,0.01,0
					c0.63,0.304,1.38,0.459,2.23,0.451c1.36-0.025,2.71,0.041,4.06,0.131c0.01,0,0.01,0,0.01,0c7.01,0.894,13.93,1.55,20.76,1.936
					L612.043,227.619z"/>
				<path id="XMLID_5_" d="M612.043,226.618v1.001c-2.86-0.164-5.74-0.377-8.63-0.632c0.19-0.107,0.38-0.23,0.55-0.369H612.043z"/>
				<path id="XMLID_6_" d="M612.043,227.619l-0.14,1.518c-6.83-0.385-13.75-1.042-20.76-1.936c3.7,0.254,7.35,0.73,11.09,0.189
					c0.42-0.066,0.82-0.205,1.18-0.402C606.303,227.242,609.183,227.455,612.043,227.619z"/>
				<path id="XMLID_7_" class="st0" d="M484.353,226.618h-7.25v-1.206c-8.04-1.509-15.94-3.585-23.68-6.218
					c2.47-1.723,2.79-5.586,0.95-7.695c0.23-0.303,0.43-0.632,0.58-0.984c2.32-2.042,2.95-6.119-0.53-8.096
					c-2.13-1.214-4.36-1.911-6.65-2.281c1.17-2.141,0.95-4.947-1.85-6.39c-5.17-2.674-11.29-2.075-16.94-2.502
					c-1.58-0.115-3.17-0.221-4.75-0.32c-1.04-0.804-2.4-1.247-3.99-1.017c-1.34,0.197-2.67,0.418-4,0.656
					c-4.06-0.131-8.11-0.18-12.18-0.139c-1.21,0.016-2.42,0.025-3.64,0.025c-0.06-0.041-0.11-0.09-0.17-0.131
					c0.51-1.706-0.22-3.634-1.31-4.955c-0.24-0.279-0.48-0.55-0.73-0.812c6.12-0.32,6.03-9.992-0.31-9.983
					c-4.6,0-9.22,0.033-13.82,0.074c-0.26-0.689-0.7-1.362-1.26-1.903c0.7-0.123,1.39-0.238,2.08-0.353
					c4.3-0.706,4.75-7.211,1.19-9.138c-2.5-1.362-5.18-1.961-7.95-2.182c-0.81-0.902-2-1.501-3.57-1.501h-5.95
					c-32.39-38.973-50.86-89.185-52.53-142.792c18.06,67.897,63.87,114.155,104.45,143.186c-2.89,1.239-3.55,5.111-1.96,7.547
					c0.11,2.395,1.71,4.725,4.82,4.725c2.09,0,3.5-1.058,4.23-2.486c0.39,0.148,0.78,0.303,1.17,0.435
					c0.34,0.984,1.05,1.887,2.24,2.535c3.5,1.911,5.96,5.07,9.11,7.457c3.17,2.404,6.59,4.274,10.23,5.882
					c1.38,0.607,3.01,0.509,4.43-0.049c22.86,6.448,41.08,24.15,64.43,28.883c0.75,0.148,1.44,0.14,2.08,0.016
					c0.17,0.115,0.36,0.213,0.56,0.312c15.85,7.596,33.08,9.942,50.52,10.016c0.83,0.008,1.55-0.156,2.15-0.435
					c0.65,0.295,1.36,0.468,2.02,0.435c0.27-0.016,0.53-0.041,0.8-0.09h0.01c0.03,0,0.05,0,0.08-0.008
					c0.6,0.271,1.31,0.435,2.11,0.435c0.1,0,0.2,0,0.29-0.016c0.2-0.008,0.39-0.033,0.57-0.066c0.31,0.098,0.64,0.172,0.99,0.213
					c0.65,0.328,1.41,0.533,2.31,0.533c0.12,0,0.25-0.008,0.37-0.016c0.01,0,0.02,0,0.03,0c0.01,0.008,0.02,0.008,0.03,0.008h0.01
					c0.2,0.156,0.42,0.279,0.66,0.394h-100.44C484.373,226.627,484.363,226.627,484.353,226.618z"/>
				<path id="XMLID_8_" d="M584.153,226.217l0.01,0.008c-0.01,0-0.02,0-0.03-0.008C584.143,226.217,584.143,226.217,584.153,226.217
					z"/>
				<path id="XMLID_9_" d="M508.973,228.382v1.518c-11.43,0-22.72-1.107-33.75-3.281h1.88h7.25c0.01,0.008,0.02,0.008,0.04,0
					C492.483,227.792,500.683,228.382,508.973,228.382z"/>
				<path id="XMLID_10_" d="M508.973,229.9h-118v-1.518c-3.19,0-6.35-0.599-9.46-1.764h0.72h92.99
					C486.253,228.792,497.543,229.9,508.973,229.9z"/>
				<path id="XMLID_11_" d="M422.893,159.549c-0.01,0.008-0.02,0.016-0.03,0.025c-0.1-0.008-0.19-0.008-0.29-0.008
					c-0.77,0-1.44,0.14-2.03,0.394c-40.58-29.031-86.39-75.289-104.45-143.186c0-0.008,0-0.016,0-0.025
					c-0.05-1.682-0.08-3.363-0.11-5.053c0-0.96-0.01-1.919-0.01-2.879c0-0.254,0-0.509,0-0.763h-0.97l0.96-0.123
					C332.343,80.684,380.623,129.526,422.893,159.549z"/>
				<path id="XMLID_18_" d="M400.423,190.451c-0.07,0-0.14,0-0.21,0c0.01-0.041,0.03-0.082,0.04-0.131
					C400.313,190.361,400.363,190.41,400.423,190.451z"/>
				<path id="XMLID_19_" d="M381.503,226.618h0.01c3.11,1.165,6.27,1.764,9.46,1.764v1.518c-4.35,0-8.62-1.025-12.81-2.994
					c0.24-0.156,0.46-0.328,0.66-0.525c0.43,0.115,0.9,0.189,1.41,0.189c0.32,0,0.63-0.033,0.92-0.082
					C381.273,226.528,381.383,226.577,381.503,226.618z"/>
				<path id="XMLID_20_" class="st0" d="M372.303,226.618h-58.33h-61.56c15.65-7.744,29.98-29.014,41.28-61.786
					c11.41-33.059,18.74-74.78,21.28-120.078c2.33,41.615,8.7,80.21,18.57,111.842c-0.78-1.189-2.1-2.026-3.97-2.026
					c-2.44,0-3.96,1.436-4.55,3.224c-0.77,1.075-1.06,2.453-0.9,3.782c-0.1,0.894,0,1.821,0.32,2.658
					c-2.36,2.018-2.46,6.513,0.6,8.318c2.93,1.714,5.99,2.051,9.17,2.067c-0.02,0.049-0.02,0.098-0.04,0.148
					c-5.42,1.583-4.2,9.631,1.4,9.803c0.46,0.016,0.92,0.016,1.38,0.033c0.18,0.927,0.65,1.846,1.13,2.658
					c0.6,0.984,1.63,1.805,2.78,2.223c-0.09,0.139-0.19,0.262-0.28,0.394c-1.76,2.535-0.61,5.053,1.46,6.382
					c0.57,2.215,2.81,3.905,5.27,3.765c-2.68,4.43-2.58,9.926,2.74,13.379c3.36,2.182,7.51,2.986,11.39,3.7c1,0.189,2,0.377,3,0.574
					c-0.01,0.008-0.01,0.025-0.02,0.033c-0.62,1.157-0.92,2.568-0.51,3.856c0.39,1.198,1.14,2.387,2.3,2.986
					c0.14,0.074,0.27,0.156,0.4,0.246c-0.04-0.025-0.08-0.057-0.12-0.09c0.81,0.533,1.72,0.861,2.74,0.861
					c0.49,0,1.02-0.098,1.54-0.263c0.13,0.164,0.27,0.32,0.43,0.459C371.553,226.069,371.923,226.348,372.303,226.618z"/>
				<path id="XMLID_23_" d="M368.623,159.566h-2.37c-25.48-30.959-42.27-68.857-48.98-109.857c0-0.008,0-0.025,0-0.041
					c-0.7-10.861-1.12-21.935-1.25-33.157c0.02,0.082,0.04,0.156,0.07,0.238c0,0.008,0,0.016,0,0.025
					C317.763,70.381,336.233,120.593,368.623,159.566z"/>
				<path id="XMLID_24_" class="st2" d="M366.253,159.566h-29.02c-0.23,0-0.46,0.016-0.67,0.041
					c-10.03-30.893-16.65-68.825-19.29-109.898C323.983,90.709,340.773,128.607,366.253,159.566z"/>
				<path id="XMLID_25_" d="M336.563,159.607c-0.21,0.025-0.41,0.066-0.6,0.115c0-0.008-0.01-0.016-0.02-0.025
					c-0.22-0.213-0.47-0.418-0.74-0.599c-0.28-0.418-0.61-0.787-1.02-1.099c-0.14-0.492-0.35-0.96-0.63-1.378
					c0-0.008-0.01-0.016-0.01-0.025c-9.87-31.631-16.24-70.227-18.57-111.842c0.17-2.92,0.31-5.865,0.44-8.818
					c0.49,4.61,1.11,9.196,1.86,13.732c0,0.016,0,0.033,0,0.041C319.913,90.782,326.533,128.714,336.563,159.607z"/>
				<path id="XMLID_26_" d="M316.093,16.749c-0.03-0.082-0.05-0.156-0.07-0.238c-0.01-0.008-0.01-0.016,0-0.025
					c-0.02-1.591-0.04-3.191-0.04-4.791C316.013,13.386,316.043,15.067,316.093,16.749z"/>
				<path id="XMLID_27_" d="M316.023,16.511c0.13,11.222,0.55,22.296,1.25,33.157c-0.75-4.536-1.37-9.122-1.86-13.732
					c0-0.016,0-0.025,0-0.033c0.27-6.522,0.44-13.109,0.52-19.745c0.02,0.107,0.05,0.221,0.09,0.328
					C316.013,16.495,316.013,16.503,316.023,16.511z"/>
				<path id="XMLID_28_" d="M316.023,16.486c-0.04-0.107-0.07-0.222-0.09-0.328V16.15c0.02-1.772,0.03-3.552,0.03-5.332
					c0.01-0.665,0.01-1.337,0.01-2.002c0,0.96,0.01,1.92,0.01,2.879C315.983,13.295,316.003,14.895,316.023,16.486z"/>
				<path id="XMLID_29_" d="M315.973,8.054c0,0.254,0,0.509,0,0.763h-0.16c0.05-0.205,0.1-0.418,0.15-0.632l-0.99-0.123l0.03-0.008
					H315.973z"/>
				<path id="XMLID_30_" d="M315.973,8.816c0,0.665,0,1.337-0.01,2.002c-0.02,1.682-0.06,3.363-0.11,5.037
					c-0.3-1.148-0.6-2.297-0.88-3.462c0,0,0,0,0-0.008c0.29-1.181,0.57-2.371,0.84-3.568H315.973z"/>
				<path id="XMLID_31_" d="M315.963,8.185c-0.05,0.213-0.1,0.427-0.15,0.632h-1.68c-0.05-0.205-0.1-0.418-0.15-0.632l0.99-0.123
					L315.963,8.185z"/>
				<path id="XMLID_32_" d="M315.963,10.818c0,1.78-0.01,3.56-0.03,5.332c-0.03-0.09-0.06-0.189-0.08-0.279c0,0,0-0.008,0-0.016
					C315.903,14.181,315.943,12.5,315.963,10.818z"/>
				<path id="XMLID_33_" d="M315.933,16.15v0.008c-0.08,6.636-0.25,13.223-0.52,19.745c-0.18-1.624-0.33-3.249-0.47-4.873
					c0-0.008,0-0.008,0-0.008c0.45-5.02,0.76-10.065,0.91-15.151C315.873,15.961,315.903,16.06,315.933,16.15z"/>
				<path id="XMLID_34_" d="M315.853,15.855c0,0.008,0,0.016,0,0.016c-0.15,5.086-0.46,10.131-0.91,15.151
					c-0.44-4.996-0.73-10.032-0.87-15.094c0.31-1.173,0.61-2.346,0.9-3.536C315.253,13.558,315.553,14.706,315.853,15.855z"/>
				<path id="XMLID_35_" d="M314.133,8.816h1.68c-0.27,1.198-0.55,2.387-0.84,3.568C314.683,11.203,314.403,10.014,314.133,8.816z"
					/>
				<path id="XMLID_36_" d="M315.413,35.903c0,0.008,0,0.016,0,0.033c-0.13,2.953-0.27,5.898-0.44,8.818
					c-0.18-3.117-0.33-6.259-0.46-9.417c0.16-1.436,0.3-2.871,0.43-4.307C315.083,32.655,315.233,34.279,315.413,35.903z"/>
				<path id="XMLID_37_" d="M314.973,12.385c0,0.008,0,0.008,0,0.008c-0.29,1.19-0.59,2.363-0.9,3.536
					c-0.04-1.411-0.07-2.83-0.09-4.249c0-0.951-0.01-1.911-0.01-2.863h0.16C314.403,10.014,314.683,11.203,314.973,12.385z"/>
				<path id="XMLID_38_" d="M314.943,8.054l0.03,0.008l-0.99,0.123c0.05,0.213,0.1,0.427,0.15,0.632h-0.16c0-0.254,0-0.509,0-0.763
					H314.943z"/>
				<path id="XMLID_39_" d="M314.943,31.022c0,0,0,0,0,0.008c-0.13,1.435-0.27,2.871-0.43,4.307
					c-0.26-6.349-0.43-12.756-0.49-19.212c0.02-0.066,0.04-0.131,0.05-0.197C314.213,20.99,314.503,26.027,314.943,31.022z"/>
				<path id="XMLID_40_" d="M314.943,8.054h-0.97c0,0.254,0,0.509,0,0.763c0,0.665,0,1.329-0.01,1.985
					c-0.03,2.026-0.07,4.044-0.14,6.062c-20.28,76.125-75.44,125.041-118.97,152.964c-45.29,29.056-100.4,49.506-151.72,56.79
					h-12.61c54.34-5.504,114.37-26.726,163.03-57.955c44.92-28.818,102.27-80.087,120.43-160.733L314.943,8.054z"/>
				<path id="XMLID_41_" d="M314.513,35.337c0.13,3.158,0.28,6.3,0.46,9.417c-2.54,45.298-9.87,87.019-21.28,120.078
					c-11.3,32.772-25.63,54.042-41.28,61.786h-3.94c16.25-6.046,31.37-27.595,43.29-62.163c11.05-32.05,18.27-72.278,20.99-116.009
					C313.453,44.106,314.043,39.734,314.513,35.337z"/>
				<path id="XMLID_42_" d="M314.073,15.929c-0.01,0.066-0.03,0.131-0.05,0.197c-0.03-1.477-0.04-2.961-0.04-4.446
					C314.003,13.099,314.033,14.518,314.073,15.929z"/>
				<path id="XMLID_43_" d="M314.023,16.125c0.06,6.456,0.23,12.863,0.49,19.212c-0.47,4.397-1.06,8.769-1.76,13.109
					c0.66-10.475,1.05-21.156,1.17-31.968C313.963,16.363,313.993,16.24,314.023,16.125z"/>
				<path id="XMLID_44_" d="M314.023,16.125c-0.03,0.115-0.06,0.238-0.1,0.353c0.03-1.887,0.04-3.782,0.04-5.677
					c0.01-0.656,0.01-1.321,0.01-1.985c0,0.952,0.01,1.911,0.01,2.863C313.983,13.164,313.993,14.649,314.023,16.125z"/>
				<path id="XMLID_45_" d="M313.973,228.382v1.518h-75c4.56,0,9.05-1.107,13.44-3.281h61.56V228.382z"/>
				<path id="XMLID_46_" d="M313.963,10.802c0,1.895-0.01,3.79-0.04,5.677c-0.02,0.131-0.06,0.254-0.1,0.385
					C313.893,14.846,313.933,12.828,313.963,10.802z"/>
				<path id="XMLID_47_" d="M313.823,16.864c0.04-0.131,0.08-0.254,0.1-0.385c-0.12,10.812-0.51,21.492-1.17,31.968
					c-7.05,43.657-25.53,83.828-53.74,115.87c-29.75,33.781-67.47,55.297-108.41,62.303h-11.03
					c44.49-4.799,85.77-26.8,117.78-63.156C292.033,124.079,311.913,72.309,313.823,16.864z"/>
				<path id="XMLID_48_" class="st2" d="M312.753,48.446c-2.72,43.731-9.94,83.959-20.99,116.009
					c-11.92,34.568-27.04,56.118-43.29,62.163h-97.87c40.94-7.005,78.66-28.522,108.41-62.303
					C287.223,132.274,305.703,92.103,312.753,48.446z"/>
				<path id="XMLID_49_" class="st0" d="M313.823,16.864c-1.91,55.445-21.79,107.215-56.47,146.599
					c-32.01,36.356-73.29,58.357-117.78,63.156h-96.44c51.32-7.284,106.43-27.735,151.72-56.79
					C238.383,141.904,293.543,92.989,313.823,16.864z"/>
				<path id="XMLID_50_" d="M248.473,226.618h3.94c-4.39,2.174-8.88,3.281-13.44,3.281v-1.518
					C242.173,228.382,245.343,227.792,248.473,226.618z"/>
				<path id="XMLID_51_" d="M150.603,226.618h97.87c-3.13,1.173-6.3,1.764-9.5,1.764v1.518h-118v-0.763
					C130.983,229.137,140.883,228.292,150.603,226.618z"/>
				<path id="XMLID_52_" d="M139.573,226.618h11.03c-9.72,1.674-19.62,2.518-29.63,2.518v-1.518
					C127.223,227.619,133.433,227.283,139.573,226.618z"/>
				<path id="XMLID_53_" d="M43.133,226.618h96.44c-6.14,0.665-12.35,1.001-18.6,1.001v1.518v0.763H18.043v-0.763
					C26.263,228.669,34.643,227.824,43.133,226.618z"/>
				<path id="XMLID_54_" d="M30.523,226.618h12.61c-8.49,1.206-16.87,2.051-25.09,2.518v-1.526
					C22.163,227.373,26.323,227.045,30.523,226.618z"/>
				<path id="XMLID_55_" d="M18.043,226.618h12.48c-4.2,0.427-8.36,0.755-12.48,0.993V226.618z"/>
				<path id="XMLID_56_" d="M18.043,227.611v1.526l-0.14-1.518C17.953,227.619,17.993,227.611,18.043,227.611z"/>
			</g>
			<g id="XMLID_57_">
			</g>
		</g>
	</g>
	<g id="Original">
		<g id="XMLID_69_">
			<path id="XMLID_210_" d="M320.401,178.371c0-4.725,1.763-8.283,5.287-10.672c3.524-2.389,8.717-3.584,15.578-3.584
				c7.049,0,12.336,1.196,15.86,3.584c3.524,2.39,5.287,5.948,5.287,10.672v28.675c0,4.726-1.763,8.283-5.287,10.672
				c-3.524,2.39-8.812,3.584-15.86,3.584c-6.861,0-12.054-1.194-15.578-3.584c-3.524-2.389-5.287-5.946-5.287-10.672V178.371z
				 M323.503,207.126c0,8.377,5.922,12.565,17.764,12.565c12.03,0,18.046-4.188,18.046-12.565v-28.835
				c0-8.377-6.016-12.565-18.046-12.565c-11.842,0-17.764,4.188-17.764,12.565V207.126z"/>
			<path id="XMLID_213_" d="M414.998,164.517c7.331,0,12.548,1.142,15.649,3.423c3.102,2.283,4.652,5.356,4.652,9.222v5.075
				c0,3.491-1.247,6.189-3.736,8.095c-2.491,1.907-6.463,3.155-11.913,3.746c5.545,0.483,9.538,1.705,11.983,3.665
				c2.443,1.961,3.666,4.498,3.666,7.611v8.86c0,1.075,0.163,2.229,0.493,3.464c0.328,1.235,1.058,2.31,2.186,3.222h-3.384
				c-1.035-0.912-1.691-1.945-1.974-3.101c-0.282-1.154-0.423-2.349-0.423-3.585v-8.86c0-2.094-0.518-3.812-1.551-5.154
				c-1.035-1.342-2.516-2.403-4.441-3.182c-1.928-0.778-4.207-1.329-6.837-1.651c-2.633-0.322-5.547-0.483-8.741-0.483h-12.124
				V220.9h-3.102v-56.382H414.998z M410.628,193.192c3.384,0,6.415-0.147,9.093-0.443c2.679-0.294,4.935-0.846,6.768-1.651
				c1.833-0.805,3.242-1.893,4.229-3.262c0.986-1.369,1.48-3.154,1.48-5.356v-5.155c0-3.436-1.293-6.148-3.877-8.135
				c-2.586-1.986-7.073-2.98-13.464-2.98h-16.354v26.983H410.628z"/>
			<path id="XMLID_216_" d="M473.927,164.517V220.9h-3.102v-56.382H473.927z"/>
			<path id="XMLID_218_" d="M527.498,164.115c3.759,0,6.955,0.376,9.587,1.127c2.631,0.753,4.77,1.772,6.415,3.061
				c1.644,1.289,2.842,2.807,3.595,4.551c0.751,1.746,1.128,3.584,1.128,5.518v3.705h-3.102v-3.786c0-1.718-0.307-3.343-0.916-4.873
				c-0.612-1.53-1.6-2.859-2.961-3.987c-1.363-1.127-3.172-2.026-5.428-2.698c-2.256-0.671-4.982-1.007-8.177-1.007
				c-3.291,0-6.063,0.336-8.318,1.007c-2.256,0.672-4.066,1.571-5.428,2.698c-1.363,1.128-2.351,2.457-2.96,3.987
				c-0.612,1.53-0.917,3.155-0.917,4.873v28.835c0,1.719,0.305,3.33,0.917,4.833c0.609,1.504,1.597,2.819,2.96,3.946
				c1.361,1.128,3.172,2.027,5.428,2.698c2.256,0.673,5.027,1.007,8.318,1.007c3.194,0,5.921-0.334,8.177-1.007
				c2.256-0.671,4.064-1.57,5.428-2.698c1.361-1.127,2.349-2.442,2.961-3.946c0.609-1.503,0.916-3.114,0.916-4.833V194.32h-15.367
				v-1.611h18.469v14.338c0,1.933-0.377,3.772-1.128,5.517c-0.753,1.746-1.951,3.263-3.595,4.551
				c-1.646,1.289-3.784,2.31-6.415,3.062c-2.632,0.751-5.828,1.127-9.587,1.127c-3.76,0-6.932-0.376-9.516-1.127
				c-2.586-0.752-4.701-1.772-6.345-3.062c-1.646-1.288-2.844-2.805-3.595-4.551c-0.753-1.744-1.128-3.584-1.128-5.517v-28.675
				c0-1.933,0.375-3.772,1.128-5.518c0.751-1.744,1.949-3.262,3.595-4.551c1.644-1.289,3.759-2.308,6.345-3.061
				C520.566,164.491,523.738,164.115,527.498,164.115z"/>
			<path id="XMLID_220_" d="M584.311,164.517V220.9h-3.102v-56.382H584.311z"/>
			<path id="XMLID_222_" d="M620.4,220.9h-2.96v-56.382h4.37l34.682,52.757v-52.757h2.96V220.9h-3.807L620.4,167.095V220.9z"/>
			<path id="XMLID_224_" d="M700.758,207.61l-5.78,13.29h-2.82l23.826-56.463h4.37l24.39,56.463h-3.102l-5.78-13.29H700.758z
				 M701.322,205.998h33.977l-17.199-39.467L701.322,205.998z"/>
			<path id="XMLID_227_" d="M777.451,220.9v-56.382h3.102v54.691h33.13v1.691H777.451z"/>
		</g>
	</g>
</g>
<g id="Lines">
	<line id="XMLID_59_" class="st3" x1="179.903" y1="228.233" x2="827.903" y2="228.233"/>
	<path id="XMLID_170_" class="st4" d="M430.236,157.9c132.421,0,265.37,0,397.667,0"/>
	<path id="XMLID_124_" class="st4" d="M335.147,157.9c31.655,0,63.357,0,95.089,0"/>
	<path id="XMLID_60_" class="st5" d="M823.903,157.9"/>
	<path id="XMLID_61_" class="st5" d="M827.153,356.15"/>
	<path id="XMLID_62_" class="st5" d="M180.153,355.65"/>
	<line id="XMLID_86_" class="st3" x1="17.903" y1="355.9" x2="827.153" y2="356.15"/>
	<line id="XMLID_87_" class="st6" x1="826.736" y1="357.233" x2="826.736" y2="156.316"/>
	<line id="XMLID_204_" class="st6" x1="18.82" y1="357.4" x2="18.82" y2="226.65"/>
</g>
<g id="Spare_Hut" class="st7">
	<g id="XMLID_65_" class="st8">
		<g id="XMLID_189_">
			<g id="XMLID_77_">
				<path id="XMLID_85_" d="M285.903,171.59v1.001c-4.17-0.238-8.37-0.566-12.62-1.001H285.903z"/>
				<path id="XMLID_84_" d="M285.903,172.591l-0.14,1.518c-8.22-0.468-16.6-1.313-25.09-2.518h12.61
					C277.533,172.025,281.733,172.353,285.903,172.591z"/>
				<path id="XMLID_83_" d="M158.213,171.59c8.1,1.173,16.32,1.764,24.62,1.764v1.518c-11.45,0-22.74-1.107-33.79-3.281H158.213z"/>
				<path id="XMLID_82_" d="M182.833,173.354c-8.3,0-16.52-0.591-24.62-1.764h102.46c8.49,1.206,16.87,2.051,25.09,2.518l0.14-1.518
					v2.281h-103.07V173.354z"/>
				<path id="XMLID_81_" class="st9" d="M260.673,171.59h-102.46c-42.19-6.062-81.2-27.694-111.76-62.401
					c-34.86-39.597-54.77-91.687-56.5-147.46c20.26,76.183,75.45,125.131,119,153.071
					C154.243,143.855,209.353,164.306,260.673,171.59z"/>
				<path id="XMLID_80_" class="st0" d="M149.043,171.59h-93.71c-16.25-6.046-31.37-27.595-43.29-62.164
					C1.103,77.689-6.087,37.928-8.857-5.311c7.11,43.46,25.55,83.443,53.65,115.353C73.533,142.682,109.713,163.871,149.043,171.59z
					"/>
				<path id="XMLID_79_" d="M55.333,171.59h93.71c11.05,2.174,22.34,3.281,33.79,3.281h-118v-1.518
					C61.633,173.354,58.463,172.763,55.333,171.59z"/>
				<path id="XMLID_78_" d="M55.333,171.59c3.13,1.173,6.3,1.764,9.5,1.764v1.518c-4.56,0-9.05-1.107-13.44-3.281H55.333z"/>
				<path id="XMLID_88_" d="M64.833,174.871h-77v-1.518h2v-1.764h61.56C55.783,173.764,60.273,174.871,64.833,174.871z"/>
				<path id="XMLID_89_" class="st9" d="M51.393,171.59h-61.56V4.336c3.18,39.638,10.11,75.994,20.28,105.468
					C21.413,142.576,35.743,163.846,51.393,171.59z"/>
				<path id="XMLID_100_" d="M149.043,171.59c-39.33-7.719-75.51-28.908-104.25-61.548c-28.1-31.91-46.54-71.892-53.65-115.353
					c-0.71-10.886-1.13-21.984-1.26-33.239c0.01,0.09,0.04,0.189,0.07,0.279c1.73,55.773,21.64,107.863,56.5,147.46
					c30.56,34.708,69.57,56.339,111.76,62.401H149.043z"/>
				<path id="XMLID_103_" d="M-10.117-38.55c0.13,11.255,0.55,22.354,1.26,33.239c-0.5-2.986-0.93-5.988-1.31-8.999v-24.421
					C-10.157-38.673-10.147-38.608-10.117-38.55z"/>
				<path id="XMLID_109_" d="M108.953,114.8c-43.55-27.94-98.74-76.888-119-153.071c-0.05-1.698-0.09-3.396-0.11-5.102
					c-0.01-0.943-0.01-1.887-0.01-2.838c0-0.254,0-0.509,0-0.763h-0.97l0.96-0.123c18.16,80.645,75.51,131.915,120.43,160.733
					c48.66,31.229,108.69,52.451,163.03,57.955h-12.61C209.353,164.306,154.243,143.855,108.953,114.8z"/>
				<path id="XMLID_113_" d="M10.113,109.804c-10.17-29.474-17.1-65.83-20.28-105.468V-14.31c0.38,3.01,0.81,6.013,1.31,8.999
					c2.77,43.239,9.96,83,20.9,114.738c11.92,34.568,27.04,56.118,43.29,62.164h-3.94C35.743,163.846,21.413,142.576,10.113,109.804
					z"/>
				<path id="XMLID_114_" d="M-10.157-43.374c0.02,1.706,0.06,3.404,0.11,5.102c-0.03-0.09-0.06-0.189-0.07-0.279
					C-10.137-40.158-10.157-41.758-10.157-43.374z"/>
				<path id="XMLID_116_" d="M-10.167-38.731v-7.481c0,0.952,0,1.895,0.01,2.838c0,1.616,0.02,3.216,0.04,4.824
					C-10.147-38.608-10.157-38.673-10.167-38.731z"/>
				<rect id="XMLID_117_" x="-12.167" y="171.59" width="2" height="1.764"/>
				<path id="XMLID_121_" d="M-10.167,4.336c-0.4-4.848-0.73-9.737-1-14.684c0.17-2.912,0.31-5.841,0.44-8.777
					c0.17,1.608,0.36,3.216,0.56,4.815V4.336z"/>
				<path id="XMLID_122_" d="M-10.727-19.125c0.27-6.53,0.45-13.125,0.52-19.77c0,0.057,0.02,0.107,0.04,0.164v24.421
					C-10.367-15.909-10.557-17.517-10.727-19.125z"/>
				<path id="XMLID_123_" d="M-10.207-38.895c0.02-1.764,0.03-3.535,0.03-5.316c0.01-0.665,0.01-1.337,0.01-2.002v7.481
					C-10.187-38.788-10.207-38.837-10.207-38.895z"/>
				<path id="XMLID_127_" d="M-10.167-46.975c0,0.254,0,0.509,0,0.763h-0.16c0.05-0.205,0.1-0.418,0.15-0.632l-0.99-0.123
					l0.03-0.008H-10.167z"/>
				<path id="XMLID_128_" d="M-10.177-44.21c-0.02,1.682-0.06,3.363-0.11,5.037c-0.3-1.148-0.6-2.297-0.88-3.454
					c0.29-1.189,0.57-2.379,0.84-3.585h0.16C-10.167-45.547-10.167-44.875-10.177-44.21z"/>
				<path id="XMLID_133_" d="M-10.177-46.843c-0.05,0.213-0.1,0.426-0.15,0.632h-1.68c-0.05-0.205-0.1-0.418-0.15-0.632l0.99-0.123
					L-10.177-46.843z"/>
				<path id="XMLID_134_" d="M-10.287-39.174c0.05-1.673,0.09-3.355,0.11-5.037c0,1.78-0.01,3.552-0.03,5.316
					C-10.247-38.985-10.267-39.083-10.287-39.174z"/>
				<path id="XMLID_137_" d="M-11.167-42.627c0.28,1.157,0.58,2.305,0.88,3.454c-0.15,5.094-0.46,10.164-0.92,15.192
					c-0.43-5.012-0.72-10.057-0.86-15.127C-11.757-40.273-11.457-41.446-11.167-42.627z"/>
				<path id="XMLID_138_" d="M-10.327-46.212c-0.27,1.206-0.55,2.395-0.84,3.585c-0.29-1.189-0.57-2.379-0.84-3.585H-10.327z"/>
				<path id="XMLID_139_" d="M-10.207-38.895c-0.07,6.645-0.25,13.24-0.52,19.77c-0.18-1.616-0.33-3.24-0.48-4.856
					c0.46-5.029,0.77-10.098,0.92-15.192C-10.267-39.083-10.247-38.985-10.207-38.895z"/>
				<path id="XMLID_142_" d="M-10.727-19.125c-0.13,2.937-0.27,5.865-0.44,8.777c-0.18-3.093-0.33-6.21-0.46-9.343
					c0.16-1.427,0.3-2.863,0.42-4.29C-11.057-22.365-10.907-20.741-10.727-19.125z"/>
				<path id="XMLID_144_" d="M-11.167-10.348c0.27,4.947,0.6,9.836,1,14.684V171.59h-2V4.336
					C-11.767-0.512-11.437-5.401-11.167-10.348z"/>
				<path id="XMLID_148_" d="M-11.197-46.975l0.03,0.008l-0.99,0.123c0.05,0.213,0.1,0.426,0.15,0.632h-0.16
					c0-0.254,0-0.509,0-0.763H-11.197z"/>
				<path id="XMLID_157_" d="M-11.207-23.981c-0.12,1.427-0.26,2.863-0.42,4.29c-0.26-6.341-0.43-12.748-0.5-19.204
					c0.03-0.074,0.05-0.139,0.06-0.213C-11.927-34.038-11.637-28.993-11.207-23.981z"/>
				<path id="XMLID_158_" d="M-12.167-15.073c0.2-1.534,0.38-3.076,0.54-4.618c0.13,3.134,0.28,6.251,0.46,9.343
					c-0.27,4.947-0.6,9.836-1,14.684V-15.073z"/>
				<path id="XMLID_159_" d="M-11.627-19.691c-0.16,1.542-0.34,3.084-0.54,4.618v-23.658c0.02-0.057,0.04-0.107,0.04-0.164
					C-12.057-32.439-11.887-26.032-11.627-19.691z"/>
				<path id="XMLID_162_" d="M-12.007-46.212c0.27,1.206,0.55,2.395,0.84,3.585c-0.29,1.181-0.59,2.354-0.9,3.519
					c-0.04-1.444-0.07-2.887-0.09-4.339c-0.01-0.919-0.01-1.846-0.01-2.764H-12.007z"/>
				<path id="XMLID_163_" d="M-12.067-39.108c-0.01,0.074-0.03,0.14-0.06,0.213c-0.02-1.518-0.03-3.035-0.03-4.553
					C-12.137-41.995-12.107-40.552-12.067-39.108z"/>
				<path id="XMLID_164_" d="M-12.157-43.447c0,1.518,0.01,3.035,0.03,4.553c0,0.057-0.02,0.107-0.04,0.164v-7.481
					C-12.167-45.293-12.167-44.366-12.157-43.447z"/>
				<path id="XMLID_165_" d="M-12.167,173.354v1.518h-75c4.56,0,9.05-1.107,13.44-3.281h61.56V173.354z"/>
				<path id="XMLID_169_" class="st9" d="M-12.167,4.336V171.59h-61.56c15.65-7.744,29.98-29.014,41.28-61.786
					C-22.277,80.33-15.347,43.974-12.167,4.336z"/>
				<path id="XMLID_171_" d="M-12.167-38.731v23.658c-0.36,2.846-0.77,5.677-1.22,8.49c0.66-10.476,1.05-21.156,1.17-31.968
					C-12.187-38.608-12.177-38.673-12.167-38.731z"/>
				<path id="XMLID_172_" d="M-12.217-38.55c0.03-1.887,0.04-3.782,0.04-5.677c0.01-0.656,0.01-1.321,0.01-1.985v7.481
					C-12.177-38.673-12.187-38.608-12.217-38.55z"/>
				<path id="XMLID_173_" d="M-12.177-44.227c0,1.895-0.01,3.79-0.04,5.677c-0.02,0.131-0.06,0.254-0.1,0.385
					C-12.247-40.183-12.207-42.201-12.177-44.227z"/>
				<path id="XMLID_174_" class="st0" d="M-13.387-6.582c-2.72,43.731-9.94,83.959-20.99,116.009
					c-11.92,34.568-27.04,56.118-43.29,62.164h-97.87c40.94-7.006,78.66-28.522,108.41-62.303
					C-38.917,77.246-20.437,37.075-13.387-6.582z"/>
				<path id="XMLID_175_" class="st9" d="M-12.317-38.165c-1.91,55.445-21.79,107.215-56.47,146.599
					c-32.01,36.356-73.29,58.357-117.78,63.156h-96.44c51.32-7.284,106.43-27.735,151.72-56.79
					C-87.757,86.876-32.597,37.961-12.317-38.165z"/>
				<path id="XMLID_176_" d="M-12.167,4.336c-3.18,39.638-10.11,75.994-20.28,105.468c-11.3,32.772-25.63,54.042-41.28,61.786h-3.94
					c16.25-6.046,31.37-27.595,43.29-62.164c11.05-32.05,18.27-72.278,20.99-116.009c0.45-2.814,0.86-5.644,1.22-8.49V4.336z"/>
				<path id="XMLID_177_" d="M-77.667,171.59h3.94c-4.39,2.174-8.88,3.281-13.44,3.281v-1.518
					C-83.967,173.354-80.797,172.763-77.667,171.59z"/>
				<path id="XMLID_178_" d="M-175.537,171.59h97.87c-3.13,1.173-6.3,1.764-9.5,1.764v1.518h-118v-0.763
					C-195.147,174.109-185.247,173.264-175.537,171.59z"/>
				<path id="XMLID_179_" d="M-67.127,109.287c-29.75,33.781-67.47,55.297-108.41,62.303h-11.03
					c44.49-4.799,85.77-26.8,117.78-63.156c34.68-39.383,54.56-91.153,56.47-146.599c0.04-0.131,0.08-0.254,0.1-0.385
					c-0.12,10.812-0.51,21.492-1.17,31.968C-20.437,37.075-38.917,77.246-67.127,109.287z"/>
				<path id="XMLID_181_" d="M-205.167,172.591c6.25,0,12.46-0.336,18.6-1.001h11.03c-9.71,1.673-19.61,2.518-29.63,2.518V172.591z"
					/>
				<path id="XMLID_182_" d="M-205.167,174.109v0.763h-102.93v-0.763c8.22-0.468,16.6-1.313,25.09-2.518h96.44
					c-6.14,0.664-12.35,1.001-18.6,1.001V174.109z"/>
				<path id="XMLID_183_" d="M-132.587,113.635c44.92-28.818,102.27-80.087,120.43-160.733l0.96,0.123h-0.97
					c0,0.254,0,0.509,0,0.763c0,0.664,0,1.329-0.01,1.985c-0.03,2.026-0.07,4.044-0.14,6.062
					c-20.28,76.125-75.44,125.041-118.97,152.964c-45.29,29.055-100.4,49.506-151.72,56.79h-12.61
					C-241.277,166.086-181.247,144.864-132.587,113.635z"/>
				<path id="XMLID_184_" d="M-295.617,171.59h12.61c-8.49,1.206-16.87,2.051-25.09,2.518v-1.526
					C-303.977,172.345-299.817,172.017-295.617,171.59z"/>
				<path id="XMLID_185_" d="M-308.097,171.59h12.48c-4.2,0.427-8.36,0.755-12.48,0.993V171.59z"/>
				<path id="XMLID_187_" d="M-308.097,172.583v1.526l-0.14-1.518C-308.187,172.591-308.147,172.583-308.097,172.583z"/>
			</g>
			<g id="XMLID_188_">
			</g>
		</g>
	</g>
</g>
</svg>
