<?xml version="1.0" encoding="utf-8"?>
<!-- Generator: Adobe Illustrator 16.0.0, SVG Export Plug-In . SVG Version: 6.00 Build 0)  -->
<!DOCTYPE svg PUBLIC "-//W3C//DTD SVG 1.1//EN" "http://www.w3.org/Graphics/SVG/1.1/DTD/svg11.dtd">
<svg version="1.1" xmlns="http://www.w3.org/2000/svg" xmlns:xlink="http://www.w3.org/1999/xlink" x="0px" y="0px" width="800px"
	 height="600px" viewBox="0 0 800 600" enable-background="new 0 0 800 600" xml:space="preserve">
<g id="Top_tent">
	<path fill="#23A300" stroke="#000000" stroke-miterlimit="10" d="M396.257,140.433c0,52.207,162.264,124.324,279.729,124.324
		c0,13-137.543,25.577-279.729,25.577c-142.425,0-280.199-12.576-280.199-25.577c117.465,0,279.73-72.118,279.73-124.324"/>
	<path fill="#FFFFFF" stroke="#000000" stroke-miterlimit="10" d="M307.363,288.552c6.905-13.559,36.186-30.298,52.682-53.09
		c16.496-22.792,31.645-70.793,31.645-70.793s-31.737,46.193-66.294,68.126c-34.558,21.933-95.901,38.042-110.366,51.09"/>
	<path fill="#FFFFFF" stroke="#000000" stroke-miterlimit="10" d="M484.348,288.552c-6.904-13.559-36.186-30.298-52.682-53.09
		c-16.496-22.792-31.644-70.793-31.644-70.793s31.736,46.193,66.294,68.126c34.558,21.933,95.9,38.042,110.365,51.09"/>
</g>
<g id="bottom_tent">
	<path fill="#23A300" stroke="#000000" stroke-miterlimit="10" d="M116.059,264.89c0,0-4.4,21.61,280.199,25.61h-0.803
		c284.598-4,281.045-25.652,281.045-25.652v-0.091c0,0,8.613,60.909-20.721,56.242s-24.545-7.999-33.545-14.333
		c0,0-15.106,37.666-46.106,2.666c0,0-14.437,34.436-46.386,6.667c0,0-31.361,25.251-48.695-2.083c0,0-37.89,37.584-85.124-1.416
		h-0.135c-47.234,39-85.099,1.416-85.099,1.416c-17.333,27.334-48.667,2.208-48.667,2.208c-31.949,27.769-46.333-6.729-46.333-6.729
		c-31,35-46-2.697-46-2.697c-9,6.334-4,9.65-33.333,14.317s-20.297-56.25-20.297-56.25"/>
</g>
<g id="white_bottom_tent">
	<path fill="#FFFFFF" stroke="#000000" stroke-miterlimit="10" d="M215.03,283.885c0,0-2.507,13.904,0.66,25.509
		s25,29.854,46.333,6.729c0,0,31.5,25.708,48.667-2.208c0,0-5.319-9.313-3.326-25.364
		C307.363,288.552,288.37,289.104,215.03,283.885z"/>
	<path fill="#FFFFFF" stroke="#000000" stroke-miterlimit="10" d="M576.682,283.885c0,0,2.508,13.904-0.66,25.509
		c-3.166,11.605-25,29.854-46.332,6.729c0,0-31.501,25.708-48.668-2.208c0,0,5.319-9.313,3.326-25.364
		C484.348,288.552,503.342,289.104,576.682,283.885z"/>
</g>
<g id="poles">
	
		<line fill="none" stroke="#000000" stroke-width="6" stroke-miterlimit="10" x1="129.684" y1="320.667" x2="113.023" y2="490.327"/>
	
		<line fill="none" stroke="#000000" stroke-width="6" stroke-miterlimit="10" x1="662.027" y1="320.667" x2="678.689" y2="490.327"/>
</g>
<g id="BBQ_HUT">
	<rect x="189.192" y="345.667" fill="none" width="426.667" height="150.667"/>
	<text transform="matrix(1 0 0 1 189.1924 449.584)" font-family="'HamburgerHeaven'" font-size="141">BBQ HUT</text>
</g>
<g id="ORIGINAL">
	<rect x="175.017" y="247.016" fill="none" width="438.317" height="100.5"/>
	<text transform="matrix(1 0 0 1 175.0171 332.9453)" font-family="'ARESSENCE'" font-size="132">ORIGINAL</text>
</g>
</svg>
