<?xml version="1.0" encoding="utf-8"?>
<!-- Generator: Adobe Illustrator 18.1.1, SVG Export Plug-In . SVG Version: 6.00 Build 0)  -->
<svg version="1.1" id="Layer_1" xmlns="http://www.w3.org/2000/svg" xmlns:xlink="http://www.w3.org/1999/xlink" x="0px" y="0px"
	 viewBox="0 0 600 600" style="enable-background:new 0 0 600 600;" xml:space="preserve">
<circle style="fill:none;stroke:#669933;stroke-miterlimit:10;" cx="300" cy="300" r="300"/>
<g>
	<path style="fill:#99CC66;" d="M300,0c-0.1,0-0.3,0-0.4,0h-0.1c-0.1,0-0.3,0-0.4,0l0,0c-0.1,0-0.3,0-0.4,0h-0.1c-0.2,0-0.3,0-0.4,0
		l0,0c-0.1,0-0.3,0-0.4,0h-0.1c-0.2,0-0.3,0-0.4,0c0,0,0,0-0.1,0s-0.3,0-0.4,0h-0.1c-0.1,0-0.3,0-0.4,0c0,0,0,0-0.1,0s-0.3,0-0.4,0
		c0,0,0,0-0.1,0s-0.3,0-0.4,0c0,0,0,0-0.1,0s-0.3,0-0.4,0l0,0c-0.1,0-0.3,0-0.4,0c0,0,0,0-0.1,0s-0.3,0-0.4,0l0,0
		c-0.2,0-0.3,0-0.5,0c0,0,0,0-0.1,0c-0.2,0-0.3,0-0.4,0l0,0c-0.2,0-0.3,0.1-0.5,0.1c0,0,0,0-0.1,0c-0.3,0-0.6,0-0.9,0V0
		c-0.3,0-0.6,0-0.9,0l0,0c-10.3,0-20.4,1.2-30.4,2.6l39.5,295.7l-98-281.9c-3.5,1.2-6.6,2.5-10.6,3.8l0,0c0,0.2-1,0.5-1.6,0.7h0.1
		c-0.1,0-0.1,0.1-0.3,0.1l0,0c-0.1,0-0.2,0.1-0.3,0.1h-0.1c-0.1,0-0.2,0.1-0.3,0.1h-0.1c-0.1,0-0.2,0.1-0.3,0.1l0,0
		c-0.3,0.1-0.7,0.3-1,0.4c0,0-0.1,0-0.1,0.1c-0.1,0-0.2,0.1-0.2,0.1c-0.1,0-0.1,0-0.1,0.1c-0.1,0-0.2,0.1-0.3,0.1c0,0-0.1,0-0.1,0.1
		c-0.1,0-0.2,0.1-0.2,0.1s-0.1,0-0.1,0.1c-0.1,0-0.2,0.1-0.2,0.1s-0.1,0-0.1,0.1c-0.2,0.1-0.4,0.2-0.6,0.2c0,0,0,0-0.1,0
		s-0.2,0.1-0.2,0.1c-0.1,0-0.1,0-0.2,0.1c-0.1,0-0.1,0.1-0.2,0.1c-0.1,0-0.1,0-0.2,0.1c-0.1,0-0.1,0.1-0.2,0.1c-0.1,0-0.1,0-0.2,0.1
		c-0.1,0-0.1,0.1-0.2,0.1c-0.1,0-0.1,0-0.2,0.1c-0.1,0-0.2,0.1-0.2,0.1h-0.1c-0.2,0.1-0.4,0.1-0.5,0.2h-0.1c-0.1,0-0.2,0.1-0.2,0.1
		c-0.1,0-0.1,0-0.2,0.1c-0.1,0-0.1,0.1-0.2,0.1c-0.1,0-0.1,0-0.2,0.1c-0.1,0-0.1,0.1-0.2,0.1c-0.1,0-0.1,0-0.2,0.1
		c-0.1,0-0.1,0.1-0.2,0.1c-0.1,0-0.1,0-0.2,0.1c-0.1,0-0.2,0.1-0.2,0.1c-0.1,0-0.1,0-0.1,0.1c-0.2,0.1-0.3,0.1-0.5,0.2H180
		c-0.1,0-0.2,0.1-0.2,0.1s-0.1,0-0.1,0.1c-0.1,0-0.2,0.1-0.2,0.1c-0.1,0-0.1,0-0.2,0.1c-0.1,0-0.2,0.1-0.2,0.1c-0.1,0-0.1,0-0.2,0.1
		c-0.1,0-0.1,0.1-0.2,0.1c-0.1,0-0.1,0-0.2,0.1c-0.1,0-0.2,0.1-0.2,0.1s0,0-0.1,0c-0.3,0.1-0.6,0.3-0.9,0.4h-0.1
		c-0.1,0-0.2,0.1-0.3,0.1h-0.1c-0.1,0-0.2,0.1-0.3,0.1h-0.1c-0.1,0-0.2,0.1-0.3,0.1c0,0,0,0-0.1,0c-0.5,0.2-0.9,0.4-1.4,0.6l0,0
		c-0.1,0-0.2,0.1-0.3,0.1l0,0c-0.1,0-0.2,0.1-0.3,0.1l0,0c-6,2.8-11.9,5.8-17.7,8.9l143.2,261.7l0.1,0.7L114.6,64
		c-3.9,3.1-7.7,6.3-11.5,9.5l0,0c-0.1,0.1-0.2,0.2-0.3,0.3l0,0c-0.1,0.1-0.2,0.2-0.3,0.2c0,0,0,0-0.1,0.1s-0.2,0.2-0.3,0.2
		c0,0,0,0-0.1,0.1s-0.2,0.2-0.3,0.3l0,0c-0.2,0.2-0.4,0.4-0.7,0.6c0,0-0.1,0-0.1,0.1c-0.1,0.1-0.2,0.1-0.2,0.2l-0.1,0.1
		c-0.1,0.1-0.1,0.1-0.2,0.2l-0.1,0.1c-0.1,0.1-0.1,0.1-0.2,0.2l-0.1,0.1c-0.1,0.1-0.1,0.1-0.2,0.2l-0.1,0.1
		c-0.1,0.1-0.2,0.1-0.2,0.2c0,0-0.1,0-0.1,0.1c-0.1,0.1-0.2,0.2-0.3,0.3L99,77.3c-0.1,0.1-0.1,0.1-0.2,0.2c-0.1,0-0.1,0.1-0.2,0.1
		c0,0-0.1,0.1-0.2,0.1c-0.1,0.1-0.1,0.1-0.2,0.2L98.1,78c-0.1,0-0.1,0.1-0.2,0.1c-0.1,0.1-0.1,0.1-0.2,0.1s-0.1,0.1-0.2,0.1
		l-0.1,0.1c-0.1,0.1-0.1,0.1-0.2,0.2l-0.1,0.1c-0.1,0.1-0.2,0.2-0.3,0.3l-0.1,0.1c-0.1,0.1-0.1,0.1-0.2,0.2l-0.1,0.1
		c-0.1,0.1-0.1,0.1-0.2,0.2l-0.1,0.1c-0.1,0.1-0.1,0.1-0.2,0.2L95.8,80c-0.1,0.1-0.1,0.1-0.2,0.2l-0.1,0.1c-0.1,0.1-0.1,0.1-0.2,0.2
		l-0.1,0.1c-0.2,0.2-0.4,0.4-0.7,0.6l-0.1,0.1c-0.1,0.1-0.1,0.1-0.2,0.2l-0.1,0.1C94,81.9,93.9,82,93.9,82l-0.1,0.1
		c-0.1,0.1-0.1,0.1-0.2,0.2l-0.1,0.1c-0.1,0.1-0.1,0.1-0.2,0.2l-0.1,0.1c-0.1,0.1-0.1,0.1-0.2,0.2c0,0,0,0-0.1,0.1
		c-0.2,0.2-0.5,0.4-0.7,0.7l-0.1,0.1C92,83.9,92,83.9,91.9,84l-0.1,0.1c-0.1,0.1-0.1,0.1-0.2,0.2l-0.1,0.1c-0.1,0.1-0.1,0.1-0.2,0.2
		s-0.1,0.1-0.2,0.1L91,84.8c-0.1,0.1-0.1,0.1-0.2,0.2l-0.1,0.1c-0.1,0.1-0.2,0.2-0.2,0.2c-0.1,0-0.1,0.1-0.1,0.1
		c-0.1,0.1-0.1,0.1-0.2,0.2l-0.1,0.1c-0.1,0.1-0.1,0.1-0.2,0.2L89.8,86c-0.1,0.1-0.1,0.1-0.2,0.2l-0.1,0.1c-0.1,0.1-0.1,0.1-0.2,0.2
		l-0.1,0.1c-0.1,0.1-0.1,0.1-0.2,0.2c0,0,0,0-0.1,0.1s-0.2,0.2-0.3,0.3l0,0c-0.1,0.1-0.2,0.2-0.3,0.3l0,0c-0.1,0.1-0.2,0.2-0.3,0.3
		c0,0,0,0-0.1,0.1s-0.2,0.2-0.2,0.2s0,0-0.1,0.1s-0.2,0.2-0.3,0.3l0,0c-0.1,0.1-0.2,0.2-0.3,0.3l0,0c-3,3.1-6,6.2-9,9.4l221.4,201.3
		l-0.6-0.1l-0.3-0.1l-251-161.5c-1.3,2-2.6,4.1-3.8,6.1l0,0c-2.3,3.7-4.4,7.4-6.5,11.2l0,0c-0.2,0.4-0.4,0.8-0.6,1.2l0,0
		c-0.2,0.3-0.3,0.6-0.5,0.8l0,0c0,0.1-0.1,0.2-0.1,0.3l0,0c-0.1,0.3-0.3,0.5-0.4,0.8c0,0,0,0,0,0.1s-0.1,0.2-0.1,0.3v0.1
		c-0.1,0.3-0.3,0.5-0.4,0.8c0,0,0,0.1-0.1,0.1c0,0.1-0.1,0.1-0.1,0.2v0.1c-0.1,0.1-0.2,0.3-0.2,0.4v0.1c0,0.1-0.1,0.1-0.1,0.2
		c0,0,0,0.1-0.1,0.1c0,0.1-0.1,0.2-0.1,0.2v0.1c-0.1,0.1-0.1,0.3-0.2,0.4c0,0,0,0.1-0.1,0.1c0,0.1-0.1,0.1-0.1,0.2
		c0,0,0,0.1-0.1,0.1c0,0.1-0.1,0.1-0.1,0.2v0.1c-0.1,0.1-0.1,0.3-0.2,0.4c0,0,0,0.1-0.1,0.1c0,0.1-0.1,0.1-0.1,0.2
		c0,0,0,0.1-0.1,0.1c-0.1,0.2-0.3,0.5-0.4,0.7c0,0,0,0.1-0.1,0.1c0,0.1-0.1,0.1-0.1,0.2c0,0,0,0.1-0.1,0.1c-0.1,0.1-0.1,0.3-0.2,0.4
		c0,0,0,0.1-0.1,0.1c0,0.1-0.1,0.2-0.1,0.2s0,0.1-0.1,0.1c0,0.1-0.1,0.2-0.1,0.2v0.1c-0.1,0.2-0.2,0.3-0.2,0.5v0.1
		c0,0.1-0.1,0.2-0.1,0.2l-0.1,0.1c0,0.1-0.2,0.2-0.2,0.2l0,0c0,0.2-0.1,0.3-0.2,0.5v0.1c0,0.1-0.1,0.2-0.1,0.2v0.1
		c-0.1,0.3-0.3,0.5-0.4,0.8v0.1c0,0.1-0.1,0.2-0.1,0.3c0,0,0,0,0,0.1c-0.1,0.3-0.3,0.5-0.4,0.8v0.1c0,0.1-0.1,0.2-0.1,0.3l0,0
		c-0.1,0.3-0.3,0.6-0.4,0.8v0.1c0,0.1-0.1,0.2-0.1,0.3l0,0c-0.1,0.2-0.2,0.4-0.3,0.5c0,0,0,0,0,0.1s-0.1,0.2-0.1,0.2s0,0.1-0.1,0.1
		c-0.1,0.3-0.2,0.5-0.4,0.8v0.1c0,0.1-0.1,0.2-0.1,0.2v0.1c-0.1,0.3-0.2,0.5-0.4,0.8c0,0,0,0.1-0.1,0.1c0,0.1-0.1,0.2-0.1,0.2
		s0,0.1-0.1,0.1c-0.1,0.1-0.1,0.3-0.2,0.4v0.1c0,0.1-0.1,0.1-0.1,0.2c0,0,0,0.1-0.1,0.1c0,0.1-0.1,0.1-0.1,0.2
		c0,0.1-0.1,0.1-0.1,0.2c0,0.1-0.1,0.2-0.1,0.3s-0.1,0.1-0.1,0.2c0,0.1-0.1,0.1-0.1,0.2c0,0.1-0.1,0.1-0.1,0.2c0,0.1,0,0.1-0.1,0.2
		c0,0.1-0.1,0.2-0.1,0.3s-0.1,0.1-0.1,0.2c0,0.1-0.1,0.2-0.1,0.3c0,0,0,0.1-0.1,0.1c0,0.1-0.1,0.2-0.1,0.2s0,0.1-0.1,0.1
		c-0.1,0.1-0.1,0.2-0.2,0.4c0,0,0,0,0,0.1s-0.1,0.2-0.1,0.3v0.1c0,0.1-0.1,0.2-0.1,0.3l0,0c-0.1,0.1-0.1,0.3-0.2,0.4c0,0,0,0,0,0.1
		s-0.1,0.2-0.2,0.3c0,0,0,0,0,0.1c-0.2,0.5-0.5,1.1-0.7,1.7l273.7,117.3l-290-69.3c-0.7,2.8-1.3,5.5-1.9,8.3l0,0
		c0,0.1-0.1,0.3-0.1,0.4l0,0c0,0.1-0.1,0.3-0.1,0.4v0.1c0,0.1,0,0.2-0.1,0.4v0.1c0,0.1,0,0.2-0.1,0.3c0,0.1,0,0.1,0,0.2
		c0,0.1,0,0.2-0.1,0.3c0,0.1,0,0.1,0,0.2c0,0.1,0,0.2-0.1,0.3c0,0.1,0,0.1,0,0.2c0,0.1,0,0.2-0.1,0.3c0,0.1,0,0.1,0,0.2
		c0,0.1,0,0.2,0,0.2c0,0.1,0,0.2,0,0.2c0,0.1,0,0.1,0,0.2c0,0.1,0,0.2,0,0.3s0,0.1,0,0.2c0,0.1,0,0.2-0.1,0.3c0,0.1,0,0.1,0,0.2
		c0,0.1,0,0.2-0.1,0.3c0,0.1,0,0.1,0,0.2c0,0.1,0,0.2-0.1,0.3c0,0,0,0.1,0,0.2c0,0.1,0,0.2-0.1,0.3v0.1c0,0.1,0,0.2-0.1,0.3v0.1
		c0,0.1,0,0.3-0.1,0.4v0.1c0,0.1-0.1,0.3-0.1,0.4l0,0c-0.2,1-0.3,1.9-0.5,2.9v0.1c0,0.1,0,0.3-0.1,0.4v0.1c0,0.1,0,0.2-0.1,0.4
		c0,0,0,0.1,0,0.2c0,0.1,0,0.2-0.1,0.3c0,0.1,0,0.1,0,0.2c0,0.1,0,0.2,0,0.3s0,0.1,0,0.2c0,0.1,0,0.2,0,0.3s0,0.1,0,0.2
		c0,0.1,0,0.2,0,0.3s0,0.2,0,0.2c0,0.1,0,0.2,0,0.2c0,0.1,0,0.2,0,0.3s0,0.1,0,0.2c0,0.1,0,0.2,0,0.3s0,0.1,0,0.2c0,0.1,0,0.2,0,0.3
		s0,0.1,0,0.2c0,0.1,0,0.2-0.1,0.3v0.1c0,0.1,0,0.2-0.1,0.3v0.1c0,0.1,0,0.2-0.1,0.4v0.1c0,0.1,0,0.3-0.1,0.4H3.8
		C2.4,260.7,2,266.6,1,272.6l0,0c0,0.3,0.1,0.6,0,0.9c0,0,0.1,0,0.1,0.1s0,0.3,0,0.4v0.1c0,0.1,0,0.2,0,0.3v0.1c0,0.1,0,0.2,0,0.3
		c0,0.1,0,0.1,0,0.2c0,0,0,0.1,0,0.2s0,0.3,0,0.4c0,0,0,0,0,0.1c-0.1,1-0.2,2-0.2,2.9l298,20.9l0.3,0.1l0.4,0.3l-0.3,0.2l0.4-0.2
		l0.1,0.1v0.2l-0.5,0.1h-0.4l0.5-0.3l-0.7,0.3L1.4,328.7c0.2,2.1,0.4,4.2,0.7,6.2c0,0,0,0,0,0.1s0,0.3,0,0.4c0,0,0,0,0,0.1
		s0,0.3,0.1,0.4c0,0,0,0,0,0.1s0,0.2,0,0.4v0.1c0,0.1,0,0.2,0,0.3v0.1c0,0.3,0.1,0.6,0.1,0.9l0,0c0.6,5.2,1.4,10.3,2.3,15.4l0,0
		c0.1,0.3,0.1,0.6,0.2,0.9l0,0c0.1,0.3,0.1,0.6,0.2,0.9l0,0c0,0.1,0.1,0.3,0.1,0.4l0,0c0,0.1,0.1,0.3,0.1,0.4l0,0
		c0,0.1,0.1,0.3,0.1,0.4v0.1c0,0.1,0.1,0.3,0.1,0.4l0,0c0,0.1,0.1,0.3,0.1,0.4v0.1c0,0.1,0.1,0.3,0.1,0.4v0.1c0,0.1,0,0.2,0.1,0.3
		v0.1c0,0.1,0,0.2,0.1,0.4v0.1c0,0.1,0,0.2,0.1,0.3v0.1c0,0.1,0,0.2,0.1,0.4v0.1c0,0.1,0,0.2,0.1,0.3v0.1c0,0.1,0,0.2,0.1,0.4
		c0,0.1,0,0.1,0,0.2s0,0.2,0.1,0.3v0.1c0,0.1,0,0.2,0.1,0.3v0.1c0,0.1,0.1,0.2,0.1,0.4v0.1c0,0.1,0,0.2,0.1,0.3v0.1
		c0,0.1,0.1,0.2,0.1,0.4v0.1c0,0.1,0,0.2,0.1,0.3v0.1c0,0.1,0.1,0.3,0.1,0.4v0.1c0,0.1,0,0.2,0.1,0.3v0.1c0,0.1,0.1,0.3,0.1,0.4v0.1
		c0.1,0.3,0.1,0.6,0.2,0.8c0,0,0,0,0,0.1c0.1,0.3,0.1,0.6,0.2,0.9l0,0c0.9,3.8,1.8,7.6,2.8,11.4L298,300.6L27.1,424.8
		c0.1,0.2,0.1,0.3,0.2,0.5c0,0,0,0,0,0.1c0.1,0.2,0.1,0.3,0.2,0.5l0,0c0.1,0.2,0.2,0.5,0.3,0.7c0,0,0,0,0,0.1
		c0.1,0.2,0.2,0.5,0.3,0.7l0,0c0.1,0.2,0.1,0.3,0.2,0.5c0,0,0,0,0,0.1c4.6,9.7,9.6,19.1,15.2,28.2l254.7-155.4h0.2l0.8-0.1L83,507.2
		c11.5,12.1,24,23.1,37.4,33.1l179.1-239.2l-0.1,0.6v0.1v-0.1L257.5,597c0.2,0,0.4,0.1,0.6,0.2c10.6,1.5,21.3,2.8,32.2,2.8l0,0
		c0.3,0,0.6-0.1,0.9,0l0,0c0.3,0,0.6,0,0.9,0c0,0,0,0,0.1,0c0.2,0,0.3,0,0.5,0l0,0c0.2,0,0.3,0,0.4,0c0,0,0,0,0.1,0
		c0.2,0,0.3,0,0.5,0l0,0c0.1,0,0.3,0,0.4,0c0,0,0,0,0.1,0s0.3,0,0.4,0l0,0c0.1,0,0.3,0,0.4,0c0,0,0,0,0.1,0s0.3,0,0.4,0
		c0,0,0,0,0.1,0s0.3,0,0.4,0c0,0,0,0,0.1,0s0.3,0,0.4,0h0.1c0.1,0,0.3,0,0.4,0c0,0,0,0,0.1,0c0.2,0,0.3,0,0.4,0h0.1
		c0.1,0,0.3,0,0.4,0l0,0c0.2,0,0.3,0,0.4,0h0.1c0.1,0,0.3,0,0.4,0l0,0c0.1,0,0.3,0,0.4,0h0.1c0.1,0,0.3,0,0.4,0l0,0l0,0
		c0.2,0,0.3,0,0.5,0h0.1c0.1,0,0.2,0,0.4,0c0.1,0,0.1,0,0.2,0s0.2,0,0.3,0c0.1,0,0.1,0,0.2,0s0.2,0,0.3,0c0.1,0,0.1,0,0.2,0
		s0.2,0,0.3,0c0.1,0,0.1,0,0.2,0s0.2,0,0.3,0c0.1,0,0.1,0,0.2,0s0.2,0,0.3,0c0.1,0,0.2,0,0.2,0c0.1,0,0.1,0,0.2,0s0.2,0,0.3,0
		c0.1,0,0.1,0,0.2,0s0.2,0,0.3,0c0.1,0,0.1,0,0.2,0s0.2,0,0.3,0h0.1c0.1,0,0.3,0,0.4,0l0,0c0.6,0,1.2,0,1.8-0.1L300,300.8l0.3,0.5
		l0.3,0.8l-0.1-0.4l149.6,258c1.4-0.8,2.7-1.6,4.1-2.4c0,0,0.1,0,0.1-0.1c0.1,0,0.1-0.1,0.2-0.1c0.1-0.1,0.2-0.1,0.3-0.2l0,0
		c0.4-0.2,0.7-0.4,1.1-0.6L300.6,301.6l0,0L456,556.3c6.1-3.7,12-7.6,17.8-11.7c0,0,0,0,0.1,0c0.1-0.1,0.2-0.1,0.2-0.2
		c0,0,0,0,0.1,0c0.1-0.1,0.3-0.2,0.4-0.3l0.1-0.1c0.1,0,0.1-0.1,0.2-0.1l0.1-0.1c0.1,0,0.1-0.1,0.2-0.1s0.1-0.1,0.2-0.1
		s0.1-0.1,0.2-0.1c0.1-0.1,0.1-0.1,0.2-0.2l0.1-0.1c0.1-0.1,0.1-0.1,0.2-0.2l0.1-0.1c0.1-0.1,0.2-0.2,0.3-0.2l0,0
		c0.1-0.1,0.2-0.2,0.3-0.2c0,0,0,0,0.1,0c0.1-0.1,0.2-0.1,0.3-0.2l0,0c0.2-0.2,0.5-0.3,0.7-0.5l0,0c4.5-3.3,8.9-6.8,13.2-10.3
		L300.5,300.9l-0.1-0.5l0.3,0.1L527,496.2c10.8-12.5,20.7-26,29.3-40.2L301.6,300.6l0.6,0.1l-1.1-0.4l-0.1-0.1l298.7,13.6
		c0.1-2.5,0.3-5,0.3-7.6l0,0c0-0.2,0-0.3,0-0.4l0,0c0-0.1,0-0.3,0-0.4l0,0c0-0.5,0-1,0-1.4l0,0c0-0.1,0-0.3,0-0.4v-0.1
		c0-0.1,0-0.2,0-0.4c0-0.1,0-0.1,0-0.2s0-0.2,0-0.3c0-0.1,0-0.1,0-0.2s0-0.2,0-0.3c0-0.1,0-0.1,0-0.2s0-0.2,0-0.3c0-0.1,0-0.1,0-0.2
		s0-0.2,0-0.3c0-0.1,0-0.1,0-0.2s0-0.2,0-0.3v-0.1c0-0.2,0-0.3,0-0.5l0,0c0-0.1,0-0.3,0-0.4v-0.1c0-0.1,0-0.3,0-0.4V299
		c0-0.1,0-0.3,0-0.4l0,0c0-0.1,0-0.3,0-0.4c0,0,0,0,0-0.1s0-0.3,0-0.4c0,0,0,0,0-0.1s0-0.3,0-0.4l0,0c0-0.2,0-0.3,0-0.4l0,0
		c0-0.2,0-0.3,0-0.4c0,0,0,0,0-0.1c0-0.2,0-0.3,0-0.4l0,0c0-0.3,0-0.6,0-0.9l0,0c0-0.1,0-0.3,0-0.5l0,0c0-0.5,0-0.9,0-1.4l0,0
		c0-9.7-1-19.3-2.1-28.8l-296.2,35.5l0.3-0.1l-0.6,0.2h-0.2l243-173.9c-2.4-3.4-5-6.8-7.5-10.1c0,0,0,0-0.1-0.1s-0.1-0.2-0.2-0.3
		l-0.1-0.1c-0.1-0.1-0.1-0.1-0.2-0.2l-0.1-0.1c0-0.1-0.1-0.1-0.2-0.2l-0.1-0.1c0-0.1-0.1-0.1-0.2-0.2l-0.1-0.1
		c0-0.1-0.1-0.1-0.1-0.2c-0.1-0.1-0.2-0.2-0.3-0.4l-0.1-0.1c-0.1-0.1-0.1-0.1-0.2-0.2l-0.1-0.1c-0.1-0.1-0.1-0.1-0.2-0.2
		c0,0,0-0.1-0.1-0.1c-0.1-0.1-0.1-0.2-0.2-0.2c0,0,0,0-0.1-0.1s-0.1-0.2-0.2-0.3l0,0c-4.7-5.9-9.7-11.6-14.8-17.1l0,0
		c-0.1-0.1-0.2-0.2-0.2-0.3c0,0,0,0,0-0.1c-0.1-0.1-0.1-0.2-0.2-0.2c0,0,0,0-0.1-0.1s-0.1-0.2-0.2-0.2c0,0,0,0-0.1-0.1
		c-0.2-0.2-0.4-0.5-0.7-0.7l-0.1-0.1c-0.1-0.1-0.1-0.1-0.2-0.2l-0.1-0.1c0-0.1-0.1-0.1-0.1-0.2c-0.1-0.1-0.1-0.1-0.2-0.2l-0.1-0.1
		c-0.1-0.1-0.1-0.1-0.2-0.2l-0.1-0.1c-0.1-0.1-0.2-0.2-0.3-0.3l0,0c-1.5-1.5-2.9-3-4.4-4.5l-211.4,212l0.1-0.8L473.6,55.3
		c-2.8-2-5.6-3.9-8.5-5.8l0,0c-0.1-0.1-0.2-0.1-0.3-0.2l0,0c-0.1-0.1-0.2-0.2-0.4-0.2l0,0c-0.1-0.1-0.2-0.1-0.3-0.2
		c0,0-0.1,0-0.1-0.1c-0.1-0.1-0.2-0.1-0.3-0.2c0,0,0,0-0.1,0c-0.1-0.1-0.2-0.1-0.3-0.2l-0.1-0.1c-0.1,0-0.1-0.1-0.2-0.1
		s-0.1-0.1-0.2-0.1s-0.1-0.1-0.2-0.1c-0.1-0.1-0.2-0.2-0.4-0.2c0,0-0.1,0-0.1-0.1c-0.1-0.1-0.2-0.1-0.2-0.2c0,0,0,0-0.1,0
		c-1.9-1.2-3.9-2.5-5.8-3.7L300.6,298.5l0,0L456,43.7c-2.3-1.4-4.6-2.8-7-4.1l0,0c-0.1-0.1-0.2-0.1-0.3-0.2c0,0,0,0-0.1,0
		c-0.1-0.1-0.2-0.1-0.3-0.2c0,0-0.1,0-0.1-0.1c-0.1-0.1-0.2-0.1-0.3-0.2c0,0-0.1,0-0.1-0.1c-0.1,0-0.2-0.1-0.3-0.1l-0.1-0.1
		c-0.1,0-0.2-0.1-0.2-0.1s-0.1-0.1-0.2-0.1s-0.1-0.1-0.2-0.1s-0.1-0.1-0.2-0.1s-0.1-0.1-0.2-0.1s-0.1-0.1-0.2-0.1s-0.1-0.1-0.2-0.1
		s-0.1-0.1-0.2-0.1s-0.1-0.1-0.2-0.1s-0.1-0.1-0.2-0.1s-0.1-0.1-0.2-0.1s-0.1-0.1-0.2-0.1s-0.1-0.1-0.2-0.1s-0.1-0.1-0.2-0.1
		s-0.1-0.1-0.2-0.1s-0.1-0.1-0.2-0.1s-0.1-0.1-0.2-0.1s-0.1-0.1-0.2-0.1s-0.1-0.1-0.2-0.1s-0.1-0.1-0.2-0.1s-0.1-0.1-0.2-0.1
		s-0.1-0.1-0.2-0.1s-0.1-0.1-0.2-0.1s-0.1-0.1-0.2-0.1s-0.1-0.1-0.2-0.1s-0.1-0.1-0.2-0.1s-0.1-0.1-0.2-0.1s-0.1-0.1-0.2-0.1
		s-0.2-0.1-0.2-0.1c-0.1,0-0.1-0.1-0.2-0.1s-0.2-0.1-0.2-0.1c-0.1,0-0.1-0.1-0.2-0.1s-0.2-0.1-0.2-0.1c-0.1,0-0.1-0.1-0.2-0.1
		s-0.2-0.1-0.2-0.1c-0.1,0-0.1-0.1-0.2-0.1s-0.2-0.1-0.3-0.1c0,0-0.1,0-0.1-0.1c-0.1,0-0.2-0.1-0.3-0.1c0,0-0.1,0-0.1-0.1
		c-0.1,0-0.2-0.1-0.3-0.1c0,0-0.1,0-0.1-0.1c-0.1-0.1-0.2-0.1-0.3-0.2c0,0-0.1,0-0.1-0.1c-0.1-0.1-0.2-0.1-0.3-0.2h-0.1
		c-0.1-0.1-0.2-0.1-0.3-0.2c0,0,0,0-0.1,0c-0.1-0.1-0.2-0.1-0.3-0.2l0,0c-0.1-0.1-0.2-0.1-0.4-0.2l0,0c-2.1-1.1-4.3-2.2-6.5-3.2
		L300.7,298L384,11.9c-2.8-0.8-5.6-1.6-8.4-2.3l0,0c-0.4-0.1-0.9-0.2-1.3-0.3l0,0c-0.3-0.1-0.6-0.2-1-0.2l0,0c-0.1,0-0.2,0-0.3-0.1
		h-0.1c-0.1,0-0.2,0-0.3-0.1l0,0c-0.2-0.1-0.4-0.1-0.6-0.2l0,0c-0.1,0-0.2,0-0.3-0.1h-0.1c-0.1,0-0.2,0-0.3-0.1l0,0
		c-0.2,0-0.4-0.1-0.6-0.1c0,0,0,0-0.1,0s-0.2,0-0.3-0.1h-0.1c-0.1,0-0.2,0-0.3-0.1h-0.1c-0.2,0-0.4-0.1-0.5-0.1h-0.1
		c-0.1,0-0.2,0-0.3-0.1h-0.1c-0.1,0-0.2,0-0.3-0.1h-0.1c-0.2,0-0.3-0.1-0.5-0.1h-0.1c-0.1,0-0.2,0-0.3-0.1h-0.1
		c-0.1,0-0.2,0-0.2-0.1h-0.1c-0.2,0-0.3-0.1-0.5-0.1h-0.1c-0.1,0-0.2,0-0.2-0.1c0,0-0.1,0-0.2,0s-0.2,0-0.2-0.1c-0.1,0-0.1,0-0.2,0
		s-0.2,0-0.3-0.1c-0.1,0-0.2,0-0.2-0.1c-0.1,0-0.1,0-0.2,0s-0.1,0-0.2,0s-0.1,0-0.2,0s-0.1,0-0.2,0S364.2,7,364.1,7s-0.1,0-0.2,0
		s-0.1,0-0.2,0s-0.1,0-0.2,0s-0.1,0-0.2,0s-0.1,0-0.2,0s-0.1,0-0.2,0s-0.2,0-0.3-0.1c-0.1,0-0.1,0-0.2,0s-0.1,0-0.2,0s-0.1,0-0.2,0
		s-0.1,0-0.2,0s-0.1,0-0.2,0s-0.2-0.1-0.4-0.1c-0.1,0-0.1,0-0.2,0s-0.1,0-0.2,0s-0.1,0-0.2,0s-0.1,0-0.2,0s-0.1,0-0.2,0
		s-0.2-0.1-0.4-0.1c-0.1,0-0.1,0-0.2,0s-0.1,0-0.2,0s-0.1,0-0.2,0s-0.2,0-0.2,0c-0.1,0-0.1,0-0.2,0s-0.3-0.1-0.4-0.1h-0.1
		c-0.1,0-0.2,0-0.3-0.1c-0.1,0-0.1,0-0.2,0s-0.2,0-0.3-0.1h-0.1c-0.1,0-0.3-0.1-0.4-0.1h-0.1c-0.1,0-0.2,0-0.3-0.1h-0.1
		c-0.1,0-0.2,0-0.3-0.1h-0.1c-0.1,0-0.3-0.1-0.4-0.1c0,0,0,0-0.1,0s-0.2,0-0.4-0.1h-0.1c-0.1,0-0.2,0-0.4-0.1c0,0,0,0-0.1,0
		s-0.3-0.1-0.4-0.1l0,0c-0.1,0-0.3,0-0.4-0.1h-0.1c-0.1,0-0.3,0-0.4-0.1l0,0c-0.3-0.1-0.6-0.1-0.9-0.2l0,0c-4-0.7-8-1.3-12.1-1.9
		L300.8,299l-0.5,1l0.5-0.8l0,0l-0.5,0.8l0,0l-0.1,0.2l0,0V0H300L300,0z M300,299.5l0.4-0.6l-0.2,0.7H300V299.5L300,299.5z
		 M299.2,299.8l-0.3-0.2h0.6l0.1,0.1v0.2h-0.1L299.2,299.8L299.2,299.8z M299.6,300L299.6,300L299.6,300L299.6,300L299.6,300z
		 M300.2,300.8l0.2,0.4l0,0L300.2,300.8L300.2,300.8z M299.3,301.8l-136.6,265c14.7,7.6,30.1,14,46.1,19.1L299.3,301.8L299.3,301.8z
		 M300.7,302.1L357,594.6c16.5-3.2,32.6-7.7,48.1-13.5L300.7,302.1L300.7,302.1z M302.2,300.8l276.5,110.4v-0.1
		c0.1-0.3,0.2-0.6,0.3-0.9c0-0.1,0-0.1,0.1-0.2c0-0.1,0.1-0.1,0.1-0.2s0.1-0.1,0.1-0.2s0-0.1,0.1-0.2c0-0.1,0.1-0.2,0.1-0.2
		c0-0.1,0-0.1,0.1-0.2c0-0.1,0.1-0.2,0.1-0.3v-0.1c0.1-0.3,0.2-0.5,0.3-0.8l0,0c0-0.1,0.1-0.2,0.1-0.4c0,0,0,0,0-0.1
		s0.1-0.2,0.1-0.4l0,0c5.4-14.1,9.7-28.6,12.9-43.6L302.2,300.8L302.2,300.8z M569.7,168.5L302,299.3L587.8,215
		c-0.9-3.2-1.9-6.4-3-9.5l0,0c0-0.1-0.1-0.3-0.1-0.4l0,0c0-0.1-0.1-0.3-0.1-0.4l0,0c-0.1-0.4-0.3-0.9-0.4-1.3c0,0,0,0,0-0.1
		s-0.1-0.2-0.1-0.3v-0.1c0-0.1-0.1-0.2-0.1-0.3v-0.1c0-0.1-0.1-0.2-0.1-0.3v-0.1c0-0.1-0.1-0.2-0.1-0.3v-0.1c0-0.1-0.1-0.3-0.1-0.4
		c0-0.1,0-0.1-0.1-0.2c0-0.1-0.1-0.2-0.1-0.2c0-0.1,0-0.1-0.1-0.2c0-0.1,0-0.1-0.1-0.2c0-0.1,0-0.1-0.1-0.2c0-0.1,0-0.1-0.1-0.2
		c0-0.1-0.1-0.1-0.1-0.2c0-0.1,0-0.1-0.1-0.2c0-0.1-0.1-0.2-0.1-0.2v-0.1c-0.1-0.3-0.2-0.6-0.3-0.9v-0.1c0-0.1-0.1-0.2-0.1-0.3V198
		c0-0.1-0.1-0.2-0.1-0.3v-0.1c0-0.1-0.1-0.2-0.1-0.3v-0.1c-0.2-0.5-0.3-0.9-0.5-1.4l0,0c0-0.1-0.1-0.2-0.1-0.3c0,0,0,0,0-0.1
		s-0.1-0.2-0.1-0.3c0,0,0,0,0-0.1s-0.1-0.2-0.1-0.3l0,0c0-0.6-0.5-1.2-0.7-1.8l0,0c0-0.1-0.1-0.2-0.1-0.3l0,0
		c-0.2-0.6-0.5-1.2-0.7-1.8l0,0c0-0.1-0.1-0.2-0.1-0.4l0,0c0-0.1-0.1-0.2-0.1-0.4l0,0c-0.2-0.6-0.5-1.2-0.7-1.8l0,0
		c0-0.1-0.1-0.2-0.1-0.3l0,0c0-0.1-0.1-0.2-0.1-0.3l0,0c-0.2-0.6-0.5-1.2-0.7-1.8c0,0,0,0,0-0.1s-0.1-0.2-0.1-0.3c0,0,0,0-0.1,0
		c0-0.1-0.2-0.2-0.2-0.3l0,0c0-0.5-0.4-1-0.6-1.4l0,0c0-0.1-0.1-0.2-0.1-0.3l0,0c0-0.1-0.1-0.2-0.1-0.3V183c0-0.1-0.1-0.2-0.1-0.3
		l0,0c-0.1-0.3-0.3-0.7-0.4-1l0,0c0-0.1-0.1-0.2-0.1-0.3v-0.1c0-0.1-0.1-0.2-0.1-0.3c0,0,0-0.1-0.1-0.1c0-0.1-0.1-0.2-0.1-0.3
		c0,0,0-0.1-0.1-0.1c0-0.1-0.1-0.2-0.1-0.3c0,0,0-0.1-0.1-0.1c-0.1-0.3-0.2-0.6-0.4-0.8c0-0.1,0-0.1-0.1-0.2c0-0.1-0.1-0.1-0.1-0.2
		c0-0.1,0-0.1-0.1-0.2c0-0.1-0.1-0.1-0.1-0.2c0-0.1-0.1-0.1-0.1-0.2c0-0.1-0.1-0.1-0.1-0.2c0-0.1-0.1-0.1-0.1-0.2
		c0-0.1-0.1-0.1-0.1-0.2c0-0.1-0.1-0.1-0.1-0.2c0-0.1,0-0.1-0.1-0.2c-0.1-0.1-0.1-0.2-0.2-0.4c0-0.1-0.1-0.1-0.1-0.2
		c0-0.1-0.1-0.1-0.1-0.2c0-0.1-0.1-0.1-0.1-0.2c0-0.1-0.1-0.1-0.1-0.2c0-0.1-0.1-0.1-0.1-0.2c0-0.1-0.1-0.2-0.1-0.2
		c0-0.1,0-0.1-0.1-0.2c0-0.1-0.1-0.2-0.1-0.2s0-0.1-0.1-0.1c-0.1-0.1-0.1-0.2-0.2-0.3c0,0,0,0,0-0.1c-0.1-0.1-0.1-0.3-0.2-0.4v-0.1
		c0-0.1-0.1-0.2-0.1-0.3c0,0,0-0.1-0.1-0.1c0-0.1-0.1-0.2-0.1-0.3c0,0,0-0.1-0.1-0.1c0-0.1-0.1-0.2-0.1-0.3c0,0,0-0.1-0.1-0.1
		c0-0.1-0.1-0.2-0.1-0.3c0,0,0,0,0-0.1c-0.1-0.3-0.3-0.5-0.4-0.8c0,0,0,0,0-0.1c-0.1-0.1-0.1-0.2-0.2-0.3c0,0,0,0,0-0.1
		s-0.1-0.2-0.2-0.3V171c0-0.1-0.1-0.2-0.2-0.3c0,0,0,0,0-0.1c-0.1-0.1-0.1-0.3-0.2-0.4l0,0c-0.2-0.4-0.4-0.8-0.6-1.2l0,0
		C569.8,168.6,569.7,168.6,569.7,168.5L569.7,168.5z"/>
</g>
<path style="fill:#9A6B7C;" d="M561.2,353.9H39.7c-6.6,0-12-10-12-22.3v-80c0-12.2,5.4-22.3,12-22.3h521.6c6.6,0,12,10,12,22.3v80
	C573.2,343.9,567.8,353.9,561.2,353.9z"/>
<g style="enable-background:new    ;">
	<path style="fill:#FFFFFF;" d="M156,301.6c-2,1-5.9,2-11,2c-11.7,0-20.6-7.4-20.6-21.1c0-13,8.8-21.9,21.7-21.9
		c5.2,0,8.5,1.1,9.9,1.9l-1.3,4.4c-2-1-4.9-1.7-8.4-1.7c-9.8,0-16.2,6.2-16.2,17.2c0,10.2,5.9,16.7,16,16.7c3.3,0,6.6-0.7,8.8-1.7
		L156,301.6z"/>
	<path style="fill:#FFFFFF;" d="M189,287.8c0,11.1-7.7,15.9-14.9,15.9c-8.1,0-14.3-5.9-14.3-15.4c0-10,6.5-15.9,14.8-15.9
		C183.2,272.4,189,278.7,189,287.8z M165.2,288.1c0,6.5,3.8,11.5,9.1,11.5c5.2,0,9.1-4.9,9.1-11.6c0-5.1-2.5-11.5-9-11.5
		C168,276.5,165.2,282.4,165.2,288.1z"/>
	<path style="fill:#FFFFFF;" d="M195.8,281.2c0-3.1-0.1-5.6-0.2-8.1h4.8l0.3,4.9h0.1c1.5-2.8,4.9-5.6,9.9-5.6
		c4.1,0,10.6,2.5,10.6,12.7V303h-5.4v-17.2c0-4.8-1.8-8.8-6.9-8.8c-3.6,0-6.4,2.5-7.3,5.6c-0.2,0.7-0.4,1.6-0.4,2.5v18h-5.4V281.2z"
		/>
	<path style="fill:#FFFFFF;" d="M230.6,303v-25.8h-4.2v-4.1h4.2v-1.6c0-7.9,4.6-13,13-13c2.8,0,6.1,0.9,7.6,2l-1.5,4.1
		c-1.3-0.9-3.6-1.7-6.3-1.7c-5.7,0-7.4,4-7.4,8.8v1.5h17.4V303H248v-25.8h-12V303H230.6z"/>
	<path style="fill:#FFFFFF;" d="M262.4,282.4c0-3.5-0.1-6.5-0.2-9.3h4.8l0.2,5.9h0.2c1.4-4,4.6-6.5,8.3-6.5c0.6,0,1,0.1,1.5,0.2v5.1
		c-0.6-0.1-1.1-0.2-1.9-0.2c-3.8,0-6.5,2.9-7.3,7c-0.1,0.7-0.2,1.6-0.2,2.5V303h-5.4V282.4z"/>
	<path style="fill:#FFFFFF;" d="M282.8,281.2c0-3.1-0.1-5.6-0.2-8.1h4.8l0.2,4.8h0.2c1.7-2.8,4.4-5.5,9.4-5.5c4.1,0,7.2,2.5,8.5,6
		h0.1c0.9-1.7,2.1-3,3.3-3.9c1.8-1.4,3.8-2.1,6.6-2.1c4,0,9.8,2.6,9.8,13V303h-5.3v-16.9c0-5.7-2.1-9.2-6.5-9.2
		c-3.1,0-5.5,2.3-6.4,4.9c-0.2,0.7-0.4,1.7-0.4,2.7V303h-5.3v-17.9c0-4.8-2.1-8.2-6.2-8.2c-3.4,0-5.9,2.7-6.7,5.4
		c-0.3,0.8-0.4,1.7-0.4,2.7v18h-5.3V281.2z"/>
	<path style="fill:#FFFFFF;" d="M383.2,281.8c0,14.3-8.7,21.9-19.3,21.9c-11,0-18.7-8.5-18.7-21.1c0-13.2,8.2-21.9,19.3-21.9
		C375.8,260.7,383.2,269.4,383.2,281.8z M350.9,282.4c0,8.9,4.8,16.9,13.3,16.9c8.5,0,13.3-7.8,13.3-17.3c0-8.3-4.3-16.9-13.3-16.9
		C355.3,265.1,350.9,273.3,350.9,282.4z"/>
	<path style="fill:#FFFFFF;" d="M390,282.4c0-3.5-0.1-6.5-0.2-9.3h4.8l0.2,5.9h0.2c1.4-4,4.6-6.5,8.3-6.5c0.6,0,1,0.1,1.5,0.2v5.1
		c-0.6-0.1-1.1-0.2-1.9-0.2c-3.8,0-6.5,2.9-7.3,7c-0.1,0.7-0.2,1.6-0.2,2.5V303H390V282.4z"/>
	<path style="fill:#FFFFFF;" d="M435.3,259.2v36.1c0,2.7,0.1,5.7,0.2,7.7h-4.9l-0.2-5.2h-0.1c-1.7,3.3-5.3,5.9-10.2,5.9
		c-7.2,0-12.8-6.1-12.8-15.2c-0.1-9.9,6.1-16.1,13.4-16.1c4.6,0,7.7,2.2,9,4.6h0.1v-17.8H435.3z M429.9,285.3c0-0.7-0.1-1.6-0.2-2.3
		c-0.8-3.5-3.8-6.3-7.8-6.3c-5.6,0-9,4.9-9,11.5c0,6.1,3,11.1,8.8,11.1c3.6,0,7-2.4,8-6.5c0.2-0.7,0.2-1.5,0.2-2.3V285.3z"/>
	<path style="fill:#FFFFFF;" d="M447.4,289c0.1,7.3,4.8,10.4,10.3,10.4c3.9,0,6.2-0.7,8.3-1.5l0.9,3.9c-1.9,0.9-5.2,1.9-9.9,1.9
		c-9.2,0-14.7-6.1-14.7-15.1s5.3-16.1,14-16.1c9.8,0,12.4,8.6,12.4,14.1c0,1.1-0.1,2-0.2,2.5H447.4z M463.3,285.2
		c0.1-3.5-1.4-8.8-7.5-8.8c-5.5,0-7.9,5.1-8.3,8.8H463.3z"/>
	<path style="fill:#FFFFFF;" d="M475.3,282.4c0-3.5-0.1-6.5-0.2-9.3h4.8l0.2,5.9h0.2c1.4-4,4.6-6.5,8.3-6.5c0.6,0,1,0.1,1.5,0.2v5.1
		c-0.6-0.1-1.1-0.2-1.9-0.2c-3.8,0-6.5,2.9-7.3,7c-0.1,0.7-0.2,1.6-0.2,2.5V303h-5.4V282.4z"/>
</g>
<path style="fill:#000FB0;" d="M548.1,443c0,5.8,0,17.1-1.2,30.8c0,0.1,0.1,0.1,0.1,0.1l0,0h-0.2c-2.3,3.1-4.8,6.2-7.2,9.2
	c-0.6,0.8-1.2,1.5-1.8,2.2c-0.9,1.1-1.8,2.1-2.6,3.2c-0.3,0.4-0.6,0.8-1,1.1c-2.9,3.5-5.9,6.9-9,10.3H525c-1,1.1-2,2.1-3,3.2
	c-4,4.2-8.2,8.3-12.4,12.2c-7.1,6.6-14.5,12.8-22.2,18.7H436l-16.3-28.1L397.8,468l-3.1-5.4c0,0-9.3-24.3,23-35.3l0.6-29.3l0.6-29
	l0.9-39.1l0.5-25.5c0,0,4.9-10.1,12.6-12.3c1.8-0.5,3.8-0.6,5.9,0c3.6,1,7.6,4,11.8,10l2.3,27.9l3.2,39.1l1.3,15.5
	c0,0,23.3-11.8,32.3,8.9c0,0,15.9-7,26,4.6c1.8,2,3.4,4.7,4.7,8c0,0,30.3,3.8,27.7,32.8C548,438.9,548.1,440.4,548.1,443z"/>
</svg>
