<?xml version="1.0" encoding="utf-8"?>
<!-- Generator: Adobe Illustrator 18.1.1, SVG Export Plug-In . SVG Version: 6.00 Build 0)  -->
<svg version="1.1" id="Layer_1" xmlns="http://www.w3.org/2000/svg" xmlns:xlink="http://www.w3.org/1999/xlink" x="0px" y="0px"
	 viewBox="0 0 600 600" style="enable-background:new 0 0 600 600;" xml:space="preserve">
<circle style="fill:none;stroke:#669933;stroke-miterlimit:10;" cx="300" cy="300" r="300"/>
<g>
	<path style="fill:#99CC66;" d="M300,0c-0.1,0-0.3,0-0.4,0h-0.1c-0.1,0-0.3,0-0.4,0l0,0c-0.1,0-0.3,0-0.4,0h-0.1c-0.2,0-0.3,0-0.4,0
		l0,0c-0.1,0-0.3,0-0.4,0h-0.1c-0.2,0-0.3,0-0.4,0c0,0,0,0-0.1,0s-0.3,0-0.4,0h-0.1c-0.1,0-0.3,0-0.4,0c0,0,0,0-0.1,0s-0.3,0-0.4,0
		c0,0,0,0-0.1,0s-0.3,0-0.4,0c0,0,0,0-0.1,0s-0.3,0-0.4,0l0,0c-0.1,0-0.3,0-0.4,0c0,0,0,0-0.1,0s-0.3,0-0.4,0l0,0
		c-0.2,0-0.3,0-0.5,0c0,0,0,0-0.1,0c-0.2,0-0.3,0-0.4,0l0,0c-0.2,0-0.3,0.1-0.5,0.1c0,0,0,0-0.1,0c-0.3,0-0.6,0-0.9,0V0
		c-0.3,0-0.6,0-0.9,0l0,0c-10.3,0-20.4,1.2-30.4,2.6l39.5,295.7l-98-281.9c-3.5,1.2-6.6,2.5-10.6,3.8l0,0c0,0.2-1,0.5-1.6,0.7h0.1
		c-0.1,0-0.1,0.1-0.3,0.1l0,0c-0.1,0-0.2,0.1-0.3,0.1h-0.1c-0.1,0-0.2,0.1-0.3,0.1h-0.1c-0.1,0-0.2,0.1-0.3,0.1l0,0
		c-0.3,0.1-0.7,0.3-1,0.4c0,0-0.1,0-0.1,0.1c-0.1,0-0.2,0.1-0.2,0.1c-0.1,0-0.1,0-0.1,0.1c-0.1,0-0.2,0.1-0.3,0.1c0,0-0.1,0-0.1,0.1
		c-0.1,0-0.2,0.1-0.2,0.1s-0.1,0-0.1,0.1c-0.1,0-0.2,0.1-0.2,0.1s-0.1,0-0.1,0.1c-0.2,0.1-0.4,0.2-0.6,0.2c0,0,0,0-0.1,0
		s-0.2,0.1-0.2,0.1c-0.1,0-0.1,0-0.2,0.1c-0.1,0-0.1,0.1-0.2,0.1c-0.1,0-0.1,0-0.2,0.1c-0.1,0-0.1,0.1-0.2,0.1c-0.1,0-0.1,0-0.2,0.1
		c-0.1,0-0.1,0.1-0.2,0.1c-0.1,0-0.1,0-0.2,0.1c-0.1,0-0.2,0.1-0.2,0.1h-0.1c-0.2,0.1-0.4,0.1-0.5,0.2h-0.1c-0.1,0-0.2,0.1-0.2,0.1
		c-0.1,0-0.1,0-0.2,0.1c-0.1,0-0.1,0.1-0.2,0.1c-0.1,0-0.1,0-0.2,0.1c-0.1,0-0.1,0.1-0.2,0.1c-0.1,0-0.1,0-0.2,0.1
		c-0.1,0-0.1,0.1-0.2,0.1c-0.1,0-0.1,0-0.2,0.1c-0.1,0-0.2,0.1-0.2,0.1c-0.1,0-0.1,0-0.1,0.1c-0.2,0.1-0.3,0.1-0.5,0.2H180
		c-0.1,0-0.2,0.1-0.2,0.1s-0.1,0-0.1,0.1c-0.1,0-0.2,0.1-0.2,0.1c-0.1,0-0.1,0-0.2,0.1c-0.1,0-0.2,0.1-0.2,0.1c-0.1,0-0.1,0-0.2,0.1
		c-0.1,0-0.1,0.1-0.2,0.1c-0.1,0-0.1,0-0.2,0.1c-0.1,0-0.2,0.1-0.2,0.1s0,0-0.1,0c-0.3,0.1-0.6,0.3-0.9,0.4h-0.1
		c-0.1,0-0.2,0.1-0.3,0.1h-0.1c-0.1,0-0.2,0.1-0.3,0.1h-0.1c-0.1,0-0.2,0.1-0.3,0.1c0,0,0,0-0.1,0c-0.5,0.2-0.9,0.4-1.4,0.6l0,0
		c-0.1,0-0.2,0.1-0.3,0.1l0,0c-0.1,0-0.2,0.1-0.3,0.1l0,0c-6,2.8-11.9,5.8-17.7,8.9l143.2,261.7l0.1,0.7L114.6,64
		c-3.9,3.1-7.7,6.3-11.5,9.5l0,0c-0.1,0.1-0.2,0.2-0.3,0.3l0,0c-0.1,0.1-0.2,0.2-0.3,0.2c0,0,0,0-0.1,0.1s-0.2,0.2-0.3,0.2
		c0,0,0,0-0.1,0.1s-0.2,0.2-0.3,0.3l0,0c-0.2,0.2-0.4,0.4-0.7,0.6c0,0-0.1,0-0.1,0.1c-0.1,0.1-0.2,0.1-0.2,0.2l-0.1,0.1
		c-0.1,0.1-0.1,0.1-0.2,0.2l-0.1,0.1c-0.1,0.1-0.1,0.1-0.2,0.2l-0.1,0.1c-0.1,0.1-0.1,0.1-0.2,0.2l-0.1,0.1
		c-0.1,0.1-0.2,0.1-0.2,0.2c0,0-0.1,0-0.1,0.1c-0.1,0.1-0.2,0.2-0.3,0.3L99,77.3c-0.1,0.1-0.1,0.1-0.2,0.2c-0.1,0-0.1,0.1-0.2,0.1
		c0,0-0.1,0.1-0.2,0.1c-0.1,0.1-0.1,0.1-0.2,0.2L98.1,78c-0.1,0-0.1,0.1-0.2,0.1c-0.1,0.1-0.1,0.1-0.2,0.1s-0.1,0.1-0.2,0.1
		l-0.1,0.1c-0.1,0.1-0.1,0.1-0.2,0.2l-0.1,0.1c-0.1,0.1-0.2,0.2-0.3,0.3l-0.1,0.1c-0.1,0.1-0.1,0.1-0.2,0.2l-0.1,0.1
		c-0.1,0.1-0.1,0.1-0.2,0.2l-0.1,0.1c-0.1,0.1-0.1,0.1-0.2,0.2L95.8,80c-0.1,0.1-0.1,0.1-0.2,0.2l-0.1,0.1c-0.1,0.1-0.1,0.1-0.2,0.2
		l-0.1,0.1c-0.2,0.2-0.4,0.4-0.7,0.6l-0.1,0.1c-0.1,0.1-0.1,0.1-0.2,0.2l-0.1,0.1C94,81.9,93.9,82,93.9,82l-0.1,0.1
		c-0.1,0.1-0.1,0.1-0.2,0.2l-0.1,0.1c-0.1,0.1-0.1,0.1-0.2,0.2l-0.1,0.1c-0.1,0.1-0.1,0.1-0.2,0.2c0,0,0,0-0.1,0.1
		c-0.2,0.2-0.5,0.4-0.7,0.7l-0.1,0.1C92,83.9,92,83.9,91.9,84l-0.1,0.1c-0.1,0.1-0.1,0.1-0.2,0.2l-0.1,0.1c-0.1,0.1-0.1,0.1-0.2,0.2
		s-0.1,0.1-0.2,0.1L91,84.8c-0.1,0.1-0.1,0.1-0.2,0.2l-0.1,0.1c-0.1,0.1-0.2,0.2-0.2,0.2c-0.1,0-0.1,0.1-0.1,0.1
		c-0.1,0.1-0.1,0.1-0.2,0.2l-0.1,0.1c-0.1,0.1-0.1,0.1-0.2,0.2L89.8,86c-0.1,0.1-0.1,0.1-0.2,0.2l-0.1,0.1c-0.1,0.1-0.1,0.1-0.2,0.2
		l-0.1,0.1c-0.1,0.1-0.1,0.1-0.2,0.2c0,0,0,0-0.1,0.1s-0.2,0.2-0.3,0.3l0,0c-0.1,0.1-0.2,0.2-0.3,0.3l0,0c-0.1,0.1-0.2,0.2-0.3,0.3
		c0,0,0,0-0.1,0.1s-0.2,0.2-0.2,0.2s0,0-0.1,0.1s-0.2,0.2-0.3,0.3l0,0c-0.1,0.1-0.2,0.2-0.3,0.3l0,0c-3,3.1-6,6.2-9,9.4l221.4,201.3
		l-0.6-0.1l-0.3-0.1l-251-161.5c-1.3,2-2.6,4.1-3.8,6.1l0,0c-2.3,3.7-4.4,7.4-6.5,11.2l0,0c-0.2,0.4-0.4,0.8-0.6,1.2l0,0
		c-0.2,0.3-0.3,0.6-0.5,0.8l0,0c0,0.1-0.1,0.2-0.1,0.3l0,0c-0.1,0.3-0.3,0.5-0.4,0.8c0,0,0,0,0,0.1s-0.1,0.2-0.1,0.3v0.1
		c-0.1,0.3-0.3,0.5-0.4,0.8c0,0,0,0.1-0.1,0.1c0,0.1-0.1,0.1-0.1,0.2v0.1c-0.1,0.1-0.2,0.3-0.2,0.4v0.1c0,0.1-0.1,0.1-0.1,0.2
		c0,0,0,0.1-0.1,0.1c0,0.1-0.1,0.2-0.1,0.2v0.1c-0.1,0.1-0.1,0.3-0.2,0.4c0,0,0,0.1-0.1,0.1c0,0.1-0.1,0.1-0.1,0.2
		c0,0,0,0.1-0.1,0.1c0,0.1-0.1,0.1-0.1,0.2v0.1c-0.1,0.1-0.1,0.3-0.2,0.4c0,0,0,0.1-0.1,0.1c0,0.1-0.1,0.1-0.1,0.2
		c0,0,0,0.1-0.1,0.1c-0.1,0.2-0.3,0.5-0.4,0.7c0,0,0,0.1-0.1,0.1c0,0.1-0.1,0.1-0.1,0.2c0,0,0,0.1-0.1,0.1c-0.1,0.1-0.1,0.3-0.2,0.4
		c0,0,0,0.1-0.1,0.1c0,0.1-0.1,0.2-0.1,0.2s0,0.1-0.1,0.1c0,0.1-0.1,0.2-0.1,0.2v0.1c-0.1,0.2-0.2,0.3-0.2,0.5v0.1
		c0,0.1-0.1,0.2-0.1,0.2l-0.1,0.1c0,0.1-0.2,0.2-0.2,0.2l0,0c0,0.2-0.1,0.3-0.2,0.5v0.1c0,0.1-0.1,0.2-0.1,0.2v0.1
		c-0.1,0.3-0.3,0.5-0.4,0.8v0.1c0,0.1-0.1,0.2-0.1,0.3c0,0,0,0,0,0.1c-0.1,0.3-0.3,0.5-0.4,0.8v0.1c0,0.1-0.1,0.2-0.1,0.3l0,0
		c-0.1,0.3-0.3,0.6-0.4,0.8v0.1c0,0.1-0.1,0.2-0.1,0.3l0,0c-0.1,0.2-0.2,0.4-0.3,0.5c0,0,0,0,0,0.1s-0.1,0.2-0.1,0.2s0,0.1-0.1,0.1
		c-0.1,0.3-0.2,0.5-0.4,0.8v0.1c0,0.1-0.1,0.2-0.1,0.2v0.1c-0.1,0.3-0.2,0.5-0.4,0.8c0,0,0,0.1-0.1,0.1c0,0.1-0.1,0.2-0.1,0.2
		s0,0.1-0.1,0.1c-0.1,0.1-0.1,0.3-0.2,0.4v0.1c0,0.1-0.1,0.1-0.1,0.2c0,0,0,0.1-0.1,0.1c0,0.1-0.1,0.1-0.1,0.2
		c0,0.1-0.1,0.1-0.1,0.2c0,0.1-0.1,0.2-0.1,0.3s-0.1,0.1-0.1,0.2c0,0.1-0.1,0.1-0.1,0.2c0,0.1-0.1,0.1-0.1,0.2c0,0.1,0,0.1-0.1,0.2
		c0,0.1-0.1,0.2-0.1,0.3s-0.1,0.1-0.1,0.2c0,0.1-0.1,0.2-0.1,0.3c0,0,0,0.1-0.1,0.1c0,0.1-0.1,0.2-0.1,0.2s0,0.1-0.1,0.1
		c-0.1,0.1-0.1,0.2-0.2,0.4c0,0,0,0,0,0.1s-0.1,0.2-0.1,0.3v0.1c0,0.1-0.1,0.2-0.1,0.3l0,0c-0.1,0.1-0.1,0.3-0.2,0.4c0,0,0,0,0,0.1
		s-0.1,0.2-0.2,0.3c0,0,0,0,0,0.1c-0.2,0.5-0.5,1.1-0.7,1.7l273.7,117.3l-290-69.3c-0.7,2.8-1.3,5.5-1.9,8.3l0,0
		c0,0.1-0.1,0.3-0.1,0.4l0,0c0,0.1-0.1,0.3-0.1,0.4v0.1c0,0.1,0,0.2-0.1,0.4v0.1c0,0.1,0,0.2-0.1,0.3c0,0.1,0,0.1,0,0.2
		c0,0.1,0,0.2-0.1,0.3c0,0.1,0,0.1,0,0.2c0,0.1,0,0.2-0.1,0.3c0,0.1,0,0.1,0,0.2c0,0.1,0,0.2-0.1,0.3c0,0.1,0,0.1,0,0.2
		c0,0.1,0,0.2,0,0.2c0,0.1,0,0.2,0,0.2c0,0.1,0,0.1,0,0.2c0,0.1,0,0.2,0,0.3s0,0.1,0,0.2c0,0.1,0,0.2-0.1,0.3c0,0.1,0,0.1,0,0.2
		c0,0.1,0,0.2-0.1,0.3c0,0.1,0,0.1,0,0.2c0,0.1,0,0.2-0.1,0.3c0,0,0,0.1,0,0.2c0,0.1,0,0.2-0.1,0.3v0.1c0,0.1,0,0.2-0.1,0.3v0.1
		c0,0.1,0,0.3-0.1,0.4v0.1c0,0.1-0.1,0.3-0.1,0.4l0,0c-0.2,1-0.3,1.9-0.5,2.9v0.1c0,0.1,0,0.3-0.1,0.4v0.1c0,0.1,0,0.2-0.1,0.4
		c0,0,0,0.1,0,0.2c0,0.1,0,0.2-0.1,0.3c0,0.1,0,0.1,0,0.2c0,0.1,0,0.2,0,0.3s0,0.1,0,0.2c0,0.1,0,0.2,0,0.3s0,0.1,0,0.2
		c0,0.1,0,0.2,0,0.3s0,0.2,0,0.2c0,0.1,0,0.2,0,0.2c0,0.1,0,0.2,0,0.3s0,0.1,0,0.2c0,0.1,0,0.2,0,0.3s0,0.1,0,0.2c0,0.1,0,0.2,0,0.3
		s0,0.1,0,0.2c0,0.1,0,0.2-0.1,0.3v0.1c0,0.1,0,0.2-0.1,0.3v0.1c0,0.1,0,0.2-0.1,0.4v0.1c0,0.1,0,0.3-0.1,0.4H3.8
		C2.4,260.7,2,266.6,1,272.6l0,0c0,0.3,0.1,0.6,0,0.9c0,0,0.1,0,0.1,0.1s0,0.3,0,0.4v0.1c0,0.1,0,0.2,0,0.3v0.1c0,0.1,0,0.2,0,0.3
		c0,0.1,0,0.1,0,0.2c0,0,0,0.1,0,0.2s0,0.3,0,0.4c0,0,0,0,0,0.1c-0.1,1-0.2,2-0.2,2.9l298,20.9l0.3,0.1l0.4,0.3l-0.3,0.2l0.4-0.2
		l0.1,0.1v0.2l-0.5,0.1h-0.4l0.5-0.3l-0.7,0.3L1.4,328.7c0.2,2.1,0.4,4.2,0.7,6.2c0,0,0,0,0,0.1s0,0.3,0,0.4c0,0,0,0,0,0.1
		s0,0.3,0.1,0.4c0,0,0,0,0,0.1s0,0.2,0,0.4v0.1c0,0.1,0,0.2,0,0.3v0.1c0,0.3,0.1,0.6,0.1,0.9l0,0c0.6,5.2,1.4,10.3,2.3,15.4l0,0
		c0.1,0.3,0.1,0.6,0.2,0.9l0,0c0.1,0.3,0.1,0.6,0.2,0.9l0,0c0,0.1,0.1,0.3,0.1,0.4l0,0c0,0.1,0.1,0.3,0.1,0.4l0,0
		c0,0.1,0.1,0.3,0.1,0.4v0.1c0,0.1,0.1,0.3,0.1,0.4l0,0c0,0.1,0.1,0.3,0.1,0.4v0.1c0,0.1,0.1,0.3,0.1,0.4v0.1c0,0.1,0,0.2,0.1,0.3
		v0.1c0,0.1,0,0.2,0.1,0.4v0.1c0,0.1,0,0.2,0.1,0.3v0.1c0,0.1,0,0.2,0.1,0.4v0.1c0,0.1,0,0.2,0.1,0.3v0.1c0,0.1,0,0.2,0.1,0.4
		c0,0.1,0,0.1,0,0.2s0,0.2,0.1,0.3v0.1c0,0.1,0,0.2,0.1,0.3v0.1c0,0.1,0.1,0.2,0.1,0.4v0.1c0,0.1,0,0.2,0.1,0.3v0.1
		c0,0.1,0.1,0.2,0.1,0.4v0.1c0,0.1,0,0.2,0.1,0.3v0.1c0,0.1,0.1,0.3,0.1,0.4v0.1c0,0.1,0,0.2,0.1,0.3v0.1c0,0.1,0.1,0.3,0.1,0.4v0.1
		c0.1,0.3,0.1,0.6,0.2,0.8c0,0,0,0,0,0.1c0.1,0.3,0.1,0.6,0.2,0.9l0,0c0.9,3.8,1.8,7.6,2.8,11.4L298,300.6L27.1,424.8
		c0.1,0.2,0.1,0.3,0.2,0.5c0,0,0,0,0,0.1c0.1,0.2,0.1,0.3,0.2,0.5l0,0c0.1,0.2,0.2,0.5,0.3,0.7c0,0,0,0,0,0.1
		c0.1,0.2,0.2,0.5,0.3,0.7l0,0c0.1,0.2,0.1,0.3,0.2,0.5c0,0,0,0,0,0.1c4.6,9.7,9.6,19.1,15.2,28.2l254.7-155.4h0.2l0.8-0.1L83,507.2
		c11.5,12.1,24,23.1,37.4,33.1l179.1-239.2l-0.1,0.6v0.1v-0.1L257.5,597c0.2,0,0.4,0.1,0.6,0.2c10.6,1.5,21.3,2.8,32.2,2.8l0,0
		c0.3,0,0.6-0.1,0.9,0l0,0c0.3,0,0.6,0,0.9,0c0,0,0,0,0.1,0c0.2,0,0.3,0,0.5,0l0,0c0.2,0,0.3,0,0.4,0c0,0,0,0,0.1,0
		c0.2,0,0.3,0,0.5,0l0,0c0.1,0,0.3,0,0.4,0c0,0,0,0,0.1,0s0.3,0,0.4,0l0,0c0.1,0,0.3,0,0.4,0c0,0,0,0,0.1,0s0.3,0,0.4,0
		c0,0,0,0,0.1,0s0.3,0,0.4,0c0,0,0,0,0.1,0s0.3,0,0.4,0h0.1c0.1,0,0.3,0,0.4,0c0,0,0,0,0.1,0c0.2,0,0.3,0,0.4,0h0.1
		c0.1,0,0.3,0,0.4,0l0,0c0.2,0,0.3,0,0.4,0h0.1c0.1,0,0.3,0,0.4,0l0,0c0.1,0,0.3,0,0.4,0h0.1c0.1,0,0.3,0,0.4,0l0,0l0,0
		c0.2,0,0.3,0,0.5,0h0.1c0.1,0,0.2,0,0.4,0c0.1,0,0.1,0,0.2,0s0.2,0,0.3,0c0.1,0,0.1,0,0.2,0s0.2,0,0.3,0c0.1,0,0.1,0,0.2,0
		s0.2,0,0.3,0c0.1,0,0.1,0,0.2,0s0.2,0,0.3,0c0.1,0,0.1,0,0.2,0s0.2,0,0.3,0c0.1,0,0.2,0,0.2,0c0.1,0,0.1,0,0.2,0s0.2,0,0.3,0
		c0.1,0,0.1,0,0.2,0s0.2,0,0.3,0c0.1,0,0.1,0,0.2,0s0.2,0,0.3,0h0.1c0.1,0,0.3,0,0.4,0l0,0c0.6,0,1.2,0,1.8-0.1L300,300.8l0.3,0.5
		l0.3,0.8l-0.1-0.4l149.6,258c1.4-0.8,2.7-1.6,4.1-2.4c0,0,0.1,0,0.1-0.1c0.1,0,0.1-0.1,0.2-0.1c0.1-0.1,0.2-0.1,0.3-0.2l0,0
		c0.4-0.2,0.7-0.4,1.1-0.6L300.6,301.6l0,0L456,556.3c6.1-3.7,12-7.6,17.8-11.7c0,0,0,0,0.1,0c0.1-0.1,0.2-0.1,0.2-0.2
		c0,0,0,0,0.1,0c0.1-0.1,0.3-0.2,0.4-0.3l0.1-0.1c0.1,0,0.1-0.1,0.2-0.1l0.1-0.1c0.1,0,0.1-0.1,0.2-0.1s0.1-0.1,0.2-0.1
		s0.1-0.1,0.2-0.1c0.1-0.1,0.1-0.1,0.2-0.2l0.1-0.1c0.1-0.1,0.1-0.1,0.2-0.2l0.1-0.1c0.1-0.1,0.2-0.2,0.3-0.2l0,0
		c0.1-0.1,0.2-0.2,0.3-0.2c0,0,0,0,0.1,0c0.1-0.1,0.2-0.1,0.3-0.2l0,0c0.2-0.2,0.5-0.3,0.7-0.5l0,0c4.5-3.3,8.9-6.8,13.2-10.3
		L300.5,300.9l-0.1-0.5l0.3,0.1L527,496.2c10.8-12.5,20.7-26,29.3-40.2L301.6,300.6l0.6,0.1l-1.1-0.4l-0.1-0.1l298.7,13.6
		c0.1-2.5,0.3-5,0.3-7.6l0,0c0-0.2,0-0.3,0-0.4l0,0c0-0.1,0-0.3,0-0.4l0,0c0-0.5,0-1,0-1.4l0,0c0-0.1,0-0.3,0-0.4v-0.1
		c0-0.1,0-0.2,0-0.4c0-0.1,0-0.1,0-0.2s0-0.2,0-0.3c0-0.1,0-0.1,0-0.2s0-0.2,0-0.3c0-0.1,0-0.1,0-0.2s0-0.2,0-0.3c0-0.1,0-0.1,0-0.2
		s0-0.2,0-0.3c0-0.1,0-0.1,0-0.2s0-0.2,0-0.3v-0.1c0-0.2,0-0.3,0-0.5l0,0c0-0.1,0-0.3,0-0.4v-0.1c0-0.1,0-0.3,0-0.4V299
		c0-0.1,0-0.3,0-0.4l0,0c0-0.1,0-0.3,0-0.4c0,0,0,0,0-0.1s0-0.3,0-0.4c0,0,0,0,0-0.1s0-0.3,0-0.4l0,0c0-0.2,0-0.3,0-0.4l0,0
		c0-0.2,0-0.3,0-0.4c0,0,0,0,0-0.1c0-0.2,0-0.3,0-0.4l0,0c0-0.3,0-0.6,0-0.9l0,0c0-0.1,0-0.3,0-0.5l0,0c0-0.5,0-0.9,0-1.4l0,0
		c0-9.7-1-19.3-2.1-28.8l-296.2,35.5l0.3-0.1l-0.6,0.2h-0.2l243-173.9c-2.4-3.4-5-6.8-7.5-10.1c0,0,0,0-0.1-0.1s-0.1-0.2-0.2-0.3
		l-0.1-0.1c-0.1-0.1-0.1-0.1-0.2-0.2l-0.1-0.1c0-0.1-0.1-0.1-0.2-0.2l-0.1-0.1c0-0.1-0.1-0.1-0.2-0.2l-0.1-0.1
		c0-0.1-0.1-0.1-0.1-0.2c-0.1-0.1-0.2-0.2-0.3-0.4l-0.1-0.1c-0.1-0.1-0.1-0.1-0.2-0.2l-0.1-0.1c-0.1-0.1-0.1-0.1-0.2-0.2
		c0,0,0-0.1-0.1-0.1c-0.1-0.1-0.1-0.2-0.2-0.2c0,0,0,0-0.1-0.1s-0.1-0.2-0.2-0.3l0,0c-4.7-5.9-9.7-11.6-14.8-17.1l0,0
		c-0.1-0.1-0.2-0.2-0.2-0.3c0,0,0,0,0-0.1c-0.1-0.1-0.1-0.2-0.2-0.2c0,0,0,0-0.1-0.1s-0.1-0.2-0.2-0.2c0,0,0,0-0.1-0.1
		c-0.2-0.2-0.4-0.5-0.7-0.7l-0.1-0.1c-0.1-0.1-0.1-0.1-0.2-0.2l-0.1-0.1c0-0.1-0.1-0.1-0.1-0.2c-0.1-0.1-0.1-0.1-0.2-0.2l-0.1-0.1
		c-0.1-0.1-0.1-0.1-0.2-0.2l-0.1-0.1c-0.1-0.1-0.2-0.2-0.3-0.3l0,0c-1.5-1.5-2.9-3-4.4-4.5l-211.4,212l0.1-0.8L473.6,55.3
		c-2.8-2-5.6-3.9-8.5-5.8l0,0c-0.1-0.1-0.2-0.1-0.3-0.2l0,0c-0.1-0.1-0.2-0.2-0.4-0.2l0,0c-0.1-0.1-0.2-0.1-0.3-0.2
		c0,0-0.1,0-0.1-0.1c-0.1-0.1-0.2-0.1-0.3-0.2c0,0,0,0-0.1,0c-0.1-0.1-0.2-0.1-0.3-0.2l-0.1-0.1c-0.1,0-0.1-0.1-0.2-0.1
		s-0.1-0.1-0.2-0.1s-0.1-0.1-0.2-0.1c-0.1-0.1-0.2-0.2-0.4-0.2c0,0-0.1,0-0.1-0.1c-0.1-0.1-0.2-0.1-0.2-0.2c0,0,0,0-0.1,0
		c-1.9-1.2-3.9-2.5-5.8-3.7L300.6,298.5l0,0L456,43.7c-2.3-1.4-4.6-2.8-7-4.1l0,0c-0.1-0.1-0.2-0.1-0.3-0.2c0,0,0,0-0.1,0
		c-0.1-0.1-0.2-0.1-0.3-0.2c0,0-0.1,0-0.1-0.1c-0.1-0.1-0.2-0.1-0.3-0.2c0,0-0.1,0-0.1-0.1c-0.1,0-0.2-0.1-0.3-0.1l-0.1-0.1
		c-0.1,0-0.2-0.1-0.2-0.1s-0.1-0.1-0.2-0.1s-0.1-0.1-0.2-0.1s-0.1-0.1-0.2-0.1s-0.1-0.1-0.2-0.1s-0.1-0.1-0.2-0.1s-0.1-0.1-0.2-0.1
		s-0.1-0.1-0.2-0.1s-0.1-0.1-0.2-0.1s-0.1-0.1-0.2-0.1s-0.1-0.1-0.2-0.1s-0.1-0.1-0.2-0.1s-0.1-0.1-0.2-0.1s-0.1-0.1-0.2-0.1
		s-0.1-0.1-0.2-0.1s-0.1-0.1-0.2-0.1s-0.1-0.1-0.2-0.1s-0.1-0.1-0.2-0.1s-0.1-0.1-0.2-0.1s-0.1-0.1-0.2-0.1s-0.1-0.1-0.2-0.1
		s-0.1-0.1-0.2-0.1s-0.1-0.1-0.2-0.1s-0.1-0.1-0.2-0.1s-0.1-0.1-0.2-0.1s-0.1-0.1-0.2-0.1s-0.1-0.1-0.2-0.1s-0.1-0.1-0.2-0.1
		s-0.2-0.1-0.2-0.1c-0.1,0-0.1-0.1-0.2-0.1s-0.2-0.1-0.2-0.1c-0.1,0-0.1-0.1-0.2-0.1s-0.2-0.1-0.2-0.1c-0.1,0-0.1-0.1-0.2-0.1
		s-0.2-0.1-0.2-0.1c-0.1,0-0.1-0.1-0.2-0.1s-0.2-0.1-0.3-0.1c0,0-0.1,0-0.1-0.1c-0.1,0-0.2-0.1-0.3-0.1c0,0-0.1,0-0.1-0.1
		c-0.1,0-0.2-0.1-0.3-0.1c0,0-0.1,0-0.1-0.1c-0.1-0.1-0.2-0.1-0.3-0.2c0,0-0.1,0-0.1-0.1c-0.1-0.1-0.2-0.1-0.3-0.2h-0.1
		c-0.1-0.1-0.2-0.1-0.3-0.2c0,0,0,0-0.1,0c-0.1-0.1-0.2-0.1-0.3-0.2l0,0c-0.1-0.1-0.2-0.1-0.4-0.2l0,0c-2.1-1.1-4.3-2.2-6.5-3.2
		L300.7,298L384,11.9c-2.8-0.8-5.6-1.6-8.4-2.3l0,0c-0.4-0.1-0.9-0.2-1.3-0.3l0,0c-0.3-0.1-0.6-0.2-1-0.2l0,0c-0.1,0-0.2,0-0.3-0.1
		h-0.1c-0.1,0-0.2,0-0.3-0.1l0,0c-0.2-0.1-0.4-0.1-0.6-0.2l0,0c-0.1,0-0.2,0-0.3-0.1h-0.1c-0.1,0-0.2,0-0.3-0.1l0,0
		c-0.2,0-0.4-0.1-0.6-0.1c0,0,0,0-0.1,0s-0.2,0-0.3-0.1h-0.1c-0.1,0-0.2,0-0.3-0.1h-0.1c-0.2,0-0.4-0.1-0.5-0.1h-0.1
		c-0.1,0-0.2,0-0.3-0.1h-0.1c-0.1,0-0.2,0-0.3-0.1h-0.1c-0.2,0-0.3-0.1-0.5-0.1h-0.1c-0.1,0-0.2,0-0.3-0.1h-0.1
		c-0.1,0-0.2,0-0.2-0.1h-0.1c-0.2,0-0.3-0.1-0.5-0.1h-0.1c-0.1,0-0.2,0-0.2-0.1c0,0-0.1,0-0.2,0s-0.2,0-0.2-0.1c-0.1,0-0.1,0-0.2,0
		s-0.2,0-0.3-0.1c-0.1,0-0.2,0-0.2-0.1c-0.1,0-0.1,0-0.2,0s-0.1,0-0.2,0s-0.1,0-0.2,0s-0.1,0-0.2,0S364.2,7,364.1,7s-0.1,0-0.2,0
		s-0.1,0-0.2,0s-0.1,0-0.2,0s-0.1,0-0.2,0s-0.1,0-0.2,0s-0.1,0-0.2,0s-0.2,0-0.3-0.1c-0.1,0-0.1,0-0.2,0s-0.1,0-0.2,0s-0.1,0-0.2,0
		s-0.1,0-0.2,0s-0.1,0-0.2,0s-0.2-0.1-0.4-0.1c-0.1,0-0.1,0-0.2,0s-0.1,0-0.2,0s-0.1,0-0.2,0s-0.1,0-0.2,0s-0.1,0-0.2,0
		s-0.2-0.1-0.4-0.1c-0.1,0-0.1,0-0.2,0s-0.1,0-0.2,0s-0.1,0-0.2,0s-0.2,0-0.2,0c-0.1,0-0.1,0-0.2,0s-0.3-0.1-0.4-0.1h-0.1
		c-0.1,0-0.2,0-0.3-0.1c-0.1,0-0.1,0-0.2,0s-0.2,0-0.3-0.1h-0.1c-0.1,0-0.3-0.1-0.4-0.1h-0.1c-0.1,0-0.2,0-0.3-0.1h-0.1
		c-0.1,0-0.2,0-0.3-0.1h-0.1c-0.1,0-0.3-0.1-0.4-0.1c0,0,0,0-0.1,0s-0.2,0-0.4-0.1h-0.1c-0.1,0-0.2,0-0.4-0.1c0,0,0,0-0.1,0
		s-0.3-0.1-0.4-0.1l0,0c-0.1,0-0.3,0-0.4-0.1h-0.1c-0.1,0-0.3,0-0.4-0.1l0,0c-0.3-0.1-0.6-0.1-0.9-0.2l0,0c-4-0.7-8-1.3-12.1-1.9
		L300.8,299l-0.5,1l0.5-0.8l0,0l-0.5,0.8l0,0l-0.1,0.2l0,0V0H300L300,0z M300,299.5l0.4-0.6l-0.2,0.7H300V299.5L300,299.5z
		 M299.2,299.8l-0.3-0.2h0.6l0.1,0.1v0.2h-0.1L299.2,299.8L299.2,299.8z M299.6,300L299.6,300L299.6,300L299.6,300L299.6,300z
		 M300.2,300.8l0.2,0.4l0,0L300.2,300.8L300.2,300.8z M299.3,301.8l-136.6,265c14.7,7.6,30.1,14,46.1,19.1L299.3,301.8L299.3,301.8z
		 M300.7,302.1L357,594.6c16.5-3.2,32.6-7.7,48.1-13.5L300.7,302.1L300.7,302.1z M302.2,300.8l276.5,110.4v-0.1
		c0.1-0.3,0.2-0.6,0.3-0.9c0-0.1,0-0.1,0.1-0.2c0-0.1,0.1-0.1,0.1-0.2s0.1-0.1,0.1-0.2s0-0.1,0.1-0.2c0-0.1,0.1-0.2,0.1-0.2
		c0-0.1,0-0.1,0.1-0.2c0-0.1,0.1-0.2,0.1-0.3v-0.1c0.1-0.3,0.2-0.5,0.3-0.8l0,0c0-0.1,0.1-0.2,0.1-0.4c0,0,0,0,0-0.1
		s0.1-0.2,0.1-0.4l0,0c5.4-14.1,9.7-28.6,12.9-43.6L302.2,300.8L302.2,300.8z M569.7,168.5L302,299.3L587.8,215
		c-0.9-3.2-1.9-6.4-3-9.5l0,0c0-0.1-0.1-0.3-0.1-0.4l0,0c0-0.1-0.1-0.3-0.1-0.4l0,0c-0.1-0.4-0.3-0.9-0.4-1.3c0,0,0,0,0-0.1
		s-0.1-0.2-0.1-0.3v-0.1c0-0.1-0.1-0.2-0.1-0.3v-0.1c0-0.1-0.1-0.2-0.1-0.3v-0.1c0-0.1-0.1-0.2-0.1-0.3v-0.1c0-0.1-0.1-0.3-0.1-0.4
		c0-0.1,0-0.1-0.1-0.2c0-0.1-0.1-0.2-0.1-0.2c0-0.1,0-0.1-0.1-0.2c0-0.1,0-0.1-0.1-0.2c0-0.1,0-0.1-0.1-0.2c0-0.1,0-0.1-0.1-0.2
		c0-0.1-0.1-0.1-0.1-0.2c0-0.1,0-0.1-0.1-0.2c0-0.1-0.1-0.2-0.1-0.2v-0.1c-0.1-0.3-0.2-0.6-0.3-0.9v-0.1c0-0.1-0.1-0.2-0.1-0.3V198
		c0-0.1-0.1-0.2-0.1-0.3v-0.1c0-0.1-0.1-0.2-0.1-0.3v-0.1c-0.2-0.5-0.3-0.9-0.5-1.4l0,0c0-0.1-0.1-0.2-0.1-0.3c0,0,0,0,0-0.1
		s-0.1-0.2-0.1-0.3c0,0,0,0,0-0.1s-0.1-0.2-0.1-0.3l0,0c0-0.6-0.5-1.2-0.7-1.8l0,0c0-0.1-0.1-0.2-0.1-0.3l0,0
		c-0.2-0.6-0.5-1.2-0.7-1.8l0,0c0-0.1-0.1-0.2-0.1-0.4l0,0c0-0.1-0.1-0.2-0.1-0.4l0,0c-0.2-0.6-0.5-1.2-0.7-1.8l0,0
		c0-0.1-0.1-0.2-0.1-0.3l0,0c0-0.1-0.1-0.2-0.1-0.3l0,0c-0.2-0.6-0.5-1.2-0.7-1.8c0,0,0,0,0-0.1s-0.1-0.2-0.1-0.3c0,0,0,0-0.1,0
		c0-0.1-0.2-0.2-0.2-0.3l0,0c0-0.5-0.4-1-0.6-1.4l0,0c0-0.1-0.1-0.2-0.1-0.3l0,0c0-0.1-0.1-0.2-0.1-0.3V183c0-0.1-0.1-0.2-0.1-0.3
		l0,0c-0.1-0.3-0.3-0.7-0.4-1l0,0c0-0.1-0.1-0.2-0.1-0.3v-0.1c0-0.1-0.1-0.2-0.1-0.3c0,0,0-0.1-0.1-0.1c0-0.1-0.1-0.2-0.1-0.3
		c0,0,0-0.1-0.1-0.1c0-0.1-0.1-0.2-0.1-0.3c0,0,0-0.1-0.1-0.1c-0.1-0.3-0.2-0.6-0.4-0.8c0-0.1,0-0.1-0.1-0.2c0-0.1-0.1-0.1-0.1-0.2
		c0-0.1,0-0.1-0.1-0.2c0-0.1-0.1-0.1-0.1-0.2c0-0.1-0.1-0.1-0.1-0.2c0-0.1-0.1-0.1-0.1-0.2c0-0.1-0.1-0.1-0.1-0.2
		c0-0.1-0.1-0.1-0.1-0.2c0-0.1-0.1-0.1-0.1-0.2c0-0.1,0-0.1-0.1-0.2c-0.1-0.1-0.1-0.2-0.2-0.4c0-0.1-0.1-0.1-0.1-0.2
		c0-0.1-0.1-0.1-0.1-0.2c0-0.1-0.1-0.1-0.1-0.2c0-0.1-0.1-0.1-0.1-0.2c0-0.1-0.1-0.1-0.1-0.2c0-0.1-0.1-0.2-0.1-0.2
		c0-0.1,0-0.1-0.1-0.2c0-0.1-0.1-0.2-0.1-0.2s0-0.1-0.1-0.1c-0.1-0.1-0.1-0.2-0.2-0.3c0,0,0,0,0-0.1c-0.1-0.1-0.1-0.3-0.2-0.4v-0.1
		c0-0.1-0.1-0.2-0.1-0.3c0,0,0-0.1-0.1-0.1c0-0.1-0.1-0.2-0.1-0.3c0,0,0-0.1-0.1-0.1c0-0.1-0.1-0.2-0.1-0.3c0,0,0-0.1-0.1-0.1
		c0-0.1-0.1-0.2-0.1-0.3c0,0,0,0,0-0.1c-0.1-0.3-0.3-0.5-0.4-0.8c0,0,0,0,0-0.1c-0.1-0.1-0.1-0.2-0.2-0.3c0,0,0,0,0-0.1
		s-0.1-0.2-0.2-0.3V171c0-0.1-0.1-0.2-0.2-0.3c0,0,0,0,0-0.1c-0.1-0.1-0.1-0.3-0.2-0.4l0,0c-0.2-0.4-0.4-0.8-0.6-1.2l0,0
		C569.8,168.6,569.7,168.6,569.7,168.5L569.7,168.5z"/>
</g>
<path style="fill:#9A6B7C;" d="M560.2,367.9H38.7c-6.6,0-12-10-12-22.3v-80c0-12.2,5.4-22.3,12-22.3h521.6c6.6,0,12,10,12,22.3v80
	C572.2,357.9,566.8,367.9,560.2,367.9z"/>
<g style="enable-background:new    ;">
	<path style="fill:#FFFFFF;" d="M165.7,283.8c2.6-0.4,6-0.8,10.4-0.8c5.3,0,9.3,1.2,11.7,3.5c2.3,2,3.7,5,3.7,8.8
		c0,3.8-1.1,6.8-3.2,8.9c-2.9,3-7.5,4.6-12.8,4.6c-1.6,0-3.1-0.1-4.3-0.4v16.8h-5.4V283.8z M171.1,304c1.2,0.3,2.7,0.4,4.5,0.4
		c6.5,0,10.5-3.2,10.5-8.9c0-5.5-3.9-8.2-9.9-8.2c-2.4,0-4.2,0.2-5.1,0.4V304z"/>
	<path style="fill:#FFFFFF;" d="M198.3,281.1h5.5v44.1h-5.5V281.1z"/>
	<path style="fill:#FFFFFF;" d="M229.6,325.2l-0.4-3.8H229c-1.7,2.4-4.9,4.5-9.2,4.5c-6.1,0-9.2-4.3-9.2-8.6
		c0-7.3,6.5-11.2,18.1-11.2v-0.6c0-2.5-0.7-7-6.8-7c-2.8,0-5.7,0.9-7.8,2.2l-1.2-3.6c2.5-1.6,6.1-2.7,9.9-2.7
		c9.2,0,11.4,6.3,11.4,12.3V318c0,2.6,0.1,5.2,0.5,7.2H229.6z M228.8,309.8c-6-0.1-12.7,0.9-12.7,6.8c0,3.5,2.4,5.2,5.2,5.2
		c3.9,0,6.4-2.5,7.3-5c0.2-0.6,0.3-1.2,0.3-1.7V309.8z"/>
	<path style="fill:#FFFFFF;" d="M264.3,324.1c-1.4,0.7-4.6,1.7-8.6,1.7c-9.1,0-15-6.2-15-15.3c0-9.3,6.3-16,16.2-16
		c3.2,0,6.1,0.8,7.6,1.6l-1.2,4.2c-1.3-0.7-3.4-1.4-6.3-1.4c-6.9,0-10.6,5.1-10.6,11.4c0,7,4.5,11.2,10.4,11.2
		c3.1,0,5.2-0.8,6.7-1.5L264.3,324.1z"/>
	<path style="fill:#FFFFFF;" d="M273.4,311.1c0.1,7.4,4.8,10.4,10.3,10.4c3.9,0,6.3-0.7,8.3-1.6l0.9,3.9c-1.9,0.9-5.2,1.9-10,1.9
		c-9.3,0-14.8-6.1-14.8-15.2c0-9.1,5.3-16.2,14.1-16.2c9.8,0,12.4,8.6,12.4,14.2c0,1.1-0.1,2-0.2,2.5H273.4z M289.4,307.2
		c0.1-3.5-1.4-8.9-7.6-8.9c-5.5,0-8,5.1-8.4,8.9H289.4z"/>
	<path style="fill:#FFFFFF;" d="M350.6,303.8c0,14.4-8.8,22.1-19.4,22.1c-11.1,0-18.8-8.6-18.8-21.3c0-13.3,8.3-22,19.4-22
		C343.2,282.6,350.6,291.4,350.6,303.8z M318.1,304.5c0,8.9,4.8,17,13.4,17c8.6,0,13.4-7.9,13.4-17.4c0-8.3-4.3-17-13.4-17
		C322.6,287,318.1,295.3,318.1,304.5z"/>
	<path style="fill:#FFFFFF;" d="M357.4,304.5c0-3.5-0.1-6.6-0.2-9.4h4.8l0.2,5.9h0.2c1.4-4,4.7-6.6,8.3-6.6c0.6,0,1.1,0.1,1.6,0.2
		v5.2c-0.6-0.1-1.1-0.2-1.9-0.2c-3.9,0-6.6,2.9-7.3,7c-0.1,0.7-0.2,1.6-0.2,2.5v16h-5.4V304.5z"/>
	<path style="fill:#FFFFFF;" d="M403.1,281.1v36.3c0,2.7,0.1,5.7,0.2,7.8h-4.9l-0.2-5.2h-0.1c-1.7,3.4-5.3,5.9-10.3,5.9
		c-7.3,0-12.9-6.2-12.9-15.3c-0.1-10,6.2-16.2,13.5-16.2c4.6,0,7.7,2.2,9.1,4.6h0.1v-18H403.1z M397.6,307.3c0-0.7-0.1-1.6-0.2-2.3
		c-0.8-3.5-3.8-6.3-7.9-6.3c-5.7,0-9,5-9,11.6c0,6.1,3,11.1,8.9,11.1c3.7,0,7-2.4,8-6.5c0.2-0.7,0.2-1.5,0.2-2.4V307.3z"/>
	<path style="fill:#FFFFFF;" d="M415.2,311.1c0.1,7.4,4.8,10.4,10.3,10.4c3.9,0,6.3-0.7,8.3-1.6l0.9,3.9c-1.9,0.9-5.2,1.9-10,1.9
		c-9.3,0-14.8-6.1-14.8-15.2c0-9.1,5.3-16.2,14.1-16.2c9.8,0,12.4,8.6,12.4,14.2c0,1.1-0.1,2-0.2,2.5H415.2z M431.3,307.2
		c0.1-3.5-1.4-8.9-7.6-8.9c-5.5,0-8,5.1-8.4,8.9H431.3z"/>
	<path style="fill:#FFFFFF;" d="M443.3,304.5c0-3.5-0.1-6.6-0.2-9.4h4.8l0.2,5.9h0.2c1.4-4,4.7-6.6,8.3-6.6c0.6,0,1.1,0.1,1.6,0.2
		v5.2c-0.6-0.1-1.1-0.2-1.9-0.2c-3.9,0-6.6,2.9-7.3,7c-0.1,0.7-0.2,1.6-0.2,2.5v16h-5.4V304.5z"/>
</g>
<path style="fill:#000FB0;" d="M548.1,443c0,5.8,0,17.1-1.2,30.8c0,0.1,0.1,0.1,0.1,0.1l0,0h-0.2c-2.3,3.1-4.8,6.2-7.2,9.2
	c-0.6,0.8-1.2,1.5-1.8,2.2c-0.9,1.1-1.8,2.1-2.6,3.2c-0.3,0.4-0.6,0.8-1,1.1c-2.9,3.5-5.9,6.9-9,10.3H525c-1,1.1-2,2.1-3,3.2
	c-4,4.2-8.2,8.3-12.4,12.2c-7.1,6.6-14.5,12.8-22.2,18.7H436l-16.3-28.1L397.8,468l-3.1-5.4c0,0-9.3-24.3,23-35.3l0.6-29.3l0.6-29
	l0.9-39.1l0.5-25.5c0,0,4.9-10.1,12.6-12.3c1.8-0.5,3.8-0.6,5.9,0c3.6,1,7.6,4,11.8,10l2.3,27.9l3.2,39.1l1.3,15.5
	c0,0,23.3-11.8,32.3,8.9c0,0,15.9-7,26,4.6c1.8,2,3.4,4.7,4.7,8c0,0,30.3,3.8,27.7,32.8C548,438.9,548.1,440.4,548.1,443z"/>
</svg>
